<?xml version="1.0" encoding="utf-8"?>
<svg version="1.1" xmlns:xlink="http://www.w3.org/1999/xlink" width="12px" height="12px" viewBox="204 266  12 12" xmlns="http://www.w3.org/2000/svg">
  <path d="M 210 266  C 213.36 266  216 268.64  216 272  C 216 275.36  213.36 278  210 278  C 206.64 278  204 275.36  204 272  C 204 268.64  206.64 266  210 266  Z " fill-rule="nonzero" fill="#ffffff" stroke="none" />
  <path d="M 210 266.5  C 213.08 266.5  215.5 268.92  215.5 272  C 215.5 275.08  213.08 277.5  210 277.5  C 206.92 277.5  204.5 275.08  204.5 272  C 204.5 268.92  206.92 266.5  210 266.5  Z " stroke-width="1" stroke="#797979" fill="none" />
  <path d="M 210 275  C 208.32 275  207 273.68  207 272  C 207 270.32  208.32 269  210 269  C 211.68 269  213 270.32  213 272  C 213 273.68  211.68 275  210 275  " fill-rule="nonzero" fill="#797979" stroke="none" />
</svg>