<?xml version="1.0" encoding="utf-8"?>
<svg version="1.1" xmlns:xlink="http://www.w3.org/1999/xlink" width="12px" height="12px" viewBox="318 266  12 12" xmlns="http://www.w3.org/2000/svg">
  <path d="M 324 266  C 327.36 266  330 268.64  330 272  C 330 275.36  327.36 278  324 278  C 320.64 278  318 275.36  318 272  C 318 268.64  320.64 266  324 266  Z " fill-rule="nonzero" fill="#ffffff" stroke="none" />
  <path d="M 324 266.5  C 327.08 266.5  329.5 268.92  329.5 272  C 329.5 275.08  327.08 277.5  324 277.5  C 320.92 277.5  318.5 275.08  318.5 272  C 318.5 268.92  320.92 266.5  324 266.5  Z " stroke-width="1" stroke="#797979" fill="none" />
  <path d="M 324 275  C 322.32 275  321 273.68  321 272  C 321 270.32  322.32 269  324 269  C 325.68 269  327 270.32  327 272  C 327 273.68  325.68 275  324 275  " fill-rule="nonzero" fill="#797979" stroke="none" />
</svg>