<?xml version="1.0" encoding="utf-8"?>
<svg version="1.1" xmlns:xlink="http://www.w3.org/1999/xlink" width="80px" height="65px" xmlns="http://www.w3.org/2000/svg">
  <g transform="matrix(1 0 0 1 -19 -255 )">
    <path d="M 79 2.93637045625053  C 79.7543557012247 1.31219054763699  78.4814904260824 0  76.9059858547526 0  L 2.84836984647219 0  C 1.27286527514234 0  0 1.31219054763699  0 2.93637045625053  L 0 61.663779581259  C 0 63.2879594898725  1.27286527514234 64.6001500375094  2.84836984647219 64  L 76.9059858547526 64  C 78.4814904260824 64.6001500375094  79.7543557012247 63.2879594898725  79 61.663779581259  L 79 2.93637045625053  Z M 73.3455235466621 55.2037645775081  L 73.3455235466621 58  L 6.40883215456266 58  L 6.40883215456266 54.3320295983086  L 18.7369328963257 39.2556025369979  L 32.0975677074349 55.589163199891  L 52.8817664309125 30.1895587533248  L 73.3455235466621 55.2037645775081  Z M 73 7  L 73 46.0826638477802  L 53.4247369328963 21.7291413762531  C 53.1398999482492 21.3804473845734  52.6236329135758 21.3804473845734  52.3387959289287 21.7291413762531  L 32.0975677074349 46.468062470163  L 19.2799033983094 30.8043613176021  C 18.9950664136621 30.4556673259224  18.4787993789892 30.4556673259224  18.193962394342 30.8043613176021  L 7 45.2109288685808  L 7 7  L 73 7  Z M 13.5297567707434 19.0864079656277  C 13.5297567707434 23.5460205960582  17.0368121442125 27.1614267203165  21.3627738485425 27.1614267203165  C 25.688735552872 27.1614267203165  29.1957909263411 23.5460205960582  29.1957909263411 19.0864079656277  C 29.1957909263411 14.6267953351975  25.688735552872 11.0113892109389  21.3627738485425 11.0113892109389  C 17.0368121442125 11.0113892109389  13.5297567707434 14.6267953351975  13.5297567707434 19.0864079656277  Z M 18.8704502328789 19.0864079656277  C 18.8704502328789 17.6641035258815  19.9830947041574 16.5170838164085  21.3627738485425 16.5170838164085  C 22.7424529929274 16.5170838164085  23.8550974642056 17.6641035258815  23.8550974642056 19.0864079656277  C 23.8550974642056 20.5087124053741  22.7424529929274 21.655732114847  21.3627738485425 21.655732114847  C 19.9830947041574 21.655732114847  18.8704502328789 20.5087124053741  18.8704502328789 19.0864079656277  Z " fill-rule="nonzero" fill="#c9c9c9" stroke="none" transform="matrix(1 0 0 1 19 255 )" />
  </g>
</svg>