<?xml version="1.0" encoding="utf-8"?>
<svg version="1.1" xmlns:xlink="http://www.w3.org/1999/xlink" width="24px" height="24px" xmlns="http://www.w3.org/2000/svg">
  <g transform="matrix(1 0 0 1 -23 -510 )">
    <path d="M 24 5.76  C 24 5.25  23.601 4.833  23.1 4.803  L 23.1 0.960000000000001  C 23.1 0.428999999999998  22.671 0  22.14 0  L 1.86 0  C 1.329 0  0.899999999999999 0.428999999999998  0.899999999999999 0.960000000000001  L 0.899999999999999 4.803  C 0.399000000000001 4.833  0 5.25  0 5.76  L 0 9.711  C 0 10.443  0.143999999999998 11.154  0.431999999999999 11.823  C 0.561 12.129  0.719999999999999 12.417  1 12.69  L 1 23.04  C 0.899999999999999 23.568  1.329 24  1.86 24  L 22.14 24  C 22.671 24  23.1 23.571  23 23.04  L 23 12.69  C 23.283 12.417  23.439 12.126  23.568 11.823  C 23.853 11.154  24 10.443  24 9.711  L 24 5.76  Z M 3.06 5  L 3.06 2.16  L 20.94 2.16  L 20.94 5  L 3.06 5  Z M 13.92 18.72  L 13.92 21.843  L 10.08 21.843  L 10.08 18.72  L 13.92 18.72  Z M 20.952 21.843  L 20.94 21.843  L 15.84 21.843  L 15.84 17.76  C 15.84 17.229  15.411 16.8  14.88 16.8  L 9.12 16.8  C 8.589 16.8  8.16 17.229  8.16 17.76  L 8.16 21.843  L 3.06 21.843  L 3.06 14.577  C 3.147 14.619  3.237 14.661  3.33 14.697  C 3.999 14.979  4.71 15.12  5.442 15.12  C 6.174 15.12  6.882 14.979  7.554 14.697  C 7.968 14.523  8.358 14.301  8.715 14.034  C 8.721 14.031  8.727 14.031  8.733 14.034  C 9.09 14.301  9.477 14.523  9.894 14.697  C 10.563 14.979  11.274 15.12  12.006 15.12  C 12.738 15.12  13.446 14.979  14.118 14.697  C 14.532 14.523  14.922 14.301  15.279 14.034  C 15.285 14.031  15.291 14.031  15.297 14.034  C 15.654 14.301  16.041 14.523  16.458 14.697  C 17.127 14.979  17.838 15.12  18.57 15.12  C 19.302 15.12  20.01 14.979  20.682 14.697  C 20.772 14.658  20.862 14.619  20.952 14.577  L 20.952 21.843  Z M 21.84 6.975  L 21.84 9.711  C 21.84 11.505  20.37 12.96  18.561 12.96  C 17.337 12.96  16.269 12.297  15.705 11.313  C 15.618 11.163  15.462 11.07  15.288 11.07  L 15.27 11.07  C 15.099 11.07  14.94 11.163  14.853 11.313  C 14.292 12.297  13.224 12.96  12 12.96  C 10.779 12.96  9.714 12.3  9.15 11.319  C 9.06 11.166  8.898 11.07  8.721 11.07  C 8.544 11.07  8.379 11.166  8.292 11.319  C 7.725 12.3  6.66 12.96  5.439 12.96  C 3.63 12.96  2.16 11.505  2.16 9.711  L 2.16 6.975  C 2.16 6.966  2.166 6.96  2.175 7  L 21.825 7  C 21.834 6.96  21.84 6.966  21.84 6.975  Z " fill-rule="nonzero" fill="#666666" stroke="none" transform="matrix(1 0 0 1 23 510 )" />
  </g>
</svg>