<?xml version="1.0" encoding="utf-8"?>
<svg version="1.1" xmlns:xlink="http://www.w3.org/1999/xlink" width="25px" height="25px" xmlns="http://www.w3.org/2000/svg">
  <g transform="matrix(1 0 0 1 -329 -965 )">
    <path d="M 341.5 965  C 348.5 965  354 970.5  354 977.5  C 354 984.5  348.5 990  341.5 990  C 334.5 990  329 984.5  329 977.5  C 329 970.5  334.5 965  341.5 965  Z " fill-rule="nonzero" fill="#e4e4e4" stroke="none" />
    <path d="M 341.5 965.5  C 348.22 965.5  353.5 970.78  353.5 977.5  C 353.5 984.22  348.22 989.5  341.5 989.5  C 334.78 989.5  329.5 984.22  329.5 977.5  C 329.5 970.78  334.78 965.5  341.5 965.5  Z " stroke-width="1" stroke="#f2f2f2" fill="none" />
  </g>
</svg>