<?xml version="1.0" encoding="utf-8"?>
<svg version="1.1" xmlns:xlink="http://www.w3.org/1999/xlink" width="18px" height="18px" xmlns="http://www.w3.org/2000/svg">
  <g transform="matrix(1 0 0 1 -336 -35 )">
    <path d="M 345 35  C 350.04 35  354 38.96  354 44  C 354 49.04  350.04 53  345 53  C 339.96 53  336 49.04  336 44  C 336 38.96  339.96 35  345 35  Z " fill-rule="nonzero" fill="#ffffff" stroke="none" fill-opacity="0" />
    <path d="M 345 35.5  C 349.76 35.5  353.5 39.24  353.5 44  C 353.5 48.76  349.76 52.5  345 52.5  C 340.24 52.5  336.5 48.76  336.5 44  C 336.5 39.24  340.24 35.5  345 35.5  Z " stroke-width="1" stroke="#272636" fill="none" />
  </g>
</svg>