<?xml version="1.0" encoding="utf-8"?>
<svg version="1.1" xmlns:xlink="http://www.w3.org/1999/xlink" width="4px" height="4px" xmlns="http://www.w3.org/2000/svg">
  <g transform="matrix(1 0 0 1 -297 -42 )">
    <path d="M 299 42  C 300.12 42  301 42.88  301 44  C 301 45.12  300.12 46  299 46  C 297.88 46  297 45.12  297 44  C 297 42.88  297.88 42  299 42  Z " fill-rule="nonzero" fill="#272636" stroke="none" />
    <path d="M 299 42.5  C 299.84 42.5  300.5 43.16  300.5 44  C 300.5 44.84  299.84 45.5  299 45.5  C 298.16 45.5  297.5 44.84  297.5 44  C 297.5 43.16  298.16 42.5  299 42.5  Z " stroke-width="1" stroke="#272636" fill="none" />
  </g>
</svg>