<?xml version="1.0" encoding="utf-8"?>
<svg version="1.1" xmlns:xlink="http://www.w3.org/1999/xlink" width="24px" height="24px" xmlns="http://www.w3.org/2000/svg">
  <g transform="matrix(1 0 0 1 -174 -1545 )">
    <path d="M 17.5553571428571 12.3455357142857  C 17.7910714285714 12.1741071428571  17.7910714285714 11.8258928571429  17.5553571428571 11.6544642857143  L 9.62410714285715 5.89553571428572  C 9.34017857142857 5.6892857142857  8.94642857142857 5.89017857142856  9 6.24107142857143  L 9 17.7589285714286  C 8.94642857142857 18.1098214285714  9.34285714285715 18.3080357142857  9.62410714285715 18.1044642857143  L 17.5553571428571 12.3455357142857  Z M 15.1205357142857 12  L 10.6553571428571 15.24375  L 10.6553571428571 8.75624999999999  L 15.1205357142857 12  Z M 24 12  C 24 5.3732142857143  18.6267857142857 0  12 0  C 5.3732142857143 0  0 5.3732142857143  0 12  C 0 18.6267857142857  5.3732142857143 24  12 24  C 18.6267857142857 24  24 18.6267857142857  24 12  Z M 21.9642857142857 12  C 21.9642857142857 17.5017857142857  17.5017857142857 21.9642857142857  12 21.9642857142857  C 6.4982142857143 21.9642857142857  2.03571428571428 17.5017857142857  2.03571428571428 12  C 2.03571428571428 6.4982142857143  6.4982142857143 2.03571428571428  12 2.03571428571428  C 17.5017857142857 2.03571428571428  21.9642857142857 6.4982142857143  21.9642857142857 12  Z " fill-rule="nonzero" fill="#ffffff" stroke="none" transform="matrix(1 0 0 1 174 1545 )" />
  </g>
</svg>