<?xml version="1.0" encoding="utf-8"?>
<svg version="1.1" xmlns:xlink="http://www.w3.org/1999/xlink" width="54px" height="43px" xmlns="http://www.w3.org/2000/svg">
  <g transform="matrix(1 0 0 1 -159 -1526 )">
    <path d="M 53 1.94252199413492  C 53.2082111436949 0.86806451612901  52.3590175953079 0  51.3079178885631 0  L 1.90029325513188 0  C 0.84919354838712 0  0 0.86806451612901  0 1.94252199413492  L 0 40.7929618768328  C 0 41.8674193548387  0.84919354838712 42.7354838709678  1.90029325513188 42  L 51.3079178885631 42  C 52.3590175953079 42.7354838709678  53.2082111436949 41.8674193548387  53 40.7929618768328  L 53 1.94252199413492  Z M 48.9325513196482 36.5194134897361  L 48.9325513196482 38  L 4.2756598240469 38  L 4.2756598240469 35.9427272727273  L 12.500366568915 25.9690909090909  L 21.4139296187683 36.7743695014663  L 35.2801319648094 19.9715542521994  L 48.9325513196482 36.5194134897361  Z M 49 5  L 49 30.4854545454546  L 35.6423753665689 14.3746627565982  C 35.4523460410558 14.1439882697947  35.107917888563 14.1439882697947  34.9178885630498 14.3746627565982  L 21.4139296187683 30.7404105571847  L 12.8626099706744 20.3782697947214  C 12.6725806451612 20.1475953079179  12.3281524926687 20.1475953079179  12.1381231671555 20.3782697947214  L 5 29.9087683284457  L 5 5  L 49 5  Z M 9.02639296187681 12.6263929618768  C 9.02639296187681 15.5765982404693  11.3661290322581 17.9683284457478  14.2521994134898 17.9683284457478  C 17.1382697947213 17.9683284457478  19.4780058651025 15.5765982404693  19.4780058651025 12.6263929618768  C 19.4780058651025 9.67618768328447  17.1382697947213 7.28445747800583  14.2521994134898 7.28445747800583  C 11.3661290322581 7.28445747800583  9.02639296187681 9.67618768328447  9.02639296187681 12.6263929618768  Z M 12.5894428152492 12.6263929618768  C 12.5894428152492 11.6854838709677  13.3317448680352 10.9266862170088  14.2521994134898 10.9266862170088  C 15.1726539589443 10.9266862170088  15.9149560117302 11.6854838709677  15.9149560117302 12.6263929618768  C 15.9149560117302 13.5673020527859  15.1726539589443 14.3260997067449  14.2521994134898 14.3260997067449  C 13.3317448680352 14.3260997067449  12.5894428152492 13.5673020527859  12.5894428152492 12.6263929618768  Z " fill-rule="nonzero" fill="#c9c9c9" stroke="none" transform="matrix(1 0 0 1 159 1526 )" />
  </g>
</svg>