<?xml version="1.0" encoding="utf-8"?>
<svg version="1.1" xmlns:xlink="http://www.w3.org/1999/xlink" width="12px" height="12px" viewBox="113 283  12 12" xmlns="http://www.w3.org/2000/svg">
  <path d="M 119 283  C 122.36 283  125 285.64  125 289  C 125 292.36  122.36 295  119 295  C 115.64 295  113 292.36  113 289  C 113 285.64  115.64 283  119 283  Z " fill-rule="nonzero" fill="#ffffff" stroke="none" />
  <path d="M 119 283.5  C 122.08 283.5  124.5 285.92  124.5 289  C 124.5 292.08  122.08 294.5  119 294.5  C 115.92 294.5  113.5 292.08  113.5 289  C 113.5 285.92  115.92 283.5  119 283.5  Z " stroke-width="1" stroke="#797979" fill="none" />
  <path d="M 119 292  C 117.32 292  116 290.68  116 289  C 116 287.32  117.32 286  119 286  C 120.68 286  122 287.32  122 289  C 122 290.68  120.68 292  119 292  " fill-rule="nonzero" fill="#797979" stroke="none" />
</svg>