<?xml version="1.0" encoding="utf-8"?>
<svg version="1.1" xmlns:xlink="http://www.w3.org/1999/xlink" width="12px" height="12px" viewBox="112 241  12 12" xmlns="http://www.w3.org/2000/svg">
  <path d="M 118 241  C 121.36 241  124 243.64  124 247  C 124 250.36  121.36 253  118 253  C 114.64 253  112 250.36  112 247  C 112 243.64  114.64 241  118 241  Z " fill-rule="nonzero" fill="#ffffff" stroke="none" />
  <path d="M 118 241.5  C 121.08 241.5  123.5 243.92  123.5 247  C 123.5 250.08  121.08 252.5  118 252.5  C 114.92 252.5  112.5 250.08  112.5 247  C 112.5 243.92  114.92 241.5  118 241.5  Z " stroke-width="1" stroke="#797979" fill="none" />
  <path d="M 118 250  C 116.32 250  115 248.68  115 247  C 115 245.32  116.32 244  118 244  C 119.68 244  121 245.32  121 247  C 121 248.68  119.68 250  118 250  " fill-rule="nonzero" fill="#797979" stroke="none" />
</svg>