<?xml version="1.0" encoding="utf-8"?>
<svg version="1.1" xmlns:xlink="http://www.w3.org/1999/xlink" width="12px" height="12px" viewBox="112 202  12 12" xmlns="http://www.w3.org/2000/svg">
  <path d="M 118 202  C 121.36 202  124 204.64  124 208  C 124 211.36  121.36 214  118 214  C 114.64 214  112 211.36  112 208  C 112 204.64  114.64 202  118 202  Z " fill-rule="nonzero" fill="#ffffff" stroke="none" />
  <path d="M 118 202.5  C 121.08 202.5  123.5 204.92  123.5 208  C 123.5 211.08  121.08 213.5  118 213.5  C 114.92 213.5  112.5 211.08  112.5 208  C 112.5 204.92  114.92 202.5  118 202.5  Z " stroke-width="1" stroke="#797979" fill="none" />
  <path d="M 118 211  C 116.32 211  115 209.68  115 208  C 115 206.32  116.32 205  118 205  C 119.68 205  121 206.32  121 208  C 121 209.68  119.68 211  118 211  " fill-rule="nonzero" fill="#797979" stroke="none" />
</svg>