<?xml version="1.0" encoding="utf-8"?>
<svg version="1.1" xmlns:xlink="http://www.w3.org/1999/xlink" width="12px" height="12px" viewBox="429 69  12 12" xmlns="http://www.w3.org/2000/svg">
  <path d="M 435 69  C 438.36 69  441 71.64  441 75  C 441 78.36  438.36 81  435 81  C 431.64 81  429 78.36  429 75  C 429 71.64  431.64 69  435 69  Z " fill-rule="nonzero" fill="#ffffff" stroke="none" />
  <path d="M 435 69.5  C 438.08 69.5  440.5 71.92  440.5 75  C 440.5 78.08  438.08 80.5  435 80.5  C 431.92 80.5  429.5 78.08  429.5 75  C 429.5 71.92  431.92 69.5  435 69.5  Z " stroke-width="1" stroke="#797979" fill="none" />
  <path d="M 435 78  C 433.32 78  432 76.68  432 75  C 432 73.32  433.32 72  435 72  C 436.68 72  438 73.32  438 75  C 438 76.68  436.68 78  435 78  " fill-rule="nonzero" fill="#797979" stroke="none" />
</svg>