<?xml version="1.0" encoding="utf-8"?>
<svg version="1.1" xmlns:xlink="http://www.w3.org/1999/xlink" width="12px" height="12px" viewBox="477 194  12 12" xmlns="http://www.w3.org/2000/svg">
  <path d="M 483 194  C 486.36 194  489 196.64  489 200  C 489 203.36  486.36 206  483 206  C 479.64 206  477 203.36  477 200  C 477 196.64  479.64 194  483 194  Z " fill-rule="nonzero" fill="#ffffff" stroke="none" />
  <path d="M 483 194.5  C 486.08 194.5  488.5 196.92  488.5 200  C 488.5 203.08  486.08 205.5  483 205.5  C 479.92 205.5  477.5 203.08  477.5 200  C 477.5 196.92  479.92 194.5  483 194.5  Z " stroke-width="1" stroke="#797979" fill="none" />
  <path d="M 483 203  C 481.32 203  480 201.68  480 200  C 480 198.32  481.32 197  483 197  C 484.68 197  486 198.32  486 200  C 486 201.68  484.68 203  483 203  " fill-rule="nonzero" fill="#797979" stroke="none" />
</svg>