<?xml version="1.0" encoding="utf-8"?>
<svg version="1.1" xmlns:xlink="http://www.w3.org/1999/xlink" width="12px" height="12px" viewBox="235 276  12 12" xmlns="http://www.w3.org/2000/svg">
  <path d="M 241 276  C 244.36 276  247 278.64  247 282  C 247 285.36  244.36 288  241 288  C 237.64 288  235 285.36  235 282  C 235 278.64  237.64 276  241 276  Z " fill-rule="nonzero" fill="#ffffff" stroke="none" />
  <path d="M 241 276.5  C 244.08 276.5  246.5 278.92  246.5 282  C 246.5 285.08  244.08 287.5  241 287.5  C 237.92 287.5  235.5 285.08  235.5 282  C 235.5 278.92  237.92 276.5  241 276.5  Z " stroke-width="1" stroke="#797979" fill="none" />
  <path d="M 241 285  C 239.32 285  238 283.68  238 282  C 238 280.32  239.32 279  241 279  C 242.68 279  244 280.32  244 282  C 244 283.68  242.68 285  241 285  " fill-rule="nonzero" fill="#797979" stroke="none" />
</svg>