<?xml version="1.0" encoding="utf-8"?>
<svg version="1.1" xmlns:xlink="http://www.w3.org/1999/xlink" width="24px" height="24px" xmlns="http://www.w3.org/2000/svg">
  <g transform="matrix(1 0 0 1 -69 0 )">
    <path d="M 12.0000234375 0.367453125  C 5.564390625 0.367453125  0.34734375 5.5845234375  0.34734375 12.02015625  C 0.34734375 18.4557890625  5.564390625 23.6728125  12 23.6728125  C 18.435609375 23.6728125  23.65265625 18.4557890625  23.65265625 12.02015625  C 23.65265625 5.5845234375  18.4356796875 0.367453125  12.000046875 0.367453125  Z M 13.5106875 12.02015625  L 16.99715625 15.5066015625  C 17.414296875 15.923859375  17.414296875 16.600125  16.99715625 17.0172890625  C 16.580015625 17.43440625  15.903609375 17.43440625  15.48646875 17.0172890625  L 12.0000234375 13.5308203125  L 8.5134609375 17.017265625  C 8.096296875 17.4343828125  7.4200546875 17.4343828125  7.0029140625 17.017265625  C 6.5856328125 16.6001015625  6.5856328125 15.9238359375  7.0029140625 15.506578125  L 10.4893359375 12.02015625  L 7.002890625 8.5336875  C 6.5856328125 8.116546875  6.5856328125 7.4401640625  7.002890625 7.0230234375  C 7.4200546875 6.6058828125  8.096296875 6.6058828125  8.5134375 7.0230234375  L 12.0000234375 10.50946875  L 15.48646875 7.0230234375  C 15.903609375 6.6058828125  16.580015625 6.6058828125  16.99715625 7.0230234375  C 17.414296875 7.4401640625  17.414296875 8.116546875  16.99715625 8.5336875  L 13.5106875 12.02015625  Z " fill-rule="nonzero" fill="#969799" stroke="none" transform="matrix(1 0 0 1 69 0 )" />
  </g>
</svg>