<?xml version="1.0" encoding="utf-8"?>
<svg version="1.1" xmlns:xlink="http://www.w3.org/1999/xlink" width="80px" height="80px" xmlns="http://www.w3.org/2000/svg">
  <defs>
    <linearGradient gradientUnits="userSpaceOnUse" x1="40" y1="12" x2="40" y2="92" id="LinearGradient1129">
      <stop id="Stop1130" stop-color="#f9f9f9" offset="0" />
      <stop id="Stop1131" stop-color="#ebebeb" offset="1" />
    </linearGradient>
    <linearGradient gradientUnits="userSpaceOnUse" x1="40" y1="12" x2="40" y2="92" id="LinearGradient1132">
      <stop id="Stop1133" stop-color="#f9f9f9" offset="0" />
      <stop id="Stop1134" stop-color="#ebebeb" offset="1" />
    </linearGradient>
  </defs>
  <g transform="matrix(1 0 0 1 0 -12 )">
    <path d="M 0.5 17  A 4.5 4.5 0 0 1 5 12.5 L 75 12.5  A 4.5 4.5 0 0 1 79.5 17 L 79.5 87  A 4.5 4.5 0 0 1 75 91.5 L 5 91.5  A 4.5 4.5 0 0 1 0.5 87 L 0.5 17  Z " fill-rule="nonzero" fill="url(#LinearGradient1129)" stroke="none" />
    <path d="M 0.5 17  A 4.5 4.5 0 0 1 5 12.5 L 75 12.5  A 4.5 4.5 0 0 1 79.5 17 L 79.5 87  A 4.5 4.5 0 0 1 75 91.5 L 5 91.5  A 4.5 4.5 0 0 1 0.5 87 L 0.5 17  Z " stroke-width="1" stroke="url(#LinearGradient1132)" fill="none" />
  </g>
</svg>