<?xml version="1.0" encoding="utf-8"?>
<svg version="1.1" xmlns:xlink="http://www.w3.org/1999/xlink" width="20px" height="22px" xmlns="http://www.w3.org/2000/svg">
  <g transform="matrix(1 0 0 1 -155 -584 )">
    <path d="M 165 584  C 170.6 584  175 588.84  175 595  C 175 601.16  170.6 606  165 606  C 159.4 606  155 601.16  155 595  C 155 588.84  159.4 584  165 584  Z " fill-rule="nonzero" fill="#1989fa" stroke="none" />
    <path d="M 165 584.5  C 170.32 584.5  174.5 589.12  174.5 595  C 174.5 600.88  170.32 605.5  165 605.5  C 159.68 605.5  155.5 600.88  155.5 595  C 155.5 589.12  159.68 584.5  165 584.5  Z " stroke-width="1" stroke="#1989fa" fill="none" />
  </g>
</svg>