<?xml version="1.0" encoding="utf-8"?>
<svg version="1.1" xmlns:xlink="http://www.w3.org/1999/xlink" width="16px" height="17px" xmlns="http://www.w3.org/2000/svg">
  <g transform="matrix(1 0 0 1 -370 -111 )">
    <path d="M 378 111  C 382.48 111  386 114.74  386 119.5  C 386 124.26  382.48 128  378 128  C 373.52 128  370 124.26  370 119.5  C 370 114.74  373.52 111  378 111  Z " fill-rule="nonzero" fill="#ffffff" stroke="none" fill-opacity="0" />
    <path d="M 378 111.5  C 382.2 111.5  385.5 115.02  385.5 119.5  C 385.5 123.98  382.2 127.5  378 127.5  C 373.8 127.5  370.5 123.98  370.5 119.5  C 370.5 115.02  373.8 111.5  378 111.5  Z " stroke-width="1" stroke="#272636" fill="none" />
  </g>
</svg>