<?xml version="1.0" encoding="utf-8"?>
<svg version="1.1" xmlns:xlink="http://www.w3.org/1999/xlink" width="5px" height="5px" xmlns="http://www.w3.org/2000/svg">
  <g transform="matrix(1 0 0 1 -376 -117 )">
    <path d="M 378.5 117  C 379.9 117  381 118.1  381 119.5  C 381 120.9  379.9 122  378.5 122  C 377.1 122  376 120.9  376 119.5  C 376 118.1  377.1 117  378.5 117  Z " fill-rule="nonzero" fill="#272636" stroke="none" />
    <path d="M 378.5 117.5  C 379.62 117.5  380.5 118.38  380.5 119.5  C 380.5 120.62  379.62 121.5  378.5 121.5  C 377.38 121.5  376.5 120.62  376.5 119.5  C 376.5 118.38  377.38 117.5  378.5 117.5  Z " stroke-width="1" stroke="#272636" fill="none" />
  </g>
</svg>