<?xml version="1.0" encoding="utf-8"?>
<svg version="1.1" xmlns:xlink="http://www.w3.org/1999/xlink" width="21px" height="20px" xmlns="http://www.w3.org/2000/svg">
  <g transform="matrix(1 0 0 1 -30 -42 )">
    <path d="M 6.53552794157611 0.0149068410325981  L 14.3344099320651 0.0149068410325981  C 15.392422357337 0.0149068410325981  16.3218633423913 0.756149082880256  16.5439751494564 1.77540372961948  C 16.7306832269021 2.63403727581522  17.5129192459237 3.25788819293484  18.4054658355977 3.25788819293484  C 19.7645962703804 3.25788819293484  20.8695652173913 4.34608695652173  20.8695652173913 5.6858385122282  L 20.8695652173913 16.9658385122282  C 20.8695652173913 18.3052173913043  19.7645962703804 19.3937888111413  18.4054658355977 19  L 2.46409938179352 19  C 1.10496894701089 19.3937888111413  0 18.3052173913043  0 16.9658385122282  L 0 5.6858385122282  C 0 4.34645963315211  1.10496894701089 3.25788819293484  2.46409938179352 3.25788819293484  C 3.35627329483691 3.25788819293484  4.13888199048915 2.63403725543481  4.32559006793485 1.77540372961948  C 4.54770185461962 0.756521739130221  5.4771428600543 0.0149068410325981  6.53552794157611 0.0149068410325981  Z M 15.6521739130434 10.8223602513585  C 15.6521739130434 7.94683230978262  13.3103105502717 5.60496894701078  10.4347826086956 5.60496894701078  C 7.5592546671196 5.60496894701078  5.21739130434787 7.94683230978262  5.21739130434787 10.8223602513585  C 5.21739130434787 13.6978881929349  7.55627329483696 16.0397515557065  10.4347826086956 16.0397515557065  C 13.3103105502717 16.0397515557065  15.6521739130434 13.6978881929349  15.6521739130434 10.8223602513585  Z M 7.45341615489133 10.8223602513585  C 7.45341615489133 9.17701862771742  8.79204970108685 7.84099379755435  10.4347826086956 7.84099379755435  C 12.0775155366848 7.84099379755435  13.4135403668478 9.1796273437501  13.4161490624999 10.8223602513585  C 13.4161490624999 12.4677018750001  12.0775155163043 13.8037267051629  10.4347826086956 13.8037267051629  C 8.78944098505428 13.8037267051629  7.45341615489133 12.4650931589674  7.45341615489133 10.8223602513585  Z " fill-rule="nonzero" fill="#dcdee0" stroke="none" transform="matrix(1 0 0 1 30 42 )" />
  </g>
</svg>