<?xml version="1.0" encoding="utf-8"?>
<svg version="1.1" xmlns:xlink="http://www.w3.org/1999/xlink" width="12px" height="12px" viewBox="676 700  12 12" xmlns="http://www.w3.org/2000/svg">
  <path d="M 682 700  C 685.36 700  688 702.64  688 706  C 688 709.36  685.36 712  682 712  C 678.64 712  676 709.36  676 706  C 676 702.64  678.64 700  682 700  Z " fill-rule="nonzero" fill="#ffffff" stroke="none" />
  <path d="M 682 700.5  C 685.08 700.5  687.5 702.92  687.5 706  C 687.5 709.08  685.08 711.5  682 711.5  C 678.92 711.5  676.5 709.08  676.5 706  C 676.5 702.92  678.92 700.5  682 700.5  Z " stroke-width="1" stroke="#797979" fill="none" />
  <path d="M 682 709  C 680.32 709  679 707.68  679 706  C 679 704.32  680.32 703  682 703  C 683.68 703  685 704.32  685 706  C 685 707.68  683.68 709  682 709  " fill-rule="nonzero" fill="#797979" stroke="none" />
</svg>