<?xml version="1.0" encoding="utf-8"?>
<svg version="1.1" xmlns:xlink="http://www.w3.org/1999/xlink" width="12px" height="12px" viewBox="676 735  12 12" xmlns="http://www.w3.org/2000/svg">
  <path d="M 682 735  C 685.36 735  688 737.64  688 741  C 688 744.36  685.36 747  682 747  C 678.64 747  676 744.36  676 741  C 676 737.64  678.64 735  682 735  Z " fill-rule="nonzero" fill="#ffffff" stroke="none" />
  <path d="M 682 735.5  C 685.08 735.5  687.5 737.92  687.5 741  C 687.5 744.08  685.08 746.5  682 746.5  C 678.92 746.5  676.5 744.08  676.5 741  C 676.5 737.92  678.92 735.5  682 735.5  Z " stroke-width="1" stroke="#797979" fill="none" />
  <path d="M 682 744  C 680.32 744  679 742.68  679 741  C 679 739.32  680.32 738  682 738  C 683.68 738  685 739.32  685 741  C 685 742.68  683.68 744  682 744  " fill-rule="nonzero" fill="#797979" stroke="none" />
</svg>