<?xml version="1.0" encoding="utf-8"?>
<svg version="1.1" xmlns:xlink="http://www.w3.org/1999/xlink" width="12px" height="12px" viewBox="339 190  12 12" xmlns="http://www.w3.org/2000/svg">
  <path d="M 345 190  C 348.36 190  351 192.64  351 196  C 351 199.36  348.36 202  345 202  C 341.64 202  339 199.36  339 196  C 339 192.64  341.64 190  345 190  Z " fill-rule="nonzero" fill="#ffffff" stroke="none" />
  <path d="M 345 190.5  C 348.08 190.5  350.5 192.92  350.5 196  C 350.5 199.08  348.08 201.5  345 201.5  C 341.92 201.5  339.5 199.08  339.5 196  C 339.5 192.92  341.92 190.5  345 190.5  Z " stroke-width="1" stroke="#797979" fill="none" />
  <path d="M 345 199  C 343.32 199  342 197.68  342 196  C 342 194.32  343.32 193  345 193  C 346.68 193  348 194.32  348 196  C 348 197.68  346.68 199  345 199  " fill-rule="nonzero" fill="#797979" stroke="none" />
</svg>