<?xml version="1.0" encoding="utf-8"?>
<svg version="1.1" xmlns:xlink="http://www.w3.org/1999/xlink" width="12px" height="12px" viewBox="339 143  12 12" xmlns="http://www.w3.org/2000/svg">
  <path d="M 345 143  C 348.36 143  351 145.64  351 149  C 351 152.36  348.36 155  345 155  C 341.64 155  339 152.36  339 149  C 339 145.64  341.64 143  345 143  Z " fill-rule="nonzero" fill="#ffffff" stroke="none" />
  <path d="M 345 143.5  C 348.08 143.5  350.5 145.92  350.5 149  C 350.5 152.08  348.08 154.5  345 154.5  C 341.92 154.5  339.5 152.08  339.5 149  C 339.5 145.92  341.92 143.5  345 143.5  Z " stroke-width="1" stroke="#797979" fill="none" />
  <path d="M 345 152  C 343.32 152  342 150.68  342 149  C 342 147.32  343.32 146  345 146  C 346.68 146  348 147.32  348 149  C 348 150.68  346.68 152  345 152  " fill-rule="nonzero" fill="#797979" stroke="none" />
</svg>