<?xml version="1.0" encoding="utf-8"?>
<svg version="1.1" xmlns:xlink="http://www.w3.org/1999/xlink" width="12px" height="12px" viewBox="285 344  12 12" xmlns="http://www.w3.org/2000/svg">
  <path d="M 291 344  C 294.36 344  297 346.64  297 350  C 297 353.36  294.36 356  291 356  C 287.64 356  285 353.36  285 350  C 285 346.64  287.64 344  291 344  Z " fill-rule="nonzero" fill="#ffffff" stroke="none" />
  <path d="M 291 344.5  C 294.08 344.5  296.5 346.92  296.5 350  C 296.5 353.08  294.08 355.5  291 355.5  C 287.92 355.5  285.5 353.08  285.5 350  C 285.5 346.92  287.92 344.5  291 344.5  Z " stroke-width="1" stroke="#797979" fill="none" />
  <path d="M 291 353  C 289.32 353  288 351.68  288 350  C 288 348.32  289.32 347  291 347  C 292.68 347  294 348.32  294 350  C 294 351.68  292.68 353  291 353  " fill-rule="nonzero" fill="#797979" stroke="none" />
</svg>