<?xml version="1.0" encoding="utf-8"?>
<svg version="1.1" xmlns:xlink="http://www.w3.org/1999/xlink" width="12px" height="12px" viewBox="235 75  12 12" xmlns="http://www.w3.org/2000/svg">
  <path d="M 241 75  C 244.36 75  247 77.64  247 81  C 247 84.36  244.36 87  241 87  C 237.64 87  235 84.36  235 81  C 235 77.64  237.64 75  241 75  Z " fill-rule="nonzero" fill="#ffffff" stroke="none" />
  <path d="M 241 75.5  C 244.08 75.5  246.5 77.92  246.5 81  C 246.5 84.08  244.08 86.5  241 86.5  C 237.92 86.5  235.5 84.08  235.5 81  C 235.5 77.92  237.92 75.5  241 75.5  Z " stroke-width="1" stroke="#797979" fill="none" />
  <path d="M 241 84  C 239.32 84  238 82.68  238 81  C 238 79.32  239.32 78  241 78  C 242.68 78  244 79.32  244 81  C 244 82.68  242.68 84  241 84  " fill-rule="nonzero" fill="#797979" stroke="none" />
</svg>