<?xml version="1.0" encoding="utf-8"?>
<svg version="1.1" xmlns:xlink="http://www.w3.org/1999/xlink" width="12px" height="12px" viewBox="421 574  12 12" xmlns="http://www.w3.org/2000/svg">
  <path d="M 427 574  C 430.36 574  433 576.64  433 580  C 433 583.36  430.36 586  427 586  C 423.64 586  421 583.36  421 580  C 421 576.64  423.64 574  427 574  Z " fill-rule="nonzero" fill="#ffffff" stroke="none" />
  <path d="M 427 574.5  C 430.08 574.5  432.5 576.92  432.5 580  C 432.5 583.08  430.08 585.5  427 585.5  C 423.92 585.5  421.5 583.08  421.5 580  C 421.5 576.92  423.92 574.5  427 574.5  Z " stroke-width="1" stroke="#797979" fill="none" />
  <path d="M 427 583  C 425.32 583  424 581.68  424 580  C 424 578.32  425.32 577  427 577  C 428.68 577  430 578.32  430 580  C 430 581.68  428.68 583  427 583  " fill-rule="nonzero" fill="#797979" stroke="none" />
</svg>