<?xml version="1.0" encoding="utf-8"?>
<svg version="1.1" xmlns:xlink="http://www.w3.org/1999/xlink" width="12px" height="12px" viewBox="477 75  12 12" xmlns="http://www.w3.org/2000/svg">
  <path d="M 483 75  C 486.36 75  489 77.64  489 81  C 489 84.36  486.36 87  483 87  C 479.64 87  477 84.36  477 81  C 477 77.64  479.64 75  483 75  Z " fill-rule="nonzero" fill="#ffffff" stroke="none" />
  <path d="M 483 75.5  C 486.08 75.5  488.5 77.92  488.5 81  C 488.5 84.08  486.08 86.5  483 86.5  C 479.92 86.5  477.5 84.08  477.5 81  C 477.5 77.92  479.92 75.5  483 75.5  Z " stroke-width="1" stroke="#797979" fill="none" />
  <path d="M 483 84  C 481.32 84  480 82.68  480 81  C 480 79.32  481.32 78  483 78  C 484.68 78  486 79.32  486 81  C 486 82.68  484.68 84  483 84  " fill-rule="nonzero" fill="#797979" stroke="none" />
</svg>