<?xml version="1.0" encoding="utf-8"?>
<svg version="1.1" xmlns:xlink="http://www.w3.org/1999/xlink" width="12px" height="12px" viewBox="369 75  12 12" xmlns="http://www.w3.org/2000/svg">
  <path d="M 375 75  C 378.36 75  381 77.64  381 81  C 381 84.36  378.36 87  375 87  C 371.64 87  369 84.36  369 81  C 369 77.64  371.64 75  375 75  Z " fill-rule="nonzero" fill="#ffffff" stroke="none" />
  <path d="M 375 75.5  C 378.08 75.5  380.5 77.92  380.5 81  C 380.5 84.08  378.08 86.5  375 86.5  C 371.92 86.5  369.5 84.08  369.5 81  C 369.5 77.92  371.92 75.5  375 75.5  Z " stroke-width="1" stroke="#797979" fill="none" />
  <path d="M 375 84  C 373.32 84  372 82.68  372 81  C 372 79.32  373.32 78  375 78  C 376.68 78  378 79.32  378 81  C 378 82.68  376.68 84  375 84  " fill-rule="nonzero" fill="#797979" stroke="none" />
</svg>