<?xml version="1.0" encoding="utf-8"?>
<svg version="1.1" xmlns:xlink="http://www.w3.org/1999/xlink" width="12px" height="12px" viewBox="287 574  12 12" xmlns="http://www.w3.org/2000/svg">
  <path d="M 293 574  C 296.36 574  299 576.64  299 580  C 299 583.36  296.36 586  293 586  C 289.64 586  287 583.36  287 580  C 287 576.64  289.64 574  293 574  Z " fill-rule="nonzero" fill="#ffffff" stroke="none" />
  <path d="M 293 574.5  C 296.08 574.5  298.5 576.92  298.5 580  C 298.5 583.08  296.08 585.5  293 585.5  C 289.92 585.5  287.5 583.08  287.5 580  C 287.5 576.92  289.92 574.5  293 574.5  Z " stroke-width="1" stroke="#797979" fill="none" />
  <path d="M 293 583  C 291.32 583  290 581.68  290 580  C 290 578.32  291.32 577  293 577  C 294.68 577  296 578.32  296 580  C 296 581.68  294.68 583  293 583  " fill-rule="nonzero" fill="#797979" stroke="none" />
</svg>