<?xml version="1.0" encoding="utf-8"?>
<svg version="1.1" xmlns:xlink="http://www.w3.org/1999/xlink" width="12px" height="12px" viewBox="420 302  12 12" xmlns="http://www.w3.org/2000/svg">
  <path d="M 426 302  C 429.36 302  432 304.64  432 308  C 432 311.36  429.36 314  426 314  C 422.64 314  420 311.36  420 308  C 420 304.64  422.64 302  426 302  Z " fill-rule="nonzero" fill="#ffffff" stroke="none" />
  <path d="M 426 302.5  C 429.08 302.5  431.5 304.92  431.5 308  C 431.5 311.08  429.08 313.5  426 313.5  C 422.92 313.5  420.5 311.08  420.5 308  C 420.5 304.92  422.92 302.5  426 302.5  Z " stroke-width="1" stroke="#797979" fill="none" />
  <path d="M 426 311  C 424.32 311  423 309.68  423 308  C 423 306.32  424.32 305  426 305  C 427.68 305  429 306.32  429 308  C 429 309.68  427.68 311  426 311  " fill-rule="nonzero" fill="#797979" stroke="none" />
</svg>