<?xml version="1.0" encoding="utf-8"?>
<svg version="1.1" xmlns:xlink="http://www.w3.org/1999/xlink" width="12px" height="12px" viewBox="420 618  12 12" xmlns="http://www.w3.org/2000/svg">
  <path d="M 426 618  C 429.36 618  432 620.64  432 624  C 432 627.36  429.36 630  426 630  C 422.64 630  420 627.36  420 624  C 420 620.64  422.64 618  426 618  Z " fill-rule="nonzero" fill="#ffffff" stroke="none" />
  <path d="M 426 618.5  C 429.08 618.5  431.5 620.92  431.5 624  C 431.5 627.08  429.08 629.5  426 629.5  C 422.92 629.5  420.5 627.08  420.5 624  C 420.5 620.92  422.92 618.5  426 618.5  Z " stroke-width="1" stroke="#797979" fill="none" />
  <path d="M 426 627  C 424.32 627  423 625.68  423 624  C 423 622.32  424.32 621  426 621  C 427.68 621  429 622.32  429 624  C 429 625.68  427.68 627  426 627  " fill-rule="nonzero" fill="#797979" stroke="none" />
</svg>