<?xml version="1.0" encoding="utf-8"?>
<svg version="1.1" xmlns:xlink="http://www.w3.org/1999/xlink" width="12px" height="12px" viewBox="286 618  12 12" xmlns="http://www.w3.org/2000/svg">
  <path d="M 292 618  C 295.36 618  298 620.64  298 624  C 298 627.36  295.36 630  292 630  C 288.64 630  286 627.36  286 624  C 286 620.64  288.64 618  292 618  Z " fill-rule="nonzero" fill="#ffffff" stroke="none" />
  <path d="M 292 618.5  C 295.08 618.5  297.5 620.92  297.5 624  C 297.5 627.08  295.08 629.5  292 629.5  C 288.92 629.5  286.5 627.08  286.5 624  C 286.5 620.92  288.92 618.5  292 618.5  Z " stroke-width="1" stroke="#797979" fill="none" />
  <path d="M 292 627  C 290.32 627  289 625.68  289 624  C 289 622.32  290.32 621  292 621  C 293.68 621  295 622.32  295 624  C 295 625.68  293.68 627  292 627  " fill-rule="nonzero" fill="#797979" stroke="none" />
</svg>