<?xml version="1.0" encoding="utf-8"?>
<svg version="1.1" xmlns:xlink="http://www.w3.org/1999/xlink" width="12px" height="12px" viewBox="419 344  12 12" xmlns="http://www.w3.org/2000/svg">
  <path d="M 425 344  C 428.36 344  431 346.64  431 350  C 431 353.36  428.36 356  425 356  C 421.64 356  419 353.36  419 350  C 419 346.64  421.64 344  425 344  Z " fill-rule="nonzero" fill="#ffffff" stroke="none" />
  <path d="M 425 344.5  C 428.08 344.5  430.5 346.92  430.5 350  C 430.5 353.08  428.08 355.5  425 355.5  C 421.92 355.5  419.5 353.08  419.5 350  C 419.5 346.92  421.92 344.5  425 344.5  Z " stroke-width="1" stroke="#797979" fill="none" />
  <path d="M 425 353  C 423.32 353  422 351.68  422 350  C 422 348.32  423.32 347  425 347  C 426.68 347  428 348.32  428 350  C 428 351.68  426.68 353  425 353  " fill-rule="nonzero" fill="#797979" stroke="none" />
</svg>