<?xml version="1.0" encoding="utf-8"?>
<svg version="1.1" xmlns:xlink="http://www.w3.org/1999/xlink" width="12px" height="12px" viewBox="369 157  12 12" xmlns="http://www.w3.org/2000/svg">
  <path d="M 375 157  C 378.36 157  381 159.64  381 163  C 381 166.36  378.36 169  375 169  C 371.64 169  369 166.36  369 163  C 369 159.64  371.64 157  375 157  Z " fill-rule="nonzero" fill="#ffffff" stroke="none" />
  <path d="M 375 157.5  C 378.08 157.5  380.5 159.92  380.5 163  C 380.5 166.08  378.08 168.5  375 168.5  C 371.92 168.5  369.5 166.08  369.5 163  C 369.5 159.92  371.92 157.5  375 157.5  Z " stroke-width="1" stroke="#797979" fill="none" />
  <path d="M 375 166  C 373.32 166  372 164.68  372 163  C 372 161.32  373.32 160  375 160  C 376.68 160  378 161.32  378 163  C 378 164.68  376.68 166  375 166  " fill-rule="nonzero" fill="#797979" stroke="none" />
</svg>