<?xml version="1.0" encoding="utf-8"?>
<svg version="1.1" xmlns:xlink="http://www.w3.org/1999/xlink" width="12px" height="12px" viewBox="287 258  12 12" xmlns="http://www.w3.org/2000/svg">
  <path d="M 293 258  C 296.36 258  299 260.64  299 264  C 299 267.36  296.36 270  293 270  C 289.64 270  287 267.36  287 264  C 287 260.64  289.64 258  293 258  Z " fill-rule="nonzero" fill="#ffffff" stroke="none" />
  <path d="M 293 258.5  C 296.08 258.5  298.5 260.92  298.5 264  C 298.5 267.08  296.08 269.5  293 269.5  C 289.92 269.5  287.5 267.08  287.5 264  C 287.5 260.92  289.92 258.5  293 258.5  Z " stroke-width="1" stroke="#797979" fill="none" />
  <path d="M 293 267  C 291.32 267  290 265.68  290 264  C 290 262.32  291.32 261  293 261  C 294.68 261  296 262.32  296 264  C 296 265.68  294.68 267  293 267  " fill-rule="nonzero" fill="#797979" stroke="none" />
</svg>