<?xml version="1.0" encoding="utf-8"?>
<svg version="1.1" xmlns:xlink="http://www.w3.org/1999/xlink" width="12px" height="12px" viewBox="222 155  12 12" xmlns="http://www.w3.org/2000/svg">
  <path d="M 228 155  C 231.36 155  234 157.64  234 161  C 234 164.36  231.36 167  228 167  C 224.64 167  222 164.36  222 161  C 222 157.64  224.64 155  228 155  Z " fill-rule="nonzero" fill="#ffffff" stroke="none" />
  <path d="M 228 155.5  C 231.08 155.5  233.5 157.92  233.5 161  C 233.5 164.08  231.08 166.5  228 166.5  C 224.92 166.5  222.5 164.08  222.5 161  C 222.5 157.92  224.92 155.5  228 155.5  Z " stroke-width="1" stroke="#797979" fill="none" />
  <path d="M 228 164  C 226.32 164  225 162.68  225 161  C 225 159.32  226.32 158  228 158  C 229.68 158  231 159.32  231 161  C 231 162.68  229.68 164  228 164  " fill-rule="nonzero" fill="#797979" stroke="none" />
</svg>