<?xml version="1.0" encoding="utf-8"?>
<svg version="1.1" xmlns:xlink="http://www.w3.org/1999/xlink" width="22px" height="22px" xmlns="http://www.w3.org/2000/svg">
  <g transform="matrix(1 0 0 1 -334 -73 )">
    <path d="M 3.35225000000003 17.32775  C 3.53375 17.50375  3.762 17.6  4.00675000000001 17.6  C 4.06175000000002 17.6  4.11675000000002 17.5945  4.17174999999997 17.58625  L 8.79725000000002 16.775  C 8.85225000000003 16.764  8.90449999999998 16.73925  8.94299999999998 16.698  L 20.60025 5.04075  C 20.7075 4.93350000000001  20.7075 4.76025  20.60025 4.65300000000001  L 16.02975 0.0797500000000042  C 15.9775 0.0275000000000034  15.90875 0  15.8345 0  C 15.76025 0  15.6915 0.0275000000000034  15.63925 0.0797500000000042  L 3.98200000000003 11.737  C 3.94074999999998 11.77825  3.916 11.82775  3.90499999999997 11.88275  L 3.09375 16.50825  C 3.04149999999999 16.8135  3.13499999999999 17.1105  3.35225000000003 17.32775  Z M 5.43124999999998 15.2515  L 5.86025000000001 12.804  L 15.8345 2.8325  L 17.85025 4.84825000000001  L 7.87599999999998 14.81975  L 5.43124999999998 15.2515  Z M 22 20.79  C 22 20.30325  21.60675 19.91  21.12 20  L 0.879999999999995 20  C 0.393250000000023 19.91  0 20.30325  0 20.79  L 0 21.78  C 0 21.901  0.0989999999999895 22  0.21999999999997 22  L 21.78 22  C 21.901 22  22 21.901  22 21.78  L 22 20.79  Z " fill-rule="nonzero" fill="#269afc" stroke="none" transform="matrix(1 0 0 1 334 73 )" />
  </g>
</svg>