<?xml version="1.0" encoding="utf-8"?>
<svg version="1.1" xmlns:xlink="http://www.w3.org/1999/xlink" width="170px" height="170px" xmlns="http://www.w3.org/2000/svg">
  <g transform="matrix(1 0 0 1 -72 -350 )">
    <path d="M 157 350  C 204.6 350  242 387.4  242 435  C 242 482.6  204.6 520  157 520  C 109.4 520  72 482.6  72 435  C 72 387.4  109.4 350  157 350  Z " fill-rule="nonzero" fill="#f2f2f2" stroke="none" />
    <path d="M 157 350.5  C 204.32 350.5  241.5 387.68  241.5 435  C 241.5 482.32  204.32 519.5  157 519.5  C 109.68 519.5  72.5 482.32  72.5 435  C 72.5 387.68  109.68 350.5  157 350.5  Z " stroke-width="1" stroke="#f2f2f2" fill="none" />
  </g>
</svg>