<?xml version="1.0" encoding="utf-8"?>
<svg version="1.1" xmlns:xlink="http://www.w3.org/1999/xlink" width="80px" height="61px" xmlns="http://www.w3.org/2000/svg">
  <g transform="matrix(1 0 0 1 -117 -405 )">
    <path d="M 79 2.76525329679538  C 79.7543557012247 1.23572256700538  78.4814904260825 0  76.9059858547525 0  L 2.84836984647221 0  C 1.27286527514232 0  0 1.23572256700538  0 2.76525329679538  L 0 58.0703192327007  C 0 59.5998499624906  1.27286527514232 60.8355725294959  2.84836984647221 60  L 76.9059858547525 60  C 78.4814904260825 60.8355725294959  79.7543557012247 59.5998499624906  79 58.0703192327007  L 79 2.76525329679538  Z M 73.3455235466621 51.9867619797512  L 73.3455235466621 54  L 6.40883215456266 54  L 6.40883215456266 51.1658274072649  L 18.7369328963257 36.9679800115318  L 32.0975677074349 52.3497014749556  L 52.8817664309125 28.4302604576765  L 73.3455235466621 51.9867619797512  Z M 73 7  L 73 43.3971939265808  L 53.4247369328963 20.4628743962849  C 53.1398999482491 20.1345005672905  52.6236329135758 20.1345005672905  52.3387959289287 20.4628743962849  L 32.0975677074349 43.7601334217851  L 19.2799033983094 29.0092353666929  C 18.9950664136622 28.6808615376984  18.4787993789892 28.6808615376984  18.193962394342 29.0092353666929  L 7 42.5762593540946  L 7 7  L 73 7  Z M 13.5297567707434 17.9741464291692  C 13.5297567707434 22.1738748736772  17.0368121442125 25.5785929953563  21.3627738485425 25.5785929953563  C 25.688735552872 25.5785929953563  29.1957909263411 22.1738748736772  29.1957909263411 17.9741464291692  C 29.1957909263411 13.7744179846615  25.688735552872 10.3696998629822  21.3627738485425 10.3696998629822  C 17.0368121442125 10.3696998629822  13.5297567707434 13.7744179846615  13.5297567707434 17.9741464291692  Z M 18.8704502328789 17.9741464291692  C 18.8704502328789 16.6347268635341  19.9830947041574 15.5545497944734  21.3627738485425 15.5545497944734  C 22.7424529929274 15.5545497944734  23.8550974642056 16.6347268635341  23.8550974642056 17.9741464291692  C 23.8550974642056 19.3135659948044  22.7424529929274 20.3937430638651  21.3627738485425 20.3937430638651  C 19.9830947041574 20.3937430638651  18.8704502328789 19.3135659948044  18.8704502328789 17.9741464291692  Z " fill-rule="nonzero" fill="#e4e4e4" stroke="none" transform="matrix(1 0 0 1 117 405 )" />
  </g>
</svg>