<?xml version="1.0" encoding="utf-8"?>
<svg version="1.1" xmlns:xlink="http://www.w3.org/1999/xlink" width="54px" height="44px" xmlns="http://www.w3.org/2000/svg">
  <g transform="matrix(1 0 0 1 -22 -26 )">
    <path d="M 53 1.98749149875317  C 53.8733137829911 0.888160263505284  53.0135053152493 0  51.9492668621701 0  L 1.92404692082101 0  C 0.85980846774196 0  0 0.888160263505284  0 1.98749149875317  L 0 41.7373214738162  C 0 42.836652709064  0.85980846774196 43.7248129725693  1.92404692082101 43  L 51.9492668621701 43  C 53.0135053152493 43.7248129725693  53.8733137829911 42.836652709064  53 41.7373214738162  L 53 1.98749149875317  Z M 49.5442082111438 37.3648401765593  L 49.5442082111438 39  L 4.32910557184749 39  L 4.32910557184749 36.7748036378669  L 12.6566211510264 26.5702769739561  L 21.6816037390029 37.6256984357706  L 35.7211336143695 20.4338969715558  L 49.5442082111438 37.3648401765593  Z M 49 5  L 49 31.1911947085573  L 36.087905058651 14.7074370907733  C 35.895500366569 14.4714224752964  35.54676686217 14.4714224752964  35.3543621700879 14.7074370907733  L 21.6816037390029 31.4520529677686  L 13.0233925953079 20.8500280041073  C 12.8309879032258 20.6140133886303  12.482254398827 20.6140133886303  12.289849706745 20.8500280041073  L 5 30.6011581698649  L 5 5  L 49 5  Z M 9.13922287390027 12.9186947418954  C 9.13922287390027 15.9371974556269  11.5082056451613 18.3842963634667  14.4303519061585 18.3842963634667  C 17.3524981671553 18.3842963634667  19.7214809384163 15.9371974556269  19.7214809384163 12.9186947418954  C 19.7214809384163 9.90019202816413  17.3524981671553 7.45309312032428  14.4303519061585 7.45309312032428  C 11.5082056451613 7.45309312032428  9.13922287390027 9.90019202816413  9.13922287390027 12.9186947418954  Z M 12.7468108504398 12.9186947418954  C 12.7468108504398 11.9560035471869  13.4983916788857 11.1796396804865  14.4303519061585 11.1796396804865  C 15.3623121334311 11.1796396804865  16.1138929618768 11.9560035471869  16.1138929618768 12.9186947418954  C 16.1138929618768 13.881385936604  15.3623121334311 14.6577498033045  14.4303519061585 14.6577498033045  C 13.4983916788857 14.6577498033045  12.7468108504398 13.881385936604  12.7468108504398 12.9186947418954  Z " fill-rule="nonzero" fill="#c9c9c9" stroke="none" transform="matrix(1 0 0 1 22 26 )" />
  </g>
</svg>