<?xml version="1.0" encoding="utf-8"?>
<svg version="1.1" xmlns:xlink="http://www.w3.org/1999/xlink" width="10px" height="17px" preserveAspectRatio="xMidYMin meet" viewBox="299 805  8 17" xmlns="http://www.w3.org/2000/svg">
  <defs>
    <mask fill="white" id="clip1173">
      <path d="M 573 791  L 693 791  L 693 829  L 573 829  Z M 294 714  L 693 714  L 693 831  L 294 831  Z " fill-rule="evenodd" />
    </mask>
  </defs>
  <path d="M 388 717.5  L 630 717.5  A 5 5 0 0 1 635.5 722.5 L 635.5 805  A 5 5 0 0 1 630.5 810.5 L 308 810.5  A 5 5 0 0 0 303.5 815.5 L 303.5 821  " stroke-width="1" stroke="#777777" fill="none" mask="url(#clip1173)" />
  <path d="M 308.146446609407 815.946446609407  L 303.5 820.592893218814  L 298.853553390593 815.946446609407  L 298.146446609407 816.653553390593  L 303.146446609407 821.653553390593  L 303.5 822.007106781187  L 303.853553390593 821.653553390593  L 308.853553390593 816.653553390593  L 308.146446609407 815.946446609407  Z " fill-rule="nonzero" fill="#777777" stroke="none" mask="url(#clip1173)" />
</svg>