<?xml version="1.0" encoding="utf-8"?>
<svg version="1.1" xmlns:xlink="http://www.w3.org/1999/xlink" width="89px" height="139px" xmlns="http://www.w3.org/2000/svg">
  <g transform="matrix(1 0 0 1 -168 -366 )">
    <path d="M 168.5 484.5  C 168.5 484.5  168.5 366.5  168.5 366.5  C 168.5 366.5  256.5 366.5  256.5 366.5  C 256.5 366.5  256.5 484.5  256.5 484.5  C 256.5 484.5  214.56677036198 484.5  214.56677036198 484.5  C 214.56677036198 484.5  200.310869565217 504.148582371568  200.310869565217 504.148582371568  C 200.310869565217 504.148582371568  186.054968768455 484.5  186.054968768455 484.5  C 186.054968768455 484.5  168.5 484.5  168.5 484.5  Z " fill-rule="nonzero" fill="#ffffff" stroke="none" />
    <path d="M 168 485  C 168 485  168 366  168 366  C 168 366  257 366  257 366  C 257 366  257 485  257 485  C 257 485  214.821739130435 485  214.821739130435 485  C 214.821739130435 485  200.310869565217 505  200.310869565217 505  C 200.310869565217 505  185.8 485  185.8 485  C 185.8 485  168 485  168 485  Z M 169 484  C 169 484  186.30993753691 484  186.30993753691 484  C 186.30993753691 484  200.310869565217 503.297164743136  200.310869565217 503.297164743136  C 200.310869565217 503.297164743136  214.311801593525 484  214.311801593525 484  C 214.311801593525 484  256 484  256 484  C 256 484  256 367  256 367  C 256 367  169 367  169 367  C 169 367  169 484  169 484  Z " fill-rule="nonzero" fill="#d7d7d7" stroke="none" />
  </g>
</svg>