<?xml version="1.0" encoding="utf-8"?>
<svg version="1.1" xmlns:xlink="http://www.w3.org/1999/xlink" width="12px" height="12px" viewBox="807 103  12 12" xmlns="http://www.w3.org/2000/svg">
  <path d="M 813 103  C 816.36 103  819 105.64  819 109  C 819 112.36  816.36 115  813 115  C 809.64 115  807 112.36  807 109  C 807 105.64  809.64 103  813 103  Z " fill-rule="nonzero" fill="#ffffff" stroke="none" />
  <path d="M 813 103.5  C 816.08 103.5  818.5 105.92  818.5 109  C 818.5 112.08  816.08 114.5  813 114.5  C 809.92 114.5  807.5 112.08  807.5 109  C 807.5 105.92  809.92 103.5  813 103.5  Z " stroke-width="1" stroke="#797979" fill="none" />
  <path d="M 813 112  C 811.32 112  810 110.68  810 109  C 810 107.32  811.32 106  813 106  C 814.68 106  816 107.32  816 109  C 816 110.68  814.68 112  813 112  " fill-rule="nonzero" fill="#797979" stroke="none" />
</svg>