<?xml version="1.0" encoding="utf-8"?>
<svg version="1.1" xmlns:xlink="http://www.w3.org/1999/xlink" width="12px" height="12px" viewBox="168 255  12 12" xmlns="http://www.w3.org/2000/svg">
  <path d="M 174 255  C 177.36 255  180 257.64  180 261  C 180 264.36  177.36 267  174 267  C 170.64 267  168 264.36  168 261  C 168 257.64  170.64 255  174 255  Z " fill-rule="nonzero" fill="#ffffff" stroke="none" />
  <path d="M 174 255.5  C 177.08 255.5  179.5 257.92  179.5 261  C 179.5 264.08  177.08 266.5  174 266.5  C 170.92 266.5  168.5 264.08  168.5 261  C 168.5 257.92  170.92 255.5  174 255.5  Z " stroke-width="1" stroke="#797979" fill="none" />
  <path d="M 174 264  C 172.32 264  171 262.68  171 261  C 171 259.32  172.32 258  174 258  C 175.68 258  177 259.32  177 261  C 177 262.68  175.68 264  174 264  " fill-rule="nonzero" fill="#797979" stroke="none" />
</svg>