<?xml version="1.0" encoding="utf-8"?>
<svg version="1.1" xmlns:xlink="http://www.w3.org/1999/xlink" width="12px" height="12px" viewBox="688 103  12 12" xmlns="http://www.w3.org/2000/svg">
  <path d="M 694 103  C 697.36 103  700 105.64  700 109  C 700 112.36  697.36 115  694 115  C 690.64 115  688 112.36  688 109  C 688 105.64  690.64 103  694 103  Z " fill-rule="nonzero" fill="#ffffff" stroke="none" />
  <path d="M 694 103.5  C 697.08 103.5  699.5 105.92  699.5 109  C 699.5 112.08  697.08 114.5  694 114.5  C 690.92 114.5  688.5 112.08  688.5 109  C 688.5 105.92  690.92 103.5  694 103.5  Z " stroke-width="1" stroke="#797979" fill="none" />
  <path d="M 694 112  C 692.32 112  691 110.68  691 109  C 691 107.32  692.32 106  694 106  C 695.68 106  697 107.32  697 109  C 697 110.68  695.68 112  694 112  " fill-rule="nonzero" fill="#797979" stroke="none" />
</svg>