<?xml version="1.0" encoding="utf-8"?>
<svg version="1.1" xmlns:xlink="http://www.w3.org/1999/xlink" width="12px" height="12px" viewBox="420 511  12 12" xmlns="http://www.w3.org/2000/svg">
  <path d="M 426 511  C 429.36 511  432 513.64  432 517  C 432 520.36  429.36 523  426 523  C 422.64 523  420 520.36  420 517  C 420 513.64  422.64 511  426 511  Z " fill-rule="nonzero" fill="#ffffff" stroke="none" />
  <path d="M 426 511.5  C 429.08 511.5  431.5 513.92  431.5 517  C 431.5 520.08  429.08 522.5  426 522.5  C 422.92 522.5  420.5 520.08  420.5 517  C 420.5 513.92  422.92 511.5  426 511.5  Z " stroke-width="1" stroke="#797979" fill="none" />
  <path d="M 426 520  C 424.32 520  423 518.68  423 517  C 423 515.32  424.32 514  426 514  C 427.68 514  429 515.32  429 517  C 429 518.68  427.68 520  426 520  " fill-rule="nonzero" fill="#797979" stroke="none" />
</svg>