<?xml version="1.0" encoding="utf-8"?>
<svg version="1.1" xmlns:xlink="http://www.w3.org/1999/xlink" width="12px" height="12px" viewBox="320 511  12 12" xmlns="http://www.w3.org/2000/svg">
  <path d="M 326 511  C 329.36 511  332 513.64  332 517  C 332 520.36  329.36 523  326 523  C 322.64 523  320 520.36  320 517  C 320 513.64  322.64 511  326 511  Z " fill-rule="nonzero" fill="#ffffff" stroke="none" />
  <path d="M 326 511.5  C 329.08 511.5  331.5 513.92  331.5 517  C 331.5 520.08  329.08 522.5  326 522.5  C 322.92 522.5  320.5 520.08  320.5 517  C 320.5 513.92  322.92 511.5  326 511.5  Z " stroke-width="1" stroke="#797979" fill="none" />
  <path d="M 326 520  C 324.32 520  323 518.68  323 517  C 323 515.32  324.32 514  326 514  C 327.68 514  329 515.32  329 517  C 329 518.68  327.68 520  326 520  " fill-rule="nonzero" fill="#797979" stroke="none" />
</svg>