<?xml version="1.0" encoding="utf-8"?>
<svg version="1.1" xmlns:xlink="http://www.w3.org/1999/xlink" width="12px" height="12px" viewBox="196 511  12 12" xmlns="http://www.w3.org/2000/svg">
  <path d="M 202 511  C 205.36 511  208 513.64  208 517  C 208 520.36  205.36 523  202 523  C 198.64 523  196 520.36  196 517  C 196 513.64  198.64 511  202 511  Z " fill-rule="nonzero" fill="#ffffff" stroke="none" />
  <path d="M 202 511.5  C 205.08 511.5  207.5 513.92  207.5 517  C 207.5 520.08  205.08 522.5  202 522.5  C 198.92 522.5  196.5 520.08  196.5 517  C 196.5 513.92  198.92 511.5  202 511.5  Z " stroke-width="1" stroke="#797979" fill="none" />
  <path d="M 202 520  C 200.32 520  199 518.68  199 517  C 199 515.32  200.32 514  202 514  C 203.68 514  205 515.32  205 517  C 205 518.68  203.68 520  202 520  " fill-rule="nonzero" fill="#797979" stroke="none" />
</svg>