<?xml version="1.0" encoding="utf-8"?>
<svg version="1.1" xmlns:xlink="http://www.w3.org/1999/xlink" width="12px" height="12px" viewBox="123 173  12 12" xmlns="http://www.w3.org/2000/svg">
  <path d="M 129 173  C 132.36 173  135 175.64  135 179  C 135 182.36  132.36 185  129 185  C 125.64 185  123 182.36  123 179  C 123 175.64  125.64 173  129 173  Z " fill-rule="nonzero" fill="#ffffff" stroke="none" />
  <path d="M 129 173.5  C 132.08 173.5  134.5 175.92  134.5 179  C 134.5 182.08  132.08 184.5  129 184.5  C 125.92 184.5  123.5 182.08  123.5 179  C 123.5 175.92  125.92 173.5  129 173.5  Z " stroke-width="1" stroke="#797979" fill="none" />
  <path d="M 129 182  C 127.32 182  126 180.68  126 179  C 126 177.32  127.32 176  129 176  C 130.68 176  132 177.32  132 179  C 132 180.68  130.68 182  129 182  " fill-rule="nonzero" fill="#797979" stroke="none" />
</svg>