<?xml version="1.0" encoding="utf-8"?>
<svg version="1.1" xmlns:xlink="http://www.w3.org/1999/xlink" width="12px" height="12px" viewBox="123 201  12 12" xmlns="http://www.w3.org/2000/svg">
  <path d="M 129 201  C 132.36 201  135 203.64  135 207  C 135 210.36  132.36 213  129 213  C 125.64 213  123 210.36  123 207  C 123 203.64  125.64 201  129 201  Z " fill-rule="nonzero" fill="#ffffff" stroke="none" />
  <path d="M 129 201.5  C 132.08 201.5  134.5 203.92  134.5 207  C 134.5 210.08  132.08 212.5  129 212.5  C 125.92 212.5  123.5 210.08  123.5 207  C 123.5 203.92  125.92 201.5  129 201.5  Z " stroke-width="1" stroke="#797979" fill="none" />
  <path d="M 129 210  C 127.32 210  126 208.68  126 207  C 126 205.32  127.32 204  129 204  C 130.68 204  132 205.32  132 207  C 132 208.68  130.68 210  129 210  " fill-rule="nonzero" fill="#797979" stroke="none" />
</svg>