<?xml version="1.0" encoding="utf-8"?>
<svg version="1.1" xmlns:xlink="http://www.w3.org/1999/xlink" width="12px" height="12px" viewBox="123 110  12 12" xmlns="http://www.w3.org/2000/svg">
  <path d="M 129 110  C 132.36 110  135 112.64  135 116  C 135 119.36  132.36 122  129 122  C 125.64 122  123 119.36  123 116  C 123 112.64  125.64 110  129 110  Z " fill-rule="nonzero" fill="#ffffff" stroke="none" />
  <path d="M 129 110.5  C 132.08 110.5  134.5 112.92  134.5 116  C 134.5 119.08  132.08 121.5  129 121.5  C 125.92 121.5  123.5 119.08  123.5 116  C 123.5 112.92  125.92 110.5  129 110.5  Z " stroke-width="1" stroke="#797979" fill="none" />
  <path d="M 129 119  C 127.32 119  126 117.68  126 116  C 126 114.32  127.32 113  129 113  C 130.68 113  132 114.32  132 116  C 132 117.68  130.68 119  129 119  " fill-rule="nonzero" fill="#797979" stroke="none" />
</svg>