<?xml version="1.0" encoding="utf-8"?>
<svg version="1.1" xmlns:xlink="http://www.w3.org/1999/xlink" width="12px" height="12px" viewBox="421 72  12 12" xmlns="http://www.w3.org/2000/svg">
  <path d="M 427 72  C 430.36 72  433 74.64  433 78  C 433 81.36  430.36 84  427 84  C 423.64 84  421 81.36  421 78  C 421 74.64  423.64 72  427 72  Z " fill-rule="nonzero" fill="#ffffff" stroke="none" />
  <path d="M 427 72.5  C 430.08 72.5  432.5 74.92  432.5 78  C 432.5 81.08  430.08 83.5  427 83.5  C 423.92 83.5  421.5 81.08  421.5 78  C 421.5 74.92  423.92 72.5  427 72.5  Z " stroke-width="1" stroke="#797979" fill="none" />
  <path d="M 427 81  C 425.32 81  424 79.68  424 78  C 424 76.32  425.32 75  427 75  C 428.68 75  430 76.32  430 78  C 430 79.68  428.68 81  427 81  " fill-rule="nonzero" fill="#797979" stroke="none" />
</svg>