<?xml version="1.0" encoding="utf-8"?>
<svg version="1.1" xmlns:xlink="http://www.w3.org/1999/xlink" width="12px" height="12px" viewBox="126 118  12 12" xmlns="http://www.w3.org/2000/svg">
  <path d="M 132 118  C 135.36 118  138 120.64  138 124  C 138 127.36  135.36 130  132 130  C 128.64 130  126 127.36  126 124  C 126 120.64  128.64 118  132 118  Z " fill-rule="nonzero" fill="#ffffff" stroke="none" />
  <path d="M 132 118.5  C 135.08 118.5  137.5 120.92  137.5 124  C 137.5 127.08  135.08 129.5  132 129.5  C 128.92 129.5  126.5 127.08  126.5 124  C 126.5 120.92  128.92 118.5  132 118.5  Z " stroke-width="1" stroke="#797979" fill="none" />
  <path d="M 132 127  C 130.32 127  129 125.68  129 124  C 129 122.32  130.32 121  132 121  C 133.68 121  135 122.32  135 124  C 135 125.68  133.68 127  132 127  " fill-rule="nonzero" fill="#797979" stroke="none" />
</svg>