<?xml version="1.0" encoding="utf-8"?>
<svg version="1.1" xmlns:xlink="http://www.w3.org/1999/xlink" width="12px" height="12px" viewBox="461 41  12 12" xmlns="http://www.w3.org/2000/svg">
  <path d="M 467 41  C 470.36 41  473 43.64  473 47  C 473 50.36  470.36 53  467 53  C 463.64 53  461 50.36  461 47  C 461 43.64  463.64 41  467 41  Z " fill-rule="nonzero" fill="#ffffff" stroke="none" />
  <path d="M 467 41.5  C 470.08 41.5  472.5 43.92  472.5 47  C 472.5 50.08  470.08 52.5  467 52.5  C 463.92 52.5  461.5 50.08  461.5 47  C 461.5 43.92  463.92 41.5  467 41.5  Z " stroke-width="1" stroke="#797979" fill="none" />
  <path d="M 467 50  C 465.32 50  464 48.68  464 47  C 464 45.32  465.32 44  467 44  C 468.68 44  470 45.32  470 47  C 470 48.68  468.68 50  467 50  " fill-rule="nonzero" fill="#797979" stroke="none" />
</svg>