<?xml version="1.0" encoding="utf-8"?>
<svg version="1.1" xmlns:xlink="http://www.w3.org/1999/xlink" width="12px" height="12px" viewBox="461 67  12 12" xmlns="http://www.w3.org/2000/svg">
  <path d="M 467 67  C 470.36 67  473 69.64  473 73  C 473 76.36  470.36 79  467 79  C 463.64 79  461 76.36  461 73  C 461 69.64  463.64 67  467 67  Z " fill-rule="nonzero" fill="#ffffff" stroke="none" />
  <path d="M 467 67.5  C 470.08 67.5  472.5 69.92  472.5 73  C 472.5 76.08  470.08 78.5  467 78.5  C 463.92 78.5  461.5 76.08  461.5 73  C 461.5 69.92  463.92 67.5  467 67.5  Z " stroke-width="1" stroke="#797979" fill="none" />
  <path d="M 467 76  C 465.32 76  464 74.68  464 73  C 464 71.32  465.32 70  467 70  C 468.68 70  470 71.32  470 73  C 470 74.68  468.68 76  467 76  " fill-rule="nonzero" fill="#797979" stroke="none" />
</svg>