<?xml version="1.0" encoding="utf-8"?>
<svg version="1.1" xmlns:xlink="http://www.w3.org/1999/xlink" width="12px" height="12px" viewBox="470 306  12 12" xmlns="http://www.w3.org/2000/svg">
  <path d="M 476 306  C 479.36 306  482 308.64  482 312  C 482 315.36  479.36 318  476 318  C 472.64 318  470 315.36  470 312  C 470 308.64  472.64 306  476 306  Z " fill-rule="nonzero" fill="#ffffff" stroke="none" />
  <path d="M 476 306.5  C 479.08 306.5  481.5 308.92  481.5 312  C 481.5 315.08  479.08 317.5  476 317.5  C 472.92 317.5  470.5 315.08  470.5 312  C 470.5 308.92  472.92 306.5  476 306.5  Z " stroke-width="1" stroke="#797979" fill="none" />
  <path d="M 476 315  C 474.32 315  473 313.68  473 312  C 473 310.32  474.32 309  476 309  C 477.68 309  479 310.32  479 312  C 479 313.68  477.68 315  476 315  " fill-rule="nonzero" fill="#797979" stroke="none" />
</svg>