<?xml version="1.0" encoding="utf-8"?>
<svg version="1.1" xmlns:xlink="http://www.w3.org/1999/xlink" width="85px" height="70px" xmlns="http://www.w3.org/2000/svg">
  <g transform="matrix(1 0 0 1 -461 -124 )">
    <path d="M 462 128  A 3 3 0 0 1 465 125 L 542 125  A 3 3 0 0 1 545 128 L 545 190  A 3 3 0 0 1 542 193 L 465 193  A 3 3 0 0 1 462 190 L 462 128  Z " fill-rule="nonzero" fill="#f6f6f6" stroke="none" />
    <path d="M 461.5 128  A 3.5 3.5 0 0 1 465 124.5 L 542 124.5  A 3.5 3.5 0 0 1 545.5 128 L 545.5 190  A 3.5 3.5 0 0 1 542 193.5 L 465 193.5  A 3.5 3.5 0 0 1 461.5 190 L 461.5 128  Z " stroke-width="1" stroke="#000000" fill="none" stroke-opacity="0.0470588235294118" />
  </g>
</svg>