<?xml version="1.0" encoding="utf-8"?>
<svg version="1.1" xmlns:xlink="http://www.w3.org/1999/xlink" width="120px" height="120px" xmlns="http://www.w3.org/2000/svg">
  <g transform="matrix(1 0 0 1 -82 -184 )">
    <path d="M 55 1.25  C 54.375 0.5625  53.8125 0  53.125 0  L 5 0  C 2.234375 0  0 2.234375  0 5  L 0 53.125  C 0 53.8125  0.5625 54.375  1.25 55  L 53.125 55  C 53.8125 54.375  54.375 53.8125  55 53.125  L 55 1.25  Z M 45 10  L 45 45  L 10 45  L 10 10  L 45 10  Z M 21.5625 31.5625  C 21.5625 32.25  22.125 32.8125  22.8125 32.8125  L 31.5625 32.8125  C 32.25 32.8125  32.8125 32.25  32.8125 31.5625  L 32.8125 22.8125  C 32.8125 22.125  32.25 21.5625  31.5625 21.5625  L 22.8125 21.5625  C 22.125 21.5625  21.5625 22.125  21.5625 22.8125  L 21.5625 31.5625  Z M 55 66.875  C 54.375 66.1875  53.8125 65.625  53.125 65  L 1.25 65  C 0.5625 65.625  0 66.1875  0 66.875  L 0 115  C 0 117.765625  2.234375 120  5 120  L 53.125 120  C 53.8125 120  54.375 119.4375  55 118.75  L 55 66.875  Z M 45 75  L 45 110  L 10 110  L 10 75  L 45 75  Z M 21.5625 97.1875  C 21.5625 97.875  22.125 98.4375  22.8125 98.4375  L 31.5625 98.4375  C 32.25 98.4375  32.8125 97.875  32.8125 97.1875  L 32.8125 88.4375  C 32.8125 87.75  32.25 87.1875  31.5625 87.1875  L 22.8125 87.1875  C 22.125 87.1875  21.5625 87.75  21.5625 88.4375  L 21.5625 97.1875  Z M 120 5  C 120 2.234375  117.765625 0  115 0  L 66.875 0  C 66.1875 0  65.625 0.5625  65 1.25  L 65 53.125  C 65.625 53.8125  66.1875 54.375  66.875 55  L 118.75 55  C 119.4375 54.375  120 53.8125  120 53.125  L 120 5  Z M 110 10  L 110 45  L 75 45  L 75 10  L 110 10  Z M 87.1875 31.5625  C 87.1875 32.25  87.75 32.8125  88.4375 32.8125  L 97.1875 32.8125  C 97.875 32.8125  98.4375 32.25  98.4375 31.5625  L 98.4375 22.8125  C 98.4375 22.125  97.875 21.5625  97.1875 21.5625  L 88.4375 21.5625  C 87.75 21.5625  87.1875 22.125  87.1875 22.8125  L 87.1875 31.5625  Z M 120 66.875  C 120 66.1875  119.4375 65.625  118.75 65.625  L 111.25 65.625  C 110.5625 65.625  110 66.1875  110 66.875  L 110 87  L 97 87  L 97 66.875  C 97.8125 66.1875  97.25 65.625  96.5625 65  L 66.875 65  C 66.1875 65.625  65.625 66.1875  65 66.875  L 65 118.75  C 65.625 119.4375  66.1875 120  66.875 120  L 74.375 120  C 75.0625 120  75.625 119.4375  75 118.75  L 75 80  L 87 80  L 87 96.5625  C 87.8125 97.25  88.375 97.8125  89.0625 97  L 118.75 97  C 119.4375 97.8125  120 97.25  120 96.5625  L 120 66.875  Z M 97.8125 111.25  C 97.8125 110.5625  97.25 110  96.5625 110  L 89.0625 110  C 88.375 110  87.8125 110.5625  87.8125 111.25  L 87.8125 118.75  C 87.8125 119.4375  88.375 120  89.0625 120  L 96.5625 120  C 97.25 120  97.8125 119.4375  97.8125 118.75  L 97.8125 111.25  Z M 120 111.25  C 120 110.5625  119.4375 110  118.75 110  L 111.25 110  C 110.5625 110  110 110.5625  110 111.25  L 110 118.75  C 110 119.4375  110.5625 120  111.25 120  L 118.75 120  C 119.4375 120  120 119.4375  120 118.75  L 120 111.25  Z " fill-rule="nonzero" fill="#666666" stroke="none" transform="matrix(1 0 0 1 82 184 )" />
  </g>
</svg>