<?xml version="1.0" encoding="utf-8"?>
<svg version="1.1" xmlns:xlink="http://www.w3.org/1999/xlink" width="60px" height="20px" xmlns="http://www.w3.org/2000/svg">
  <g transform="matrix(1 0 0 1 -204 -304 )">
    <path d="M 205 308  A 3 3 0 0 1 208 305 L 260 305  A 3 3 0 0 1 263 308 L 263 320  A 3 3 0 0 1 260 323 L 208 323  A 3 3 0 0 1 205 320 L 205 308  Z " fill-rule="nonzero" fill="#f5f5f5" stroke="none" fill-opacity="0" />
    <path d="M 204.5 308  A 3.5 3.5 0 0 1 208 304.5 L 260 304.5  A 3.5 3.5 0 0 1 263.5 308 L 263.5 320  A 3.5 3.5 0 0 1 260 323.5 L 208 323.5  A 3.5 3.5 0 0 1 204.5 320 L 204.5 308  Z " stroke-width="1" stroke-dasharray="3,1" stroke="#d9d9d9" fill="none" stroke-dashoffset="0.5" />
  </g>
</svg>