<?xml version="1.0" encoding="utf-8"?>
<svg version="1.1" xmlns:xlink="http://www.w3.org/1999/xlink" width="84px" height="32px" xmlns="http://www.w3.org/2000/svg">
  <g transform="matrix(1 0 0 1 -252 -641 )">
    <path d="M 253 645  A 3 3 0 0 1 256 642 L 332 642  A 3 3 0 0 1 335 645 L 335 669  A 3 3 0 0 1 332 672 L 256 672  A 3 3 0 0 1 253 669 L 253 645  Z " fill-rule="nonzero" fill="#ffffff" stroke="none" />
    <path d="M 252.5 645  A 3.5 3.5 0 0 1 256 641.5 L 332 641.5  A 3.5 3.5 0 0 1 335.5 645 L 335.5 669  A 3.5 3.5 0 0 1 332 672.5 L 256 672.5  A 3.5 3.5 0 0 1 252.5 669 L 252.5 645  Z " stroke-width="1" stroke-dasharray="3,1" stroke="#d9d9d9" fill="none" stroke-dashoffset="0.5" />
  </g>
</svg>