<?xml version="1.0" encoding="utf-8"?>
<svg version="1.1" xmlns:xlink="http://www.w3.org/1999/xlink" width="480px" height="32px" xmlns="http://www.w3.org/2000/svg">
  <g transform="matrix(1 0 0 1 -54 -689 )">
    <path d="M 55 693  A 3 3 0 0 1 58 690 L 530 690  A 3 3 0 0 1 533 693 L 533 717  A 3 3 0 0 1 530 720 L 58 720  A 3 3 0 0 1 55 717 L 55 693  Z " fill-rule="nonzero" fill="#ffffff" stroke="none" />
    <path d="M 54.5 693  A 3.5 3.5 0 0 1 58 689.5 L 530 689.5  A 3.5 3.5 0 0 1 533.5 693 L 533.5 717  A 3.5 3.5 0 0 1 530 720.5 L 58 720.5  A 3.5 3.5 0 0 1 54.5 717 L 54.5 693  Z " stroke-width="1" stroke-dasharray="9,4" stroke="#d9d9d9" fill="none" stroke-dashoffset="0.5" />
  </g>
</svg>