<?xml version="1.0" encoding="utf-8"?>
<svg version="1.1" xmlns:xlink="http://www.w3.org/1999/xlink" width="12px" height="12px" viewBox="192 146  12 12" xmlns="http://www.w3.org/2000/svg">
  <path d="M 198 146  C 201.36 146  204 148.64  204 152  C 204 155.36  201.36 158  198 158  C 194.64 158  192 155.36  192 152  C 192 148.64  194.64 146  198 146  Z " fill-rule="nonzero" fill="#ffffff" stroke="none" />
  <path d="M 198 146.5  C 201.08 146.5  203.5 148.92  203.5 152  C 203.5 155.08  201.08 157.5  198 157.5  C 194.92 157.5  192.5 155.08  192.5 152  C 192.5 148.92  194.92 146.5  198 146.5  Z " stroke-width="1" stroke="#797979" fill="none" />
  <path d="M 198 155  C 196.32 155  195 153.68  195 152  C 195 150.32  196.32 149  198 149  C 199.68 149  201 150.32  201 152  C 201 153.68  199.68 155  198 155  " fill-rule="nonzero" fill="#797979" stroke="none" />
</svg>