<?xml version="1.0" encoding="utf-8"?>
<svg version="1.1" xmlns:xlink="http://www.w3.org/1999/xlink" width="12px" height="12px" viewBox="294 146  12 12" xmlns="http://www.w3.org/2000/svg">
  <path d="M 300 146  C 303.36 146  306 148.64  306 152  C 306 155.36  303.36 158  300 158  C 296.64 158  294 155.36  294 152  C 294 148.64  296.64 146  300 146  Z " fill-rule="nonzero" fill="#ffffff" stroke="none" />
  <path d="M 300 146.5  C 303.08 146.5  305.5 148.92  305.5 152  C 305.5 155.08  303.08 157.5  300 157.5  C 296.92 157.5  294.5 155.08  294.5 152  C 294.5 148.92  296.92 146.5  300 146.5  Z " stroke-width="1" stroke="#797979" fill="none" />
  <path d="M 300 155  C 298.32 155  297 153.68  297 152  C 297 150.32  298.32 149  300 149  C 301.68 149  303 150.32  303 152  C 303 153.68  301.68 155  300 155  " fill-rule="nonzero" fill="#797979" stroke="none" />
</svg>