<?xml version="1.0" encoding="utf-8"?>
<svg version="1.1" xmlns:xlink="http://www.w3.org/1999/xlink" width="18px" height="20px" xmlns="http://www.w3.org/2000/svg">
  <g transform="matrix(1 0 0 1 -345 -134 )">
    <path d="M 8.70454545454547 11.4318181818182  C 11.8181818181818 11.4318181818182  14.3409090909091 8.90909090909091  14.3409090909091 5.79545454545455  C 14.3409090909091 2.68181818181818  11.8181818181818 0.159090909090907  8.70454545454547 0.159090909090907  C 5.59090909090909 0.159090909090907  3.06818181818181 2.68181818181818  3.06818181818181 5.79545454545455  C 3.06818181818181 7.67727272727273  3.99090909090907 9.34545454545454  5.40909090909091 10.3681818181818  C 5.40000000000001 10.3727272727273  5.39318181818183 10.375  5.38863636363635 10.3772727272727  C 4.37272727272727 10.8068181818182  3.46136363636361 11.4227272727273  2.67727272727274 12.2090909090909  C 1.89318181818183 12.9931818181818  1.27954545454546 13.9068181818182  0.850000000000023 14.925  C 0.429545454545462 15.9204545454545  0.204545454545439 16.9772727272727  0.181818181818187 18.0636363636363  C 0.179545454545462 18.1659090909091  0.261363636363626 18.25  0.363636363636374 18.25  L 1.72499999999999 18.25  C 1.82272727272726 18.25  1.90454545454546 18.1704545454545  1.90681818181818 18.0727272727273  C 1.95227272727271 16.3181818181818  2.65454545454546 14.675  3.89772727272728 13.4295454545454  C 5.18181818181819 12.1409090909091  6.88636363636363 11.4318181818182  8.70454545454547 11.4318181818182  Z M 12.6136363636363 5.79545454545455  C 12.6136363636363 7.95454545454545  10.8636363636364 9.70454545454545  8.70454545454547 9.70454545454545  C 6.54545454545456 9.70454545454545  4.79545454545453 7.95454545454545  4.79545454545453 5.79545454545455  C 4.79545454545453 3.63636363636364  6.54545454545456 1.88636363636364  8.70454545454547 1.88636363636364  C 10.8636363636364 1.88636363636364  12.6136363636363 3.63636363636364  12.6136363636363 5.79545454545455  Z M 10.3613636363636 14  C 10.3636363636363 14.4022727272727  10.6886363636364 14.7272727272727  11.0909090909091 14.7272727272727  L 17.0909090909091 14.7272727272727  C 17.1909090909091 14.7272727272727  17.2727272727273 14.6454545454545  17.2727272727273 14.5454545454545  L 17.2727272727273 13.2727272727273  C 17.2727272727273 13.1727272727273  17.1909090909091 13.0909090909091  17.0909090909091 13.0909090909091  L 13.0795454545455 13.0909090909091  L 14.1522727272727 11.725  C 14.1772727272727 11.6931818181818  14.1909090909091 11.6522727272727  14.1909090909091 11.6136363636364  C 14.1909090909091 11.5136363636364  14.1090909090909 11.4318181818182  14.0090909090909 11.4318181818182  L 12.3590909090909 11.4318181818182  C 12.2477272727273 11.4318181818182  12.1431818181818 11.4840909090909  12.0727272727273 11.5704545454545  L 10.5159090909091 13.55  C 10.4159090909091 13.6772727272727  10.3613636363636 13.8363636363636  10.3613636363636 14  Z M 17.275 16.9090909090909  C 17.2727272727273 16.5068181818182  16.9477272727273 16.1818181818182  16.5454545454545 16.1818181818182  L 10.5454545454545 16.1818181818182  C 10.4454545454545 16.1818181818182  10.3636363636363 16.2636363636364  10.3636363636363 16.3636363636364  L 10.3636363636363 17.6363636363636  C 10.3636363636363 17.7363636363636  10.4454545454545 17.8181818181818  10.5454545454545 17.8181818181818  L 14.5568181818182 17.8181818181818  L 13.4840909090909 19.1840909090909  C 13.4590909090909 19.2159090909091  13.4454545454545 19.2568181818182  13.4454545454545 19.2954545454545  C 13.4454545454545 19.3954545454545  13.5272727272727 19.4772727272727  13.6272727272727 19.4772727272727  L 15.2772727272727 19.4772727272727  C 15.3886363636364 19.4772727272727  15.4931818181818 19.425  15.5636363636363 19.3386363636364  L 17.1204545454546 17.3590909090909  C 17.2204545454545 17.2318181818182  17.275 17.0727272727273  17.275 16.9090909090909  Z " fill-rule="nonzero" fill="#3089fa" stroke="none" transform="matrix(1 0 0 1 345 134 )" />
  </g>
</svg>