<?xml version="1.0" encoding="utf-8"?>
<svg version="1.1" xmlns:xlink="http://www.w3.org/1999/xlink" width="16px" height="16px" xmlns="http://www.w3.org/2000/svg">
  <defs>
    <mask fill="white" id="clip331">
      <path d="M 9.8125 9.8125  C 10.6554487179487 8.96955128205127  11.076923076923 7.95512820512818  11.076923076923 6.76923076923076  C 11.076923076923 5.58333333333334  10.6554487179487 4.56891025641025  9.8125 3.72596153846152  C 8.96955128205127 2.88301282051285  7.95512820512822 2.46153846153848  6.76923076923076 2.46153846153848  C 5.5833333333333 2.46153846153848  4.56891025641026 2.88301282051285  3.72596153846153 3.72596153846152  C 2.8830128205128 4.56891025641025  2.46153846153847 5.58333333333334  2.46153846153847 6.76923076923076  C 2.46153846153847 7.95512820512818  2.8830128205128 8.96955128205127  3.72596153846153 9.8125  C 4.56891025641026 10.6554487179487  5.5833333333333 11.0769230769231  6.76923076923076 11.0769230769231  C 7.95512820512822 11.0769230769231  8.96955128205127 10.6554487179487  9.8125 9.8125  Z M 15.6442307692308 13.9038461538461  C 15.8814102564103 14.1410256410256  16 14.4294871794872  16 14.7692307692308  C 16 15.1025641025641  15.8782051282052 15.3910256410256  15.6346153846153 15.6346153846154  C 15.3910256410257 15.8782051282051  15.1025641025642 16  14.7692307692308 16  C 14.423076923077 16  14.1346153846153 15.8782051282051  13.9038461538462 15.6346153846154  L 10.6057692307692 12.3461538461539  C 9.4583333333333 13.1410256410256  8.1794871794872 13.5384615384615  6.76923076923076 13.5384615384615  C 5.85256410256416 13.5384615384615  4.97596153846153 13.3605769230769  4.13942307692305 13.0048076923077  C 3.30288461538466 12.6490384615385  2.58173076923076 12.1682692307692  1.97596153846153 11.5625  C 1.37019230769229 10.9567307692308  0.889423076923048 10.2355769230769  0.533653846153811 9.39903846153848  C 0.177884615384663 8.5625  0 7.68589743589742  0 6.76923076923076  C 0 5.85256410256412  0.177884615384663 4.97596153846152  0.533653846153811 4.13942307692309  C 0.889423076923048 3.30288461538461  1.37019230769229 2.58173076923076  1.97596153846153 1.97596153846152  C 2.58173076923076 1.37019230769234  3.30288461538466 0.889423076923094  4.13942307692305 0.533653846153854  C 4.97596153846153 0.177884615384613  5.85256410256416 0  6.76923076923076 0  C 7.68589743589746 0  8.5625 0.177884615384613  9.39903846153847 0.533653846153854  C 10.235576923077 0.889423076923094  10.9567307692308 1.37019230769234  11.5625 1.97596153846152  C 12.1682692307692 2.58173076923076  12.6490384615385 3.30288461538461  13.0048076923077 4.13942307692309  C 13.360576923077 4.97596153846152  13.5384615384615 5.85256410256412  13.5384615384615 6.76923076923076  C 13.5384615384615 8.17948717948715  13.1410256410257 9.45833333333334  12.3461538461538 10.6057692307692  L 15.6442307692308 13.9038461538461  Z " fill-rule="evenodd" />
    </mask>
  </defs>
  <g transform="matrix(1 0 0 1 -18 -86 )">
    <path d="M 9.8125 9.8125  C 10.6554487179487 8.96955128205127  11.076923076923 7.95512820512818  11.076923076923 6.76923076923076  C 11.076923076923 5.58333333333334  10.6554487179487 4.56891025641025  9.8125 3.72596153846152  C 8.96955128205127 2.88301282051285  7.95512820512822 2.46153846153848  6.76923076923076 2.46153846153848  C 5.5833333333333 2.46153846153848  4.56891025641026 2.88301282051285  3.72596153846153 3.72596153846152  C 2.8830128205128 4.56891025641025  2.46153846153847 5.58333333333334  2.46153846153847 6.76923076923076  C 2.46153846153847 7.95512820512818  2.8830128205128 8.96955128205127  3.72596153846153 9.8125  C 4.56891025641026 10.6554487179487  5.5833333333333 11.0769230769231  6.76923076923076 11.0769230769231  C 7.95512820512822 11.0769230769231  8.96955128205127 10.6554487179487  9.8125 9.8125  Z M 15.6442307692308 13.9038461538461  C 15.8814102564103 14.1410256410256  16 14.4294871794872  16 14.7692307692308  C 16 15.1025641025641  15.8782051282052 15.3910256410256  15.6346153846153 15.6346153846154  C 15.3910256410257 15.8782051282051  15.1025641025642 16  14.7692307692308 16  C 14.423076923077 16  14.1346153846153 15.8782051282051  13.9038461538462 15.6346153846154  L 10.6057692307692 12.3461538461539  C 9.4583333333333 13.1410256410256  8.1794871794872 13.5384615384615  6.76923076923076 13.5384615384615  C 5.85256410256416 13.5384615384615  4.97596153846153 13.3605769230769  4.13942307692305 13.0048076923077  C 3.30288461538466 12.6490384615385  2.58173076923076 12.1682692307692  1.97596153846153 11.5625  C 1.37019230769229 10.9567307692308  0.889423076923048 10.2355769230769  0.533653846153811 9.39903846153848  C 0.177884615384663 8.5625  0 7.68589743589742  0 6.76923076923076  C 0 5.85256410256412  0.177884615384663 4.97596153846152  0.533653846153811 4.13942307692309  C 0.889423076923048 3.30288461538461  1.37019230769229 2.58173076923076  1.97596153846153 1.97596153846152  C 2.58173076923076 1.37019230769234  3.30288461538466 0.889423076923094  4.13942307692305 0.533653846153854  C 4.97596153846153 0.177884615384613  5.85256410256416 0  6.76923076923076 0  C 7.68589743589746 0  8.5625 0.177884615384613  9.39903846153847 0.533653846153854  C 10.235576923077 0.889423076923094  10.9567307692308 1.37019230769234  11.5625 1.97596153846152  C 12.1682692307692 2.58173076923076  12.6490384615385 3.30288461538461  13.0048076923077 4.13942307692309  C 13.360576923077 4.97596153846152  13.5384615384615 5.85256410256412  13.5384615384615 6.76923076923076  C 13.5384615384615 8.17948717948715  13.1410256410257 9.45833333333334  12.3461538461538 10.6057692307692  L 15.6442307692308 13.9038461538461  Z " fill-rule="nonzero" fill="#cccccc" stroke="none" transform="matrix(1 0 0 1 18 86 )" />
    <path d="M 9.8125 9.8125  C 10.6554487179487 8.96955128205127  11.076923076923 7.95512820512818  11.076923076923 6.76923076923076  C 11.076923076923 5.58333333333334  10.6554487179487 4.56891025641025  9.8125 3.72596153846152  C 8.96955128205127 2.88301282051285  7.95512820512822 2.46153846153848  6.76923076923076 2.46153846153848  C 5.5833333333333 2.46153846153848  4.56891025641026 2.88301282051285  3.72596153846153 3.72596153846152  C 2.8830128205128 4.56891025641025  2.46153846153847 5.58333333333334  2.46153846153847 6.76923076923076  C 2.46153846153847 7.95512820512818  2.8830128205128 8.96955128205127  3.72596153846153 9.8125  C 4.56891025641026 10.6554487179487  5.5833333333333 11.0769230769231  6.76923076923076 11.0769230769231  C 7.95512820512822 11.0769230769231  8.96955128205127 10.6554487179487  9.8125 9.8125  Z " stroke-width="2" stroke="#cccccc" fill="none" transform="matrix(1 0 0 1 18 86 )" mask="url(#clip331)" />
    <path d="M 15.6442307692308 13.9038461538461  C 15.8814102564103 14.1410256410256  16 14.4294871794872  16 14.7692307692308  C 16 15.1025641025641  15.8782051282052 15.3910256410256  15.6346153846153 15.6346153846154  C 15.3910256410257 15.8782051282051  15.1025641025642 16  14.7692307692308 16  C 14.423076923077 16  14.1346153846153 15.8782051282051  13.9038461538462 15.6346153846154  L 10.6057692307692 12.3461538461539  C 9.4583333333333 13.1410256410256  8.1794871794872 13.5384615384615  6.76923076923076 13.5384615384615  C 5.85256410256416 13.5384615384615  4.97596153846153 13.3605769230769  4.13942307692305 13.0048076923077  C 3.30288461538466 12.6490384615385  2.58173076923076 12.1682692307692  1.97596153846153 11.5625  C 1.37019230769229 10.9567307692308  0.889423076923048 10.2355769230769  0.533653846153811 9.39903846153848  C 0.177884615384663 8.5625  0 7.68589743589742  0 6.76923076923076  C 0 5.85256410256412  0.177884615384663 4.97596153846152  0.533653846153811 4.13942307692309  C 0.889423076923048 3.30288461538461  1.37019230769229 2.58173076923076  1.97596153846153 1.97596153846152  C 2.58173076923076 1.37019230769234  3.30288461538466 0.889423076923094  4.13942307692305 0.533653846153854  C 4.97596153846153 0.177884615384613  5.85256410256416 0  6.76923076923076 0  C 7.68589743589746 0  8.5625 0.177884615384613  9.39903846153847 0.533653846153854  C 10.235576923077 0.889423076923094  10.9567307692308 1.37019230769234  11.5625 1.97596153846152  C 12.1682692307692 2.58173076923076  12.6490384615385 3.30288461538461  13.0048076923077 4.13942307692309  C 13.360576923077 4.97596153846152  13.5384615384615 5.85256410256412  13.5384615384615 6.76923076923076  C 13.5384615384615 8.17948717948715  13.1410256410257 9.45833333333334  12.3461538461538 10.6057692307692  L 15.6442307692308 13.9038461538461  Z " stroke-width="2" stroke="#cccccc" fill="none" transform="matrix(1 0 0 1 18 86 )" mask="url(#clip331)" />
  </g>
</svg>