<?xml version="1.0" encoding="utf-8"?>
<svg version="1.1" xmlns:xlink="http://www.w3.org/1999/xlink" width="12px" height="12px" viewBox="108 418  12 12" xmlns="http://www.w3.org/2000/svg">
  <path d="M 114 418  C 117.36 418  120 420.64  120 424  C 120 427.36  117.36 430  114 430  C 110.64 430  108 427.36  108 424  C 108 420.64  110.64 418  114 418  Z " fill-rule="nonzero" fill="#ffffff" stroke="none" />
  <path d="M 114 418.5  C 117.08 418.5  119.5 420.92  119.5 424  C 119.5 427.08  117.08 429.5  114 429.5  C 110.92 429.5  108.5 427.08  108.5 424  C 108.5 420.92  110.92 418.5  114 418.5  Z " stroke-width="1" stroke="#797979" fill="none" />
  <path d="M 114 427  C 112.32 427  111 425.68  111 424  C 111 422.32  112.32 421  114 421  C 115.68 421  117 422.32  117 424  C 117 425.68  115.68 427  114 427  " fill-rule="nonzero" fill="#797979" stroke="none" />
</svg>