<?xml version="1.0" encoding="utf-8"?>
<svg version="1.1" xmlns:xlink="http://www.w3.org/1999/xlink" width="12px" height="12px" viewBox="108 259  12 12" xmlns="http://www.w3.org/2000/svg">
  <path d="M 114 259  C 117.36 259  120 261.64  120 265  C 120 268.36  117.36 271  114 271  C 110.64 271  108 268.36  108 265  C 108 261.64  110.64 259  114 259  Z " fill-rule="nonzero" fill="#ffffff" stroke="none" />
  <path d="M 114 259.5  C 117.08 259.5  119.5 261.92  119.5 265  C 119.5 268.08  117.08 270.5  114 270.5  C 110.92 270.5  108.5 268.08  108.5 265  C 108.5 261.92  110.92 259.5  114 259.5  Z " stroke-width="1" stroke="#797979" fill="none" />
  <path d="M 114 268  C 112.32 268  111 266.68  111 265  C 111 263.32  112.32 262  114 262  C 115.68 262  117 263.32  117 265  C 117 266.68  115.68 268  114 268  " fill-rule="nonzero" fill="#797979" stroke="none" />
</svg>