<?xml version="1.0" encoding="utf-8"?>
<svg version="1.1" xmlns:xlink="http://www.w3.org/1999/xlink" width="12px" height="12px" viewBox="108 379  12 12" xmlns="http://www.w3.org/2000/svg">
  <path d="M 114 379  C 117.36 379  120 381.64  120 385  C 120 388.36  117.36 391  114 391  C 110.64 391  108 388.36  108 385  C 108 381.64  110.64 379  114 379  Z " fill-rule="nonzero" fill="#ffffff" stroke="none" />
  <path d="M 114 379.5  C 117.08 379.5  119.5 381.92  119.5 385  C 119.5 388.08  117.08 390.5  114 390.5  C 110.92 390.5  108.5 388.08  108.5 385  C 108.5 381.92  110.92 379.5  114 379.5  Z " stroke-width="1" stroke="#797979" fill="none" />
  <path d="M 114 388  C 112.32 388  111 386.68  111 385  C 111 383.32  112.32 382  114 382  C 115.68 382  117 383.32  117 385  C 117 386.68  115.68 388  114 388  " fill-rule="nonzero" fill="#797979" stroke="none" />
</svg>