<?xml version="1.0" encoding="utf-8"?>
<svg version="1.1" xmlns:xlink="http://www.w3.org/1999/xlink" width="12px" height="12px" viewBox="108 102  12 12" xmlns="http://www.w3.org/2000/svg">
  <path d="M 114 102  C 117.36 102  120 104.64  120 108  C 120 111.36  117.36 114  114 114  C 110.64 114  108 111.36  108 108  C 108 104.64  110.64 102  114 102  Z " fill-rule="nonzero" fill="#ffffff" stroke="none" />
  <path d="M 114 102.5  C 117.08 102.5  119.5 104.92  119.5 108  C 119.5 111.08  117.08 113.5  114 113.5  C 110.92 113.5  108.5 111.08  108.5 108  C 108.5 104.92  110.92 102.5  114 102.5  Z " stroke-width="1" stroke="#797979" fill="none" />
  <path d="M 114 111  C 112.32 111  111 109.68  111 108  C 111 106.32  112.32 105  114 105  C 115.68 105  117 106.32  117 108  C 117 109.68  115.68 111  114 111  " fill-rule="nonzero" fill="#797979" stroke="none" />
</svg>