<?xml version="1.0" encoding="utf-8"?>
<svg version="1.1" xmlns:xlink="http://www.w3.org/1999/xlink" width="12px" height="12px" viewBox="108 146  12 12" xmlns="http://www.w3.org/2000/svg">
  <path d="M 114 146  C 117.36 146  120 148.64  120 152  C 120 155.36  117.36 158  114 158  C 110.64 158  108 155.36  108 152  C 108 148.64  110.64 146  114 146  Z " fill-rule="nonzero" fill="#ffffff" stroke="none" />
  <path d="M 114 146.5  C 117.08 146.5  119.5 148.92  119.5 152  C 119.5 155.08  117.08 157.5  114 157.5  C 110.92 157.5  108.5 155.08  108.5 152  C 108.5 148.92  110.92 146.5  114 146.5  Z " stroke-width="1" stroke="#797979" fill="none" />
  <path d="M 114 155  C 112.32 155  111 153.68  111 152  C 111 150.32  112.32 149  114 149  C 115.68 149  117 150.32  117 152  C 117 153.68  115.68 155  114 155  " fill-rule="nonzero" fill="#797979" stroke="none" />
</svg>