<?xml version="1.0" encoding="utf-8"?>
<svg version="1.1" xmlns:xlink="http://www.w3.org/1999/xlink" width="12px" height="12px" viewBox="108 189  12 12" xmlns="http://www.w3.org/2000/svg">
  <path d="M 114 189  C 117.36 189  120 191.64  120 195  C 120 198.36  117.36 201  114 201  C 110.64 201  108 198.36  108 195  C 108 191.64  110.64 189  114 189  Z " fill-rule="nonzero" fill="#ffffff" stroke="none" />
  <path d="M 114 189.5  C 117.08 189.5  119.5 191.92  119.5 195  C 119.5 198.08  117.08 200.5  114 200.5  C 110.92 200.5  108.5 198.08  108.5 195  C 108.5 191.92  110.92 189.5  114 189.5  Z " stroke-width="1" stroke="#797979" fill="none" />
  <path d="M 114 198  C 112.32 198  111 196.68  111 195  C 111 193.32  112.32 192  114 192  C 115.68 192  117 193.32  117 195  C 117 196.68  115.68 198  114 198  " fill-rule="nonzero" fill="#797979" stroke="none" />
</svg>