<?xml version="1.0" encoding="utf-8"?>
<svg version="1.1" xmlns:xlink="http://www.w3.org/1999/xlink" width="12px" height="12px" viewBox="108 342  12 12" xmlns="http://www.w3.org/2000/svg">
  <path d="M 114 342  C 117.36 342  120 344.64  120 348  C 120 351.36  117.36 354  114 354  C 110.64 354  108 351.36  108 348  C 108 344.64  110.64 342  114 342  Z " fill-rule="nonzero" fill="#ffffff" stroke="none" />
  <path d="M 114 342.5  C 117.08 342.5  119.5 344.92  119.5 348  C 119.5 351.08  117.08 353.5  114 353.5  C 110.92 353.5  108.5 351.08  108.5 348  C 108.5 344.92  110.92 342.5  114 342.5  Z " stroke-width="1" stroke="#797979" fill="none" />
  <path d="M 114 351  C 112.32 351  111 349.68  111 348  C 111 346.32  112.32 345  114 345  C 115.68 345  117 346.32  117 348  C 117 349.68  115.68 351  114 351  " fill-rule="nonzero" fill="#797979" stroke="none" />
</svg>