<?xml version="1.0" encoding="utf-8"?>
<svg version="1.1" xmlns:xlink="http://www.w3.org/1999/xlink" width="12px" height="12px" viewBox="135 429  12 12" xmlns="http://www.w3.org/2000/svg">
  <path d="M 141 429  C 144.36 429  147 431.64  147 435  C 147 438.36  144.36 441  141 441  C 137.64 441  135 438.36  135 435  C 135 431.64  137.64 429  141 429  Z " fill-rule="nonzero" fill="#ffffff" stroke="none" />
  <path d="M 141 429.5  C 144.08 429.5  146.5 431.92  146.5 435  C 146.5 438.08  144.08 440.5  141 440.5  C 137.92 440.5  135.5 438.08  135.5 435  C 135.5 431.92  137.92 429.5  141 429.5  Z " stroke-width="1" stroke="#797979" fill="none" />
  <path d="M 141 438  C 139.32 438  138 436.68  138 435  C 138 433.32  139.32 432  141 432  C 142.68 432  144 433.32  144 435  C 144 436.68  142.68 438  141 438  " fill-rule="nonzero" fill="#797979" stroke="none" />
</svg>