<?xml version="1.0" encoding="utf-8"?>
<svg version="1.1" xmlns:xlink="http://www.w3.org/1999/xlink" width="12px" height="12px" viewBox="115 218  12 12" xmlns="http://www.w3.org/2000/svg">
  <path d="M 121 218  C 124.36 218  127 220.64  127 224  C 127 227.36  124.36 230  121 230  C 117.64 230  115 227.36  115 224  C 115 220.64  117.64 218  121 218  Z " fill-rule="nonzero" fill="#ffffff" stroke="none" />
  <path d="M 121 218.5  C 124.08 218.5  126.5 220.92  126.5 224  C 126.5 227.08  124.08 229.5  121 229.5  C 117.92 229.5  115.5 227.08  115.5 224  C 115.5 220.92  117.92 218.5  121 218.5  Z " stroke-width="1" stroke="#797979" fill="none" />
  <path d="M 121 227  C 119.32 227  118 225.68  118 224  C 118 222.32  119.32 221  121 221  C 122.68 221  124 222.32  124 224  C 124 225.68  122.68 227  121 227  " fill-rule="nonzero" fill="#797979" stroke="none" />
</svg>