<?xml version="1.0" encoding="utf-8"?>
<svg version="1.1" xmlns:xlink="http://www.w3.org/1999/xlink" width="12px" height="12px" viewBox="135 392  12 12" xmlns="http://www.w3.org/2000/svg">
  <path d="M 141 392  C 144.36 392  147 394.64  147 398  C 147 401.36  144.36 404  141 404  C 137.64 404  135 401.36  135 398  C 135 394.64  137.64 392  141 392  Z " fill-rule="nonzero" fill="#ffffff" stroke="none" />
  <path d="M 141 392.5  C 144.08 392.5  146.5 394.92  146.5 398  C 146.5 401.08  144.08 403.5  141 403.5  C 137.92 403.5  135.5 401.08  135.5 398  C 135.5 394.92  137.92 392.5  141 392.5  Z " stroke-width="1" stroke="#797979" fill="none" />
  <path d="M 141 401  C 139.32 401  138 399.68  138 398  C 138 396.32  139.32 395  141 395  C 142.68 395  144 396.32  144 398  C 144 399.68  142.68 401  141 401  " fill-rule="nonzero" fill="#797979" stroke="none" />
</svg>