<?xml version="1.0" encoding="utf-8"?>
<svg version="1.1" xmlns:xlink="http://www.w3.org/1999/xlink" width="12px" height="12px" viewBox="115 259  12 12" xmlns="http://www.w3.org/2000/svg">
  <path d="M 121 259  C 124.36 259  127 261.64  127 265  C 127 268.36  124.36 271  121 271  C 117.64 271  115 268.36  115 265  C 115 261.64  117.64 259  121 259  Z " fill-rule="nonzero" fill="#ffffff" stroke="none" />
  <path d="M 121 259.5  C 124.08 259.5  126.5 261.92  126.5 265  C 126.5 268.08  124.08 270.5  121 270.5  C 117.92 270.5  115.5 268.08  115.5 265  C 115.5 261.92  117.92 259.5  121 259.5  Z " stroke-width="1" stroke="#797979" fill="none" />
  <path d="M 121 268  C 119.32 268  118 266.68  118 265  C 118 263.32  119.32 262  121 262  C 122.68 262  124 263.32  124 265  C 124 266.68  122.68 268  121 268  " fill-rule="nonzero" fill="#797979" stroke="none" />
</svg>