<?xml version="1.0" encoding="utf-8"?>
<svg version="1.1" xmlns:xlink="http://www.w3.org/1999/xlink" width="16px" height="16px" xmlns="http://www.w3.org/2000/svg">
  <g transform="matrix(1 0 0 1 -348 -143 )">
    <path d="M 16 8.16000000000003  C 16 8.07199999999995  15.928 8  15.84 8  L 14.72 8  C 14.6319999999999 8  14.5600000000001 8.07199999999995  14.5600000000001 8.16000000000003  L 14.5600000000001 14.56  L 1.43999999999994 14.56  L 1.43999999999994 1.44  L 7.84000000000003 1.44  C 7.928 1.44  8 1.368  8 1.27999999999997  L 8 0.160000000000025  C 8 0.0719999999999459  7.928 0  7.84000000000003 0  L 0.639999999999986 0  C 0.285999999999945 0  0 0.286000000000001  0 0.640000000000043  L 0 15.36  C 0 15.714  0.285999999999945 16  0.639999999999986 16  L 15.36 16  C 15.7140000000001 16  16 15.714  16 15.36  L 16 8.16000000000003  Z " fill-rule="nonzero" fill="#108ee9" stroke="none" transform="matrix(1 0 0 1 348 143 )" />
  </g>
</svg>