<?xml version="1.0" encoding="utf-8"?>
<svg version="1.1" xmlns:xlink="http://www.w3.org/1999/xlink" width="4px" height="4px" xmlns="http://www.w3.org/2000/svg">
  <g transform="matrix(1 0 0 1 -792 -173 )">
    <path d="M 794 173  C 795.12 173  796 173.88  796 175  C 796 176.12  795.12 177  794 177  C 792.88 177  792 176.12  792 175  C 792 173.88  792.88 173  794 173  Z " fill-rule="nonzero" fill="#ffffff" stroke="none" />
    <path d="M 794 173.5  C 794.84 173.5  795.5 174.16  795.5 175  C 795.5 175.84  794.84 176.5  794 176.5  C 793.16 176.5  792.5 175.84  792.5 175  C 792.5 174.16  793.16 173.5  794 173.5  Z " stroke-width="1" stroke="#108ee9" fill="none" />
  </g>
</svg>