<?xml version="1.0" encoding="utf-8"?>
<svg version="1.1" xmlns:xlink="http://www.w3.org/1999/xlink" width="12px" height="14px" xmlns="http://www.w3.org/2000/svg">
  <g transform="matrix(1 0 0 1 -788 -170 )">
    <path d="M 794 183.118268969337  C 791.8 179.957396288823  788.5 178.060872680514  788.5 174.9  C 788.5 173.265714285714  789.6 170.5  794 170.5  C 798.4 170.5  799.5 173.265714285714  799.5 174.9  C 799.5 178.060872680514  796.2 179.957396288823  794 183.118268969337  Z " fill-rule="nonzero" fill="#ffffff" stroke="none" />
    <path d="M 794 184  C 791.6 180.5  788 178.4  788 174.9  C 788 173.08  789.2 170  794 170  C 798.8 170  800 173.08  800 174.9  C 800 178.4  796.4 180.5  794 184  Z M 794 182.236537938675  C 796 179.414792577646  799 177.721745361029  799 174.9  C 799 173.451428571429  798 171  794 171  C 790 171  789 173.451428571429  789 174.9  C 789 177.721745361029  792 179.414792577646  794 182.236537938675  Z " fill-rule="nonzero" fill="#108ee9" stroke="none" />
  </g>
</svg>