<?xml version="1.0" encoding="utf-8"?>
<svg version="1.1" xmlns:xlink="http://www.w3.org/1999/xlink" width="12px" height="12px" viewBox="575 110  12 12" xmlns="http://www.w3.org/2000/svg">
  <path d="M 581 110  C 584.36 110  587 112.64  587 116  C 587 119.36  584.36 122  581 122  C 577.64 122  575 119.36  575 116  C 575 112.64  577.64 110  581 110  Z " fill-rule="nonzero" fill="#ffffff" stroke="none" />
  <path d="M 581 110.5  C 584.08 110.5  586.5 112.92  586.5 116  C 586.5 119.08  584.08 121.5  581 121.5  C 577.92 121.5  575.5 119.08  575.5 116  C 575.5 112.92  577.92 110.5  581 110.5  Z " stroke-width="1" stroke="#797979" fill="none" />
  <path d="M 581 119  C 579.32 119  578 117.68  578 116  C 578 114.32  579.32 113  581 113  C 582.68 113  584 114.32  584 116  C 584 117.68  582.68 119  581 119  " fill-rule="nonzero" fill="#797979" stroke="none" />
</svg>