<?xml version="1.0" encoding="utf-8"?>
<svg version="1.1" xmlns:xlink="http://www.w3.org/1999/xlink" width="12px" height="12px" viewBox="675 110  12 12" xmlns="http://www.w3.org/2000/svg">
  <path d="M 681 110  C 684.36 110  687 112.64  687 116  C 687 119.36  684.36 122  681 122  C 677.64 122  675 119.36  675 116  C 675 112.64  677.64 110  681 110  Z " fill-rule="nonzero" fill="#ffffff" stroke="none" />
  <path d="M 681 110.5  C 684.08 110.5  686.5 112.92  686.5 116  C 686.5 119.08  684.08 121.5  681 121.5  C 677.92 121.5  675.5 119.08  675.5 116  C 675.5 112.92  677.92 110.5  681 110.5  Z " stroke-width="1" stroke="#797979" fill="none" />
  <path d="M 681 119  C 679.32 119  678 117.68  678 116  C 678 114.32  679.32 113  681 113  C 682.68 113  684 114.32  684 116  C 684 117.68  682.68 119  681 119  " fill-rule="nonzero" fill="#797979" stroke="none" />
</svg>