<?xml version="1.0" encoding="utf-8"?>
<svg version="1.1" xmlns:xlink="http://www.w3.org/1999/xlink" width="12px" height="12px" viewBox="570 81  12 12" xmlns="http://www.w3.org/2000/svg">
  <path d="M 576 81  C 579.36 81  582 83.64  582 87  C 582 90.36  579.36 93  576 93  C 572.64 93  570 90.36  570 87  C 570 83.64  572.64 81  576 81  Z " fill-rule="nonzero" fill="#ffffff" stroke="none" />
  <path d="M 576 81.5  C 579.08 81.5  581.5 83.92  581.5 87  C 581.5 90.08  579.08 92.5  576 92.5  C 572.92 92.5  570.5 90.08  570.5 87  C 570.5 83.92  572.92 81.5  576 81.5  Z " stroke-width="1" stroke="#797979" fill="none" />
  <path d="M 576 90  C 574.32 90  573 88.68  573 87  C 573 85.32  574.32 84  576 84  C 577.68 84  579 85.32  579 87  C 579 88.68  577.68 90  576 90  " fill-rule="nonzero" fill="#797979" stroke="none" />
</svg>