<?xml version="1.0" encoding="utf-8"?>
<svg version="1.1" xmlns:xlink="http://www.w3.org/1999/xlink" width="12px" height="12px" viewBox="680 81  12 12" xmlns="http://www.w3.org/2000/svg">
  <path d="M 686 81  C 689.36 81  692 83.64  692 87  C 692 90.36  689.36 93  686 93  C 682.64 93  680 90.36  680 87  C 680 83.64  682.64 81  686 81  Z " fill-rule="nonzero" fill="#ffffff" stroke="none" />
  <path d="M 686 81.5  C 689.08 81.5  691.5 83.92  691.5 87  C 691.5 90.08  689.08 92.5  686 92.5  C 682.92 92.5  680.5 90.08  680.5 87  C 680.5 83.92  682.92 81.5  686 81.5  Z " stroke-width="1" stroke="#797979" fill="none" />
  <path d="M 686 90  C 684.32 90  683 88.68  683 87  C 683 85.32  684.32 84  686 84  C 687.68 84  689 85.32  689 87  C 689 88.68  687.68 90  686 90  " fill-rule="nonzero" fill="#797979" stroke="none" />
</svg>