<?xml version="1.0" encoding="utf-8"?>
<svg version="1.1" xmlns:xlink="http://www.w3.org/1999/xlink" width="58px" height="44px" xmlns="http://www.w3.org/2000/svg">
  <g transform="matrix(1 0 0 1 -550 -257 )">
    <path d="M 57 1.98769692423105  C 57.1495601173019 0.888252063015784  56.2374633431086 0  55.108504398827 0  L 2.04105571847504 0  C 0.912096774193628 0  0 0.888252063015784  0 1.98769692423105  L 0 41.7416354088522  C 0 42.8410802700676  0.912096774193628 43.7293323330833  2.04105571847504 43  L 55.108504398827 43  C 56.2374633431086 43.7293323330833  57.1495601173019 42.8410802700676  57 41.7416354088522  L 57 1.98769692423105  Z M 52.5571847507332 37.3687021755439  L 52.5571847507332 39  L 4.59237536656894 39  L 4.59237536656894 36.7786046511628  L 13.4263196480938 26.573023255814  L 23.0001466275659 37.6295873968493  L 37.8934750733138 20.4360090022506  L 52.5571847507332 37.3687021755439  Z M 52 5  L 52 31.1944186046511  L 38.2825513196481 14.7089572393098  C 38.0784457478007 14.4729182295574  37.7085043988269 14.4729182295574  37.5043988269795 14.7089572393098  L 23.0001466275659 31.4553038259565  L 13.8153958944282 20.8521830457614  C 13.6112903225805 20.616144036009  13.2413489736072 20.616144036009  13.0372434017596 20.8521830457614  L 5 30.6043210802701  L 5 5  L 52 5  Z M 9.69501466275665 12.9200300075019  C 9.69501466275665 15.9388447111778  12.208064516129 18.3861965491373  15.3079178885632 18.3861965491373  C 18.4077712609972 18.3861965491373  20.9208211143693 15.9388447111778  20.9208211143693 12.9200300075019  C 20.9208211143693 9.90121530382589  18.4077712609972 7.45386346586645  15.3079178885632 7.45386346586645  C 12.208064516129 7.45386346586645  9.69501466275665 9.90121530382589  9.69501466275665 12.9200300075019  Z M 13.5219941348972 12.9200300075019  C 13.5219941348972 11.9572393098275  14.3192815249265 11.1807951987997  15.3079178885632 11.1807951987997  C 16.2965542521993 11.1807951987997  17.0938416422287 11.9572393098275  17.0938416422287 12.9200300075019  C 17.0938416422287 13.8828207051762  16.2965542521993 14.6592648162041  15.3079178885632 14.6592648162041  C 14.3192815249265 14.6592648162041  13.5219941348972 13.8828207051762  13.5219941348972 12.9200300075019  Z " fill-rule="nonzero" fill="#c9c9c9" stroke="none" transform="matrix(1 0 0 1 550 257 )" />
  </g>
</svg>