<?xml version="1.0" encoding="utf-8"?>
<svg version="1.1" xmlns:xlink="http://www.w3.org/1999/xlink" width="18px" height="19px" xmlns="http://www.w3.org/2000/svg">
  <g transform="matrix(1 0 0 1 -319 -683 )">
    <path d="M 17.8434782608695 18.5431304347825  C 17.8199999999999 17.4208695652173  17.5875652173913 16.3291304347825  17.1508695652174 15.2984347826086  C 16.7071304347826 14.2466086956521  16.0685217391304 13.3027826086956  15.2585217391304 12.4927826086956  C 14.4485217391304 11.6827826086957  13.5046956521739 11.0465217391304  12.4528695652173 10.6004347826087  C 12.4434782608695 10.5957391304347  12.4340869565216 10.5933913043478  12.4246956521739 10.5886956521739  C 13.8873913043478 9.53217391304338  14.8382608695651 7.81121739130435  14.8382608695651 5.86956521739125  C 14.8382608695651 2.65304347826088  12.2321739130435 0.0469565217391619  9.01565217391305 0.0469565217391619  C 5.79913043478257 0.0469565217391619  3.1930434782609 2.65304347826088  3.1930434782609 5.86956521739125  C 3.1930434782609 7.81121739130435  4.14391304347822 9.53217391304338  5.60660869565214 10.5910434782608  C 5.59721739130435 10.5957391304347  5.58782608695651 10.5980869565217  5.57843478260872 10.6027826086956  C 4.52660869565216 11.0465217391304  3.5827826086956 11.6827826086957  2.77278260869565 12.4951304347826  C 1.9627826086957 13.3051304347825  1.3265217391305 14.248956521739  0.880434782608688 15.3007826086956  C 0.443739130434778 16.3291304347825  0.211304347826058 17.4208695652173  0.187826086956534 18.5431304347825  C 0.185478260869502 18.6487826086956  0.269999999999982 18.735652173913  0.375652173913068 18.735652173913  L 1.78434782608696 18.735652173913  C 1.88765217391307 18.735652173913  1.96982608695657 18.6534782608695  1.97217391304349 18.5525217391304  C 2.01913043478265 16.7399999999999  2.74695652173915 15.0425217391304  4.0335652173913 13.7559130434782  C 5.36478260869569 12.4246956521738  7.13269565217394 11.6921739130435  9.01565217391305 11.6921739130435  C 10.8986086956521 11.6921739130435  12.6665217391304 12.4246956521738  13.9977391304348 13.7559130434782  C 15.284347826087 15.0425217391304  16.0121739130435 16.7399999999999  16.0591304347826 18.5525217391304  C 16.0614782608695 18.6558260869565  16.143652173913 18.735652173913  16.2469565217392 18.735652173913  L 17.655652173913 18.735652173913  C 17.761304347826 18.735652173913  17.8458260869565 18.6487826086956  17.8434782608695 18.5431304347825  Z M 11.8706086956522 8.72452173913041  C 11.1075652173913 9.48756521739131  10.0933043478261 9.90782608695645  9.01565217391305 9.90782608695645  C 7.93800000000005 9.90782608695645  6.92373913043474 9.48756521739131  6.16069565217384 8.72452173913041  C 5.397652173913 7.96147826086951  4.97739130434786 6.94721739130432  4.97739130434786 5.86956521739125  C 4.97739130434786 4.7919130434783  5.397652173913 3.777652173913  6.16069565217384 3.0146086956521  C 6.92373913043474 2.25156521739132  7.93800000000005 1.83130434782606  9.01565217391305 1.83130434782606  C 10.0933043478261 1.83130434782606  11.1075652173913 2.25156521739132  11.8706086956522 3.0146086956521  C 12.6336521739131 3.777652173913  13.0539130434782 4.7919130434783  13.0539130434782 5.86956521739125  C 13.0539130434782 6.94721739130432  12.6336521739131 7.96147826086951  11.8706086956522 8.72452173913041  Z " fill-rule="nonzero" fill="#999999" stroke="none" transform="matrix(1 0 0 1 319 683 )" />
  </g>
</svg>