<?xml version="1.0" encoding="utf-8"?>
<svg version="1.1" xmlns:xlink="http://www.w3.org/1999/xlink" width="20px" height="19px" xmlns="http://www.w3.org/2000/svg">
  <g transform="matrix(1 0 0 1 -67 -682 )">
    <path d="M 19.4294871794872 10.0470085470085  C 19.4294871794872 9.68376068376062  19.2863247863248 9.33974358974353  19.0277777777778 9.08119658119654  L 10.7713675213675 0.829059829059815  L 10.2179487179487 0.275641025640994  C 9.95512820512821 0.0149572649572747  9.53205128205128 0.0149572649572747  9.26923076923077 0.275641025640994  L 0.459401709401709 9.08119658119654  C 0.196581196581198 9.34401709401709  0.0555555555555554 9.69230769230774  0.0576923076923066 10.0641025641025  C 0.0662393162393169 10.8162393162393  0.692307692307692 11.4166666666666  1.44444444444444 11.4166666666666  L 2.3525641025641 11.4166666666666  L 2.3525641025641 18  L 17.1346153846154 18  L 17.1346153846154 11.4166666666666  L 18.0619658119658 11.4166666666666  C 18.4273504273504 11.4166666666666  18.7713675213675 11.2735042735043  19.0299145299145 11.0149572649573  C 19.2884615384615 10.7564102564103  19.4294871794872 10.4123931623932  19.4294871794872 10.0470085470085  Z M 10.9401709401709 12.4786324786324  L 10.9401709401709 16.8376068376068  L 8.54700854700855 16.8376068376068  L 8.54700854700855 12.4786324786324  L 10.9401709401709 12.4786324786324  Z M 17.6495726495726 9.87820512820508  L 15.5961538461538 9.87820512820508  L 15.5961538461538 16.8376068376068  L 12.3076923076923 16.8376068376068  L 12.3076923076923 11.965811965812  C 12.3076923076923 11.4935897435897  11.9252136752137 11.1111111111111  11.4529914529914 11.1111111111111  L 8.03418803418803 11.1111111111111  C 7.56196581196581 11.1111111111111  7.17948717948718 11.4935897435897  7.17948717948718 11.965811965812  L 7.17948717948718 16.8376068376068  L 3.89102564102564 16.8376068376068  L 3.89102564102564 9.87820512820508  L 1.83974358974359 9.87820512820508  L 9.74572649572649 1.97863247863245  L 10.2393162393162 2.47222222222217  L 17.6495726495726 9.87820512820508  Z " fill-rule="nonzero" fill="#999999" stroke="none" transform="matrix(1 0 0 1 67 682 )" />
  </g>
</svg>