<?xml version="1.0" encoding="utf-8"?>
<svg version="1.1" xmlns:xlink="http://www.w3.org/1999/xlink" width="12px" height="12px" viewBox="269 153  12 12" xmlns="http://www.w3.org/2000/svg">
  <path d="M 275 153  C 278.36 153  281 155.64  281 159  C 281 162.36  278.36 165  275 165  C 271.64 165  269 162.36  269 159  C 269 155.64  271.64 153  275 153  Z " fill-rule="nonzero" fill="#ffffff" stroke="none" />
  <path d="M 275 153.5  C 278.08 153.5  280.5 155.92  280.5 159  C 280.5 162.08  278.08 164.5  275 164.5  C 271.92 164.5  269.5 162.08  269.5 159  C 269.5 155.92  271.92 153.5  275 153.5  Z " stroke-width="1" stroke="#797979" fill="none" />
  <path d="M 275 162  C 273.32 162  272 160.68  272 159  C 272 157.32  273.32 156  275 156  C 276.68 156  278 157.32  278 159  C 278 160.68  276.68 162  275 162  " fill-rule="nonzero" fill="#797979" stroke="none" />
</svg>