<?xml version="1.0" encoding="utf-8"?>
<svg version="1.1" xmlns:xlink="http://www.w3.org/1999/xlink" width="12px" height="12px" viewBox="404 69  12 12" xmlns="http://www.w3.org/2000/svg">
  <path d="M 410 69  C 413.36 69  416 71.64  416 75  C 416 78.36  413.36 81  410 81  C 406.64 81  404 78.36  404 75  C 404 71.64  406.64 69  410 69  Z " fill-rule="nonzero" fill="#ffffff" stroke="none" />
  <path d="M 410 69.5  C 413.08 69.5  415.5 71.92  415.5 75  C 415.5 78.08  413.08 80.5  410 80.5  C 406.92 80.5  404.5 78.08  404.5 75  C 404.5 71.92  406.92 69.5  410 69.5  Z " stroke-width="1" stroke="#797979" fill="none" />
  <path d="M 410 78  C 408.32 78  407 76.68  407 75  C 407 73.32  408.32 72  410 72  C 411.68 72  413 73.32  413 75  C 413 76.68  411.68 78  410 78  " fill-rule="nonzero" fill="#797979" stroke="none" />
</svg>