<?xml version="1.0" encoding="utf-8"?>
<svg version="1.1" xmlns:xlink="http://www.w3.org/1999/xlink" width="12px" height="12px" viewBox="270 69  12 12" xmlns="http://www.w3.org/2000/svg">
  <path d="M 276 69  C 279.36 69  282 71.64  282 75  C 282 78.36  279.36 81  276 81  C 272.64 81  270 78.36  270 75  C 270 71.64  272.64 69  276 69  Z " fill-rule="nonzero" fill="#ffffff" stroke="none" />
  <path d="M 276 69.5  C 279.08 69.5  281.5 71.92  281.5 75  C 281.5 78.08  279.08 80.5  276 80.5  C 272.92 80.5  270.5 78.08  270.5 75  C 270.5 71.92  272.92 69.5  276 69.5  Z " stroke-width="1" stroke="#797979" fill="none" />
  <path d="M 276 78  C 274.32 78  273 76.68  273 75  C 273 73.32  274.32 72  276 72  C 277.68 72  279 73.32  279 75  C 279 76.68  277.68 78  276 78  " fill-rule="nonzero" fill="#797979" stroke="none" />
</svg>