<?xml version="1.0" encoding="utf-8"?>
<svg version="1.1" xmlns:xlink="http://www.w3.org/1999/xlink" width="13px" height="13px" xmlns="http://www.w3.org/2000/svg">
  <g transform="matrix(1 0 0 1 -208 -115 )">
    <path d="M 214.5 116  C 217.58 116  220 118.42  220 121.5  C 220 124.58  217.58 127  214.5 127  C 211.42 127  209 124.58  209 121.5  C 209 118.42  211.42 116  214.5 116  Z " fill-rule="nonzero" fill="#ffffff" stroke="none" />
    <path d="M 214.5 116  C 217.58 116  220 118.42  220 121.5  C 220 124.58  217.58 127  214.5 127  C 211.42 127  209 124.58  209 121.5  C 209 118.42  211.42 116  214.5 116  Z " stroke-width="2" stroke="#e4e4e4" fill="none" />
  </g>
</svg>