<?xml version="1.0" encoding="utf-8"?>
<svg version="1.1" xmlns:xlink="http://www.w3.org/1999/xlink" width="24px" height="20px" xmlns="http://www.w3.org/2000/svg">
  <g transform="matrix(1 0 0 1 -35 -252 )">
    <path d="M 8.86071428571429 12.8357142857143  C 8.86071428571429 9.19821428571428  12.4017857142857 6.25178571428571  16.7705357142857 6.25178571428571  C 16.9285714285714 6.25178571428571  17.0866071428571 6.25714285714285  17.2419642857143 6.26517857142857  C 16.5883928571429 2.81785714285714  13.0017857142857 0.182142857142857  8.67321428571429 0.182142857142857  C 3.88392857142857 0.182142857142857  0 3.4125  0 7.39821428571428  C 0 9.57053571428571  1.16785714285714 11.5285714285714  2.99732142857143 12.8517857142857  C 3.14464285714286 12.95625  3.24107142857143 13.1276785714286  3.24107142857143 13.3232142857143  C 3.24107142857143 13.3875  3.22767857142857 13.4464285714286  3.21160714285714 13.5080357142857  C 3.06428571428572 14.0517857142857  2.83125 14.9223214285714  2.82053571428571 14.9625  C 2.80178571428571 15.0321428571429  2.775 15.1017857142857  2.775 15.1741071428571  C 2.775 15.3321428571428  2.90357142857143 15.4633928571428  3.06428571428572 15.4633928571428  C 3.12589285714286 15.4633928571428  3.17678571428571 15.4392857142857  3.23035714285714 15.4098214285714  L 5.12946428571428 14.3142857142857  C 5.27142857142857 14.23125  5.42410714285714 14.1803571428571  5.59017857142857 14.1803571428571  C 5.67589285714286 14.1803571428571  5.76160714285714 14.19375  5.84464285714286 14.2178571428571  C 6.73125 14.4723214285714  7.6875 14.6142857142857  8.67589285714286 14.6142857142857  C 8.83660714285714 14.6142857142857  8.99464285714286 14.6116071428571  9.15267857142857 14.6035714285714  C 8.9625 14.0410714285714  8.86071428571429 13.4491071428571  8.86071428571429 12.8357142857143  Z M 10.4089285714286 5.08928571428571  C 10.4089285714286 4.45178571428571  10.9285714285714 3.93482142857143  11.5660714285714 3.93482142857143  C 12.2035714285714 3.93482142857143  12.7232142857143 4.45178571428571  12.7232142857143 5.08928571428571  C 12.7232142857143 5.72678571428571  12.20625 6.24375  11.5660714285714 6.24375  C 10.9285714285714 6.24375  10.4089285714286 5.72678571428571  10.4089285714286 5.08928571428571  Z M 6.94017857142857 5.08928571428571  C 6.94017857142857 5.72678571428571  6.42053571428571 6.24375  5.78303571428571 6.24375  C 5.14553571428571 6.24375  4.62589285714286 5.72678571428571  4.62589285714286 5.08928571428571  C 4.62589285714286 4.45178571428571  5.14285714285714 3.93482142857142  5.78303571428571 3.93482142857142  C 6.42321428571428 3.93482142857142  6.94017857142857 4.45178571428571  6.94017857142857 5.08928571428571  Z M 21.2973214285714 17.7642857142857  C 21.3 17.60625  21.3803571428571 17.4642857142857  21.5008928571429 17.3758928571429  C 23.025 16.2723214285714  23.9973214285714 14.64375  23.9973214285714 12.8303571428571  C 23.9973214285714 9.50892857142857  20.7616071428571 6.81696428571428  16.7678571428571 6.81696428571428  C 12.7767857142857 6.81696428571428  9.53839285714286 9.50892857142857  9.53839285714286 12.8303571428571  C 9.53839285714286 16.1517857142857  12.7741071428571 18.84375  16.7678571428571 18.84375  C 17.5928571428571 18.84375  18.3910714285714 18.7258928571429  19.1276785714286 18.5142857142857  C 19.1973214285714 18.4928571428571  19.2669642857143 18.4821428571428  19.3392857142857 18.4821428571428  C 19.4785714285714 18.4821428571428  19.6044642857143 18.525  19.7223214285714 18.5919642857143  L 21.3053571428571 19.5026785714286  C 21.3508928571429 19.5294642857143  21.39375 19.5482142857143  21.4446428571429 19.5482142857143  C 21.5089285714286 19.5482142857143  21.5705357142857 19.5241071428571  21.6160714285714 19.4785714285714  C 21.6616071428571 19.4330357142857  21.6857142857143 19.3714285714286  21.6857142857143 19.3071428571429  C 21.6857142857143 19.2482142857143  21.6616071428571 19.1892857142857  21.6482142857143 19.1303571428571  C 21.6401785714286 19.0982142857143  21.4446428571429 18.3723214285714  21.3214285714286 17.9169642857143  C 21.3080357142857 17.8660714285714  21.2973214285714 17.8151785714286  21.2973214285714 17.7642857142857  Z M 15.3267857142857 10.9098214285714  C 15.3267857142857 11.4401785714286  14.8928571428571 11.8714285714286  14.3625 11.8714285714286  C 13.8294642857143 11.8714285714286  13.3982142857143 11.4401785714286  13.3982142857143 10.9098214285714  C 13.3982142857143 10.3794642857143  13.8294642857143 9.94821428571429  14.3625 9.94821428571429  C 14.8955357142857 9.94821428571429  15.3267857142857 10.3794642857143  15.3267857142857 10.9098214285714  Z M 20.1455357142857 10.9098214285714  C 20.1428571428571 11.4401785714286  19.7116071428571 11.8714285714286  19.18125 11.8714285714286  C 18.6482142857143 11.8714285714286  18.2169642857143 11.4401785714286  18.2169642857143 10.9098214285714  C 18.2169642857143 10.3794642857143  18.6482142857143 9.94821428571429  19.18125 9.94821428571429  C 19.7142857142857 9.94821428571429  20.1455357142857 10.3794642857143  20.1455357142857 10.9098214285714  Z " fill-rule="nonzero" fill="#52c41a" stroke="none" transform="matrix(1 0 0 1 35 252 )" />
  </g>
</svg>