<?xml version="1.0" encoding="utf-8"?>
<svg version="1.1" xmlns:xlink="http://www.w3.org/1999/xlink" width="22px" height="22px" xmlns="http://www.w3.org/2000/svg">
  <g transform="matrix(1 0 0 1 -166 -251 )">
    <path d="M 11.4419642857143 13.2908482142857  C 9.47276785714286 12.3357142857143  7.80558035714286 11.6506696428572  6.00580357142857 11.8274553571429  C 5.51964285714286 11.8765625  4.60379464285715 12.0901785714286  4.10535714285714 12.5296875  C 2.60758928571429 13.8310267857143  3.50379464285714 16.2127232142857  6.53616071428571 16.2127232142857  C 8.29910714285715 16.2127232142857  10.0595982142857 15.090625  11.4419642857143 13.2908482142857  Z M 14.3220982142857 12.3946428571429  C 15.4883928571429 12.8145089285715  16.534375 13.2122767857143  17.3127232142857 13.4725446428571  C 19.7705357142857 14.2926339285714  21.1111607142857 14.5283482142857  21.4058035714286 14.5725446428572  C 21.7912946428571 13.4529017857143  22 12.2522321428572  22 11  C 22 4.92544642857143  17.0745535714286 0  11 0  C 4.92544642857143 0  0 4.92544642857143  0 11  C 0 17.0745535714286  4.92544642857143 22  11 22  C 14.8279017857143 22  18.1991071428571 20.0430803571429  20.1707589285714 17.0770089285714  C 18.3145089285714 16.3453125  14.9261160714286 14.9899553571428  13.1287946428571 14.128125  C 11.4125 16.2323660714285  9.19776785714286 17.5116071428571  6.89955357142857 17.5116071428571  C 3.01026785714286 17.5116071428571  1.69174107142857 14.1207589285714  3.53080357142857 11.8888392857143  C 3.93102678571429 11.4026785714286  4.61607142857143 10.9386160714286  5.67433035714286 10.6758928571429  C 7.33169642857143 10.2707589285714  9.97120535714286 10.9287946428572  12.44375 11.7415178571429  C 12.8881696428572 10.9238839285714  13.2638392857143 10.0252232142857  13.5412946428571 9.06763392857141  L 5.91986607142857 9.06763392857141  L 5.91986607142857 8.29910714285717  L 9.8484375 8.29910714285717  L 9.8484375 6.91919642857141  L 5.08995535714286 6.91919642857141  L 5.08995535714286 6.15066964285717  L 9.8484375 6.15066964285717  L 9.8484375 4.18392857142857  C 9.8484375 4.18392857142857  9.8484375 3.85245535714284  10.1848214285714 3.85245535714284  L 12.1049107142857 3.85245535714284  L 12.1049107142857 6.15066964285717  L 16.8118303571429 6.15066964285717  L 16.8118303571429 6.91919642857141  L 12.1073660714286 6.91919642857141  L 12.1073660714286 8.29910714285717  L 15.9475446428571 8.29910714285717  C 15.5792410714286 9.79933035714288  15.021875 11.1816964285715  14.3220982142857 12.3946428571429  Z " fill-rule="nonzero" fill="#3089fa" stroke="none" transform="matrix(1 0 0 1 166 251 )" />
  </g>
</svg>