<?xml version="1.0" encoding="utf-8"?>
<svg version="1.1" xmlns:xlink="http://www.w3.org/1999/xlink" width="30px" height="30px" xmlns="http://www.w3.org/2000/svg">
  <g transform="matrix(1 0 0 1 -58 -110 )">
    <path d="M 73 110  C 81.4 110  88 116.6  88 125  C 88 133.4  81.4 140  73 140  C 64.6 140  58 133.4  58 125  C 58 116.6  64.6 110  73 110  Z " fill-rule="nonzero" fill="#ff6600" stroke="none" />
    <path d="M 73 110.5  C 81.12 110.5  87.5 116.88  87.5 125  C 87.5 133.12  81.12 139.5  73 139.5  C 64.88 139.5  58.5 133.12  58.5 125  C 58.5 116.88  64.88 110.5  73 110.5  Z " stroke-width="1" stroke="#ff6600" fill="none" />
  </g>
</svg>