<?xml version="1.0" encoding="utf-8"?>
<svg version="1.1" xmlns:xlink="http://www.w3.org/1999/xlink" width="10px" height="17px" preserveAspectRatio="xMidYMin meet" viewBox="336 1655  8 17" xmlns="http://www.w3.org/2000/svg">
  <defs>
    <mask fill="white" id="clip861">
      <path d="M 400 1641  L 520 1641  L 520 1679  L 400 1679  Z M 320 1641  L 610 1641  L 610 1679  L 320 1679  Z " fill-rule="evenodd" />
    </mask>
  </defs>
  <path d="M 320 1667.5  L 336.5 1667.5  A 3.5 3.5 0 0 0 340.5 1664 A 3.5 3.5 0 0 1 344 1660.5 L 586.5 1660.5  A 3.5 3.5 0 0 1 590.5 1664 A 3.5 3.5 0 0 0 594 1667.5 L 596 1667.5  " stroke-width="1" stroke-dasharray="3,1" stroke="#cccccc" fill="none" stroke-opacity="0.917647058823529" mask="url(#clip861)" />
  <path d="M 595 1673.8  L 601 1667.5  L 595 1661.2  L 595 1673.8  Z " fill-rule="nonzero" fill="#cccccc" stroke="none" fill-opacity="0.917647058823529" mask="url(#clip861)" />
</svg>