<?xml version="1.0" encoding="utf-8"?>
<svg version="1.1" xmlns:xlink="http://www.w3.org/1999/xlink" width="83px" height="30px" xmlns="http://www.w3.org/2000/svg">
  <g transform="matrix(1 0 0 1 -279 -658 )">
    <path d="M 280 673  A 14 14 0 0 1 294 659 L 347 659  A 14 14 0 0 1 361 673 A 14 14 0 0 1 347 687 L 294 687  A 14 14 0 0 1 280 673 Z " fill-rule="nonzero" fill="#ff6600" stroke="none" fill-opacity="0.549019607843137" />
    <path d="M 279.5 673  A 14.5 14.5 0 0 1 294 658.5 L 347 658.5  A 14.5 14.5 0 0 1 361.5 673 A 14.5 14.5 0 0 1 347 687.5 L 294 687.5  A 14.5 14.5 0 0 1 279.5 673 Z " stroke-width="1" stroke="#ff6600" fill="none" stroke-opacity="0.549019607843137" />
  </g>
</svg>