<?xml version="1.0" encoding="utf-8"?>
<svg version="1.1" xmlns:xlink="http://www.w3.org/1999/xlink" width="89px" height="30px" xmlns="http://www.w3.org/2000/svg">
  <g transform="matrix(1 0 0 1 -705 -342 )">
    <path d="M 706 357  A 14 14 0 0 1 720 343 L 779 343  A 14 14 0 0 1 793 357 A 14 14 0 0 1 779 371 L 720 371  A 14 14 0 0 1 706 357 Z " fill-rule="nonzero" fill="#ff0000" stroke="none" />
    <path d="M 705.5 357  A 14.5 14.5 0 0 1 720 342.5 L 779 342.5  A 14.5 14.5 0 0 1 793.5 357 A 14.5 14.5 0 0 1 779 371.5 L 720 371.5  A 14.5 14.5 0 0 1 705.5 357 Z " stroke-width="1" stroke="#ff6600" fill="none" stroke-opacity="0.549019607843137" />
  </g>
</svg>