<?xml version="1.0" encoding="utf-8"?>
<svg version="1.1" xmlns:xlink="http://www.w3.org/1999/xlink" width="12px" height="12px" viewBox="103 774  12 12" xmlns="http://www.w3.org/2000/svg">
  <path d="M 109 774  C 112.36 774  115 776.64  115 780  C 115 783.36  112.36 786  109 786  C 105.64 786  103 783.36  103 780  C 103 776.64  105.64 774  109 774  Z " fill-rule="nonzero" fill="#ffffff" stroke="none" />
  <path d="M 109 774.5  C 112.08 774.5  114.5 776.92  114.5 780  C 114.5 783.08  112.08 785.5  109 785.5  C 105.92 785.5  103.5 783.08  103.5 780  C 103.5 776.92  105.92 774.5  109 774.5  Z " stroke-width="1" stroke="#797979" fill="none" />
  <path d="M 109 783  C 107.32 783  106 781.68  106 780  C 106 778.32  107.32 777  109 777  C 110.68 777  112 778.32  112 780  C 112 781.68  110.68 783  109 783  " fill-rule="nonzero" fill="#797979" stroke="none" />
</svg>