<?xml version="1.0" encoding="utf-8"?>
<svg version="1.1" xmlns:xlink="http://www.w3.org/1999/xlink" width="12px" height="12px" viewBox="208 217  12 12" xmlns="http://www.w3.org/2000/svg">
  <path d="M 214 217  C 217.36 217  220 219.64  220 223  C 220 226.36  217.36 229  214 229  C 210.64 229  208 226.36  208 223  C 208 219.64  210.64 217  214 217  Z " fill-rule="nonzero" fill="#ffffff" stroke="none" />
  <path d="M 214 217.5  C 217.08 217.5  219.5 219.92  219.5 223  C 219.5 226.08  217.08 228.5  214 228.5  C 210.92 228.5  208.5 226.08  208.5 223  C 208.5 219.92  210.92 217.5  214 217.5  Z " stroke-width="1" stroke="#797979" fill="none" />
  <path d="M 214 226  C 212.32 226  211 224.68  211 223  C 211 221.32  212.32 220  214 220  C 215.68 220  217 221.32  217 223  C 217 224.68  215.68 226  214 226  " fill-rule="nonzero" fill="#797979" stroke="none" />
</svg>