<?xml version="1.0" encoding="utf-8"?>
<svg version="1.1" xmlns:xlink="http://www.w3.org/1999/xlink" width="12px" height="12px" viewBox="213 816  12 12" xmlns="http://www.w3.org/2000/svg">
  <path d="M 219 816  C 222.36 816  225 818.64  225 822  C 225 825.36  222.36 828  219 828  C 215.64 828  213 825.36  213 822  C 213 818.64  215.64 816  219 816  Z " fill-rule="nonzero" fill="#ffffff" stroke="none" />
  <path d="M 219 816.5  C 222.08 816.5  224.5 818.92  224.5 822  C 224.5 825.08  222.08 827.5  219 827.5  C 215.92 827.5  213.5 825.08  213.5 822  C 213.5 818.92  215.92 816.5  219 816.5  Z " stroke-width="1" stroke="#797979" fill="none" />
  <path d="M 219 825  C 217.32 825  216 823.68  216 822  C 216 820.32  217.32 819  219 819  C 220.68 819  222 820.32  222 822  C 222 823.68  220.68 825  219 825  " fill-rule="nonzero" fill="#797979" stroke="none" />
</svg>