<?xml version="1.0" encoding="utf-8"?>
<svg version="1.1" xmlns:xlink="http://www.w3.org/1999/xlink" width="12px" height="12px" viewBox="213 774  12 12" xmlns="http://www.w3.org/2000/svg">
  <path d="M 219 774  C 222.36 774  225 776.64  225 780  C 225 783.36  222.36 786  219 786  C 215.64 786  213 783.36  213 780  C 213 776.64  215.64 774  219 774  Z " fill-rule="nonzero" fill="#ffffff" stroke="none" />
  <path d="M 219 774.5  C 222.08 774.5  224.5 776.92  224.5 780  C 224.5 783.08  222.08 785.5  219 785.5  C 215.92 785.5  213.5 783.08  213.5 780  C 213.5 776.92  215.92 774.5  219 774.5  Z " stroke-width="1" stroke="#797979" fill="none" />
  <path d="M 219 783  C 217.32 783  216 781.68  216 780  C 216 778.32  217.32 777  219 777  C 220.68 777  222 778.32  222 780  C 222 781.68  220.68 783  219 783  " fill-rule="nonzero" fill="#797979" stroke="none" />
</svg>