<?xml version="1.0" encoding="utf-8"?>
<svg version="1.1" xmlns:xlink="http://www.w3.org/1999/xlink" width="12px" height="12px" viewBox="208 214  12 12" xmlns="http://www.w3.org/2000/svg">
  <path d="M 214 214  C 217.36 214  220 216.64  220 220  C 220 223.36  217.36 226  214 226  C 210.64 226  208 223.36  208 220  C 208 216.64  210.64 214  214 214  Z " fill-rule="nonzero" fill="#ffffff" stroke="none" />
  <path d="M 214 214.5  C 217.08 214.5  219.5 216.92  219.5 220  C 219.5 223.08  217.08 225.5  214 225.5  C 210.92 225.5  208.5 223.08  208.5 220  C 208.5 216.92  210.92 214.5  214 214.5  Z " stroke-width="1" stroke="#797979" fill="none" />
  <path d="M 214 223  C 212.32 223  211 221.68  211 220  C 211 218.32  212.32 217  214 217  C 215.68 217  217 218.32  217 220  C 217 221.68  215.68 223  214 223  " fill-rule="nonzero" fill="#797979" stroke="none" />
</svg>