<?xml version="1.0" encoding="utf-8"?>
<svg version="1.1" xmlns:xlink="http://www.w3.org/1999/xlink" width="12px" height="12px" viewBox="98 172  12 12" xmlns="http://www.w3.org/2000/svg">
  <path d="M 104 172  C 107.36 172  110 174.64  110 178  C 110 181.36  107.36 184  104 184  C 100.64 184  98 181.36  98 178  C 98 174.64  100.64 172  104 172  Z " fill-rule="nonzero" fill="#ffffff" stroke="none" />
  <path d="M 104 172.5  C 107.08 172.5  109.5 174.92  109.5 178  C 109.5 181.08  107.08 183.5  104 183.5  C 100.92 183.5  98.5 181.08  98.5 178  C 98.5 174.92  100.92 172.5  104 172.5  Z " stroke-width="1" stroke="#797979" fill="none" />
  <path d="M 104 181  C 102.32 181  101 179.68  101 178  C 101 176.32  102.32 175  104 175  C 105.68 175  107 176.32  107 178  C 107 179.68  105.68 181  104 181  " fill-rule="nonzero" fill="#797979" stroke="none" />
</svg>