<?xml version="1.0" encoding="utf-8"?>
<svg version="1.1" xmlns:xlink="http://www.w3.org/1999/xlink" width="12px" height="12px" viewBox="98 214  12 12" xmlns="http://www.w3.org/2000/svg">
  <path d="M 104 214  C 107.36 214  110 216.64  110 220  C 110 223.36  107.36 226  104 226  C 100.64 226  98 223.36  98 220  C 98 216.64  100.64 214  104 214  Z " fill-rule="nonzero" fill="#ffffff" stroke="none" />
  <path d="M 104 214.5  C 107.08 214.5  109.5 216.92  109.5 220  C 109.5 223.08  107.08 225.5  104 225.5  C 100.92 225.5  98.5 223.08  98.5 220  C 98.5 216.92  100.92 214.5  104 214.5  Z " stroke-width="1" stroke="#797979" fill="none" />
  <path d="M 104 223  C 102.32 223  101 221.68  101 220  C 101 218.32  102.32 217  104 217  C 105.68 217  107 218.32  107 220  C 107 221.68  105.68 223  104 223  " fill-rule="nonzero" fill="#797979" stroke="none" />
</svg>