<?xml version="1.0" encoding="utf-8"?>
<svg version="1.1" xmlns:xlink="http://www.w3.org/1999/xlink" width="12px" height="12px" viewBox="208 172  12 12" xmlns="http://www.w3.org/2000/svg">
  <path d="M 214 172  C 217.36 172  220 174.64  220 178  C 220 181.36  217.36 184  214 184  C 210.64 184  208 181.36  208 178  C 208 174.64  210.64 172  214 172  Z " fill-rule="nonzero" fill="#ffffff" stroke="none" />
  <path d="M 214 172.5  C 217.08 172.5  219.5 174.92  219.5 178  C 219.5 181.08  217.08 183.5  214 183.5  C 210.92 183.5  208.5 181.08  208.5 178  C 208.5 174.92  210.92 172.5  214 172.5  Z " stroke-width="1" stroke="#797979" fill="none" />
  <path d="M 214 181  C 212.32 181  211 179.68  211 178  C 211 176.32  212.32 175  214 175  C 215.68 175  217 176.32  217 178  C 217 179.68  215.68 181  214 181  " fill-rule="nonzero" fill="#797979" stroke="none" />
</svg>