<?xml version="1.0" encoding="utf-8"?>
<svg version="1.1" xmlns:xlink="http://www.w3.org/1999/xlink" width="12px" height="12px" viewBox="183 66  12 12" xmlns="http://www.w3.org/2000/svg">
  <path d="M 189 66  C 192.36 66  195 68.64  195 72  C 195 75.36  192.36 78  189 78  C 185.64 78  183 75.36  183 72  C 183 68.64  185.64 66  189 66  Z " fill-rule="nonzero" fill="#ffffff" stroke="none" />
  <path d="M 189 66.5  C 192.08 66.5  194.5 68.92  194.5 72  C 194.5 75.08  192.08 77.5  189 77.5  C 185.92 77.5  183.5 75.08  183.5 72  C 183.5 68.92  185.92 66.5  189 66.5  Z " stroke-width="1" stroke="#797979" fill="none" />
  <path d="M 189 75  C 187.32 75  186 73.68  186 72  C 186 70.32  187.32 69  189 69  C 190.68 69  192 70.32  192 72  C 192 73.68  190.68 75  189 75  " fill-rule="nonzero" fill="#797979" stroke="none" />
</svg>