<?xml version="1.0" encoding="utf-8"?>
<svg version="1.1" xmlns:xlink="http://www.w3.org/1999/xlink" width="12px" height="12px" viewBox="267 67  12 12" xmlns="http://www.w3.org/2000/svg">
  <path d="M 273 67  C 276.36 67  279 69.64  279 73  C 279 76.36  276.36 79  273 79  C 269.64 79  267 76.36  267 73  C 267 69.64  269.64 67  273 67  Z " fill-rule="nonzero" fill="#ffffff" stroke="none" />
  <path d="M 273 67.5  C 276.08 67.5  278.5 69.92  278.5 73  C 278.5 76.08  276.08 78.5  273 78.5  C 269.92 78.5  267.5 76.08  267.5 73  C 267.5 69.92  269.92 67.5  273 67.5  Z " stroke-width="1" stroke="#797979" fill="none" />
  <path d="M 273 76  C 271.32 76  270 74.68  270 73  C 270 71.32  271.32 70  273 70  C 274.68 70  276 71.32  276 73  C 276 74.68  274.68 76  273 76  " fill-rule="nonzero" fill="#797979" stroke="none" />
</svg>