<?xml version="1.0" encoding="utf-8"?>
<svg version="1.1" xmlns:xlink="http://www.w3.org/1999/xlink" width="12px" height="12px" viewBox="122 616  12 12" xmlns="http://www.w3.org/2000/svg">
  <path d="M 128 616  C 131.36 616  134 618.64  134 622  C 134 625.36  131.36 628  128 628  C 124.64 628  122 625.36  122 622  C 122 618.64  124.64 616  128 616  Z " fill-rule="nonzero" fill="#ffffff" stroke="none" />
  <path d="M 128 616.5  C 131.08 616.5  133.5 618.92  133.5 622  C 133.5 625.08  131.08 627.5  128 627.5  C 124.92 627.5  122.5 625.08  122.5 622  C 122.5 618.92  124.92 616.5  128 616.5  Z " stroke-width="1" stroke="#797979" fill="none" />
  <path d="M 128 625  C 126.32 625  125 623.68  125 622  C 125 620.32  126.32 619  128 619  C 129.68 619  131 620.32  131 622  C 131 623.68  129.68 625  128 625  " fill-rule="nonzero" fill="#797979" stroke="none" />
</svg>