<?xml version="1.0" encoding="utf-8"?>
<svg version="1.1" xmlns:xlink="http://www.w3.org/1999/xlink" width="12px" height="12px" viewBox="122 693  12 12" xmlns="http://www.w3.org/2000/svg">
  <path d="M 128 693  C 131.36 693  134 695.64  134 699  C 134 702.36  131.36 705  128 705  C 124.64 705  122 702.36  122 699  C 122 695.64  124.64 693  128 693  Z " fill-rule="nonzero" fill="#ffffff" stroke="none" />
  <path d="M 128 693.5  C 131.08 693.5  133.5 695.92  133.5 699  C 133.5 702.08  131.08 704.5  128 704.5  C 124.92 704.5  122.5 702.08  122.5 699  C 122.5 695.92  124.92 693.5  128 693.5  Z " stroke-width="1" stroke="#797979" fill="none" />
  <path d="M 128 702  C 126.32 702  125 700.68  125 699  C 125 697.32  126.32 696  128 696  C 129.68 696  131 697.32  131 699  C 131 700.68  129.68 702  128 702  " fill-rule="nonzero" fill="#797979" stroke="none" />
</svg>