<?xml version="1.0" encoding="utf-8"?>
<svg version="1.1" xmlns:xlink="http://www.w3.org/1999/xlink" width="12px" height="12px" viewBox="95 509  12 12" xmlns="http://www.w3.org/2000/svg">
  <path d="M 101 509  C 104.36 509  107 511.64  107 515  C 107 518.36  104.36 521  101 521  C 97.64 521  95 518.36  95 515  C 95 511.64  97.64 509  101 509  Z " fill-rule="nonzero" fill="#ffffff" stroke="none" />
  <path d="M 101 509.5  C 104.08 509.5  106.5 511.92  106.5 515  C 106.5 518.08  104.08 520.5  101 520.5  C 97.92 520.5  95.5 518.08  95.5 515  C 95.5 511.92  97.92 509.5  101 509.5  Z " stroke-width="1" stroke="#797979" fill="none" />
  <path d="M 101 518  C 99.32 518  98 516.68  98 515  C 98 513.32  99.32 512  101 512  C 102.68 512  104 513.32  104 515  C 104 516.68  102.68 518  101 518  " fill-rule="nonzero" fill="#797979" stroke="none" />
</svg>