<?xml version="1.0" encoding="utf-8"?>
<svg version="1.1" xmlns:xlink="http://www.w3.org/1999/xlink" width="12px" height="12px" viewBox="95 467  12 12" xmlns="http://www.w3.org/2000/svg">
  <path d="M 101 467  C 104.36 467  107 469.64  107 473  C 107 476.36  104.36 479  101 479  C 97.64 479  95 476.36  95 473  C 95 469.64  97.64 467  101 467  Z " fill-rule="nonzero" fill="#ffffff" stroke="none" />
  <path d="M 101 467.5  C 104.08 467.5  106.5 469.92  106.5 473  C 106.5 476.08  104.08 478.5  101 478.5  C 97.92 478.5  95.5 476.08  95.5 473  C 95.5 469.92  97.92 467.5  101 467.5  Z " stroke-width="1" stroke="#797979" fill="none" />
  <path d="M 101 476  C 99.32 476  98 474.68  98 473  C 98 471.32  99.32 470  101 470  C 102.68 470  104 471.32  104 473  C 104 474.68  102.68 476  101 476  " fill-rule="nonzero" fill="#797979" stroke="none" />
</svg>