<?xml version="1.0" encoding="utf-8"?>
<svg version="1.1" xmlns:xlink="http://www.w3.org/1999/xlink" width="16px" height="17px" xmlns="http://www.w3.org/2000/svg">
  <g transform="matrix(1 0 0 1 -279 -71 )">
    <path d="M 14.5937136204889 1.45089285714285  L 15.906868451688 2.76227678571428  C 15.9689561505627 2.82428075396825  16 2.89558531746032  16 2.97619047619047  C 16 3.05679563492063  15.9689561505627 3.1281001984127  15.906868451688 3.19010416666666  L 14.5937136204889 4.50148809523809  C 14.4198680636399 4.6750992063492  14.208769887466 4.76190476190476  13.9604190919674 5  L 1.44353899883586 5  C 1.28211098176175 4.76190476190476  1.14241365929377 4.70300099206349  1.02444703143189 4.58519345238095  C 0.906480403570043 4.46738591269841  0.84749708963912 4.32787698412698  0.84749708963912 4.16666666666666  L 0.84749708963912 1.78571428571428  C 0.84749708963912 1.62450396825397  0.906480403570043 1.48499503968254  1.02444703143189 1.3671875  C 1.14241365929377 1.24937996031746  1.28211098176175 1.19047619047619  1.44353899883586 1.19047619047619  L 6.80791618160652 1.19047619047619  L 6.80791618160652 0.595238095238095  C 6.80791618160652 0.434027777777779  6.86689949553744 0.294518849206348  6.98486612339929 0.17671130952381  C 7.10283275126113 0.0589037698412724  7.24253007372914 0  7.40395809080326 0  L 8.59604190919674 0  C 8.75746992627086 0  8.89716724873887 0.0589037698412724  9.01513387660071 0.17671130952381  C 9.13310050446256 0.294518849206348  9.19208381839348 0.434027777777779  9.19208381839348 0.595238095238095  L 9.19208381839348 1.19047619047619  L 13.9604190919674 1.19047619047619  C 14.208769887466 1.19047619047619  14.4198680636399 1.27728174603175  14.5937136204889 1.45089285714285  Z M 6.80791618160652 16.0714285714286  L 6.80791618160652 11.3095238095238  L 9.19208381839348 11.3095238095238  L 9.19208381839348 16.0714285714286  C 9.19208381839348 16.2326388888889  9.13310050446256 16.3721478174603  9.01513387660071 16.4899553571429  C 8.89716724873887 16.6077628968254  8.75746992627086 16.6666666666667  8.59604190919674 16.6666666666667  L 7.40395809080326 16.6666666666667  C 7.24253007372914 16.6666666666667  7.10283275126113 16.6077628968254  6.98486612339929 16.4899553571429  C 6.86689949553744 16.3721478174603  6.80791618160652 16.2326388888889  6.80791618160652 16.0714285714286  Z M 9.19208381839348 7.14285714285714  L 14.5564610011642 7.14285714285714  C 14.7178890182383 7.14285714285714  14.8575863407062 7.20176091269841  14.9755529685681 7.31956845238095  C 15.09351959643 7.43737599206349  15.1525029103609 7.57688492063492  15.1525029103609 7.73809523809523  L 15.1525029103609 10.1190476190476  C 15.1525029103609 10.2802579365079  15.09351959643 10.4197668650794  14.9755529685681 10.5375744047619  C 14.8575863407062 10.6553819444444  14.7178890182383 10.7142857142857  14.5564610011642 10.7142857142857  L 2.0395809080326 10.7142857142857  C 1.79123011253395 10.7142857142857  1.58013193636012 10.6274801587302  1.40628637951104 10.453869047619  L 0.0931315483119874 9.14248511904762  C 0.0310438494373386 9.08048115079365  0 9.00917658730159  0 8.92857142857143  C 0 8.84796626984127  0.0310438494373386 8.7766617063492  0.0931315483119874 8.71465773809523  L 1.40628637951104 7.4032738095238  C 1.58013193636012 7.2296626984127  1.79123011253395 7.14285714285714  2.0395809080326 7.14285714285714  L 6.80791618160652 7.14285714285714  L 6.80791618160652 5.35714285714285  L 9.19208381839348 5.35714285714285  L 9.19208381839348 7.14285714285714  Z " fill-rule="nonzero" fill="#ffffff" stroke="none" transform="matrix(1 0 0 1 279 71 )" />
  </g>
</svg>