<?xml version="1.0" encoding="utf-8"?>
<svg version="1.1" xmlns:xlink="http://www.w3.org/1999/xlink" width="22px" height="22px" xmlns="http://www.w3.org/2000/svg">
  <g transform="matrix(1 0 0 1 -44 -110 )">
    <path d="M 0.439999999999998 6.81999999999999  C 0.439999999999998 6.941  0.539000000000001 7.03999999999999  0.659999999999997 7.03999999999999  L 2.2 7.03999999999999  C 2.321 7.03999999999999  2.42 6.941  2.42 6.81999999999999  L 2.42 1.97999999999999  L 7.26000000000001 1.97999999999999  C 7.381 1.97999999999999  7.48 1.881  7.48 1.76000000000001  L 7.48 0.219999999999999  C 7.48 0.0990000000000038  7.381 0  7.26000000000001 0  L 2.31 0  C 1.276 0  0.439999999999998 0.836000000000013  0.439999999999998 1.87  L 0.439999999999998 6.81999999999999  Z M 14.52 1.76000000000001  C 14.52 1.881  14.619 1.97999999999999  14.74 1.97999999999999  L 19.58 1.97999999999999  L 19.58 6.81999999999999  C 19.58 6.941  19.679 7.03999999999999  19.8 7.03999999999999  L 21.34 7.03999999999999  C 21.461 7.03999999999999  21.56 6.941  21.56 6.81999999999999  L 21.56 1.87  C 21.56 0.836000000000013  20.724 0  19.69 0  L 14.74 0  C 14.619 0  14.52 0.0990000000000038  14.52 0.219999999999999  L 14.52 1.76000000000001  Z M 7.48 19.36  C 7.48 19.239  7.381 19.14  7.26000000000001 19.14  L 2.42 19.14  L 2.42 14.3  C 2.42 14.179  2.321 14.08  2.2 14.08  L 0.659999999999997 14.08  C 0.539000000000001 14.08  0.439999999999998 14.179  0.439999999999998 14.3  L 0.439999999999998 19.25  C 0.439999999999998 20.284  1.276 21.12  2.31 21.12  L 7.26000000000001 21.12  C 7.381 21.12  7.48 21.021  7.48 20.9  L 7.48 19.36  Z M 21.56 14.3  C 21.56 14.179  21.461 14.08  21.34 14.08  L 19.8 14.08  C 19.679 14.08  19.58 14.179  19.58 14.3  L 19.58 19.14  L 14.74 19.14  C 14.619 19.14  14.52 19.239  14.52 19.36  L 14.52 20.9  C 14.52 21.021  14.619 21.12  14.74 21.12  L 19.69 21.12  C 20.724 21.12  21.56 20.284  21.56 19.25  L 21.56 14.3  Z M 22 9.78999999999999  C 22 9.669  21.901 9.56999999999999  21.78 10  L 0.219999999999999 10  C 0.0990000000000038 9.56999999999999  0 9.669  0 9.78999999999999  L 0 11.33  C 0 11.451  0.0990000000000038 11.55  0.219999999999999 11.55  L 21.78 11.55  C 21.901 11.55  22 11.451  22 11.33  L 22 9.78999999999999  Z " fill-rule="nonzero" fill="#ffffff" stroke="none" transform="matrix(1 0 0 1 44 110 )" />
  </g>
</svg>