<?xml version="1.0" encoding="utf-8"?>
<svg version="1.1" xmlns:xlink="http://www.w3.org/1999/xlink" width="24px" height="21px" xmlns="http://www.w3.org/2000/svg">
  <g transform="matrix(1 0 0 1 -294 -110 )">
    <path d="M 23.8026548706394 17.4445691711179  C 23.8026804514705 15.7475282421622  22.422041790382 14.3668895813407  20.7249752808622 14.3668895813407  C 20.6497231257139 14.3668895813407  20.5751113141985 14.3697326680699  20.5011910827349 14.3750858670148  L 16.3886792606118 9.51999059598506  L 19.3038418500764 5.88977894990664  C 19.7292290535171 6.11218003839109  20.2126306008429 6.23817230811471  20.7249752808622 6.23817230811471  C 22.422041790382 6.23817230811471  23.8026804514705 4.85753364702617  23.8026804514705 3.16046713750643  C 23.8026804514705 1.46340062798669  22.422041790382 0.082787597922902  20.7249752808622 0.082787597922902  C 19.0279087713425 0.082787597922902  17.6472701102539 1.46342625901138  17.647270110521 3.16049276826419  C 17.647270110521 3.88317460979948  17.8977690923177 4.54838002790495  18.316343144557 5.07412050838389  L 15.5455120078941 8.52457736798321  L 12.4325628182589 4.84956791295485  C 12.4241104001511 4.83937377966595  12.4153250072626 4.82941017288283  12.4061810341998 4.81967709313966  C 12.4048491358787 4.8182683524721  12.4034660262359 4.81693645441817  12.402134127915 4.81552771375044  C 12.39637111211 4.80950856551164  12.3905568847161 4.80351502320082  12.3845121059866 4.79767519014592  C 12.3787746958425 4.79211709518597  12.3729092320299 4.78678950190204  12.3670181625565 4.78148751427909  C 12.3652764473754 4.77992508945226  12.36358596888 4.77828584710846  12.3618186480379 4.77672342228163  C 12.3124616431056 4.73325748682288  12.2577258333004 4.69847452107462  12.1997370948093 4.67268181913312  C 12.1337826222468 4.6432520274999  12.0643190888313 4.62583492641647  11.9942920792262 4.6198413838386  C 11.993421234184 4.61976454175891  11.9925247583841 4.61963648782347  11.9916538882454 4.61958525140477  C 11.9840211035906 4.61897053879636  11.9763883189361 4.61858632759726  11.9687555094517 4.61822774742285  C 11.9658868170615 4.61809966865752  11.9630437300653 4.61786916724827  11.9601750125784 4.61776669414394  C 11.9545144447811 4.61758740405679  11.9488795077414 4.61761300971773  11.943218939944 4.61758740405679  C 11.938326794278 4.61756179839585  11.9334602291761 4.61743371963047  11.928593689171 4.61751056171011  C 11.9250078110682 4.6175617981288  11.9214219329654 4.61779229980493  11.9178360545957 4.61789477290932  C 11.9108948248959 4.61812529941523  11.9039535951964 4.61835582618812  11.8970123654967 4.61879124870921  C 11.8955011770885 4.61889369671673  11.8939899884132 4.61907298680404  11.892478800005 4.61917545964144  C 11.8127186852931 4.62493847544641  11.7335989390438 4.64553163803953  11.6595762344759 4.68149284251223  C 11.602586444889 4.70910407688461  11.549131296986 4.74555194056416  11.5013110861229 4.79050343367339  C 11.499287632847 4.79239883328074  11.4973666275787 4.79439668062872  11.4953687802308 4.79631768616395  C 11.4899643446001 4.80151720068267  11.4845599343334 4.80671671546816  11.4793091831293 4.81214675649272  C 11.4731363504641 4.818498879245  11.467194044572 4.82503029208459  11.4613285807594 4.831587310852  C 11.4603552628798 4.83268868266708  11.4593307331443 4.83371321186848  11.4583830460226 4.83481460851345  C 11.4494952053936 4.84490629379474  11.4409659449391 4.85520287509132  11.432820870587 4.8657299831608  L 8.4931463163735 8.57221826366242  L 5.53928190881135 5.10216716527731  C 5.9714310518645 4.57212364581284  6.23097155871636 3.89608377614911  6.23097155871636 3.16046716260331  C 6.23097155871636 1.46342628384122  4.85033289762782 0.082761991995028  3.15326638810808 0.082761991995028  C 1.45619987858839 0.082761991995028  0.0755612174997964 1.46340065308357  0.0755612174997964 3.16046716260331  C 0.0755612174997964 4.85753367212305  1.45619987858839 6.23817233321159  3.15326638810808 6.23817233321159  C 3.65267629611679 6.23817233321159  4.12462865417933 6.1185065554825  4.54212694053155 5.90647891520403  L 7.68194457316571 9.59501224945733  L 3.83663167357389 14.4434480288821  C 3.61676632806274 14.3933994689949  3.38806435324472 14.3668639754128  3.15326638810808 14.3668639754128  C 1.4562255093461 14.3668639754128  0.0755612174997964 15.7475026365013  0.0755612174997964 17.4445435152634  C 0.0755612174997964 19.1416100247832  1.45619987858839 20.5222486858717  3.15326638810808 20.5222486858717  C 4.85033289762782 20.5222486858717  6.23097155871636 19.1416100247832  6.23097155871636 17.4445435152634  C 6.23097155871636 16.4517684531457  5.7583276456989 15.5674404811699  5.0263993582634 15.0042788439617  L 8.52813422806344 10.5890423675493  L 10.1265891754592 12.4668625876225  C 9.59311343748846 12.9572053649151  9.2581927466494 13.6603698097443  9.25819274691634 14.4403744404769  C 9.25819274691634 15.918625739882  10.460843942101 17.1212769350666  11.9391208471671 17.1212769350666  C 13.4173721465722 17.1212769350666  14.6200233417569 15.918625739882  14.6200233414898 14.4403744404769  C 14.6200233414898 13.7365440463536  14.3472663242655 13.0953127729289  13.9020543555333 12.6164960275132  L 15.571868211122 10.5370984331515  L 19.1726244599063 14.7879994016504  C 18.2608645436451 15.3228326438702  17.6472445296898 16.3133024895202  17.6472445296898 17.4445691711179  C 17.6472445296898 19.1416356806377  19.0278831907783 20.5222743417262  20.7249497002981 20.5222743417262  C 22.4220162098177 20.5222743417262  23.8026548709063 19.1416356806377  23.8026548706394 17.4445691711179  Z M 18.9279397052366 3.16049276826419  C 18.9279397052366 2.16961308039021  19.7340955932552 1.36345719263846  20.7249752808622 1.36345719263846  C 21.7158805741303 1.36345719263846  22.522010856488 2.16961308065709  22.522010856755 3.16049276826419  C 22.522010857022 4.15137245587124  21.7158549687363 4.95752834388986  20.7249752808622 4.95752834415697  C 19.7340955929881 4.95752834442385  18.9279397052366 4.15137245613829  18.9279397052366 3.16049276826419  Z M 3.15329199376913 4.95752834415697  C 2.16241230589509 4.95752834442385  1.35625641814335 4.15137245587124  1.35625641814335 3.16049276826419  C 1.35625641814335 2.16961308065709  2.16241230616203 1.36345719263846  3.15329199376913 1.36345719263846  C 4.14417168137612 1.36345719263846  4.9503275693948 2.16961308065709  4.95032756966174 3.16049276826419  C 4.95032756992879 4.15137245587124  4.14417168164306 4.95752834388986  3.15329199376913 4.95752834415697  Z M 4.95030196373386 17.4445691460211  C 4.95030196373386 18.4354488085313  4.14414605061836 19.2416047216469  3.15326638810808 19.2416047216469  C 2.16238670050109 19.2416047216469  1.35623081248247 18.4354488336282  1.35623081248247 17.4445691460211  C 1.35623081248247 16.453689458414  2.16238670050109 15.6475591760563  3.15326638810808 15.6475591760563  C 4.14414607571524 15.6475591760563  4.95030196373386 16.453715064075  4.95030196373386 17.4445691460211  Z M 13.3393793524352 14.440400021041  C 13.3393537216775 15.2124644985334  12.7112109049565 15.8406329206482  11.939146452828 15.8406329206482  C 11.1670307640138 15.8406329206482  10.5388879224631 15.2124901039274  10.5388879224631 14.440400021041  C 10.5388879224631 13.6682843322267  11.1670307391839 13.0401414906761  11.939146452828 13.0401414906761  C 12.7112365357144 13.0401414906761  13.3393793524352 13.668284307397  13.3393793524352 14.440400021041  Z M 14.7287265637985 9.54173639164173  L 12.8264455654686 11.9105909185986  C 12.5485914817332 11.8128502266135  12.2499905758084 11.7594718959605  11.9391208220704 11.7594718956937  C 11.7105981376063 11.7594718956937  11.4887093388195 11.7882869496217  11.2767841214518 11.8423312295687  L 9.33931031541681 9.56627401251217  L 11.9554365513388 6.26770457285227  L 14.7287265637985 9.54173639164173  Z M 22.522010856755 17.4445691460211  C 22.522010856755 18.4354488085313  21.7158805741303 19.2416047216469  20.7249752808622 19.2416047216469  C 19.7340699875943 19.2416047216469  18.9279397052366 18.4354488336282  18.9279397052366 17.4445691460211  C 18.9279397052366 16.453689458414  19.7340955932552 15.6475591760563  20.7249752808622 15.6475591760563  C 21.7158549684694 15.6475591760563  22.522010856488 16.453715064075  22.522010856755 17.4445691460211  Z " fill-rule="nonzero" fill="#ffffff" stroke="none" transform="matrix(1 0 0 1 294 110 )" />
  </g>
</svg>