<?xml version="1.0" encoding="utf-8"?>
<svg version="1.1" xmlns:xlink="http://www.w3.org/1999/xlink" width="24px" height="19px" xmlns="http://www.w3.org/2000/svg">
  <g transform="matrix(1 0 0 1 -215 -110 )">
    <path d="M 2 0.211143695014663  C 1.6891495601173 0.0950146627565971  1.5941348973607 0  1.47800586510264 0  L 0.211143695014663 0  C 0.0950146627565971 0  0 0.0950146627565971  0 0.211143695014663  L 0 18.3695014662757  C 0 18.4856304985337  0.0950146627565971 18.5806451612903  0.211143695014663 18.5806451612903  L 1.47800586510264 18.5806451612903  C 1.5941348973607 18.5806451612903  1.6891495601173 18.4856304985337  2 18.3695014662757  L 2 0.211143695014663  Z M 23.6744868035191 0.211143695014663  C 23.6744868035191 0.0950146627565971  23.5794721407625 0  23.4633431085044 0  L 22.1964809384164 0  C 22.0803519061584 0  21.9853372434018 0.0950146627565971  22 0.211143695014663  L 22 18.3695014662757  C 21.9853372434018 18.4856304985337  22.0803519061584 18.5806451612903  22.1964809384164 18.5806451612903  L 23.4633431085044 18.5806451612903  C 23.5794721407625 18.5806451612903  23.6744868035191 18.4856304985337  23.6744868035191 18.3695014662757  L 23.6744868035191 0.211143695014663  Z M 3.3782991202346 14.991202346041  C 3.3782991202346 15.1073313782991  3.4733137829912 15.2023460410557  3.58944281524927 15.2023460410557  L 6.54545454545455 15.2023460410557  C 6.66158357771261 15.2023460410557  6.75659824046921 15.1073313782991  7 14.991202346041  L 7 0.211143695014663  C 6.75659824046921 0.0950146627565971  6.66158357771261 0  6.54545454545455 0  L 3.58944281524927 0  C 3.4733137829912 0  3.3782991202346 0.0950146627565971  3.3782991202346 0.211143695014663  L 3.3782991202346 14.991202346041  Z M 12 14.991202346041  C 11.8504398826979 15.1073313782991  11.9454545454545 15.2023460410557  12.0615835777126 15.2023460410557  L 13.3284457478006 15.2023460410557  C 13.4445747800586 15.2023460410557  13.5395894428152 15.1073313782991  13.5395894428152 14.991202346041  L 13.5395894428152 0.211143695014663  C 13.5395894428152 0.0950146627565971  13.4445747800586 0  13.3284457478006 0  L 12.0615835777126 0  C 11.9454545454545 0  11.8504398826979 0.0950146627565971  12 0.211143695014663  L 12 14.991202346041  Z M 15 14.991202346041  C 15.1759530791789 15.1073313782991  15.2709677419355 15.2023460410557  15.3870967741936 15.2023460410557  L 20.0850439882698 15.2023460410557  C 20.2011730205279 15.2023460410557  20.2961876832845 15.1073313782991  20 14.991202346041  L 20 0.211143695014663  C 20.2961876832845 0.0950146627565971  20.2011730205279 0  20.0850439882698 0  L 15.3870967741936 0  C 15.2709677419355 0  15.1759530791789 0.0950146627565971  15 0.211143695014663  L 15 14.991202346041  Z M 8.44574780058651 14.991202346041  C 8.44574780058651 15.1073313782991  8.54076246334311 15.2023460410557  8.65689149560117 15.2023460410557  L 9.92375366568915 15.2023460410557  C 10.0398826979472 15.2023460410557  10.1348973607038 15.1073313782991  10.1348973607038 14.991202346041  L 10.1348973607038 0.211143695014663  C 10.1348973607038 0.0950146627565971  10.0398826979472 0  9.92375366568915 0  L 8.65689149560117 0  C 8.54076246334311 0  8.44574780058651 0.0950146627565971  8.44574780058651 0.211143695014663  L 8.44574780058651 14.991202346041  Z M 6.78299120234604 17.1026392961877  C 6.78299120234604 16.9865102639296  6.68797653958944 16.891495601173  6.57184750733138 16.891495601173  L 3.6158357771261 16.891495601173  C 3.49970674486804 16.891495601173  3.40469208211144 16.9865102639296  3.40469208211144 17.1026392961877  L 3.40469208211144 18.3695014662757  C 3.40469208211144 18.4856304985337  3.49970674486804 18.5806451612903  3.6158357771261 18.5806451612903  L 6.57184750733138 18.5806451612903  C 6.68797653958944 18.5806451612903  6.78299120234604 18.4856304985337  6.78299120234604 18.3695014662757  L 6.78299120234604 17.1026392961877  Z M 13.5659824046921 17.1026392961877  C 13.5659824046921 16.9865102639296  13.4709677419355 16.891495601173  13.3548387096774 16.891495601173  L 12.0879765395894 16.891495601173  C 11.9718475073314 16.891495601173  11.8768328445748 16.9865102639296  11.8768328445748 17.1026392961877  L 11.8768328445748 18.3695014662757  C 11.8768328445748 18.4856304985337  11.9718475073314 18.5806451612903  12.0879765395894 18.5806451612903  L 13.3548387096774 18.5806451612903  C 13.4709677419355 18.5806451612903  13.5659824046921 18.4856304985337  13.5659824046921 18.3695014662757  L 13.5659824046921 17.1026392961877  Z M 20.3225806451613 17.1026392961877  C 20.3225806451613 16.9865102639296  20.2275659824047 16.891495601173  20.1114369501466 16.891495601173  L 15.4134897360704 16.891495601173  C 15.2973607038123 16.891495601173  15.2023460410557 16.9865102639296  15.2023460410557 17.1026392961877  L 15.2023460410557 18.3695014662757  C 15.2023460410557 18.4856304985337  15.2973607038123 18.5806451612903  15.4134897360704 18.5806451612903  L 20.1114369501466 18.5806451612903  C 20.2275659824047 18.5806451612903  20.3225806451613 18.4856304985337  20.3225806451613 18.3695014662757  L 20.3225806451613 17.1026392961877  Z M 10.1612903225806 17.1026392961877  C 10.1612903225806 16.9865102639296  10.066275659824 16.891495601173  9.95014662756598 16.891495601173  L 8.683284457478 16.891495601173  C 8.56715542521994 16.891495601173  8.47214076246334 16.9865102639296  8.47214076246334 17.1026392961877  L 8.47214076246334 18.3695014662757  C 8.47214076246334 18.4856304985337  8.56715542521994 18.5806451612903  8.683284457478 18.5806451612903  L 9.95014662756598 18.5806451612903  C 10.066275659824 18.5806451612903  10.1612903225806 18.4856304985337  10.1612903225806 18.3695014662757  L 10.1612903225806 17.1026392961877  Z " fill-rule="nonzero" fill="#ffffff" stroke="none" transform="matrix(1 0 0 1 215 110 )" />
  </g>
</svg>