<?xml version="1.0" encoding="utf-8"?>
<svg version="1.1" xmlns:xlink="http://www.w3.org/1999/xlink" width="24px" height="24px" xmlns="http://www.w3.org/2000/svg">
  <g transform="matrix(1 0 0 1 -132 -108 )">
    <path d="M 24 12  C 24 5.37321428571429  18.6267857142857 0  12 0  C 5.37321428571429 0  0 5.37321428571429  0 12  C 0 18.6267857142857  5.37321428571429 24  12 24  C 18.6267857142857 24  24 18.6267857142857  24 12  Z M 21.9642857142857 12  C 21.9642857142857 17.5017857142857  17.5017857142857 21.9642857142857  12 21.9642857142857  C 6.49821428571429 21.9642857142857  2.03571428571428 17.5017857142857  2.03571428571428 12  C 2.03571428571428 6.49821428571429  6.49821428571429 2.03571428571428  12 2.03571428571428  C 17.5017857142857 2.03571428571428  21.9642857142857 6.49821428571429  21.9642857142857 12  Z M 16.4919642857143 6.50892857142857  C 16.4892857142857 6.39107142857143  16.3928571428571 6.29464285714286  16.275 6.29464285714286  L 14.68125 6.29464285714286  C 14.6008928571429 6.29464285714286  14.5258928571429 6.34017857142857  14.4910714285714 6.4125  L 12.0642857142857 11.2339285714286  L 11.9732142857143 11.2339285714286  L 9.54642857142857 6.4125  C 9.50892857142857 6.34017857142857  9.43660714285714 6.29464285714286  9.35625 6.29464285714286  L 7.73035714285714 6.29464285714286  C 7.69553571428571 6.29464285714286  7.66071428571428 6.30267857142857  7.62857142857143 6.32142857142857  C 7.52410714285714 6.37767857142857  7.48660714285714 6.50892857142857  7.54285714285714 6.61339285714286  L 10.5267857142857 12.0991071428571  L 8.88214285714286 12.0991071428571  C 8.76428571428572 12.0991071428571  8.66785714285714 12.1955357142857  8.66785714285714 12.3133928571429  L 8.66785714285714 13.1142857142857  C 8.66785714285714 13.2321428571429  8.76428571428572 13.3285714285714  8.88214285714286 13.3285714285714  L 11.0705357142857 13.3285714285714  L 11.0705357142857 14.4375  L 8.88214285714286 14.4375  C 8.76428571428572 14.4375  8.66785714285714 14.5339285714286  8.66785714285714 14.6517857142857  L 8.66785714285714 15.4526785714286  C 8.66785714285714 15.5705357142857  8.76428571428572 15.6669642857143  8.88214285714286 15.6669642857143  L 11.0705357142857 15.6669642857143  L 11.0705357142857 17.4910714285714  C 11.0705357142857 17.6089285714286  11.1669642857143 17.7053571428571  11.2848214285714 17.7053571428571  L 12.7392857142857 17.7053571428571  C 12.8571428571429 17.7053571428571  12.9535714285714 17.6089285714286  12.9535714285714 17.4910714285714  L 12.9535714285714 15.6669642857143  L 15.15 15.6669642857143  C 15.2678571428571 15.6669642857143  15.3642857142857 15.5705357142857  15.3642857142857 15.4526785714286  L 15.3642857142857 14.6517857142857  C 15.3642857142857 14.5339285714286  15.2678571428571 14.4375  15.15 14.4375  L 12.9535714285714 14.4375  L 12.9535714285714 13.3258928571429  L 15.15 13.3258928571429  C 15.2678571428571 13.3258928571429  15.3642857142857 13.2294642857143  15.3642857142857 13.1116071428571  L 15.3642857142857 12.3107142857143  C 15.3642857142857 12.1928571428571  15.2678571428571 12.0964285714286  15.15 12.0964285714286  L 13.4892857142857 12.0964285714286  L 16.4651785714286 6.61071428571429  C 16.48125 6.57857142857143  16.4919642857143 6.54375  16.4919642857143 6.50892857142857  Z " fill-rule="nonzero" fill="#ffffff" stroke="none" transform="matrix(1 0 0 1 132 108 )" />
  </g>
</svg>