<?xml version="1.0" encoding="utf-8"?>
<svg version="1.1" xmlns:xlink="http://www.w3.org/1999/xlink" width="33px" height="33px" xmlns="http://www.w3.org/2000/svg">
  <g transform="matrix(1 0 0 1 -1149 -4 )">
    <path d="M 1165.5 5  C 1174.18 5  1181 11.82  1181 20.5  C 1181 29.18  1174.18 36  1165.5 36  C 1156.82 36  1150 29.18  1150 20.5  C 1150 11.82  1156.82 5  1165.5 5  Z " fill-rule="nonzero" fill="#ffffff" stroke="none" />
    <path d="M 1165.5 5  C 1174.18 5  1181 11.82  1181 20.5  C 1181 29.18  1174.18 36  1165.5 36  C 1156.82 36  1150 29.18  1150 20.5  C 1150 11.82  1156.82 5  1165.5 5  Z " stroke-width="2" stroke="#e4e4e4" fill="none" />
  </g>
</svg>