<?xml version="1.0" encoding="utf-8"?>
<svg version="1.1" xmlns:xlink="http://www.w3.org/1999/xlink" width="19px" height="22px" xmlns="http://www.w3.org/2000/svg">
  <g transform="matrix(1 0 0 1 -1156 -9 )">
    <path d="M 9.5 20.482169629471  C 9.62179487179492 20.482169629471  9.68269230769215 20.4183622474477  9.68269230769215 20.2907474834012  C 9.68269230769215 20.1631327193545  9.62179487179492 20.0993253373313  9.5 20.0993253373313  C 9.05088141025658 20.0993253373313  8.66456330128199 19.929836978832  8.34104567307691 19.5908602618334  C 8.01752804487205 19.2518835448347  7.85576923076928 18.8471054651246  7.85576923076928 18.3765260227029  C 7.85576923076928 18.2489112586564  7.79487179487205 18.1851038766331  7.67307692307691 18.1851038766331  C 7.55128205128199 18.1851038766331  7.49038461538453 18.2489112586564  7.49038461538453 18.3765260227029  C 7.49038461538453 18.9587683836653  7.68639823717922 19.4552695750339  8.07842548076928 19.8660295968088  C 8.47045272435912 20.2767896185835  8.9443108974358 20.482169629471  9.5 20.482169629471  Z M 5.11538461538453 6.89119725851361  C 5.11538461538453 11.1343881630613  4.10296474358984 14.4523720282716  2.078125 16.8451488541444  L 16.921875 16.8451488541444  C 14.8970352564102 14.4523720282716  13.8846153846155 11.1343881630613  13.8846153846155 6.89119725851361  C 13.8846153846155 6.48442519811525  13.7932692307693 6.06568925358744  13.6105769230769 5.63498942493037  C 13.4278846153845 5.20428959627331  13.1652644230769 4.79352957449846  12.8227163461538 4.40270935960593  C 12.4801682692307 4.01188914471334  12.0177283653845 3.69085825390876  11.4353966346155 3.43961668719213  C 10.8530649038462 3.1883751204755  10.2079326923078 3.06275433711714  9.5 3.06275433711714  C 8.79206730769215 3.06275433711714  8.14693509615381 3.1883751204755  7.56460336538453 3.43961668719213  C 6.98227163461547 3.69085825390876  6.51983173076928 4.01188914471334  6.17728365384619 4.40270935960593  C 5.83473557692309 4.79352957449846  5.57211538461547 5.20428959627331  5.38942307692309 5.63498942493037  C 5.20673076923072 6.06568925358744  5.11538461538453 6.48442519811525  5.11538461538453 6.89119725851361  Z M 17.9609375 15.7923270507604  C 18.2730368589744 16.1592194973942  18.6193910256409 16.5101600985222  19 16.8451488541444  C 19 17.2598968372957  18.8553685897434 17.6188133611766  18.5661057692307 17.9218984257871  C 18.276842948718 18.2249834903977  17.9342948717949 18.3765260227029  17.5384615384614 18.3765260227029  L 12.4230769230769 18.3765260227029  C 12.4230769230769 19.2219738345113  12.1376201923078 19.9437948436496  11.5667067307693 20.5419890501178  C 10.9957932692307 21.140183256586  10.3068910256409 21.4392803598201  9.5 21.4392803598201  C 8.69310897435912 21.4392803598201  8.00420673076928 21.140183256586  7.43329326923072 20.5419890501178  C 6.86237980769215 19.9437948436496  6.57692307692309 19.2219738345113  6.57692307692309 18.3765260227029  L 1.46153846153857 18.3765260227029  C 1.06570512820508 18.3765260227029  0.723157051281987 18.2249834903977  0.433894230769283 17.9218984257871  C 0.144631410256579 17.6188133611766  0 17.2598968372957  0 16.8451488541444  C 0.38060897435912 16.5101600985222  0.726963141025635 16.1592194973942  1.0390625 15.7923270507604  C 1.35116185897436 15.4254346041265  1.67467948717922 14.9488732196402  2.00961538461547 14.3626428973014  C 2.34455128205127 13.7764125749626  2.62810496794873 13.1443206967945  2.86027644230785 12.4663672627971  C 3.09244791666652 11.7884138287998  3.28275240384619 10.9668937852502  3.43118990384619 10.0018071321482  C 3.57962740384619 9.03672047904617  3.65384615384619 7.99985052116799  3.65384615384619 6.89119725851361  C 3.65384615384619 5.67885700007139  4.09915865384619 4.55225791122298  4.98978365384619 3.51139999196832  C 5.88040865384619 2.47054207271366  7.04887820512795 1.83845019454561  8.49519230769215 1.61512435746411  C 8.43429487179492 1.46358182515886  8.40384615384619 1.30805133147708  8.40384615384619 1.14853287641895  C 8.40384615384619 0.829495966302563  8.51041666666652 0.558314592703622  8.72355769230785 0.334988755622174  C 8.93669871794873 0.111662918540725  9.1955128205127 0  9.5 0  C 9.8044871794873 0  10.0633012820513 0.111662918540725  10.2764423076922 0.334988755622174  C 10.4895833333335 0.558314592703622  10.5961538461538 0.829495966302563  10.5961538461538 1.14853287641895  C 10.5961538461538 1.30805133147708  10.5657051282051 1.46358182515886  10.5048076923078 1.61512435746411  C 11.9511217948721 1.83845019454561  13.1195913461538 2.47054207271366  14.0102163461538 3.51139999196832  C 14.9008413461538 4.55225791122298  15.3461538461538 5.67885700007139  15.3461538461538 6.89119725851361  C 15.3461538461538 7.99985052116799  15.4203725961538 9.03672047904617  15.5688100961538 10.0018071321482  C 15.7172475961538 10.9668937852502  15.9075520833335 11.7884138287998  16.1397235576922 12.4663672627971  C 16.3718950320513 13.1443206967945  16.6554487179487 13.7764125749626  16.9903846153845 14.3626428973014  C 17.3253205128208 14.9488732196402  17.6488381410256 15.4254346041265  17.9609375 15.7923270507604  Z " fill-rule="nonzero" fill="#515151" stroke="none" transform="matrix(1 0 0 1 1156 9 )" />
  </g>
</svg>