<?xml version="1.0" encoding="utf-8"?>
<svg version="1.1" xmlns:xlink="http://www.w3.org/1999/xlink" width="15px" height="15px" xmlns="http://www.w3.org/2000/svg">
  <g transform="matrix(1 0 0 1 -393 -129 )">
    <path d="M 400.5 130  C 404.14 130  407 132.86  407 136.5  C 407 140.14  404.14 143  400.5 143  C 396.86 143  394 140.14  394 136.5  C 394 132.86  396.86 130  400.5 130  Z " fill-rule="nonzero" fill="#ffffff" stroke="none" />
    <path d="M 400.5 130  C 404.14 130  407 132.86  407 136.5  C 407 140.14  404.14 143  400.5 143  C 396.86 143  394 140.14  394 136.5  C 394 132.86  396.86 130  400.5 130  Z " stroke-width="2" stroke="#666666" fill="none" />
  </g>
</svg>