<?xml version="1.0" encoding="utf-8"?>
<svg version="1.1" xmlns:xlink="http://www.w3.org/1999/xlink" width="20px" height="20px" xmlns="http://www.w3.org/2000/svg">
  <g transform="matrix(1 0 0 1 -608 -32 )">
    <path d="M 19.2 9.62142857142858  C 19.2 4.32000000000001  14.9014285714286 0.0214285714285722  9.60000000000002 0.0214285714285722  C 4.29857142857145 0.0214285714285722  0 4.32000000000001  0 9.62142857142858  C 0 14.9228571428571  4.29857142857145 19.2214285714286  9.60000000000002 19.2214285714286  C 14.9014285714286 19.2214285714286  19.2 14.9228571428571  19.2 9.62142857142858  Z M 17.5714285714286 9.62142857142858  C 17.5714285714286 14.0228571428571  14.0014285714286 17.5928571428571  9.60000000000002 17.5928571428571  C 5.19857142857143 17.5928571428571  1.62857142857138 14.0228571428571  1.62857142857138 9.62142857142858  C 1.62857142857138 5.22000000000001  5.19857142857143 1.65  9.60000000000002 1.65  C 14.0014285714286 1.65  17.5714285714286 5.22000000000001  17.5714285714286 9.62142857142858  Z M 13.2771428571428 6.34285714285715  C 13.3028571428572 6.31285714285715  13.3157142857143 6.27214285714286  13.3157142857143 6.23142857142857  C 13.3157142857143 6.13714285714286  13.2385714285714 6.06  13.1442857142857 6.06  L 11.73 6.06642857142857  L 9.60000000000002 8.60571428571431  L 7.4721428571429 6.06857142857142  L 6.05571428571432 6.06214285714287  C 5.96142857142854 6.06214285714287  5.88428571428574 6.13714285714286  5.88428571428574 6.23357142857145  C 5.88428571428574 6.27428571428572  5.89928571428572 6.31285714285715  5.92499999999995 6.34500000000001  L 8.71285714285716 9.66642857142858  L 5.92499999999995 12.9857142857143  C 5.89928571428572 13.0178571428572  5.88428571428574 13.0564285714286  5.88428571428574 13.0971428571429  C 5.88428571428574 13.1914285714286  5.96142857142854 13.2685714285714  6.05571428571432 13.2685714285714  L 7.4721428571429 13.2621428571429  L 9.60000000000002 10.7228571428571  L 11.7278571428571 13.26  L 13.1421428571429 13.2664285714286  C 13.2364285714285 13.2664285714286  13.3135714285714 13.1914285714286  13.3135714285714 13.095  C 13.3135714285714 13.0542857142857  13.2985714285714 13.0157142857143  13.2728571428571 12.9835714285714  L 10.4892857142858 9.6642857142857  L 13.2771428571428 6.34285714285715  Z " fill-rule="nonzero" fill="#666666" stroke="none" transform="matrix(1 0 0 1 608 32 )" />
  </g>
</svg>