<?xml version="1.0" encoding="utf-8"?>
<svg version="1.1" xmlns:xlink="http://www.w3.org/1999/xlink" width="18px" height="18px" xmlns="http://www.w3.org/2000/svg">
  <g transform="matrix(1 0 0 1 -335 -114 )">
    <path d="M 17.9616477272727 13.9474431818182  C 17.9872159090909 14.0071022727273  18 14.0965909090909  18 14.2159090909091  C 18 14.4460227272727  17.9573863636364 14.7464488636364  17.8721590909091 15.1171875  C 17.7869318181818 15.4879261363636  17.6974431818182 15.7798295454545  17.6036931818182 15.9928977272727  C 17.4247159090909 16.4190340909091  16.9048295454546 16.8707386363636  16.0440340909091 17.3480113636364  C 15.2428977272727 17.7826704545455  14.4502840909091 18  13.6661931818181 18  C 13.4360795454545 18  13.2102272727273 17.9850852272727  12.9886363636364 17.9552556818182  C 12.7670454545454 17.9254261363636  12.5220170454545 17.8721590909091  12.2535511363636 17.7954545454545  C 11.9850852272727 17.71875  11.7848011363636 17.6569602272727  11.6526988636364 17.6100852272727  C 11.5205965909091 17.5632102272727  11.2840909090909 17.4758522727273  10.9431818181819 17.3480113636364  C 10.6022727272727 17.2201704545455  10.3934659090909 17.1434659090909  10.3167613636364 17.1178977272727  C 9.48153409090907 16.8196022727273  8.73579545454544 16.4659090909091  8.0795454545455 16.0568181818182  C 6.99715909090907 15.3835227272727  5.87215909090907 14.4630681818182  4.7045454545455 13.2954545454545  C 3.53693181818181 12.1278409090909  2.61647727272731 11.0028409090909  1.94318181818187 9.92045454545455  C 1.53409090909088 9.26420454545455  1.18039772727269 8.51846590909091  0.882102272727252 7.68323863636363  C 0.856534090909122 7.60653409090909  0.779829545454504 7.39772727272727  0.651988636363626 7.05681818181819  C 0.524147727272748 6.71590909090909  0.436789772727309 6.47940340909091  0.389914772727252 6.34730113636363  C 0.343039772727252 6.21519886363636  0.28125 6.01491477272728  0.204545454545496 5.74644886363637  C 0.127840909090878 5.47798295454545  0.074573863636374 5.23295454545455  0.0447443181818699 5.01136363636363  C 0.0149147727273089 4.78977272727272  0 4.56392045454545  0 4.33380681818181  C 0 3.54971590909091  0.217329545454504 2.75710227272727  0.651988636363626 1.95596590909091  C 1.12926136363637 1.09517045454545  1.58096590909093 0.575284090909093  2.00710227272725 0.396306818181813  C 2.22017045454544 0.302556818181813  2.51207386363637 0.213068181818187  2.8828125 0.127840909090907  C 3.25355113636363 0.0426136363636402  3.55397727272725 0  3.78409090909088 0  C 3.90340909090907 0  3.99289772727269 0.0127840909090935  4.05255681818187 0.0383522727272805  C 4.20596590909088 0.089488636363626  4.43181818181819 0.413352272727266  4.73011363636363 1.00994318181819  C 4.82386363636363 1.171875  4.95170454545456 1.40198863636364  5.11363636363637 1.70028409090909  C 5.27556818181819 1.99857954545455  5.42471590909093 2.26917613636363  5.5610795454545 2.51207386363637  C 5.69744318181819 2.75497159090909  5.8295454545455 2.98295454545455  5.95738636363637 3.19602272727272  C 5.9829545454545 3.23011363636364  6.05752840909093 3.33664772727272  6.1811079545455 3.515625  C 6.3046875 3.69460227272728  6.39630681818181 3.84588068181817  6.45596590909088 3.96946022727272  C 6.515625 4.09303977272727  6.5454545454545 4.21448863636364  6.5454545454545 4.33380681818181  C 6.5454545454545 4.50426136363636  6.42400568181813 4.71732954545455  6.1811079545455 4.97301136363637  C 5.93821022727275 5.22869318181819  5.67400568181819 5.46306818181817  5.38849431818187 5.67613636363637  C 5.10298295454544 5.88920454545455  4.83877840909088 6.11505681818181  4.59588068181813 6.35369318181819  C 4.3529829545455 6.59232954545455  4.23153409090912 6.78835227272728  4.23153409090912 6.94176136363637  C 4.23153409090912 7.01846590909091  4.25284090909093 7.11434659090909  4.2954545454545 7.22940340909091  C 4.33806818181819 7.34446022727272  4.37428977272731 7.43181818181817  4.40411931818187 7.49147727272728  C 4.43394886363637 7.55113636363636  4.4936079545455 7.65340909090909  4.58309659090912 7.79829545454545  C 4.67258522727275 7.94318181818181  4.72159090909093 8.02414772727273  4.73011363636363 8.04119318181819  C 5.37784090909093 9.20880681818181  6.11931818181819 10.2102272727273  6.9545454545455 11.0454545454545  C 7.78977272727269 11.8806818181818  8.79119318181819 12.6221590909091  9.95880681818187 13.2698863636364  C 9.97585227272725 13.2784090909091  10.0568181818182 13.3274147727273  10.2017045454545 13.4169034090909  C 10.3465909090909 13.5063920454545  10.4488636363636 13.5660511363636  10.5085227272727 13.5958806818182  C 10.5681818181818 13.6257102272727  10.6555397727273 13.6619318181818  10.7705965909091 13.7045454545455  C 10.8856534090909 13.7471590909091  10.9815340909091 13.7684659090909  11.0582386363636 13.7684659090909  C 11.2116477272727 13.7684659090909  11.4076704545454 13.6470170454545  11.6463068181819 13.4041193181818  C 11.8849431818182 13.1612215909091  12.1107954545454 12.8970170454545  12.3238636363636 12.6115056818182  C 12.5369318181818 12.3259943181818  12.7713068181819 12.0617897727273  13.0269886363636 11.8188920454545  C 13.2826704545455 11.5759943181818  13.4957386363636 11.4545454545455  13.6661931818181 11.4545454545455  C 13.7855113636364 11.4545454545455  13.9069602272727 11.484375  14.0305397727273 11.5440340909091  C 14.1541193181818 11.6036931818182  14.3053977272727 11.6953125  14.484375 11.8188920454545  C 14.6633522727273 11.9424715909091  14.7698863636364 12.0170454545455  14.8039772727273 12.0426136363636  C 15.0170454545454 12.1704545454545  15.2450284090909 12.3025568181818  15.4879261363636 12.4389204545455  C 15.7308238636364 12.5752840909091  16.0014204545454 12.7244318181818  16.2997159090909 12.8863636363636  C 16.5980113636364 13.0482954545455  16.828125 13.1761363636364  16.9900568181818 13.2698863636364  C 17.5866477272727 13.5681818181818  17.9105113636364 13.7940340909091  17.9616477272727 13.9474431818182  Z " fill-rule="nonzero" fill="#3089fa" stroke="none" transform="matrix(1 0 0 1 335 114 )" />
  </g>
</svg>