<?xml version="1.0" encoding="utf-8"?>
<svg version="1.1" xmlns:xlink="http://www.w3.org/1999/xlink" width="17px" height="17px" xmlns="http://www.w3.org/2000/svg">
  <g transform="matrix(1 0 0 1 -278 -110 )">
    <path d="M 286.5 110  C 291.26 110  295 113.74  295 118.5  C 295 123.26  291.26 127  286.5 127  C 281.74 127  278 123.26  278 118.5  C 278 113.74  281.74 110  286.5 110  Z " fill-rule="nonzero" fill="#f7f7f7" stroke="none" />
    <path d="M 286.5 110.5  C 290.98 110.5  294.5 114.02  294.5 118.5  C 294.5 122.98  290.98 126.5  286.5 126.5  C 282.02 126.5  278.5 122.98  278.5 118.5  C 278.5 114.02  282.02 110.5  286.5 110.5  Z " stroke-width="1" stroke="#3089fa" fill="none" />
  </g>
</svg>