<?xml version="1.0" encoding="utf-8"?>
<svg version="1.1" xmlns:xlink="http://www.w3.org/1999/xlink" width="9px" height="9px" xmlns="http://www.w3.org/2000/svg">
  <g transform="matrix(1 0 0 1 -282 -114 )">
    <path d="M 286.5 114  C 289.02 114  291 115.98  291 118.5  C 291 121.02  289.02 123  286.5 123  C 283.98 123  282 121.02  282 118.5  C 282 115.98  283.98 114  286.5 114  Z " fill-rule="nonzero" fill="#3089fa" stroke="none" />
    <path d="M 286.5 114.5  C 288.74 114.5  290.5 116.26  290.5 118.5  C 290.5 120.74  288.74 122.5  286.5 122.5  C 284.26 122.5  282.5 120.74  282.5 118.5  C 282.5 116.26  284.26 114.5  286.5 114.5  Z " stroke-width="1" stroke="#3089fa" fill="none" />
  </g>
</svg>