<?xml version="1.0" encoding="utf-8"?>
<svg version="1.1" xmlns:xlink="http://www.w3.org/1999/xlink" width="20px" height="18px" xmlns="http://www.w3.org/2000/svg">
  <g transform="matrix(1 0 0 1 -340 -216 )">
    <path d="M 19.7879464285714 5.97375000000002  C 19.9293154761905 6.11624999999998  20 6.285  20 6.48000000000002  C 20 6.67499999999998  19.9293154761905 6.84375  19.7879464285714 6.98625000000001  L 14.0736607142857 12.74625  C 13.9322916666666 12.88875  13.764880952381 12.96  13.5714285714286 12.96  C 13.3779761904762 12.96  13.2105654761905 12.88875  13.0691964285714 12.74625  C 12.9278273809524 12.60375  12.8571428571428 12.435  12.8571428571428 12.24  L 12.8571428571428 9.36000000000001  L 10.3571428571428 9.36000000000001  C 9.6279761904762 9.36000000000001  8.97507440476187 9.38249999999999  8.3984375 9.42750000000001  C 7.82180059523813 9.47249999999997  7.24888392857144 9.55312499999997  6.6796875 9.669375  C 6.11049107142856 9.78562499999998  5.61569940476187 9.94499999999999  5.1953125 10.1475  C 4.77492559523813 10.35  4.38244047619048 10.610625  4.01785714285717 10.929375  C 3.6532738095238 11.248125  3.35565476190476 11.626875  3.125 12.065625  C 2.89434523809524 12.504375  2.7139136904762 13.02375  2.58370535714283 13.62375  C 2.45349702380952 14.22375  2.38839285714283 14.9025  2.38839285714283 15.66  C 2.38839285714283 16.0725  2.40699404761904 16.53375  2.44419642857144 17.04375  C 2.44419642857144 17.0887499999999  2.45349702380952 17.176875  2.47209821428567 17.308125  C 2.49069940476187 17.439375  2.5 17.53875  2.5 17.60625  C 2.5 17.71875  2.46837797619048 17.8125  2.40513392857144 17.8875  C 2.34188988095241 17.9625  2.25446428571433 18  2.14285714285717 18  C 2.02380952380952 18  1.91964285714283 17.93625  1.83035714285717 17.80875  C 1.7782738095238 17.74125  1.72991071428567 17.65875  1.68526785714283 17.56125  C 1.640625 17.4637499999999  1.59040178571433 17.35125  1.53459821428567 17.22375  C 1.47879464285717 17.09625  1.43973214285717 17.00625  1.41741071428567 16.95375  C 0.472470238095241 14.81625  0 13.125  0 11.8799999999999  C 0 10.3875  0.197172619047592 9.13874999999996  0.591517857142833 8.13375000000002  C 1.796875 5.11124999999998  5.05208333333337 3.59999999999999  10.3571428571428 3.59999999999999  L 12.8571428571428 3.59999999999999  L 12.8571428571428 0.719999999999999  C 12.8571428571428 0.525000000000006  12.9278273809524 0.356249999999989  13.0691964285714 0.213750000000005  C 13.2105654761905 0.0712500000000205  13.3779761904762 0  13.5714285714286 0  C 13.764880952381 0  13.9322916666666 0.0712500000000205  14.0736607142857 0.213750000000005  L 19.7879464285714 5.97375000000002  Z " fill-rule="nonzero" fill="#52c41a" stroke="none" transform="matrix(1 0 0 1 340 216 )" />
  </g>
</svg>