<?xml version="1.0" encoding="utf-8"?>
<svg version="1.1" xmlns:xlink="http://www.w3.org/1999/xlink" width="6px" height="6px" xmlns="http://www.w3.org/2000/svg">
  <g transform="matrix(1 0 0 1 -343 -1302 )">
    <path d="M 346 1302  C 347.68 1302  349 1303.32  349 1305  C 349 1306.68  347.68 1308  346 1308  C 344.32 1308  343 1306.68  343 1305  C 343 1303.32  344.32 1302  346 1302  Z " fill-rule="nonzero" fill="#ffffff" stroke="none" />
    <path d="M 346 1302.5  C 347.4 1302.5  348.5 1303.6  348.5 1305  C 348.5 1306.4  347.4 1307.5  346 1307.5  C 344.6 1307.5  343.5 1306.4  343.5 1305  C 343.5 1303.6  344.6 1302.5  346 1302.5  Z " stroke-width="1" stroke="#797979" fill="none" />
  </g>
</svg>