<?xml version="1.0" encoding="utf-8"?>
<svg version="1.1" xmlns:xlink="http://www.w3.org/1999/xlink" width="16px" height="19px" xmlns="http://www.w3.org/2000/svg">
  <g transform="matrix(1 0 0 1 -338 -1298 )">
    <path d="M 346 1316.10810140671  C 343 1311.70113932721  338.5 1309.05696207951  338.5 1304.65  C 338.5 1302.36571428571  340 1298.5  346 1298.5  C 352 1298.5  353.5 1302.36571428571  353.5 1304.65  C 353.5 1309.05696207951  349 1311.70113932721  346 1316.10810140671  Z " fill-rule="nonzero" fill="#ffffff" stroke="none" />
    <path d="M 346 1317  C 342.8 1312.25  338 1309.4  338 1304.65  C 338 1302.18  339.6 1298  346 1298  C 352.4 1298  354 1302.18  354 1304.65  C 354 1309.4  349.2 1312.25  346 1317  Z M 346 1315.21620281343  C 348.8 1311.15227865442  353 1308.71392415901  353 1304.65  C 353 1302.55142857143  351.6 1299  346 1299  C 340.4 1299  339 1302.55142857143  339 1304.65  C 339 1308.71392415901  343.2 1311.15227865442  346 1315.21620281343  Z " fill-rule="nonzero" fill="#797979" stroke="none" />
  </g>
</svg>