<?xml version="1.0" encoding="utf-8"?>
<svg version="1.1" xmlns:xlink="http://www.w3.org/1999/xlink" width="54px" height="42px" xmlns="http://www.w3.org/2000/svg">
  <g transform="matrix(1 0 0 1 -1059 -329 )">
    <path d="M 1092.5 329.5  L 1079.5 329.5  L 1079.5 345.5  L 1059.5 345.5  L 1059.5 354.5  L 1079.5 354.5  L 1079.5 370.5  L 1092.5 370.5  L 1092.5 354.5  L 1112.5 354.5  L 1112.5 345.5  L 1092.5 345.5  L 1092.5 329.5  Z " fill-rule="nonzero" fill="#999999" stroke="none" />
    <path d="M 1092.5 329.5  L 1079.5 329.5  L 1079.5 345.5  L 1059.5 345.5  L 1059.5 354.5  L 1079.5 354.5  L 1079.5 370.5  L 1092.5 370.5  L 1092.5 354.5  L 1112.5 354.5  L 1112.5 345.5  L 1092.5 345.5  L 1092.5 329.5  Z " stroke-width="1" stroke="#ffffff" fill="none" />
  </g>
</svg>