<?xml version="1.0" encoding="utf-8"?>
<svg version="1.1" xmlns:xlink="http://www.w3.org/1999/xlink" width="14px" height="14px" xmlns="http://www.w3.org/2000/svg">
  <g transform="matrix(1 0 0 1 -882 -44 )">
    <path d="M 13.5368902439025 13.677743902439  L 7.93475609756103 7  L 13.5368902439025 0.322256097560977  C 13.6307926829269 0.211280487804878  13.5518292682927 0.0426829268292686  13.4067073170733 0.0426829268292686  L 11.7036585365854 0.0426829268292686  C 11.6033536585365 0.0426829268292686  11.5073170731707 0.0875000000000021  11.4411585365854 0.164329268292686  L 6.82073170731701 5.67256097560976  L 2.20030487804877 0.164329268292683  C 2.13628048780492 0.0875000000000021  2.0402439024391 0.0426829268292686  1.93780487804884 0.0426829268292686  L 0.234756097560989 0.0426829268292686  C 0.0896341463414956 0.0426829268292686  0.0106707317072505 0.211280487804878  0.104573170731669 0.322256097560974  L 5.7067073170731 7  L 0.104573170731669 13.677743902439  C 0.0106707317072505 13.7887195121951  0.0896341463414956 13.9573170731707  0.234756097560989 13.9573170731707  L 1.93780487804884 13.9573170731707  C 2.03810975609758 13.9573170731707  2.13414634146352 13.9125  2.20030487804877 13.8356707317073  L 6.82073170731701 8.32743902439024  L 11.4411585365854 13.8356707317073  C 11.5051829268292 13.9125  11.6012195121951 13.9573170731707  11.7036585365854 13.9573170731707  L 13.4067073170733 13.9573170731707  C 13.5518292682927 13.9573170731707  13.6307926829269 13.7887195121951  13.5368902439025 13.677743902439  Z " fill-rule="nonzero" fill="#999999" stroke="none" transform="matrix(1 0 0 1 882 44 )" />
  </g>
</svg>