<?xml version="1.0" encoding="utf-8"?>
<svg version="1.1" xmlns:xlink="http://www.w3.org/1999/xlink" width="18px" height="18px" xmlns="http://www.w3.org/2000/svg">
  <g transform="matrix(1 0 0 1 -129 -54 )">
    <path d="M 12.8571428571429 8.39732142857143  C 12.8571428571429 8.28683035714286  12.7848214285714 8.19642857142857  12.6964285714286 8.19642857142857  L 5.30357142857142 8.19642857142857  C 5.21517857142857 8.19642857142857  5.14285714285714 8.28683035714286  5.14285714285714 8.39732142857143  L 5.14285714285714 9.60267857142857  C 5.14285714285714 9.71316964285714  5.21517857142857 9.80357142857143  5.30357142857142 9.80357142857143  L 12.6964285714286 9.80357142857143  C 12.7848214285714 9.80357142857143  12.8571428571429 9.71316964285714  12.8571428571429 9.60267857142857  L 12.8571428571429 8.39732142857143  Z M 18 9  C 18 4.02991071428572  13.9700892857143 0  9 0  C 4.02991071428573 0  0 4.02991071428572  0 9  C 0 13.9700892857143  4.02991071428573 18  9 18  C 13.9700892857143 18  18 13.9700892857143  18 9  Z M 16.4732142857143 9  C 16.4732142857143 13.1263392857143  13.1263392857143 16.4732142857143  9 16.4732142857143  C 4.87366071428573 16.4732142857143  1.52678571428572 13.1263392857143  1.52678571428572 9  C 1.52678571428572 4.87366071428572  4.87366071428573 1.52678571428571  9 1.52678571428571  C 13.1263392857143 1.52678571428571  16.4732142857143 4.87366071428572  16.4732142857143 9  Z " fill-rule="nonzero" fill="#cccccc" stroke="none" transform="matrix(1 0 0 1 129 54 )" />
  </g>
</svg>