<?xml version="1.0" encoding="utf-8"?>
<svg version="1.1" xmlns:xlink="http://www.w3.org/1999/xlink" width="18px" height="18px" xmlns="http://www.w3.org/2000/svg">
  <g transform="matrix(1 0 0 1 -106 -53 )">
    <path d="M 2.74275 14.17725  C 2.89125000000001 14.32125  3.07799999999997 14.4  3.27825000000001 14.4  C 3.32325 14.4  3.36825000000002 14.3955  3.41325000000001 14.38875  L 7.19775000000001 13.725  C 7.24275 13.716  7.28550000000001 13.69575  7.31700000000001 13.662  L 16.85475 4.12424999999999  C 16.9425 4.0365  16.9425 3.89475  16.85475 3.807  L 13.11525 0.065250000000006  C 13.0725 0.022500000000008  13.01625 0  12.9555 0  C 12.89475 0  12.8385 0.022500000000008  12.79575 0.065250000000006  L 3.25800000000001 9.60300000000001  C 3.22425000000001 9.63674999999999  3.20400000000001 9.67725  3.19500000000002 9.72225  L 2.53125 13.50675  C 2.48849999999999 13.7565  2.565 13.9995  2.74275 14.17725  Z M 4.44374999999999 12.4785  L 4.79474999999999 10.476  L 12.9555 2.3175  L 14.60475 3.96675  L 6.44399999999999 12.12525  L 4.44374999999999 12.4785  Z M 18 17.01  C 18 16.61175  17.67825 16.29  17.28 16  L 0.719999999999999 16  C 0.32174999999998 16.29  0 16.61175  0 17.01  L 0 17.82  C 0 17.919  0.0810000000000173 18  0.179999999999978 18  L 17.82 18  C 17.919 18  18 17.919  18 17.82  L 18 17.01  Z " fill-rule="nonzero" fill="#c9c9c9" stroke="none" transform="matrix(1 0 0 1 106 53 )" />
  </g>
</svg>