<?xml version="1.0" encoding="utf-8"?>
<svg version="1.1" xmlns:xlink="http://www.w3.org/1999/xlink" width="12px" height="12px" viewBox="115 73  12 12" xmlns="http://www.w3.org/2000/svg">
  <path d="M 121 73  C 124.36 73  127 75.64  127 79  C 127 82.36  124.36 85  121 85  C 117.64 85  115 82.36  115 79  C 115 75.64  117.64 73  121 73  Z " fill-rule="nonzero" fill="#ffffff" stroke="none" />
  <path d="M 121 73.5  C 124.08 73.5  126.5 75.92  126.5 79  C 126.5 82.08  124.08 84.5  121 84.5  C 117.92 84.5  115.5 82.08  115.5 79  C 115.5 75.92  117.92 73.5  121 73.5  Z " stroke-width="1" stroke="#797979" fill="none" />
  <path d="M 121 82  C 119.32 82  118 80.68  118 79  C 118 77.32  119.32 76  121 76  C 122.68 76  124 77.32  124 79  C 124 80.68  122.68 82  121 82  " fill-rule="nonzero" fill="#797979" stroke="none" />
</svg>