<?xml version="1.0" encoding="utf-8"?>
<svg version="1.1" xmlns:xlink="http://www.w3.org/1999/xlink" width="15px" height="15px" xmlns="http://www.w3.org/2000/svg">
  <g transform="matrix(1 0 0 1 -754 -586 )">
    <path d="M 0.163732394366093 11.1776785714285  C 0.126760563380344 11.2178571428572  0.102992957746551 11.2714285714285  0.102992957746551 11.3276785714286  L 0.0528169014083915 14.5125  C 0.0501760563381595 14.7508928571428  0.240316901408505 14.9464285714284  0.475352112676092 14.9464285714284  L 0.485915492957702 14.9464285714284  L 3.60211267605632 14.86875  C 3.65492957746483 14.8660714285714  3.70774647887322 14.844642857143  3.7447183098592 14.8071428571428  L 14.7279929577466 3.69107142857138  C 14.8098591549295 3.60803571428585  14.8098591549295 3.47142857142865  14.7279929577466 3.38839285714289  L 11.4454225352113 0.0616071428571559  C 11.4031690140845 0.0187499999999545  11.3503521126761 0  11.2948943661971 0  C 11.2394366197184 0  11.1866197183099 0.021428571428487  11.1443661971831 0.0616071428571559  L 0.163732394366093 11.1776785714285  Z M 1.76144366197184 13.2026785714286  L 1.77992957746483 11.9598214285714  L 11.2948943661971 2.33035714285711  L 12.4885563380282 3.53839285714287  L 2.96830985915494 13.1732142857143  L 1.76144366197184 13.2026785714286  Z " fill-rule="nonzero" fill="#1989fa" stroke="none" transform="matrix(1 0 0 1 754 586 )" />
  </g>
</svg>