<?xml version="1.0" encoding="utf-8"?>
<svg version="1.1" xmlns:xlink="http://www.w3.org/1999/xlink" width="20px" height="20px" xmlns="http://www.w3.org/2000/svg">
  <g transform="matrix(1 0 0 1 -749 -586 )">
    <path d="M 20 10.2  C 20 10.0899999999999  19.9100000000001 10  19.8 10  L 18.4 10  C 18.2900000000001 10  18.1999999999999 10.0899999999999  18.1999999999999 10.2  L 18.1999999999999 18  L 2 18  L 2 1.80000000000007  L 9.79999999999995 1.80000000000007  C 9.91000000000008 1.80000000000007  10 1.70999999999992  10 1.60000000000002  L 10 0.200000000000045  C 10 0.0899999999999181  9.91000000000008 0  9.79999999999995 0  L 0.799999999999955 0  C 0.357499999999959 0  0 0.357499999999959  0 0.799999999999955  L 0 19.2  C 0 19.6425  0.357499999999959 20  0.799999999999955 20  L 19.2 20  C 19.6425 20  20 19.6425  20 19.2  L 20 10.2  Z " fill-rule="nonzero" fill="#1989fa" stroke="none" transform="matrix(1 0 0 1 749 586 )" />
  </g>
</svg>