<?xml version="1.0" encoding="utf-8"?>
<svg version="1.1" xmlns:xlink="http://www.w3.org/1999/xlink" width="16px" height="16px" xmlns="http://www.w3.org/2000/svg">
  <g transform="matrix(1 0 0 1 -12 -208 )">
    <path d="M 16 3.84  C 16 3.5  15.734 3.22200000000001  15.4 3.202  L 15.4 0.639999999999986  C 15.4 0.286000000000001  15.114 0  14.76 0  L 1.24 0  C 0.886000000000001 0  0.6 0.286000000000001  0.6 0.639999999999986  L 0.6 3.202  C 0.266 3.22200000000001  0 3.5  0 3.84  L 0 6.47399999999999  C 0 6.96199999999999  0.0959999999999983 7.43600000000001  0.287999999999998 7.88200000000001  C 0.374000000000001 8.08600000000001  0.479999999999999 8.27799999999999  0.6 8.46000000000001  L 0.6 15.36  C 0.6 15.712  0.886000000000001 16  1.24 16  L 14.76 16  C 15.114 16  15.4 15.714  15.4 15.36  L 15.4 8.46000000000001  C 15.522 8.27799999999999  15.626 8.084  15.712 7.88200000000001  C 15.902 7.43600000000001  16 6.96199999999999  16 6.47399999999999  L 16 3.84  Z M 2.04 3.19999999999999  L 2.04 1.44  L 13.96 1.44  L 13.96 3.19999999999999  L 2.04 3.19999999999999  Z M 9.28 12.48  L 9.28 14.562  L 6.72 14.562  L 6.72 12.48  L 9.28 12.48  Z M 13.968 14.562  L 13.96 14.562  L 10.56 14.562  L 10.56 11.84  C 10.56 11.486  10.274 11.2  9.91999999999999 11.2  L 6.08 11.2  C 5.726 11.2  5.44 11.486  5.44 11.84  L 5.44 14.562  L 2.04 14.562  L 2.04 9.71799999999999  C 2.098 9.74600000000001  2.158 9.774  2.22 9.798  C 2.666 9.98599999999999  3.14 10.08  3.628 10.08  C 4.116 10.08  4.588 9.98599999999999  5.036 9.798  C 5.312 9.68199999999999  5.572 9.53399999999999  5.81 9.35599999999999  C 5.814 9.35399999999999  5.818 9.35399999999999  5.822 9.35599999999999  C 6.06 9.53399999999999  6.318 9.68199999999999  6.596 9.798  C 7.042 9.98599999999999  7.516 10.08  8.004 10.08  C 8.492 10.08  8.964 9.98599999999999  9.412 9.798  C 9.688 9.68199999999999  9.948 9.53399999999999  10.186 9.35599999999999  C 10.19 9.35399999999999  10.194 9.35399999999999  10.198 9.35599999999999  C 10.436 9.53399999999999  10.694 9.68199999999999  10.972 9.798  C 11.418 9.98599999999999  11.892 10.08  12.38 10.08  C 12.868 10.08  13.34 9.98599999999999  13.788 9.798  C 13.848 9.77199999999999  13.908 9.74600000000001  13.968 9.71799999999999  L 13.968 14.562  Z M 14.56 4.65000000000001  L 14.56 6.47399999999999  C 14.56 7.67000000000002  13.58 8.63999999999999  12.374 8.63999999999999  C 11.558 8.63999999999999  10.846 8.19800000000001  10.47 7.542  C 10.412 7.44200000000001  10.308 7.38  10.192 7.38  L 10.18 7.38  C 10.066 7.38  9.96 7.44200000000001  9.902 7.542  C 9.528 8.19800000000001  8.816 8.63999999999999  8 8.63999999999999  C 7.186 8.63999999999999  6.476 8.19999999999999  6.1 7.54599999999999  C 6.04 7.44399999999999  5.932 7.38  5.814 7.38  C 5.696 7.38  5.586 7.44399999999999  5.528 7.54599999999999  C 5.15 8.19999999999999  4.44 8.63999999999999  3.626 8.63999999999999  C 2.42 8.63999999999999  1.44 7.66999999999999  1.44 6.47399999999999  L 1.44 4.65000000000001  C 1.44 4.64400000000001  1.444 4.63999999999999  1.45 4.63999999999999  L 14.55 4.63999999999999  C 14.556 4.63999999999999  14.56 4.64400000000001  14.56 4.65000000000001  Z " fill-rule="nonzero" fill="#666666" stroke="none" transform="matrix(1 0 0 1 12 208 )" />
  </g>
</svg>