<?xml version="1.0" encoding="utf-8"?>
<svg version="1.1" xmlns:xlink="http://www.w3.org/1999/xlink" width="16px" height="17px" xmlns="http://www.w3.org/2000/svg">
  <g transform="matrix(1 0 0 1 -14 -135 )">
    <path d="M 15.8608695652174 16.4827826086956  C 15.84 15.4852173913043  15.6333913043478 14.5147826086957  15.2452173913043 13.5986086956522  C 14.8507826086956 12.663652173913  14.2831304347826 11.8246956521739  13.5631304347826 11.1046956521739  C 12.8431304347826 10.3846956521739  12.0041739130435 9.81913043478262  11.0692173913043 9.42260869565213  C 11.0608695652174 9.41843478260867  11.0525217391304 9.41634782608699  11.0441739130435 9.41217391304346  C 12.344347826087 8.47304347826082  13.1895652173912 6.94330434782609  13.1895652173912 5.21739130434783  C 13.1895652173912 2.35826086956521  10.8730434782609 0.041739130434749  8.01391304347825 0.041739130434749  C 5.15478260869563 0.041739130434749  2.83826086956525 2.35826086956521  2.83826086956525 5.21739130434783  C 2.83826086956525 6.94330434782609  3.68347826086954 8.47304347826082  4.98365217391303 9.41426086956523  C 4.97530434782612 9.41843478260867  4.96695652173912 9.42052173913046  4.9586086956522 9.4246956521739  C 4.02365217391304 9.81913043478262  3.18469565217389 10.3846956521739  2.46469565217392 11.1067826086956  C 1.74469565217394 11.8267826086956  1.17913043478264 12.6657391304348  0.782608695652174 13.600695652174  C 0.3944347826087 14.5147826086957  0.187826086956509 15.4852173913043  0.166956521739136 16.4827826086956  C 0.164869565217369 16.5766956521739  0.24000000000002 16.6539130434783  0.333913043478274 16.6539130434783  L 1.58608695652172 16.6539130434783  C 1.67791304347828 16.6539130434783  1.75095652173917 16.5808695652174  1.75304347826085 16.4911304347826  C 1.79478260869568 14.88  2.44173913043477 13.3711304347826  3.58539130434782 12.2274782608696  C 4.76869565217392 11.0441739130435  6.3401739130435 10.3930434782609  8.01391304347825 10.3930434782609  C 9.68765217391299 10.3930434782609  11.2591304347826 11.0441739130435  12.4424347826087 12.2274782608696  C 13.5860869565217 13.3711304347826  14.2330434782608 14.88  14.2747826086956 16.4911304347826  C 14.2768695652173 16.5829565217391  14.3499130434782 16.6539130434783  14.4417391304348 16.6539130434783  L 15.6939130434782 16.6539130434783  C 15.7878260869565 16.6539130434783  15.8629565217391 16.5766956521739  15.8608695652174 16.4827826086956  Z M 10.551652173913 7.75513043478261  C 9.87339130434781 8.43339130434786  8.97182608695648 8.80695652173911  8.01391304347825 8.80695652173911  C 7.05600000000002 8.80695652173911  6.15443478260868 8.43339130434786  5.47617391304345 7.75513043478261  C 4.79791304347821 7.07686956521738  4.42434782608697 6.17530434782606  4.42434782608697 5.21739130434783  C 4.42434782608697 4.2594782608696  4.79791304347821 3.35791304347825  5.47617391304345 2.67965217391303  C 6.15443478260868 2.00139130434779  7.05600000000002 1.62782608695655  8.01391304347825 1.62782608695655  C 8.97182608695648 1.62782608695655  9.87339130434781 2.00139130434779  10.551652173913 2.67965217391303  C 11.2299130434783 3.35791304347825  11.6034782608695 4.2594782608696  11.6034782608695 5.21739130434783  C 11.6034782608695 6.17530434782606  11.2299130434783 7.07686956521738  10.551652173913 7.75513043478261  Z " fill-rule="nonzero" fill="#666666" stroke="none" transform="matrix(1 0 0 1 14 135 )" />
  </g>
</svg>