<?xml version="1.0" encoding="utf-8"?>
<svg version="1.1" xmlns:xlink="http://www.w3.org/1999/xlink" width="22px" height="21px" xmlns="http://www.w3.org/2000/svg">
  <g transform="matrix(1 0 0 1 -336 -135 )">
    <path d="M 21.4809052363532 6.36397327036599  C 21.6455785036799 5.38116138917787  21.3162319690264 4.36959703274222  20.610489394769 3.66124059709861  L 17.8267270185314 0.88009208224721  C 17.4869250383334 0.540290102049147  17.0321131571452 0.349478220861046  16.5511626620957 0.349478220861028  C 16.0702121670462 0.349478220861006  15.6154002858581 0.537676240663067  15.2755983056601 0.880092082247177  L 12.2774992957591 3.87296336937587  C 11.9376973155611 4.21276534957387  11.7468854343729 4.67019109214816  11.7468854343729 5.15114158719766  C 11.746885434373 5.63470594363331  11.9350834541749 6.08690396343531  12.2774992957591 6.42931980501941  L 14.6195190977393 8.77395346838576  C 14.0810636521947 10.02337921096  13.3230438502145 11.1421118842274  12.3611428601155 12.1013990129402  C 11.4018557314027 13.0659138644254  10.2805091967492 13.8265475277917  9.03631117694721 14.3650029733363  L 6.69429137496701 12.0203693099699  C 6.35448939476903 11.680567329772  5.89967751358088 11.4897554485838  5.41872701853136 11.4897554485838  C 4.93516266209574 11.4897554485839  4.48296464229376 11.6779534683858  4.14316266209574 12.02036930997  L 1.14244979080863 15.0132405970988  C 0.802647810610586 15.3530425772967  0.611835929422492 15.810468319871  0.611835929422441 16.2914188149204  C 0.611835929422481 16.7749831713561  0.800033949224449 17.2271811911581  1.14244979080863 17.5695970327423  L 3.92359830566009 20.3507455475937  C 4.50387553338286 20.9310227753165  5.30371711754128 21.2629831713561  6.12446959278879 21.2629831713561  C 6.2943705828878 21.2629831713561  6.45904385021455 21.2499138644254  6.6263309789274 21.2211613891779  C 10.0870834541749 20.6513396069996  13.5216973155611 18.8085673297719  16.2950042462541 16.037874260465  C 19.0656973155611 13.2619534683858  20.9058557314026 9.82733960699964  21.4809052363532 6.36397327036599  Z M 19.2800339492244 4.98646831987096  C 19.5623309789274 5.26876534957388  19.6930240482343 5.66607228026699  19.6276775135809 6.05292376541548  C 19.1179745432838 9.13466633967291  17.4607864244719 12.2085673297719  14.9645488007096 14.7048049535343  C 12.4683111769472 17.2010425772967  9.39702404823432 18.8582306961085  6.31528147397692 19.3679336664056  C 5.92842998882838 19.433280201059  5.53112305813532 19.3025871317521  5.24882602843237 19.0229039634353  L 2.51734087991752 16.2914188149205  L 5.41349929575907 13.3926465376927  L 8.54490523635314 16.529280201059  L 8.5684299888284 16.5528049535343  L 9.13302404823433 16.3436960426432  C 12.6016181076403 15.0655178248215  15.3252616719967 12.341874260465  16.6008260284324 8.87328020105906  L 16.8099349393235 8.30868614165311  L 13.652390384868 5.15375544858378  L 16.5485488007096 2.25498317135611  L 19.2800339492244 4.98646831987096  Z " fill-rule="nonzero" fill="#1989fa" stroke="none" transform="matrix(1 0 0 1 336 135 )" />
  </g>
</svg>