<?xml version="1.0" encoding="utf-8"?>
<svg version="1.1" xmlns:xlink="http://www.w3.org/1999/xlink" width="16px" height="13px" xmlns="http://www.w3.org/2000/svg">
  <g transform="matrix(1 0 0 1 -8 -511 )">
    <path d="M 16 0.589285714285722  C 16 0.273214285714289  15.7446428571429 0.0178571428571672  15.4285714285714 0.0178571428571672  L 11.3428571428571 0.0178571428571672  C 10.4660714285714 0.0178571428571672  9.60892857142858 0.269642857142856  8.87142857142857 0.744642857142878  L 8 1.30357142857144  L 7.12857142857143 0.744642857142878  C 6.39285714285714 0.269642857142856  5.53392857142858 0.0178571428571672  4.65714285714286 0.0178571428571672  L 0.571428571428569 0.0178571428571672  C 0.25535714285715 0.0178571428571672  0 0.273214285714289  0 0.589285714285722  L 0 10.7321428571429  C 0 11.0482142857143  0.25535714285715 11.3035714285714  0.571428571428569 11.3035714285714  L 4.65714285714286 11.3035714285714  C 5.53392857142858 11.3035714285714  6.39107142857142 11.5553571428571  7.12857142857143 12.0303571428572  L 7.92142857142858 12.5410714285715  C 7.94464285714285 12.5553571428572  7.97142857142858 12.5642857142857  7.99821428571428 12.5642857142857  C 8.02500000000001 12.5642857142857  8.05178571428571 12.5571428571429  8.075 12.5410714285715  L 8.86785714285715 12.0303571428572  C 9.60714285714286 11.5553571428571  10.4660714285714 11.3035714285714  11.3428571428571 11.3035714285714  L 15.4285714285714 11.3035714285714  C 15.7446428571429 11.3035714285714  16 11.0482142857143  16 10.7321428571429  L 16 0.589285714285722  Z M 7.42857142857143 10.7142857142857  C 6.57857142857142 10.2571428571429  5.62857142857143 10.0178571428572  4.65714285714286 10.0178571428572  L 1.28571428571429 10.0178571428572  L 1.28571428571429 1.30357142857144  L 4.65714285714286 1.30357142857144  C 5.28928571428571 1.30357142857144  5.90357142857142 1.48392857142858  6.43392857142857 1.82499999999999  L 7.30535714285715 2.38392857142856  L 7.42857142857143 2.46428571428572  L 7.42857142857143 10.7142857142857  Z M 14.7142857142857 1.30357142857144  L 14.7142857142857 10.0178571428572  L 11.3428571428571 10.0178571428572  C 10.3714285714286 10.0178571428572  9.42142857142858 10.2571428571429  8.57142857142857 10.7142857142857  L 8.57142857142857 2.46428571428572  L 8.69464285714285 2.38392857142856  L 9.56607142857143 1.82499999999999  C 10.0964285714286 1.48392857142858  10.7107142857143 1.30357142857144  11.3428571428571 1.30357142857144  L 14.7142857142857 1.30357142857144  Z M 6.06964285714285 3.72321428571428  C 6.07142857142857 3.65000000000003  6.01428571428572 3.58928571428572  5.94464285714285 3.58928571428572  L 2.62678571428572 3.58928571428572  C 2.55714285714285 3.58928571428572  2.5 3.65000000000003  2.5 3.72321428571428  L 2.5 4.52678571428572  C 2.5 4.60000000000002  2.55714285714285 4.66071428571428  2.62678571428572 4.66071428571428  L 5.94285714285714 4.66071428571428  C 6.0125 4.66071428571428  6.06964285714285 4.60000000000002  6.06964285714285 4.52678571428572  L 6.06964285714285 3.72321428571428  Z M 10.0553571428571 3.58928571428572  C 9.98571428571428 3.58928571428572  9.92857142857143 3.65000000000003  9.92857142857143 3.72321428571428  L 9.92857142857143 4.52678571428572  C 9.92857142857143 4.60000000000002  9.98571428571428 4.66071428571428  10.0553571428571 4.66071428571428  L 13.3714285714286 4.66071428571428  C 13.4410714285714 4.66071428571428  13.4982142857143 4.60000000000002  13.4982142857143 4.52678571428572  L 13.4982142857143 3.72321428571428  C 13.4982142857143 3.65000000000003  13.4410714285714 3.58928571428572  13.3714285714286 3.58928571428572  L 10.0553571428571 3.58928571428572  Z M 6.06964285714285 6.22321428571428  C 6.07142857142857 6.15000000000003  6.01428571428572 6.08928571428572  5.94464285714285 6.08928571428572  L 2.62678571428572 6.08928571428572  C 2.55714285714285 6.08928571428572  2.5 6.15000000000003  2.5 6.22321428571428  L 2.5 7.02678571428572  C 2.5 7.10000000000002  2.55714285714285 7.16071428571428  2.62678571428572 7.16071428571428  L 5.94285714285714 7.16071428571428  C 6.0125 7.16071428571428  6.06964285714285 7.10000000000002  6.06964285714285 7.02678571428572  L 6.06964285714285 6.22321428571428  Z M 13.4982142857143 6.22321428571428  C 13.5 6.15000000000003  13.4428571428571 6.08928571428572  13.3732142857143 6.08928571428572  L 10.0553571428571 6.08928571428572  C 9.98571428571428 6.08928571428572  9.92857142857143 6.15000000000003  9.92857142857143 6.22321428571428  L 9.92857142857143 7.02678571428572  C 9.92857142857143 7.10000000000002  9.98571428571428 7.16071428571428  10.0553571428571 7.16071428571428  L 13.3714285714286 7.16071428571428  C 13.4410714285714 7.16071428571428  13.4982142857143 7.10000000000002  13.4982142857143 7.02678571428572  L 13.4982142857143 6.22321428571428  Z " fill-rule="nonzero" fill="#666666" stroke="none" transform="matrix(1 0 0 1 8 511 )" />
  </g>
</svg>