<?xml version="1.0" encoding="utf-8"?>
<svg version="1.1" xmlns:xlink="http://www.w3.org/1999/xlink" width="53px" height="53px" xmlns="http://www.w3.org/2000/svg">
  <g transform="matrix(1 0 0 1 -323 -255 )">
    <path d="M 349.5 255  C 364.34 255  376 266.66  376 281.5  C 376 296.34  364.34 308  349.5 308  C 334.66 308  323 296.34  323 281.5  C 323 266.66  334.66 255  349.5 255  Z " fill-rule="nonzero" fill="#bcbcbc" stroke="none" />
    <path d="M 349.5 255.5  C 364.06 255.5  375.5 266.94  375.5 281.5  C 375.5 296.06  364.06 307.5  349.5 307.5  C 334.94 307.5  323.5 296.06  323.5 281.5  C 323.5 266.94  334.94 255.5  349.5 255.5  Z " stroke-width="1" stroke="#bcbcbc" fill="none" />
  </g>
</svg>