<?xml version="1.0" encoding="utf-8"?>
<svg version="1.1" xmlns:xlink="http://www.w3.org/1999/xlink" width="15px" height="14px" xmlns="http://www.w3.org/2000/svg">
  <g transform="matrix(1 0 0 1 -330 -121 )">
    <path d="M 6.796875 0.13822115384616  C 6.796875 0.0621995192307736  6.72656249999994 0  6.64062499999994 0  L 0.625000000000057 0  C 0.279296875 0  0 0.247070312499972  0 0.552884615384613  L 0 5.87439903846153  C 0 5.95042067307693  0.0703125000000568 6.01262019230769  0.156250000000057 6.01262019230769  L 6.64062499999994 6.01262019230769  C 6.72656249999994 6.01262019230769  6.796875 5.95042067307693  6.796875 5.87439903846153  L 6.796875 0.13822115384616  Z M 5.54687500000006 1.10576923076923  L 5.54687500000006 4.90685096153847  L 1.24999999999994 4.90685096153847  L 1.24999999999994 1.10576923076923  L 5.54687500000006 1.10576923076923  Z M 2.6953125 3.49008413461539  C 2.6953125 3.56610576923077  2.76562500000006 3.62830528846156  2.85156250000006 3.62830528846156  L 3.94531249999994 3.62830528846156  C 4.03124999999994 3.62830528846156  4.1015625 3.56610576923077  4.1015625 3.49008413461539  L 4.1015625 2.52253605769232  C 4.1015625 2.44651442307692  4.03124999999994 2.38431490384616  3.94531249999994 2.38431490384616  L 2.85156250000006 2.38431490384616  C 2.76562500000006 2.38431490384616  2.6953125 2.44651442307692  2.6953125 2.52253605769232  L 2.6953125 3.49008413461539  Z M 6.796875 7.39483173076924  C 6.796875 7.31881009615385  6.72656249999994 7.25661057692308  6.64062499999994 7.25661057692308  L 0.156250000000057 7.25661057692308  C 0.0703125000000568 7.25661057692308  0 7.31881009615385  0 7.39483173076924  L 0 12.7163461538462  C 0 13.0221604567308  0.279296875 13.2692307692308  0.625000000000057 13.2692307692308  L 6.64062499999994 13.2692307692308  C 6.72656249999994 13.2692307692308  6.796875 13.20703125  6.796875 13.1310096153846  L 6.796875 7.39483173076924  Z M 5.54687500000006 8.36237980769231  L 5.54687500000006 12.1634615384616  L 1.24999999999994 12.1634615384616  L 1.24999999999994 8.36237980769231  L 5.54687500000006 8.36237980769231  Z M 2.6953125 10.7466947115385  C 2.6953125 10.8227163461539  2.76562500000006 10.8849158653846  2.85156250000006 10.8849158653846  L 3.94531249999994 10.8849158653846  C 4.03124999999994 10.8849158653846  4.1015625 10.8227163461539  4.1015625 10.7466947115385  L 4.1015625 9.77914663461539  C 4.1015625 9.70312500000001  4.03124999999994 9.64092548076925  3.94531249999994 9.64092548076925  L 2.85156250000006 9.64092548076925  C 2.76562500000006 9.64092548076925  2.6953125 9.70312500000001  2.6953125 9.77914663461539  L 2.6953125 10.7466947115385  Z M 15 0.552884615384613  C 15 0.247070312499972  14.720703125 0  14.3749999999999 0  L 8.35937500000006 0  C 8.27343750000006 0  8.203125 0.0621995192307736  8.203125 0.13822115384616  L 8.203125 5.87439903846153  C 8.203125 5.95042067307693  8.27343750000006 6.01262019230769  8.35937500000006 6.01262019230769  L 14.8437499999999 6.01262019230769  C 14.9296874999999 6.01262019230769  15 5.95042067307693  15 5.87439903846153  L 15 0.552884615384613  Z M 13.7500000000001 1.10576923076923  L 13.7500000000001 4.90685096153847  L 9.45312499999994 4.90685096153847  L 9.45312499999994 1.10576923076923  L 13.7500000000001 1.10576923076923  Z M 10.8984375 3.49008413461539  C 10.8984375 3.56610576923077  10.9687500000001 3.62830528846156  11.0546875000001 3.62830528846156  L 12.1484374999999 3.62830528846156  C 12.2343749999999 3.62830528846156  12.3046875 3.56610576923077  12.3046875 3.49008413461539  L 12.3046875 2.52253605769232  C 12.3046875 2.44651442307692  12.2343749999999 2.38431490384616  12.1484374999999 2.38431490384616  L 11.0546875000001 2.38431490384616  C 10.9687500000001 2.38431490384616  10.8984375 2.44651442307692  10.8984375 2.52253605769232  L 10.8984375 3.49008413461539  Z M 15 7.39483173076924  C 15 7.31881009615385  14.9296874999999 7.25661057692308  14.8437499999999 7.25661057692308  L 13.9062499999999 7.25661057692308  C 13.8203124999999 7.25661057692308  13.7500000000001 7.31881009615385  13.7500000000001 7.39483173076924  L 13.7500000000001 9.71003605769231  L 12.2265625000001 9.71003605769231  L 12.2265625000001 7.39483173076924  C 12.2265625000001 7.31881009615385  12.15625 7.25661057692308  12.0703125 7.25661057692308  L 8.35937500000006 7.25661057692308  C 8.27343750000006 7.25661057692308  8.203125 7.31881009615385  8.203125 7.39483173076924  L 8.203125 13.1310096153846  C 8.203125 13.20703125  8.27343750000006 13.2692307692308  8.35937500000006 13.2692307692308  L 9.29687500000006 13.2692307692308  C 9.38281250000011 13.2692307692308  9.45312499999994 13.20703125  9.45312499999994 13.1310096153846  L 9.45312499999994 8.91526442307693  L 10.9765624999999 8.91526442307693  L 10.9765624999999 10.6775841346154  C 10.9765624999999 10.7536057692308  11.046875 10.8158052884616  11.1328125 10.8158052884616  L 14.8437499999999 10.8158052884616  C 14.9296874999999 10.8158052884616  15 10.7536057692308  15 10.6775841346154  L 15 7.39483173076924  Z M 12.2265625000001 12.3016826923077  C 12.2265625000001 12.2256610576923  12.15625 12.1634615384616  12.0703125 12.1634615384616  L 11.1328125 12.1634615384616  C 11.046875 12.1634615384616  10.9765624999999 12.2256610576923  10.9765624999999 12.3016826923077  L 10.9765624999999 13.1310096153846  C 10.9765624999999 13.20703125  11.046875 13.2692307692308  11.1328125 13.2692307692308  L 12.0703125 13.2692307692308  C 12.15625 13.2692307692308  12.2265625000001 13.20703125  12.2265625000001 13.1310096153846  L 12.2265625000001 12.3016826923077  Z M 15 12.3016826923077  C 15 12.2256610576923  14.9296874999999 12.1634615384616  14.8437499999999 12.1634615384616  L 13.9062499999999 12.1634615384616  C 13.8203124999999 12.1634615384616  13.7500000000001 12.2256610576923  13.7500000000001 12.3016826923077  L 13.7500000000001 13.1310096153846  C 13.7500000000001 13.20703125  13.8203124999999 13.2692307692308  13.9062499999999 13.2692307692308  L 14.8437499999999 13.2692307692308  C 14.9296874999999 13.2692307692308  15 13.20703125  15 13.1310096153846  L 15 12.3016826923077  Z " fill-rule="nonzero" fill="#ffffff" stroke="none" transform="matrix(1 0 0 1 330 121 )" />
  </g>
</svg>