<?xml version="1.0" encoding="utf-8"?>
<svg version="1.1" xmlns:xlink="http://www.w3.org/1999/xlink" width="12px" height="12px" viewBox="105 91  12 12" xmlns="http://www.w3.org/2000/svg">
  <path d="M 111 91  C 114.36 91  117 93.64  117 97  C 117 100.36  114.36 103  111 103  C 107.64 103  105 100.36  105 97  C 105 93.64  107.64 91  111 91  Z " fill-rule="nonzero" fill="#ffffff" stroke="none" />
  <path d="M 111 91.5  C 114.08 91.5  116.5 93.92  116.5 97  C 116.5 100.08  114.08 102.5  111 102.5  C 107.92 102.5  105.5 100.08  105.5 97  C 105.5 93.92  107.92 91.5  111 91.5  Z " stroke-width="1" stroke="#797979" fill="none" />
  <path d="M 111 100  C 109.32 100  108 98.68  108 97  C 108 95.32  109.32 94  111 94  C 112.68 94  114 95.32  114 97  C 114 98.68  112.68 100  111 100  " fill-rule="nonzero" fill="#797979" stroke="none" />
</svg>