<?xml version="1.0" encoding="utf-8"?>
<svg version="1.1" xmlns:xlink="http://www.w3.org/1999/xlink" width="12px" height="12px" viewBox="220 91  12 12" xmlns="http://www.w3.org/2000/svg">
  <path d="M 226 91  C 229.36 91  232 93.64  232 97  C 232 100.36  229.36 103  226 103  C 222.64 103  220 100.36  220 97  C 220 93.64  222.64 91  226 91  Z " fill-rule="nonzero" fill="#ffffff" stroke="none" />
  <path d="M 226 91.5  C 229.08 91.5  231.5 93.92  231.5 97  C 231.5 100.08  229.08 102.5  226 102.5  C 222.92 102.5  220.5 100.08  220.5 97  C 220.5 93.92  222.92 91.5  226 91.5  Z " stroke-width="1" stroke="#797979" fill="none" />
  <path d="M 226 100  C 224.32 100  223 98.68  223 97  C 223 95.32  224.32 94  226 94  C 227.68 94  229 95.32  229 97  C 229 98.68  227.68 100  226 100  " fill-rule="nonzero" fill="#797979" stroke="none" />
</svg>