<?xml version="1.0" encoding="utf-8"?>
<svg version="1.1" xmlns:xlink="http://www.w3.org/1999/xlink" width="12px" height="12px" viewBox="104 256  12 12" xmlns="http://www.w3.org/2000/svg">
  <path d="M 110 256  C 113.36 256  116 258.64  116 262  C 116 265.36  113.36 268  110 268  C 106.64 268  104 265.36  104 262  C 104 258.64  106.64 256  110 256  Z " fill-rule="nonzero" fill="#ffffff" stroke="none" />
  <path d="M 110 256.5  C 113.08 256.5  115.5 258.92  115.5 262  C 115.5 265.08  113.08 267.5  110 267.5  C 106.92 267.5  104.5 265.08  104.5 262  C 104.5 258.92  106.92 256.5  110 256.5  Z " stroke-width="1" stroke="#797979" fill="none" />
  <path d="M 110 265  C 108.32 265  107 263.68  107 262  C 107 260.32  108.32 259  110 259  C 111.68 259  113 260.32  113 262  C 113 263.68  111.68 265  110 265  " fill-rule="nonzero" fill="#797979" stroke="none" />
</svg>