<?xml version="1.0" encoding="utf-8"?>
<svg version="1.1" xmlns:xlink="http://www.w3.org/1999/xlink" width="12px" height="12px" viewBox="402 258  12 12" xmlns="http://www.w3.org/2000/svg">
  <path d="M 408 258  C 411.36 258  414 260.64  414 264  C 414 267.36  411.36 270  408 270  C 404.64 270  402 267.36  402 264  C 402 260.64  404.64 258  408 258  Z " fill-rule="nonzero" fill="#ffffff" stroke="none" />
  <path d="M 408 258.5  C 411.08 258.5  413.5 260.92  413.5 264  C 413.5 267.08  411.08 269.5  408 269.5  C 404.92 269.5  402.5 267.08  402.5 264  C 402.5 260.92  404.92 258.5  408 258.5  Z " stroke-width="1" stroke="#797979" fill="none" />
  <path d="M 408 267  C 406.32 267  405 265.68  405 264  C 405 262.32  406.32 261  408 261  C 409.68 261  411 262.32  411 264  C 411 265.68  409.68 267  408 267  " fill-rule="nonzero" fill="#797979" stroke="none" />
</svg>