<?xml version="1.0" encoding="utf-8"?>
<svg version="1.1" xmlns:xlink="http://www.w3.org/1999/xlink" width="12px" height="12px" viewBox="106 335  12 12" xmlns="http://www.w3.org/2000/svg">
  <path d="M 112 335  C 115.36 335  118 337.64  118 341  C 118 344.36  115.36 347  112 347  C 108.64 347  106 344.36  106 341  C 106 337.64  108.64 335  112 335  Z " fill-rule="nonzero" fill="#ffffff" stroke="none" />
  <path d="M 112 335.5  C 115.08 335.5  117.5 337.92  117.5 341  C 117.5 344.08  115.08 346.5  112 346.5  C 108.92 346.5  106.5 344.08  106.5 341  C 106.5 337.92  108.92 335.5  112 335.5  Z " stroke-width="1" stroke="#797979" fill="none" />
  <path d="M 112 344  C 110.32 344  109 342.68  109 341  C 109 339.32  110.32 338  112 338  C 113.68 338  115 339.32  115 341  C 115 342.68  113.68 344  112 344  " fill-rule="nonzero" fill="#797979" stroke="none" />
</svg>