<?xml version="1.0" encoding="utf-8"?>
<svg version="1.1" xmlns:xlink="http://www.w3.org/1999/xlink" width="12px" height="12px" viewBox="206 335  12 12" xmlns="http://www.w3.org/2000/svg">
  <path d="M 212 335  C 215.36 335  218 337.64  218 341  C 218 344.36  215.36 347  212 347  C 208.64 347  206 344.36  206 341  C 206 337.64  208.64 335  212 335  Z " fill-rule="nonzero" fill="#ffffff" stroke="none" />
  <path d="M 212 335.5  C 215.08 335.5  217.5 337.92  217.5 341  C 217.5 344.08  215.08 346.5  212 346.5  C 208.92 346.5  206.5 344.08  206.5 341  C 206.5 337.92  208.92 335.5  212 335.5  Z " stroke-width="1" stroke="#797979" fill="none" />
  <path d="M 212 344  C 210.32 344  209 342.68  209 341  C 209 339.32  210.32 338  212 338  C 213.68 338  215 339.32  215 341  C 215 342.68  213.68 344  212 344  " fill-rule="nonzero" fill="#797979" stroke="none" />
</svg>