<?xml version="1.0" encoding="utf-8"?>
<svg version="1.1" xmlns:xlink="http://www.w3.org/1999/xlink" width="12px" height="12px" viewBox="102 50  12 12" xmlns="http://www.w3.org/2000/svg">
  <path d="M 108 50  C 111.36 50  114 52.64  114 56  C 114 59.36  111.36 62  108 62  C 104.64 62  102 59.36  102 56  C 102 52.64  104.64 50  108 50  Z " fill-rule="nonzero" fill="#ffffff" stroke="none" />
  <path d="M 108 50.5  C 111.08 50.5  113.5 52.92  113.5 56  C 113.5 59.08  111.08 61.5  108 61.5  C 104.92 61.5  102.5 59.08  102.5 56  C 102.5 52.92  104.92 50.5  108 50.5  Z " stroke-width="1" stroke="#797979" fill="none" />
  <path d="M 108 59  C 106.32 59  105 57.68  105 56  C 105 54.32  106.32 53  108 53  C 109.68 53  111 54.32  111 56  C 111 57.68  109.68 59  108 59  " fill-rule="nonzero" fill="#797979" stroke="none" />
</svg>