<?xml version="1.0" encoding="utf-8"?>
<svg version="1.1" xmlns:xlink="http://www.w3.org/1999/xlink" width="12px" height="12px" viewBox="266 47  12 12" xmlns="http://www.w3.org/2000/svg">
  <path d="M 272 47  C 275.36 47  278 49.64  278 53  C 278 56.36  275.36 59  272 59  C 268.64 59  266 56.36  266 53  C 266 49.64  268.64 47  272 47  Z " fill-rule="nonzero" fill="#ffffff" stroke="none" />
  <path d="M 272 47.5  C 275.08 47.5  277.5 49.92  277.5 53  C 277.5 56.08  275.08 58.5  272 58.5  C 268.92 58.5  266.5 56.08  266.5 53  C 266.5 49.92  268.92 47.5  272 47.5  Z " stroke-width="1" stroke="#797979" fill="none" />
  <path d="M 272 56  C 270.32 56  269 54.68  269 53  C 269 51.32  270.32 50  272 50  C 273.68 50  275 51.32  275 53  C 275 54.68  273.68 56  272 56  " fill-rule="nonzero" fill="#797979" stroke="none" />
</svg>