<?xml version="1.0" encoding="utf-8"?>
<svg version="1.1" xmlns:xlink="http://www.w3.org/1999/xlink" width="12px" height="12px" viewBox="477 46  12 12" xmlns="http://www.w3.org/2000/svg">
  <path d="M 483 46  C 486.36 46  489 48.64  489 52  C 489 55.36  486.36 58  483 58  C 479.64 58  477 55.36  477 52  C 477 48.64  479.64 46  483 46  Z " fill-rule="nonzero" fill="#ffffff" stroke="none" />
  <path d="M 483 46.5  C 486.08 46.5  488.5 48.92  488.5 52  C 488.5 55.08  486.08 57.5  483 57.5  C 479.92 57.5  477.5 55.08  477.5 52  C 477.5 48.92  479.92 46.5  483 46.5  Z " stroke-width="1" stroke="#797979" fill="none" />
  <path d="M 483 55  C 481.32 55  480 53.68  480 52  C 480 50.32  481.32 49  483 49  C 484.68 49  486 50.32  486 52  C 486 53.68  484.68 55  483 55  " fill-rule="nonzero" fill="#797979" stroke="none" />
</svg>