<?xml version="1.0" encoding="utf-8"?>
<svg version="1.1" xmlns:xlink="http://www.w3.org/1999/xlink" width="12px" height="12px" viewBox="206 175  12 12" xmlns="http://www.w3.org/2000/svg">
  <path d="M 212 175  C 215.36 175  218 177.64  218 181  C 218 184.36  215.36 187  212 187  C 208.64 187  206 184.36  206 181  C 206 177.64  208.64 175  212 175  Z " fill-rule="nonzero" fill="#ffffff" stroke="none" />
  <path d="M 212 175.5  C 215.08 175.5  217.5 177.92  217.5 181  C 217.5 184.08  215.08 186.5  212 186.5  C 208.92 186.5  206.5 184.08  206.5 181  C 206.5 177.92  208.92 175.5  212 175.5  Z " stroke-width="1" stroke="#797979" fill="none" />
  <path d="M 212 184  C 210.32 184  209 182.68  209 181  C 209 179.32  210.32 178  212 178  C 213.68 178  215 179.32  215 181  C 215 182.68  213.68 184  212 184  " fill-rule="nonzero" fill="#797979" stroke="none" />
</svg>