<?xml version="1.0" encoding="utf-8"?>
<svg version="1.1" xmlns:xlink="http://www.w3.org/1999/xlink" width="12px" height="12px" viewBox="209 679  12 12" xmlns="http://www.w3.org/2000/svg">
  <path d="M 215 679  C 218.36 679  221 681.64  221 685  C 221 688.36  218.36 691  215 691  C 211.64 691  209 688.36  209 685  C 209 681.64  211.64 679  215 679  Z " fill-rule="nonzero" fill="#ffffff" stroke="none" />
  <path d="M 215 679.5  C 218.08 679.5  220.5 681.92  220.5 685  C 220.5 688.08  218.08 690.5  215 690.5  C 211.92 690.5  209.5 688.08  209.5 685  C 209.5 681.92  211.92 679.5  215 679.5  Z " stroke-width="1" stroke="#797979" fill="none" />
  <path d="M 215 688  C 213.32 688  212 686.68  212 685  C 212 683.32  213.32 682  215 682  C 216.68 682  218 683.32  218 685  C 218 686.68  216.68 688  215 688  " fill-rule="nonzero" fill="#797979" stroke="none" />
</svg>