<?xml version="1.0" encoding="utf-8"?>
<svg version="1.1" xmlns:xlink="http://www.w3.org/1999/xlink" width="12px" height="12px" viewBox="105 508  12 12" xmlns="http://www.w3.org/2000/svg">
  <path d="M 111 508  C 114.36 508  117 510.64  117 514  C 117 517.36  114.36 520  111 520  C 107.64 520  105 517.36  105 514  C 105 510.64  107.64 508  111 508  Z " fill-rule="nonzero" fill="#ffffff" stroke="none" />
  <path d="M 111 508.5  C 114.08 508.5  116.5 510.92  116.5 514  C 116.5 517.08  114.08 519.5  111 519.5  C 107.92 519.5  105.5 517.08  105.5 514  C 105.5 510.92  107.92 508.5  111 508.5  Z " stroke-width="1" stroke="#797979" fill="none" />
  <path d="M 111 517  C 109.32 517  108 515.68  108 514  C 108 512.32  109.32 511  111 511  C 112.68 511  114 512.32  114 514  C 114 515.68  112.68 517  111 517  " fill-rule="nonzero" fill="#797979" stroke="none" />
</svg>