<?xml version="1.0" encoding="utf-8"?>
<svg version="1.1" xmlns:xlink="http://www.w3.org/1999/xlink" width="12px" height="12px" viewBox="104 498  12 12" xmlns="http://www.w3.org/2000/svg">
  <path d="M 110 498  C 113.36 498  116 500.64  116 504  C 116 507.36  113.36 510  110 510  C 106.64 510  104 507.36  104 504  C 104 500.64  106.64 498  110 498  Z " fill-rule="nonzero" fill="#ffffff" stroke="none" />
  <path d="M 110 498.5  C 113.08 498.5  115.5 500.92  115.5 504  C 115.5 507.08  113.08 509.5  110 509.5  C 106.92 509.5  104.5 507.08  104.5 504  C 104.5 500.92  106.92 498.5  110 498.5  Z " stroke-width="1" stroke="#797979" fill="none" />
  <path d="M 110 507  C 108.32 507  107 505.68  107 504  C 107 502.32  108.32 501  110 501  C 111.68 501  113 502.32  113 504  C 113 505.68  111.68 507  110 507  " fill-rule="nonzero" fill="#797979" stroke="none" />
</svg>