<?xml version="1.0" encoding="utf-8"?>
<svg version="1.1" xmlns:xlink="http://www.w3.org/1999/xlink" width="12px" height="12px" viewBox="204 498  12 12" xmlns="http://www.w3.org/2000/svg">
  <path d="M 210 498  C 213.36 498  216 500.64  216 504  C 216 507.36  213.36 510  210 510  C 206.64 510  204 507.36  204 504  C 204 500.64  206.64 498  210 498  Z " fill-rule="nonzero" fill="#ffffff" stroke="none" />
  <path d="M 210 498.5  C 213.08 498.5  215.5 500.92  215.5 504  C 215.5 507.08  213.08 509.5  210 509.5  C 206.92 509.5  204.5 507.08  204.5 504  C 204.5 500.92  206.92 498.5  210 498.5  Z " stroke-width="1" stroke="#797979" fill="none" />
  <path d="M 210 507  C 208.32 507  207 505.68  207 504  C 207 502.32  208.32 501  210 501  C 211.68 501  213 502.32  213 504  C 213 505.68  211.68 507  210 507  " fill-rule="nonzero" fill="#797979" stroke="none" />
</svg>