<?xml version="1.0" encoding="utf-8"?>
<svg version="1.1" xmlns:xlink="http://www.w3.org/1999/xlink" width="12px" height="12px" viewBox="101 21  12 12" xmlns="http://www.w3.org/2000/svg">
  <path d="M 107 21  C 110.36 21  113 23.64  113 27  C 113 30.36  110.36 33  107 33  C 103.64 33  101 30.36  101 27  C 101 23.64  103.64 21  107 21  Z " fill-rule="nonzero" fill="#ffffff" stroke="none" />
  <path d="M 107 21.5  C 110.08 21.5  112.5 23.92  112.5 27  C 112.5 30.08  110.08 32.5  107 32.5  C 103.92 32.5  101.5 30.08  101.5 27  C 101.5 23.92  103.92 21.5  107 21.5  Z " stroke-width="1" stroke="#797979" fill="none" />
  <path d="M 107 30  C 105.32 30  104 28.68  104 27  C 104 25.32  105.32 24  107 24  C 108.68 24  110 25.32  110 27  C 110 28.68  108.68 30  107 30  " fill-rule="nonzero" fill="#797979" stroke="none" />
</svg>