<?xml version="1.0" encoding="utf-8"?>
<svg version="1.1" xmlns:xlink="http://www.w3.org/1999/xlink" width="12px" height="12px" viewBox="211 21  12 12" xmlns="http://www.w3.org/2000/svg">
  <path d="M 217 21  C 220.36 21  223 23.64  223 27  C 223 30.36  220.36 33  217 33  C 213.64 33  211 30.36  211 27  C 211 23.64  213.64 21  217 21  Z " fill-rule="nonzero" fill="#ffffff" stroke="none" />
  <path d="M 217 21.5  C 220.08 21.5  222.5 23.92  222.5 27  C 222.5 30.08  220.08 32.5  217 32.5  C 213.92 32.5  211.5 30.08  211.5 27  C 211.5 23.92  213.92 21.5  217 21.5  Z " stroke-width="1" stroke="#797979" fill="none" />
  <path d="M 217 30  C 215.32 30  214 28.68  214 27  C 214 25.32  215.32 24  217 24  C 218.68 24  220 25.32  220 27  C 220 28.68  218.68 30  217 30  " fill-rule="nonzero" fill="#797979" stroke="none" />
</svg>