<?xml version="1.0" encoding="utf-8"?>
<svg version="1.1" xmlns:xlink="http://www.w3.org/1999/xlink" width="12px" height="12px" viewBox="94 5  12 12" xmlns="http://www.w3.org/2000/svg">
  <path d="M 100 5  C 103.36 5  106 7.64  106 11  C 106 14.36  103.36 17  100 17  C 96.64 17  94 14.36  94 11  C 94 7.64  96.64 5  100 5  Z " fill-rule="nonzero" fill="#ffffff" stroke="none" />
  <path d="M 100 5.5  C 103.08 5.5  105.5 7.92  105.5 11  C 105.5 14.08  103.08 16.5  100 16.5  C 96.92 16.5  94.5 14.08  94.5 11  C 94.5 7.92  96.92 5.5  100 5.5  Z " stroke-width="1" stroke="#797979" fill="none" />
  <path d="M 100 14  C 98.32 14  97 12.68  97 11  C 97 9.32  98.32 8  100 8  C 101.68 8  103 9.32  103 11  C 103 12.68  101.68 14  100 14  " fill-rule="nonzero" fill="#797979" stroke="none" />
</svg>