<?xml version="1.0" encoding="utf-8"?>
<svg version="1.1" xmlns:xlink="http://www.w3.org/1999/xlink" width="12px" height="12px" viewBox="217 5  12 12" xmlns="http://www.w3.org/2000/svg">
  <path d="M 223 5  C 226.36 5  229 7.64  229 11  C 229 14.36  226.36 17  223 17  C 219.64 17  217 14.36  217 11  C 217 7.64  219.64 5  223 5  Z " fill-rule="nonzero" fill="#ffffff" stroke="none" />
  <path d="M 223 5.5  C 226.08 5.5  228.5 7.92  228.5 11  C 228.5 14.08  226.08 16.5  223 16.5  C 219.92 16.5  217.5 14.08  217.5 11  C 217.5 7.92  219.92 5.5  223 5.5  Z " stroke-width="1" stroke="#797979" fill="none" />
  <path d="M 223 14  C 221.32 14  220 12.68  220 11  C 220 9.32  221.32 8  223 8  C 224.68 8  226 9.32  226 11  C 226 12.68  224.68 14  223 14  " fill-rule="nonzero" fill="#797979" stroke="none" />
</svg>