<?xml version="1.0" encoding="utf-8"?>
<svg version="1.1" xmlns:xlink="http://www.w3.org/1999/xlink" width="16px" height="16px" xmlns="http://www.w3.org/2000/svg">
  <g transform="matrix(1 0 0 1 -276 -166 )">
    <path d="M 11.4285714285714 7.46428571428571  C 11.4285714285714 7.36607142857143  11.3642857142857 7.28571428571429  11.2857142857143 7.28571428571429  L 4.71428571428572 7.28571428571429  C 4.6357142857143 7.28571428571429  4.57142857142856 7.36607142857143  4.57142857142856 7.46428571428571  L 4.57142857142856 8.53571428571428  C 4.57142857142856 8.63392857142858  4.6357142857143 8.71428571428572  4.71428571428572 8.71428571428572  L 11.2857142857143 8.71428571428572  C 11.3642857142857 8.71428571428572  11.4285714285714 8.63392857142858  11.4285714285714 8.53571428571428  L 11.4285714285714 7.46428571428571  Z M 16 8  C 16 3.58214285714287  12.4178571428571 0  8 0  C 3.58214285714286 0  0 3.58214285714287  0 8  C 0 12.4178571428571  3.58214285714286 16  8 16  C 12.4178571428571 16  16 12.4178571428571  16 8  Z M 14.6428571428572 8  C 14.6428571428572 11.6678571428571  11.6678571428571 14.6428571428571  8 14.6428571428571  C 4.33214285714286 14.6428571428571  1.35714285714283 11.6678571428571  1.35714285714283 8  C 1.35714285714283 4.33214285714287  4.33214285714286 1.35714285714286  8 1.35714285714286  C 11.6678571428571 1.35714285714286  14.6428571428572 4.33214285714287  14.6428571428572 8  Z " fill-rule="nonzero" fill="#666666" stroke="none" transform="matrix(1 0 0 1 276 166 )" />
  </g>
</svg>