<?xml version="1.0" encoding="utf-8"?>
<svg version="1.1" xmlns:xlink="http://www.w3.org/1999/xlink" width="114px" height="83px" xmlns="http://www.w3.org/2000/svg">
  <g transform="matrix(1 0 0 1 -156 -9 )">
    <path d="M 113 3.74951919798144  C 113.649956874245 1.67556639159793  111.836123857168 0  109.591029843022 0  L 4.05892703122289 0  C 1.81383301707781 0  0 1.67556639159793  0 3.74951919798144  L 0 78.7399031576076  C 0 80.813855963991  1.81383301707781 82.4894223555888  4.05892703122289 82  L 109.591029843022 82  C 111.836123857168 82.4894223555888  113.649956874245 80.813855963991  113 78.7399031576076  L 113 3.74951919798144  Z M 104.517371053994 70.4909609220488  L 104.517371053994 74  L 9.13258582025179 74  L 9.13258582025179 69.3778224101479  L 26.7001293772641 50.1263847780126  L 45.7390339830947 70.9830853167838  L 75.3565171640503 38.5497442542455  L 104.517371053994 70.4909609220488  Z M 104 9  L 104 58.8440169133192  L 76.1302501293773 27.7464420650616  C 75.724357426255 27.3011866603014  74.9886769018456 27.3011866603014  74.5827841987234 27.7464420650616  L 45.7390339830947 59.3361413080542  L 27.4738623425908 39.3347998363227  C 27.0679696394686 38.8895444315624  26.3322891150596 38.8895444315624  25.9263964119374 39.3347998363227  L 10 57.7308784014185  L 10 9  L 104 9  Z M 19.2799033983094 24.3718747868784  C 19.2799033983094 30.0664570688128  24.2774573055029 34.6830525813272  30.441952734173 34.6830525813272  C 36.6064481628426 34.6830525813272  41.6040020700361 30.0664570688128  41.6040020700361 24.3718747868784  C 41.6040020700361 18.6772925049445  36.6064481628426 14.0606969924298  30.441952734173 14.0606969924298  C 24.2774573055029 14.0606969924298  19.2799033983094 18.6772925049445  19.2799033983094 24.3718747868784  Z M 26.8903915818525 24.3718747868784  C 26.8903915818525 22.5557014253563  28.4759099534243 21.0910454886448  30.441952734173 21.0910454886448  C 32.4079955149215 21.0910454886448  33.993513886493 22.5557014253563  33.993513886493 24.3718747868784  C 33.993513886493 26.1880481484007  32.4079955149215 27.6527040851122  30.441952734173 27.6527040851122  C 28.4759099534243 27.6527040851122  26.8903915818525 26.1880481484007  26.8903915818525 24.3718747868784  Z " fill-rule="nonzero" fill="#c9c9c9" stroke="none" transform="matrix(1 0 0 1 156 9 )" />
  </g>
</svg>