<?xml version="1.0" encoding="utf-8"?>
<svg version="1.1" xmlns:xlink="http://www.w3.org/1999/xlink" width="43px" height="35px" xmlns="http://www.w3.org/2000/svg">
  <g transform="matrix(1 0 0 1 -211 -146 )">
    <path d="M 42 1.54682306940379  C 42.3695014662756 0.69123655913981  41.6932917888564 0  40.8563049853373 0  L 1.51319648093835 0  C 0.676209677419394 0  0 0.69123655913981  0 1.54682306940379  L 0 32.4832844574781  C 0 33.3388709677419  0.676209677419394 34.0301075268817  1.51319648093835 34  L 40.8563049853373 34  C 41.6932917888564 34.0301075268817  42.3695014662756 33.3388709677419  42 32.4832844574781  L 42 1.54682306940379  Z M 38.9648093841644 29.0802737047898  L 38.9648093841644 30  L 3.40469208211144 30  L 3.40469208211144 28.6210606060606  L 9.95399560117298 20.6790909090909  L 17.0518328445747 29.2832942326491  L 28.0934384164222 15.903274682307  L 38.9648093841644 29.0802737047898  Z M 39 4  L 39 24.2754545454545  L 28.3818914956012 11.4464907135875  C 28.2305718475075 11.2628054740958  27.9563049853372 11.2628054740958  27.8049853372434 11.4464907135875  L 17.0518328445747 24.4784750733137  L 10.2424486803519 16.2271407624633  C 10.091129032258 16.0434555229717  9.816862170088 16.0434555229717  9.66554252199421 16.2271407624633  L 4 23.8162414467253  L 4 4  L 39 4  Z M 7.18768328445745 10.0543499511242  C 7.18768328445745 12.4035874877811  9.05080645161291 14.3081133919844  11.3489736070382 14.3081133919844  C 13.6471407624632 14.3081133919844  15.5102639296187 12.4035874877811  15.5102639296187 10.0543499511242  C 15.5102639296187 7.70511241446724  13.6471407624632 5.80058651026397  11.3489736070382 5.80058651026397  C 9.05080645161291 5.80058651026397  7.18768328445745 7.70511241446724  7.18768328445745 10.0543499511242  Z M 10.024926686217 10.0543499511242  C 10.024926686217 9.30510752688173  10.6160190615836 8.70087976539585  11.3489736070382 8.70087976539585  C 12.0819281524927 8.70087976539585  12.6730205278592 9.30510752688173  12.6730205278592 10.0543499511242  C 12.6730205278592 10.8035923753666  12.0819281524927 11.4078201368525  11.3489736070382 11.4078201368525  C 10.6160190615836 11.4078201368525  10.024926686217 10.8035923753666  10.024926686217 10.0543499511242  Z " fill-rule="nonzero" fill="#c9c9c9" stroke="none" transform="matrix(1 0 0 1 211 146 )" />
  </g>
</svg>