<?xml version="1.0" encoding="utf-8"?>
<svg version="1.1" xmlns:xlink="http://www.w3.org/1999/xlink" width="132px" height="101px" xmlns="http://www.w3.org/2000/svg">
  <g transform="matrix(1 0 0 1 -36 -79 )">
    <path d="M 131 4.56266793971236  C 131.594686907021 2.03894223555892  129.494459203036 0  126.894876660342 0  L 4.69981024667914 0  C 2.10022770398484 0  0 2.03894223555892  0 4.56266793971236  L 0 95.8160267339563  C 0 98.3397524381096  2.10022770398484 100.378694673668  4.69981024667914 100  L 126.894876660342 100  C 129.494459203036 100.378694673668  131.594686907021 98.3397524381096  131 95.8160267339563  L 131 4.56266793971236  Z M 121.020113851993 85.7781572665895  L 121.020113851993 90  L 10.5745730550284 90  L 10.5745730550284 84.4236152219872  L 30.9159392789373 60.9971670190274  L 52.9609867172675 86.3770074336767  L 87.2549146110056 46.9099297551662  L 121.020113851993 85.7781572665895  Z M 121 11  L 121 71.6053699788583  L 88.1508159392789 33.7637427538701  C 87.6808349146111 33.2219259360294  86.8289943074001 33.2219259360294  86.3590132827323 33.7637427538701  L 52.9609867172675 72.2042201459454  L 31.8118406072105 47.8652383550433  C 31.3418595825426 47.3234215372024  30.4900189753322 47.3234215372024  30.0200379506643 47.8652383550433  L 11 70.2508279342562  L 11 11  L 121 11  Z M 22.3240986717267 29.6573416081292  C 22.3240986717267 36.5868935415674  28.1107400379507 42.2046784423379  35.2485768500951 42.2046784423379  C 42.3864136622388 42.2046784423379  48.1730550284628 36.5868935415674  48.1730550284628 29.6573416081292  C 48.1730550284628 22.7277896746915  42.3864136622388 17.1100047739207  35.2485768500951 17.1100047739207  C 28.1107400379507 17.1100047739207  22.3240986717267 22.7277896746915  22.3240986717267 29.6573416081292  Z M 31.1362428842502 29.6573416081292  C 31.1362428842502 27.4472993248312  32.9721062618597 25.665007160881  35.2485768500951 25.665007160881  C 37.5250474383302 25.665007160881  39.3609108159392 27.4472993248312  39.3609108159392 29.6573416081292  C 39.3609108159392 31.8673838914274  37.5250474383302 33.6496760553775  35.2485768500951 33.6496760553775  C 32.9721062618597 33.6496760553775  31.1362428842502 31.8673838914274  31.1362428842502 29.6573416081292  Z " fill-rule="nonzero" fill="#c9c9c9" stroke="none" transform="matrix(1 0 0 1 36 79 )" />
  </g>
</svg>