<?xml version="1.0" encoding="utf-8"?>
<svg version="1.1" xmlns:xlink="http://www.w3.org/1999/xlink" width="20px" height="20px" xmlns="http://www.w3.org/2000/svg">
  <g transform="matrix(1 0 0 1 -256 -114 )">
    <path d="M 19.2 9.62142857142857  C 19.2 4.32000000000002  14.9014285714286 0.0214285714285722  9.59999999999997 0.0214285714285722  C 4.29857142857145 0.0214285714285722  0 4.32000000000002  0 9.62142857142857  C 0 14.9228571428571  4.29857142857145 19.2214285714286  9.59999999999997 19.2214285714286  C 14.9014285714286 19.2214285714286  19.2 14.9228571428571  19.2 9.62142857142857  Z M 17.5714285714286 9.62142857142857  C 17.5714285714286 14.0228571428572  14.0014285714286 17.5928571428572  9.59999999999997 17.5928571428572  C 5.19857142857143 17.5928571428572  1.62857142857143 14.0228571428572  1.62857142857143 9.62142857142857  C 1.62857142857143 5.22  5.19857142857143 1.65000000000001  9.59999999999997 1.65000000000001  C 14.0014285714286 1.65000000000001  17.5714285714286 5.22  17.5714285714286 9.62142857142857  Z M 13.2771428571428 6.34285714285716  C 13.3028571428571 6.31285714285715  13.3157142857143 6.27214285714285  13.3157142857143 6.23142857142858  C 13.3157142857143 6.13714285714286  13.2385714285714 6.06  13.1442857142857 6.06  L 11.73 6.06642857142856  L 9.59999999999997 8.6057142857143  L 7.47214285714284 6.06857142857143  L 6.05571428571432 6.06214285714287  C 5.9614285714286 6.06214285714287  5.88428571428574 6.13714285714286  5.88428571428574 6.23357142857145  C 5.88428571428574 6.27428571428572  5.89928571428572 6.31285714285715  5.92500000000001 6.345  L 8.71285714285716 9.66642857142858  L 5.92500000000001 12.9857142857143  C 5.89928571428572 13.0178571428572  5.88428571428574 13.0564285714286  5.88428571428574 13.0971428571428  C 5.88428571428574 13.1914285714286  5.9614285714286 13.2685714285714  6.05571428571432 13.2685714285714  L 7.47214285714284 13.2621428571429  L 9.59999999999997 10.7228571428572  L 11.7278571428571 13.26  L 13.1421428571429 13.2664285714286  C 13.2364285714286 13.2664285714286  13.3135714285714 13.1914285714286  13.3135714285714 13.095  C 13.3135714285714 13.0542857142857  13.2985714285714 13.0157142857143  13.2728571428572 12.9835714285715  L 10.4892857142857 9.66428571428571  L 13.2771428571428 6.34285714285716  Z " fill-rule="nonzero" fill="#a1a1a1" stroke="none" transform="matrix(1 0 0 1 256 114 )" />
  </g>
</svg>