<?xml version="1.0" encoding="utf-8"?>
<svg version="1.1" xmlns:xlink="http://www.w3.org/1999/xlink" width="12px" height="12px" viewBox="123 87  12 12" xmlns="http://www.w3.org/2000/svg">
  <path d="M 129 87  C 132.36 87  135 89.64  135 93  C 135 96.36  132.36 99  129 99  C 125.64 99  123 96.36  123 93  C 123 89.64  125.64 87  129 87  Z " fill-rule="nonzero" fill="#ffffff" stroke="none" />
  <path d="M 129 87.5  C 132.08 87.5  134.5 89.92  134.5 93  C 134.5 96.08  132.08 98.5  129 98.5  C 125.92 98.5  123.5 96.08  123.5 93  C 123.5 89.92  125.92 87.5  129 87.5  Z " stroke-width="1" stroke="#797979" fill="none" />
  <path d="M 129 96  C 127.32 96  126 94.68  126 93  C 126 91.32  127.32 90  129 90  C 130.68 90  132 91.32  132 93  C 132 94.68  130.68 96  129 96  " fill-rule="nonzero" fill="#797979" stroke="none" />
</svg>