<?xml version="1.0" encoding="utf-8"?>
<svg version="1.1" xmlns:xlink="http://www.w3.org/1999/xlink" width="12px" height="12px" viewBox="217 87  12 12" xmlns="http://www.w3.org/2000/svg">
  <path d="M 223 87  C 226.36 87  229 89.64  229 93  C 229 96.36  226.36 99  223 99  C 219.64 99  217 96.36  217 93  C 217 89.64  219.64 87  223 87  Z " fill-rule="nonzero" fill="#ffffff" stroke="none" />
  <path d="M 223 87.5  C 226.08 87.5  228.5 89.92  228.5 93  C 228.5 96.08  226.08 98.5  223 98.5  C 219.92 98.5  217.5 96.08  217.5 93  C 217.5 89.92  219.92 87.5  223 87.5  Z " stroke-width="1" stroke="#797979" fill="none" />
  <path d="M 223 96  C 221.32 96  220 94.68  220 93  C 220 91.32  221.32 90  223 90  C 224.68 90  226 91.32  226 93  C 226 94.68  224.68 96  223 96  " fill-rule="nonzero" fill="#797979" stroke="none" />
</svg>