<?xml version="1.0" encoding="utf-8"?>
<svg version="1.1" xmlns:xlink="http://www.w3.org/1999/xlink" width="12px" height="12px" viewBox="232 76  12 12" xmlns="http://www.w3.org/2000/svg">
  <path d="M 238 76  C 241.36 76  244 78.64  244 82  C 244 85.36  241.36 88  238 88  C 234.64 88  232 85.36  232 82  C 232 78.64  234.64 76  238 76  Z " fill-rule="nonzero" fill="#ffffff" stroke="none" />
  <path d="M 238 76.5  C 241.08 76.5  243.5 78.92  243.5 82  C 243.5 85.08  241.08 87.5  238 87.5  C 234.92 87.5  232.5 85.08  232.5 82  C 232.5 78.92  234.92 76.5  238 76.5  Z " stroke-width="1" stroke="#797979" fill="none" />
  <path d="M 238 85  C 236.32 85  235 83.68  235 82  C 235 80.32  236.32 79  238 79  C 239.68 79  241 80.32  241 82  C 241 83.68  239.68 85  238 85  " fill-rule="nonzero" fill="#797979" stroke="none" />
</svg>