<?xml version="1.0" encoding="utf-8"?>
<svg version="1.1" xmlns:xlink="http://www.w3.org/1999/xlink" width="83px" height="30px" xmlns="http://www.w3.org/2000/svg">
  <g transform="matrix(1 0 0 1 -267 -869 )">
    <path d="M 268 884  A 14 14 0 0 1 282 870 L 335 870  A 14 14 0 0 1 349 884 A 14 14 0 0 1 335 898 L 282 898  A 14 14 0 0 1 268 884 Z " fill-rule="nonzero" fill="#ff0000" stroke="none" />
    <path d="M 267.5 884  A 14.5 14.5 0 0 1 282 869.5 L 335 869.5  A 14.5 14.5 0 0 1 349.5 884 A 14.5 14.5 0 0 1 335 898.5 L 282 898.5  A 14.5 14.5 0 0 1 267.5 884 Z " stroke-width="1" stroke="#ff6600" fill="none" stroke-opacity="0.549019607843137" />
  </g>
</svg>