<?xml version="1.0" encoding="utf-8"?>
<svg version="1.1" xmlns:xlink="http://www.w3.org/1999/xlink" width="12px" height="12px" viewBox="241 21  12 12" xmlns="http://www.w3.org/2000/svg">
  <path d="M 247 21  C 250.36 21  253 23.64  253 27  C 253 30.36  250.36 33  247 33  C 243.64 33  241 30.36  241 27  C 241 23.64  243.64 21  247 21  Z " fill-rule="nonzero" fill="#ffffff" stroke="none" />
  <path d="M 247 21.5  C 250.08 21.5  252.5 23.92  252.5 27  C 252.5 30.08  250.08 32.5  247 32.5  C 243.92 32.5  241.5 30.08  241.5 27  C 241.5 23.92  243.92 21.5  247 21.5  Z " stroke-width="1" stroke="#797979" fill="none" />
  <path d="M 247 30  C 245.32 30  244 28.68  244 27  C 244 25.32  245.32 24  247 24  C 248.68 24  250 25.32  250 27  C 250 28.68  248.68 30  247 30  " fill-rule="nonzero" fill="#797979" stroke="none" />
</svg>