<?xml version="1.0" encoding="utf-8"?>
<svg version="1.1" xmlns:xlink="http://www.w3.org/1999/xlink" width="12px" height="12px" viewBox="104 84  12 12" xmlns="http://www.w3.org/2000/svg">
  <path d="M 110 84  C 113.36 84  116 86.64  116 90  C 116 93.36  113.36 96  110 96  C 106.64 96  104 93.36  104 90  C 104 86.64  106.64 84  110 84  Z " fill-rule="nonzero" fill="#ffffff" stroke="none" />
  <path d="M 110 84.5  C 113.08 84.5  115.5 86.92  115.5 90  C 115.5 93.08  113.08 95.5  110 95.5  C 106.92 95.5  104.5 93.08  104.5 90  C 104.5 86.92  106.92 84.5  110 84.5  Z " stroke-width="1" stroke="#797979" fill="none" />
  <path d="M 110 93  C 108.32 93  107 91.68  107 90  C 107 88.32  108.32 87  110 87  C 111.68 87  113 88.32  113 90  C 113 91.68  111.68 93  110 93  " fill-rule="nonzero" fill="#797979" stroke="none" />
</svg>