<?xml version="1.0" encoding="utf-8"?>
<svg version="1.1" xmlns:xlink="http://www.w3.org/1999/xlink" width="50px" height="50px" xmlns="http://www.w3.org/2000/svg">
  <g transform="matrix(1 0 0 1 -1433 -170 )">
    <path d="M 1458 170  C 1472 170  1483 181  1483 195  C 1483 209  1472 220  1458 220  C 1444 220  1433 209  1433 195  C 1433 181  1444 170  1458 170  Z " fill-rule="nonzero" fill="#ffffff" stroke="none" fill-opacity="0" />
    <path d="M 1458 170.5  C 1471.72 170.5  1482.5 181.28  1482.5 195  C 1482.5 208.72  1471.72 219.5  1458 219.5  C 1444.28 219.5  1433.5 208.72  1433.5 195  C 1433.5 181.28  1444.28 170.5  1458 170.5  Z " stroke-width="1" stroke="#ff0000" fill="none" />
  </g>
</svg>