<?xml version="1.0" encoding="utf-8"?>
<svg version="1.1" xmlns:xlink="http://www.w3.org/1999/xlink" width="34px" height="35px" xmlns="http://www.w3.org/2000/svg">
  <g transform="matrix(1 0 0 1 -735 -645 )">
    <path d="M 12.3004807692308 29.5809659090908  C 12.8181089743589 30.2107007575758  13.076923076923 30.9564393939394  13.076923076923 31.8181818181819  C 13.076923076923 32.6799242424242  12.8181089743589 33.4256628787879  12.3004807692308 34.0553977272727  C 11.7828525641027 34.6851325757576  11.1698717948717 35  10.4615384615385 35  C 9.75320512820508 35  9.14022435897436 34.6851325757576  8.62259615384619 34.0553977272727  C 8.10496794871801 33.4256628787879  7.84615384615381 32.6799242424242  7.84615384615381 31.8181818181819  C 7.84615384615381 30.9564393939394  8.10496794871801 30.2107007575758  8.62259615384619 29.5809659090908  C 9.14022435897436 28.951231060606  9.75320512820508 28.6363636363636  10.4615384615385 28.6363636363636  C 11.1698717948717 28.6363636363636  11.7828525641027 28.951231060606  12.3004807692308 29.5809659090908  Z M 30.608173076923 29.5809659090908  C 31.1258012820513 30.2107007575758  31.3846153846154 30.9564393939394  31.3846153846154 31.8181818181819  C 31.3846153846154 32.6799242424242  31.1258012820513 33.4256628787879  30.608173076923 34.0553977272727  C 30.0905448717949 34.6851325757576  29.4775641025641 35  28.7692307692308 35  C 28.0608974358973 35  27.4479166666667 34.6851325757576  26.9302884615385 34.0553977272727  C 26.4126602564103 33.4256628787879  26.1538461538462 32.6799242424242  26.1538461538462 31.8181818181819  C 26.1538461538462 30.9564393939394  26.4126602564103 30.2107007575758  26.9302884615385 29.5809659090908  C 27.4479166666667 28.951231060606  28.0608974358973 28.6363636363636  28.7692307692308 28.6363636363636  C 29.4775641025641 28.6363636363636  30.0905448717949 28.951231060606  30.608173076923 29.5809659090908  Z M 33.6117788461538 3.65411931818187  C 33.870592948718 3.96898674242425  34 4.34185606060601  34 4.77272727272725  L 34 17.5  C 34 17.8977272727273  33.8876201923076 18.2498816287879  33.662860576923 18.5564630681819  C 33.4381009615385 18.8630445075758  33.1622596153846 19.0411931818181  32.8353365384615 19.0909090909092  L 11.5036057692308 22.1235795454545  C 11.6806891025641 23.1178977272727  11.7692307692308 23.6979166666666  11.7692307692308 23.8636363636364  C 11.7692307692308 24.1287878787879  11.6057692307692 24.6590909090908  11.2788461538462 25  L 30.076923076923 25  C 30.4310897435897 25.4545454545455  30.7375801282051 25.6119791666666  30.9963942307692 25.9268465909092  C 31.2552083333333 26.2417140151515  31.3846153846154 26.6145833333334  31.3846153846154 27.0454545454545  C 31.3846153846154 27.4763257575758  31.2552083333333 27.8491950757576  30.9963942307692 28.1640625  C 30.7375801282051 28.4789299242424  30.4310897435897 28.6363636363636  30.076923076923 28  L 9.15384615384619 28  C 8.79967948717945 28.6363636363636  8.49318910256409 28.4789299242424  8.234375 28.1640625  C 7.97556089743591 27.8491950757576  7.84615384615381 27.4763257575758  7.84615384615381 27.0454545454545  C 7.84615384615381 26.8631628787879  7.90064102564111 26.6021543560606  8.00961538461536 26.2624289772727  C 8.11858974358972 25.9227035984849  8.22756410256409 25.6244081439394  8.33653846153845 25.3675426136364  C 8.44551282051282 25.1106770833334  8.59194711538464 24.779237689394  8.77584134615381 24.3732244318181  C 8.95973557692298 23.9672111742424  9.06530448717945 23.7227746212121  9.09254807692298 23.6399147727273  L 5.47596153846155 3.18181818181813  L 1.30769230769238 3.18181818181813  C 0.953525641025635 3.18181818181813  0.647035256410277 3.02438446969688  0.388221153846189 2.7095170454545  C 0.129407051281987 2.39464962121212  0 2.02178030303025  0 1.59090909090924  C 0 1.16003787878788  0.129407051281987 0.787168560606005  0.388221153846189 0.472301136363626  C 0.647035256410277 0.157433712121247  0.953525641025635 0  1.30769230769238 0  L 6.53846153846155 0  C 6.75641025641028 0  6.95052083333326 0.0538589015151274  7.12079326923083 0.161576704545496  C 7.29106570512829 0.269294507575751  7.42387820512829 0.397727272727252  7.51923076923083 0.546875  C 7.61458333333326 0.696022727272748  7.703125 0.899029356060623  7.78485576923083 1.15589488636363  C 7.86658653846155 1.41276041666663  7.92107371794873 1.62819602272725  7.94831730769238 1.8022017045455  C 7.97556089743591 1.97620738636363  8.01302083333326 2.22064393939388  8.06069711538464 2.53551136363637  C 8.10837339743591 2.85037878787875  8.13902243589735 3.06581439393938  8.15264423076917 3.18181818181813  L 32.6923076923076 3.18181818181813  C 33.0464743589744 3.18181818181813  33.3529647435897 3.33925189393938  33.6117788461538 3.65411931818187  Z " fill-rule="nonzero" fill="#ffffff" stroke="none" transform="matrix(1 0 0 1 735 645 )" />
  </g>
</svg>