<?xml version="1.0" encoding="utf-8"?>
<svg version="1.1" xmlns:xlink="http://www.w3.org/1999/xlink" width="16px" height="16px" xmlns="http://www.w3.org/2000/svg">
  <g transform="matrix(1 0 0 1 -338 -18 )">
    <path d="M 15.470731707317 15.6317073170732  L 9.06829268292682 8  L 15.470731707317 0.368292682926832  C 15.5780487804878 0.241463414634147  15.4878048780488 0.0487804878048763  15.3219512195122 0.0487804878048763  L 13.3756097560976 0.0487804878048763  C 13.2609756097561 0.0487804878048763  13.1512195121951 0.100000000000001  13.0756097560975 0.187804878048784  L 7.79512195121947 6.48292682926829  L 2.51463414634145 0.18780487804878  C 2.44146341463414 0.100000000000001  2.33170731707315 0.0487804878048763  2.2146341463415 0.0487804878048763  L 0.268292682926813 0.0487804878048763  C 0.102439024390208 0.0487804878048763  0.0121951219512084 0.241463414634147  0.119512195121956 0.368292682926828  L 6.52195121951218 8  L 0.119512195121956 15.6317073170732  C 0.0121951219512084 15.7585365853659  0.102439024390208 15.9512195121951  0.268292682926813 15.9512195121951  L 2.2146341463415 15.9512195121951  C 2.32926829268291 15.9512195121951  2.4390243902439 15.9  2.51463414634145 15.8121951219512  L 7.79512195121947 9.51707317073171  L 13.0756097560975 15.8121951219512  C 13.1487804878049 15.9  13.2585365853658 15.9512195121951  13.3756097560976 15.9512195121951  L 15.3219512195122 15.9512195121951  C 15.4878048780488 15.9512195121951  15.5780487804878 15.7585365853659  15.470731707317 15.6317073170732  Z " fill-rule="nonzero" fill="#666666" stroke="none" transform="matrix(1 0 0 1 338 18 )" />
  </g>
</svg>