<?xml version="1.0" encoding="utf-8"?>
<svg version="1.1" xmlns:xlink="http://www.w3.org/1999/xlink" width="174px" height="132px" xmlns="http://www.w3.org/2000/svg">
  <g transform="matrix(1 0 0 1 -91 -187 )">
    <path d="M 4 42.4989067524115  C 4.06202090592332 43.2529196141479  4.83956445993032 43.8698392282957  5.78989547038324 44  L 17.8850174216028 44  C 18.8353484320557 43.8698392282957  19.6128919860627 43.2529196141479  20 42.4989067524115  L 20 13  L 57.6261324041812 13  C 58.5764634146341 12.3383922829581  59.3540069686411 11.7214726688103  59.3540069686411 10.967459807074  L 59.3540069686411 1.37093247588425  C 59.3540069686411 0.616919614147918  58.5764634146341 0  57.6261324041812 0  L 18.7489547038328 0  C 10.627944250871 0  4.06202090592332 5.20954340836022  4 11.6529260450161  L 4 42.4989067524115  Z M 114.645993031359 10.967459807074  C 114.645993031359 11.7214726688103  115.423536585366 12.3383922829581  116.373867595819 13  L 154 13  L 154 42.4989067524115  C 154.387108013937 43.2529196141479  155.164651567944 43.8698392282957  156.114982578397 44  L 168.210104529617 44  C 169.16043554007 43.8698392282957  169.937979094077 43.2529196141479  170 42.4989067524115  L 170 11.6529260450161  C 169.937979094077 5.20954340836022  163.372055749129 0  155.251045296167 0  L 116.373867595819 0  C 115.423536585366 0  114.645993031359 0.616919614147918  114.645993031359 1.37093247588425  L 114.645993031359 10.967459807074  Z M 59.3540069686411 120.642057877813  C 59.3540069686411 119.888045016077  58.5764634146341 119.271125401929  57.6261324041812 119  L 20 119  L 20 89.1106109324758  C 19.6128919860627 88.3565980707395  18.8353484320557 87.7396784565916  17.8850174216028 87  L 5.78989547038324 87  C 4.83956445993032 87.7396784565916  4.06202090592332 88.3565980707395  4 89.1106109324758  L 4 119.956591639871  C 4.06202090592332 126.399974276527  10.627944250871 131.609517684887  18.7489547038328 131  L 57.6261324041812 131  C 58.5764634146341 131.609517684887  59.3540069686411 130.992598070739  59.3540069686411 130.238585209003  L 59.3540069686411 120.642057877813  Z M 170 89.1106109324758  C 169.937979094077 88.3565980707395  169.16043554007 87.7396784565916  168.210104529617 87  L 156.114982578397 87  C 155.164651567944 87.7396784565916  154.387108013937 88.3565980707395  154 89.1106109324758  L 154 119  L 116.373867595819 119  C 115.423536585366 119.271125401929  114.645993031359 119.888045016077  114.645993031359 120.642057877813  L 114.645993031359 130.238585209003  C 114.645993031359 130.992598070739  115.423536585366 131.609517684887  116.373867595819 131  L 155.251045296167 131  C 163.372055749129 131.609517684887  169.937979094077 126.399974276527  170 119.956591639871  L 170 89.1106109324758  Z M 173.393728222997 70.6030225080386  C 173.393728222997 69.8490096463023  174.344059233449 59.6355627009646  173.393728222997 60  L 0.606271777003485 60  C -0.344059233449428 59.6355627009646  0.606271777003485 60.2524823151124  0.606271777003485 61.0064951768488  L 0.606271777003485 70.6030225080386  C 0.606271777003485 71.357035369775  1.38829787234043 59.84  0.606271777003485 60  L 71.5400696864112 60  L 108.522648083624 60  L 173.393728222997 60  C 174.344059233449 59.6355627009646  173.393728222997 71.357035369775  173.393728222997 70.6030225080386  Z " fill-rule="nonzero" fill="#ffffff" stroke="none" transform="matrix(1 0 0 1 91 187 )" />
  </g>
</svg>