<?xml version="1.0" encoding="utf-8"?>
<svg version="1.1" xmlns:xlink="http://www.w3.org/1999/xlink" width="20px" height="20px" xmlns="http://www.w3.org/2000/svg">
  <g transform="matrix(1 0 0 1 -335 -214 )">
    <path d="M 345 214  C 350.6 214  355 218.4  355 224  C 355 229.6  350.6 234  345 234  C 339.4 234  335 229.6  335 224  C 335 218.4  339.4 214  345 214  Z " fill-rule="nonzero" fill="#ffffff" stroke="none" />
    <path d="M 345 214.5  C 350.32 214.5  354.5 218.68  354.5 224  C 354.5 229.32  350.32 233.5  345 233.5  C 339.68 233.5  335.5 229.32  335.5 224  C 335.5 218.68  339.68 214.5  345 214.5  Z " stroke-width="1" stroke="#cccccc" fill="none" />
  </g>
</svg>