<?xml version="1.0" encoding="utf-8"?>
<svg version="1.1" xmlns:xlink="http://www.w3.org/1999/xlink" width="12px" height="12px" viewBox="126 888  12 12" xmlns="http://www.w3.org/2000/svg">
  <path d="M 132 888  C 135.36 888  138 890.64  138 894  C 138 897.36  135.36 900  132 900  C 128.64 900  126 897.36  126 894  C 126 890.64  128.64 888  132 888  Z " fill-rule="nonzero" fill="#ffffff" stroke="none" />
  <path d="M 132 888.5  C 135.08 888.5  137.5 890.92  137.5 894  C 137.5 897.08  135.08 899.5  132 899.5  C 128.92 899.5  126.5 897.08  126.5 894  C 126.5 890.92  128.92 888.5  132 888.5  Z " stroke-width="1" stroke="#797979" fill="none" />
  <path d="M 132 897  C 130.32 897  129 895.68  129 894  C 129 892.32  130.32 891  132 891  C 133.68 891  135 892.32  135 894  C 135 895.68  133.68 897  132 897  " fill-rule="nonzero" fill="#797979" stroke="none" />
</svg>