<?xml version="1.0" encoding="utf-8"?>
<svg version="1.1" xmlns:xlink="http://www.w3.org/1999/xlink" width="12px" height="12px" viewBox="101 385  12 12" xmlns="http://www.w3.org/2000/svg">
  <path d="M 107 385  C 110.36 385  113 387.64  113 391  C 113 394.36  110.36 397  107 397  C 103.64 397  101 394.36  101 391  C 101 387.64  103.64 385  107 385  Z " fill-rule="nonzero" fill="#ffffff" stroke="none" />
  <path d="M 107 385.5  C 110.08 385.5  112.5 387.92  112.5 391  C 112.5 394.08  110.08 396.5  107 396.5  C 103.92 396.5  101.5 394.08  101.5 391  C 101.5 387.92  103.92 385.5  107 385.5  Z " stroke-width="1" stroke="#797979" fill="none" />
  <path d="M 107 394  C 105.32 394  104 392.68  104 391  C 104 389.32  105.32 388  107 388  C 108.68 388  110 389.32  110 391  C 110 392.68  108.68 394  107 394  " fill-rule="nonzero" fill="#797979" stroke="none" />
</svg>