<?xml version="1.0" encoding="utf-8"?>
<svg version="1.1" xmlns:xlink="http://www.w3.org/1999/xlink" width="12px" height="12px" viewBox="99 509  12 12" xmlns="http://www.w3.org/2000/svg">
  <path d="M 105 509  C 108.36 509  111 511.64  111 515  C 111 518.36  108.36 521  105 521  C 101.64 521  99 518.36  99 515  C 99 511.64  101.64 509  105 509  Z " fill-rule="nonzero" fill="#ffffff" stroke="none" />
  <path d="M 105 509.5  C 108.08 509.5  110.5 511.92  110.5 515  C 110.5 518.08  108.08 520.5  105 520.5  C 101.92 520.5  99.5 518.08  99.5 515  C 99.5 511.92  101.92 509.5  105 509.5  Z " stroke-width="1" stroke="#797979" fill="none" />
  <path d="M 105 518  C 103.32 518  102 516.68  102 515  C 102 513.32  103.32 512  105 512  C 106.68 512  108 513.32  108 515  C 108 516.68  106.68 518  105 518  " fill-rule="nonzero" fill="#797979" stroke="none" />
</svg>