<?xml version="1.0" encoding="utf-8"?>
<svg version="1.1" xmlns:xlink="http://www.w3.org/1999/xlink" width="12px" height="12px" viewBox="94 565  12 12" xmlns="http://www.w3.org/2000/svg">
  <path d="M 100 565  C 103.36 565  106 567.64  106 571  C 106 574.36  103.36 577  100 577  C 96.64 577  94 574.36  94 571  C 94 567.64  96.64 565  100 565  Z " fill-rule="nonzero" fill="#ffffff" stroke="none" />
  <path d="M 100 565.5  C 103.08 565.5  105.5 567.92  105.5 571  C 105.5 574.08  103.08 576.5  100 576.5  C 96.92 576.5  94.5 574.08  94.5 571  C 94.5 567.92  96.92 565.5  100 565.5  Z " stroke-width="1" stroke="#797979" fill="none" />
  <path d="M 100 574  C 98.32 574  97 572.68  97 571  C 97 569.32  98.32 568  100 568  C 101.68 568  103 569.32  103 571  C 103 572.68  101.68 574  100 574  " fill-rule="nonzero" fill="#797979" stroke="none" />
</svg>