<?xml version="1.0" encoding="utf-8"?>
<svg version="1.1" xmlns:xlink="http://www.w3.org/1999/xlink" width="12px" height="12px" viewBox="101 221  12 12" xmlns="http://www.w3.org/2000/svg">
  <path d="M 107 221  C 110.36 221  113 223.64  113 227  C 113 230.36  110.36 233  107 233  C 103.64 233  101 230.36  101 227  C 101 223.64  103.64 221  107 221  Z " fill-rule="nonzero" fill="#ffffff" stroke="none" />
  <path d="M 107 221.5  C 110.08 221.5  112.5 223.92  112.5 227  C 112.5 230.08  110.08 232.5  107 232.5  C 103.92 232.5  101.5 230.08  101.5 227  C 101.5 223.92  103.92 221.5  107 221.5  Z " stroke-width="1" stroke="#797979" fill="none" />
  <path d="M 107 230  C 105.32 230  104 228.68  104 227  C 104 225.32  105.32 224  107 224  C 108.68 224  110 225.32  110 227  C 110 228.68  108.68 230  107 230  " fill-rule="nonzero" fill="#797979" stroke="none" />
</svg>