<?xml version="1.0" encoding="utf-8"?>
<svg version="1.1" xmlns:xlink="http://www.w3.org/1999/xlink" width="12px" height="12px" viewBox="94 641  12 12" xmlns="http://www.w3.org/2000/svg">
  <path d="M 100 641  C 103.36 641  106 643.64  106 647  C 106 650.36  103.36 653  100 653  C 96.64 653  94 650.36  94 647  C 94 643.64  96.64 641  100 641  Z " fill-rule="nonzero" fill="#ffffff" stroke="none" />
  <path d="M 100 641.5  C 103.08 641.5  105.5 643.92  105.5 647  C 105.5 650.08  103.08 652.5  100 652.5  C 96.92 652.5  94.5 650.08  94.5 647  C 94.5 643.92  96.92 641.5  100 641.5  Z " stroke-width="1" stroke="#797979" fill="none" />
  <path d="M 100 650  C 98.32 650  97 648.68  97 647  C 97 645.32  98.32 644  100 644  C 101.68 644  103 645.32  103 647  C 103 648.68  101.68 650  100 650  " fill-rule="nonzero" fill="#797979" stroke="none" />
</svg>