<?xml version="1.0" encoding="utf-8"?>
<svg version="1.1" xmlns:xlink="http://www.w3.org/1999/xlink" width="12px" height="12px" viewBox="94 683  12 12" xmlns="http://www.w3.org/2000/svg">
  <path d="M 100 683  C 103.36 683  106 685.64  106 689  C 106 692.36  103.36 695  100 695  C 96.64 695  94 692.36  94 689  C 94 685.64  96.64 683  100 683  Z " fill-rule="nonzero" fill="#ffffff" stroke="none" />
  <path d="M 100 683.5  C 103.08 683.5  105.5 685.92  105.5 689  C 105.5 692.08  103.08 694.5  100 694.5  C 96.92 694.5  94.5 692.08  94.5 689  C 94.5 685.92  96.92 683.5  100 683.5  Z " stroke-width="1" stroke="#797979" fill="none" />
  <path d="M 100 692  C 98.32 692  97 690.68  97 689  C 97 687.32  98.32 686  100 686  C 101.68 686  103 687.32  103 689  C 103 690.68  101.68 692  100 692  " fill-rule="nonzero" fill="#797979" stroke="none" />
</svg>