<?xml version="1.0" encoding="utf-8"?>
<svg version="1.1" xmlns:xlink="http://www.w3.org/1999/xlink" width="87px" height="117px" xmlns="http://www.w3.org/2000/svg">
  <g transform="matrix(1 0 0 1 -469 -1766 )">
    <path d="M 86.7305409812819 114.306859756098  L 50.8377977878616 58.5  L 86.7305409812819 2.69314024390223  C 87.3321717243335 1.76570121951227  86.8262549631311 0.356707317073187  85.8964619965967 1  L 74.9850680657969 1  C 74.34241704481 0.356707317073187  73.7271128757799 0.731250000000273  73.3032366704481 1.37332317073174  L 43.7002694271129 47.4064024390243  L 14.0973021837777 1.37332317073174  C 13.6870994044243 0.731250000000273  13.0717952353942 0.356707317073187  12.4154707884288 1  L 1.50407685762906 1  C 0.574283891094751 0.356707317073187  0.0683671298921809 1.76570121951227  0.669997872943839 2.69314024390223  L 36.5627410663641 58.5  L 0.669997872943839 114.306859756098  C 0.0683671298921809 115.234298780488  0.574283891094751 116.643292682927  1.50407685762906 116  L 12.4154707884288 116  C 13.0581218094158 116.643292682927  13.6734259784458 116.26875  14.0973021837777 115.626676829268  L 43.7002694271129 69.5935975609757  L 73.3032366704481 115.626676829268  C 73.7134394498015 116.26875  74.3287436188316 116.643292682927  74.9850680657969 116  L 85.8964619965967 116  C 86.8262549631311 116.643292682927  87.3321717243335 115.234298780488  86.7305409812819 114.306859756098  Z " fill-rule="nonzero" fill="#ff0000" stroke="none" transform="matrix(1 0 0 1 469 1766 )" />
  </g>
</svg>