<?xml version="1.0" encoding="utf-8"?>
<svg version="1.1" xmlns:xlink="http://www.w3.org/1999/xlink" width="40px" height="40px" xmlns="http://www.w3.org/2000/svg">
  <g transform="matrix(1 0 0 1 -29 -162 )">
    <path d="M 49 162  C 60.2 162  69 170.8  69 182  C 69 193.2  60.2 202  49 202  C 37.8 202  29 193.2  29 182  C 29 170.8  37.8 162  49 162  Z " fill-rule="nonzero" fill="#cccccc" stroke="none" />
    <path d="M 49 162.5  C 59.92 162.5  68.5 171.08  68.5 182  C 68.5 192.92  59.92 201.5  49 201.5  C 38.08 201.5  29.5 192.92  29.5 182  C 29.5 171.08  38.08 162.5  49 162.5  Z " stroke-width="1" stroke="#cccccc" fill="none" />
  </g>
</svg>