<?xml version="1.0" encoding="utf-8"?>
<svg version="1.1" xmlns:xlink="http://www.w3.org/1999/xlink" width="40px" height="40px" xmlns="http://www.w3.org/2000/svg">
  <g transform="matrix(1 0 0 1 -29 -937 )">
    <path d="M 49 937  C 60.2 937  69 945.8  69 957  C 69 968.2  60.2 977  49 977  C 37.8 977  29 968.2  29 957  C 29 945.8  37.8 937  49 937  Z " fill-rule="nonzero" fill="#1890ff" stroke="none" />
    <path d="M 49 937.5  C 59.92 937.5  68.5 946.08  68.5 957  C 68.5 967.92  59.92 976.5  49 976.5  C 38.08 976.5  29.5 967.92  29.5 957  C 29.5 946.08  38.08 937.5  49 937.5  Z " stroke-width="1" stroke="#1890ff" fill="none" />
  </g>
</svg>