<?xml version="1.0" encoding="utf-8"?>
<svg version="1.1" xmlns:xlink="http://www.w3.org/1999/xlink" width="24px" height="24px" xmlns="http://www.w3.org/2000/svg">
  <g transform="matrix(1 0 0 1 -37 -220 )">
    <path d="M 23.2060975609756 23.4475609756098  L 13.6024390243902 12  L 23.2060975609756 0.552439024390246  C 23.3670731707317 0.362195121951221  23.2317073170732 0.073170731707318  22.9829268292683 0.073170731707318  L 20.0634146341463 0.073170731707318  C 19.8914634146341 0.073170731707318  19.7268292682927 0.150000000000002  19.6134146341463 0.281707317073174  L 11.6926829268293 9.72439024390244  L 3.7719512195122 0.28170731707317  C 3.66219512195122 0.150000000000002  3.49756097560975 0.073170731707318  3.32195121951219 0.073170731707318  L 0.402439024390244 0.073170731707318  C 0.153658536585365 0.073170731707318  0.0182926829268304 0.362195121951221  0.179268292682927 0.552439024390242  L 9.78292682926829 12  L 0.179268292682927 23.4475609756098  C 0.0182926829268304 23.6378048780488  0.153658536585368 23.9268292682927  0.402439024390244 23.9268292682927  L 3.32195121951219 23.9268292682927  C 3.49390243902439 23.9268292682927  3.65853658536585 23.85  3.7719512195122 23.7182926829268  L 11.6926829268293 14.2756097560976  L 19.6134146341463 23.7182926829268  C 19.7231707317073 23.85  19.8878048780488 23.9268292682927  20.0634146341463 23.9268292682927  L 22.9829268292683 23.9268292682927  C 23.2317073170732 23.9268292682927  23.3670731707317 23.6378048780488  23.2060975609756 23.4475609756098  Z " fill-rule="nonzero" fill="#ffffff" stroke="none" transform="matrix(1 0 0 1 37 220 )" />
  </g>
</svg>