<?xml version="1.0" encoding="utf-8"?>
<svg version="1.1" xmlns:xlink="http://www.w3.org/1999/xlink" width="12px" height="12px" viewBox="238 192  12 12" xmlns="http://www.w3.org/2000/svg">
  <path d="M 244 192  C 247.36 192  250 194.64  250 198  C 250 201.36  247.36 204  244 204  C 240.64 204  238 201.36  238 198  C 238 194.64  240.64 192  244 192  Z " fill-rule="nonzero" fill="#ffffff" stroke="none" />
  <path d="M 244 192.5  C 247.08 192.5  249.5 194.92  249.5 198  C 249.5 201.08  247.08 203.5  244 203.5  C 240.92 203.5  238.5 201.08  238.5 198  C 238.5 194.92  240.92 192.5  244 192.5  Z " stroke-width="1" stroke="#797979" fill="none" />
  <path d="M 244 201  C 242.32 201  241 199.68  241 198  C 241 196.32  242.32 195  244 195  C 245.68 195  247 196.32  247 198  C 247 199.68  245.68 201  244 201  " fill-rule="nonzero" fill="#797979" stroke="none" />
</svg>