<?xml version="1.0" encoding="utf-8"?>
<svg version="1.1" xmlns:xlink="http://www.w3.org/1999/xlink" width="50px" height="41px" xmlns="http://www.w3.org/2000/svg">
  <g transform="matrix(1 0 0 1 -510 -99 )">
    <path d="M 49 1.82111436950149  C 49.882697947214 0.813810483870938  49.0865789956012 0  48.1011730205279 0  L 1.78152492668612 0  C 0.796118951612925 0  0 0.813810483870938  0 1.82111436950149  L 0 38.2434017595308  C 0 39.2507056451612  0.796118951612925 40.0645161290323  1.78152492668612 40  L 48.1011730205279 40  C 49.0865789956012 40.0645161290323  49.882697947214 39.2507056451612  49 38.2434017595308  L 49 1.82111436950149  Z M 45.8742668621701 34.2369501466276  L 45.8742668621701 36  L 4.00843108504397 36  L 4.00843108504397 33.6963068181818  L 11.7190936583578 24.3460227272727  L 20.0755590175953 34.4759714076247  L 33.0751237170088 18.7233321114369  L 45.8742668621701 34.2369501466276  Z M 45 4  L 45 28.5801136363636  L 33.4147269061583 13.4762463343108  C 33.2365744134898 13.2599890029325  32.9136730205278 13.2599890029325  32.7355205278592 13.4762463343108  L 20.0755590175953 28.8191348973607  L 12.0586968475073 19.1046279325513  C 11.8805443548387 18.888370601173  11.5576429618769 18.888370601173  11.3794904692083 19.1046279325513  L 4 28.0394703079179  L 4 4  L 45 4  Z M 8.46224340175951 11.8372434017595  C 8.46224340175951 14.6030608504399  10.6557459677419 16.8453079178886  13.3614369501467 16.8453079178886  C 16.0671279325512 16.8453079178886  18.2606304985336 14.6030608504399  18.2606304985336 11.8372434017595  C 18.2606304985336 9.07142595307917  16.0671279325512 6.82917888563047  13.3614369501467 6.82917888563047  C 10.6557459677419 6.82917888563047  8.46224340175951 9.07142595307917  8.46224340175951 11.8372434017595  Z M 11.8026026392961 11.8372434017595  C 11.8026026392961 10.9551411290322  12.498510813783 10.2437683284457  13.3614369501467 10.2437683284457  C 14.2243630865103 10.2437683284457  14.920271260997 10.9551411290322  14.920271260997 11.8372434017595  C 14.920271260997 12.7193456744868  14.2243630865103 13.4307184750733  13.3614369501467 13.4307184750733  C 12.498510813783 13.4307184750733  11.8026026392961 12.7193456744868  11.8026026392961 11.8372434017595  Z " fill-rule="nonzero" fill="#c9c9c9" stroke="none" transform="matrix(1 0 0 1 510 99 )" />
  </g>
</svg>