<?xml version="1.0" encoding="utf-8"?>
<svg version="1.1" xmlns:xlink="http://www.w3.org/1999/xlink" width="15px" height="15px" xmlns="http://www.w3.org/2000/svg">
  <g transform="matrix(1 0 0 1 -12 -79 )">
    <path d="M 15 3.60000000000001  C 15 3.28125  14.750625 3.02062500000001  14.4375 3.001875  L 14.4375 0.600000000000009  C 14.4375 0.268124999999998  14.169375 0  13.8375 0  L 1.16250000000001 0  C 0.830624999999991 0  0.5625 0.268124999999998  0.5625 0.600000000000009  L 0.5625 3.001875  C 0.249375000000008 3.02062500000001  0 3.28125  0 3.60000000000001  L 0 6.06937499999999  C 0 6.52687499999999  0.0900000000000034 6.97124999999998  0.269999999999989 7.389375  C 0.350625000000001 7.58062500000001  0.449999999999996 7.76062499999999  0.5625 7.93124999999999  L 0.5625 14.4  C 0.5625 14.73  0.830624999999991 15  1.16250000000001 15  L 13.8375 15  C 14.169375 15  14.4375 14.731875  14.4375 14.4  L 14.4375 7.93124999999999  C 14.551875 7.76062499999999  14.649375 7.57875000000001  14.73 7.389375  C 14.908125 6.97124999999998  15 6.52687499999999  15 6.06937499999999  L 15 3.60000000000001  Z M 1.91250000000001 3  L 1.91250000000001 1.35000000000001  L 13.0875 1.35000000000001  L 13.0875 3  L 1.91250000000001 3  Z M 8.7 11.7  L 8.7 13.651875  L 6.3 13.651875  L 6.3 11.7  L 8.7 11.7  Z M 13.095 13.651875  L 13.0875 13.651875  L 9.89999999999999 13.651875  L 9.89999999999999 11.1  C 9.89999999999999 10.768125  9.631875 10.5  9.3 10.5  L 5.7 10.5  C 5.368125 10.5  5.10000000000001 10.768125  5.10000000000001 11.1  L 5.10000000000001 13.651875  L 1.91250000000001 13.651875  L 1.91250000000001 9.11062500000001  C 1.966875 9.136875  2.02312499999999 9.16312500000001  2.08125 9.185625  C 2.49937500000001 9.361875  2.94375000000001 9.44999999999999  3.40125 9.44999999999999  C 3.85875000000001 9.44999999999999  4.30124999999999 9.361875  4.72124999999999 9.185625  C 4.97999999999999 9.07687499999999  5.22375 8.93812499999999  5.44687499999999 8.77124999999999  C 5.45062499999999 8.769375  5.45437500000001 8.769375  5.458125 8.77124999999999  C 5.68124999999999 8.93812499999999  5.92312500000001 9.07687499999999  6.18375 9.185625  C 6.60187500000001 9.361875  7.04625000000001 9.44999999999999  7.50375 9.44999999999999  C 7.96125000000001 9.44999999999999  8.40374999999999 9.361875  8.82374999999999 9.185625  C 9.08249999999999 9.07687499999999  9.32625 8.93812499999999  9.54937499999999 8.77124999999999  C 9.55312500000001 8.769375  9.55687500000001 8.769375  9.560625 8.77124999999999  C 9.78374999999999 8.93812499999999  10.025625 9.07687499999999  10.28625 9.185625  C 10.704375 9.361875  11.14875 9.44999999999999  11.60625 9.44999999999999  C 12.06375 9.44999999999999  12.50625 9.361875  12.92625 9.185625  C 12.9825 9.16125  13.03875 9.136875  13.095 9.11062500000001  L 13.095 13.651875  Z M 13.65 4.359375  L 13.65 6.06937499999999  C 13.65 7.19062500000001  12.73125 8.10000000000001  11.600625 8.10000000000001  C 10.835625 8.10000000000001  10.168125 7.685625  9.815625 7.07062500000001  C 9.76124999999999 6.97687500000001  9.66374999999999 6.91874999999999  9.55500000000001 6.91874999999999  L 9.54375 6.91874999999999  C 9.43687499999999 6.91874999999999  9.33749999999999 6.97687500000001  9.283125 7.07062500000001  C 8.9325 7.685625  8.26500000000001 8.10000000000001  7.5 8.10000000000001  C 6.73687499999999 8.10000000000001  6.07125 7.6875  5.71875 7.074375  C 5.66250000000001 6.97875000000001  5.56124999999999 6.91874999999999  5.45062500000001 6.91874999999999  C 5.34 6.91874999999999  5.23687500000001 6.97875000000001  5.1825 7.074375  C 4.828125 7.6875  4.16250000000001 8.10000000000001  3.399375 8.10000000000001  C 2.26875 8.10000000000001  1.35000000000001 7.19062500000001  1.35000000000001 6.06937499999999  L 1.35000000000001 4.359375  C 1.35000000000001 4.35375000000001  1.35375000000001 4.35000000000001  1.359375 4.35000000000001  L 13.640625 4.35000000000001  C 13.64625 4.35000000000001  13.65 4.35375000000001  13.65 4.359375  Z " fill-rule="nonzero" fill="#999999" stroke="none" transform="matrix(1 0 0 1 12 79 )" />
  </g>
</svg>