<?xml version="1.0" encoding="utf-8"?>
<svg version="1.1" xmlns:xlink="http://www.w3.org/1999/xlink" width="12px" height="12px" viewBox="96 227  12 12" xmlns="http://www.w3.org/2000/svg">
  <path d="M 102 227  C 105.36 227  108 229.64  108 233  C 108 236.36  105.36 239  102 239  C 98.64 239  96 236.36  96 233  C 96 229.64  98.64 227  102 227  Z " fill-rule="nonzero" fill="#ffffff" stroke="none" />
  <path d="M 102 227.5  C 105.08 227.5  107.5 229.92  107.5 233  C 107.5 236.08  105.08 238.5  102 238.5  C 98.92 238.5  96.5 236.08  96.5 233  C 96.5 229.92  98.92 227.5  102 227.5  Z " stroke-width="1" stroke="#797979" fill="none" />
  <path d="M 102 236  C 100.32 236  99 234.68  99 233  C 99 231.32  100.32 230  102 230  C 103.68 230  105 231.32  105 233  C 105 234.68  103.68 236  102 236  " fill-rule="nonzero" fill="#797979" stroke="none" />
</svg>