<?xml version="1.0" encoding="utf-8"?>
<svg version="1.1" xmlns:xlink="http://www.w3.org/1999/xlink" width="12px" height="12px" viewBox="162 194  12 12" xmlns="http://www.w3.org/2000/svg">
  <path d="M 168 194  C 171.36 194  174 196.64  174 200  C 174 203.36  171.36 206  168 206  C 164.64 206  162 203.36  162 200  C 162 196.64  164.64 194  168 194  Z " fill-rule="nonzero" fill="#ffffff" stroke="none" />
  <path d="M 168 194.5  C 171.08 194.5  173.5 196.92  173.5 200  C 173.5 203.08  171.08 205.5  168 205.5  C 164.92 205.5  162.5 203.08  162.5 200  C 162.5 196.92  164.92 194.5  168 194.5  Z " stroke-width="1" stroke="#797979" fill="none" />
  <path d="M 168 203  C 166.32 203  165 201.68  165 200  C 165 198.32  166.32 197  168 197  C 169.68 197  171 198.32  171 200  C 171 201.68  169.68 203  168 203  " fill-rule="nonzero" fill="#797979" stroke="none" />
</svg>