<?xml version="1.0" encoding="utf-8"?>
<svg version="1.1" xmlns:xlink="http://www.w3.org/1999/xlink" width="12px" height="12px" viewBox="102 81  12 12" xmlns="http://www.w3.org/2000/svg">
  <path d="M 108 81  C 111.36 81  114 83.64  114 87  C 114 90.36  111.36 93  108 93  C 104.64 93  102 90.36  102 87  C 102 83.64  104.64 81  108 81  Z " fill-rule="nonzero" fill="#ffffff" stroke="none" />
  <path d="M 108 81.5  C 111.08 81.5  113.5 83.92  113.5 87  C 113.5 90.08  111.08 92.5  108 92.5  C 104.92 92.5  102.5 90.08  102.5 87  C 102.5 83.92  104.92 81.5  108 81.5  Z " stroke-width="1" stroke="#797979" fill="none" />
  <path d="M 108 90  C 106.32 90  105 88.68  105 87  C 105 85.32  106.32 84  108 84  C 109.68 84  111 85.32  111 87  C 111 88.68  109.68 90  108 90  " fill-rule="nonzero" fill="#797979" stroke="none" />
</svg>