<?xml version="1.0" encoding="utf-8"?>
<svg version="1.1" xmlns:xlink="http://www.w3.org/1999/xlink" width="12px" height="12px" viewBox="186 81  12 12" xmlns="http://www.w3.org/2000/svg">
  <path d="M 192 81  C 195.36 81  198 83.64  198 87  C 198 90.36  195.36 93  192 93  C 188.64 93  186 90.36  186 87  C 186 83.64  188.64 81  192 81  Z " fill-rule="nonzero" fill="#ffffff" stroke="none" />
  <path d="M 192 81.5  C 195.08 81.5  197.5 83.92  197.5 87  C 197.5 90.08  195.08 92.5  192 92.5  C 188.92 92.5  186.5 90.08  186.5 87  C 186.5 83.92  188.92 81.5  192 81.5  Z " stroke-width="1" stroke="#797979" fill="none" />
  <path d="M 192 90  C 190.32 90  189 88.68  189 87  C 189 85.32  190.32 84  192 84  C 193.68 84  195 85.32  195 87  C 195 88.68  193.68 90  192 90  " fill-rule="nonzero" fill="#797979" stroke="none" />
</svg>