<?xml version="1.0" encoding="utf-8"?>
<svg version="1.1" xmlns:xlink="http://www.w3.org/1999/xlink" width="12px" height="12px" viewBox="380 81  12 12" xmlns="http://www.w3.org/2000/svg">
  <path d="M 386 81  C 389.36 81  392 83.64  392 87  C 392 90.36  389.36 93  386 93  C 382.64 93  380 90.36  380 87  C 380 83.64  382.64 81  386 81  Z " fill-rule="nonzero" fill="#ffffff" stroke="none" />
  <path d="M 386 81.5  C 389.08 81.5  391.5 83.92  391.5 87  C 391.5 90.08  389.08 92.5  386 92.5  C 382.92 92.5  380.5 90.08  380.5 87  C 380.5 83.92  382.92 81.5  386 81.5  Z " stroke-width="1" stroke="#797979" fill="none" />
  <path d="M 386 90  C 384.32 90  383 88.68  383 87  C 383 85.32  384.32 84  386 84  C 387.68 84  389 85.32  389 87  C 389 88.68  387.68 90  386 90  " fill-rule="nonzero" fill="#797979" stroke="none" />
</svg>