<?xml version="1.0" encoding="utf-8"?>
<svg version="1.1" xmlns:xlink="http://www.w3.org/1999/xlink" width="12px" height="12px" viewBox="204 313  12 12" xmlns="http://www.w3.org/2000/svg">
  <path d="M 210 313  C 213.36 313  216 315.64  216 319  C 216 322.36  213.36 325  210 325  C 206.64 325  204 322.36  204 319  C 204 315.64  206.64 313  210 313  Z " fill-rule="nonzero" fill="#ffffff" stroke="none" />
  <path d="M 210 313.5  C 213.08 313.5  215.5 315.92  215.5 319  C 215.5 322.08  213.08 324.5  210 324.5  C 206.92 324.5  204.5 322.08  204.5 319  C 204.5 315.92  206.92 313.5  210 313.5  Z " stroke-width="1" stroke="#797979" fill="none" />
  <path d="M 210 322  C 208.32 322  207 320.68  207 319  C 207 317.32  208.32 316  210 316  C 211.68 316  213 317.32  213 319  C 213 320.68  211.68 322  210 322  " fill-rule="nonzero" fill="#797979" stroke="none" />
</svg>