<?xml version="1.0" encoding="utf-8"?>
<svg version="1.1" xmlns:xlink="http://www.w3.org/1999/xlink" width="12px" height="12px" viewBox="96 79  12 12" xmlns="http://www.w3.org/2000/svg">
  <path d="M 102 79  C 105.36 79  108 81.64  108 85  C 108 88.36  105.36 91  102 91  C 98.64 91  96 88.36  96 85  C 96 81.64  98.64 79  102 79  Z " fill-rule="nonzero" fill="#ffffff" stroke="none" />
  <path d="M 102 79.5  C 105.08 79.5  107.5 81.92  107.5 85  C 107.5 88.08  105.08 90.5  102 90.5  C 98.92 90.5  96.5 88.08  96.5 85  C 96.5 81.92  98.92 79.5  102 79.5  Z " stroke-width="1" stroke="#797979" fill="none" />
  <path d="M 102 88  C 100.32 88  99 86.68  99 85  C 99 83.32  100.32 82  102 82  C 103.68 82  105 83.32  105 85  C 105 86.68  103.68 88  102 88  " fill-rule="nonzero" fill="#797979" stroke="none" />
</svg>