<?xml version="1.0" encoding="utf-8"?>
<svg version="1.1" xmlns:xlink="http://www.w3.org/1999/xlink" width="12px" height="12px" viewBox="96 117  12 12" xmlns="http://www.w3.org/2000/svg">
  <path d="M 102 117  C 105.36 117  108 119.64  108 123  C 108 126.36  105.36 129  102 129  C 98.64 129  96 126.36  96 123  C 96 119.64  98.64 117  102 117  Z " fill-rule="nonzero" fill="#ffffff" stroke="none" />
  <path d="M 102 117.5  C 105.08 117.5  107.5 119.92  107.5 123  C 107.5 126.08  105.08 128.5  102 128.5  C 98.92 128.5  96.5 126.08  96.5 123  C 96.5 119.92  98.92 117.5  102 117.5  Z " stroke-width="1" stroke="#797979" fill="none" />
  <path d="M 102 126  C 100.32 126  99 124.68  99 123  C 99 121.32  100.32 120  102 120  C 103.68 120  105 121.32  105 123  C 105 124.68  103.68 126  102 126  " fill-rule="nonzero" fill="#797979" stroke="none" />
</svg>