<?xml version="1.0" encoding="utf-8"?>
<svg version="1.1" xmlns:xlink="http://www.w3.org/1999/xlink" width="12px" height="12px" viewBox="206 49  12 12" xmlns="http://www.w3.org/2000/svg">
  <path d="M 212 49  C 215.36 49  218 51.64  218 55  C 218 58.36  215.36 61  212 61  C 208.64 61  206 58.36  206 55  C 206 51.64  208.64 49  212 49  Z " fill-rule="nonzero" fill="#ffffff" stroke="none" />
  <path d="M 212 49.5  C 215.08 49.5  217.5 51.92  217.5 55  C 217.5 58.08  215.08 60.5  212 60.5  C 208.92 60.5  206.5 58.08  206.5 55  C 206.5 51.92  208.92 49.5  212 49.5  Z " stroke-width="1" stroke="#797979" fill="none" />
  <path d="M 212 58  C 210.32 58  209 56.68  209 55  C 209 53.32  210.32 52  212 52  C 213.68 52  215 53.32  215 55  C 215 56.68  213.68 58  212 58  " fill-rule="nonzero" fill="#797979" stroke="none" />
</svg>