<?xml version="1.0" encoding="utf-8"?>
<svg version="1.1" xmlns:xlink="http://www.w3.org/1999/xlink" width="12px" height="12px" viewBox="96 49  12 12" xmlns="http://www.w3.org/2000/svg">
  <path d="M 102 49  C 105.36 49  108 51.64  108 55  C 108 58.36  105.36 61  102 61  C 98.64 61  96 58.36  96 55  C 96 51.64  98.64 49  102 49  Z " fill-rule="nonzero" fill="#ffffff" stroke="none" />
  <path d="M 102 49.5  C 105.08 49.5  107.5 51.92  107.5 55  C 107.5 58.08  105.08 60.5  102 60.5  C 98.92 60.5  96.5 58.08  96.5 55  C 96.5 51.92  98.92 49.5  102 49.5  Z " stroke-width="1" stroke="#797979" fill="none" />
  <path d="M 102 58  C 100.32 58  99 56.68  99 55  C 99 53.32  100.32 52  102 52  C 103.68 52  105 53.32  105 55  C 105 56.68  103.68 58  102 58  " fill-rule="nonzero" fill="#797979" stroke="none" />
</svg>