<?xml version="1.0" encoding="utf-8"?>
<svg version="1.1" xmlns:xlink="http://www.w3.org/1999/xlink" width="12px" height="12px" viewBox="96 81  12 12" xmlns="http://www.w3.org/2000/svg">
  <path d="M 102 81  C 105.36 81  108 83.64  108 87  C 108 90.36  105.36 93  102 93  C 98.64 93  96 90.36  96 87  C 96 83.64  98.64 81  102 81  Z " fill-rule="nonzero" fill="#ffffff" stroke="none" />
  <path d="M 102 81.5  C 105.08 81.5  107.5 83.92  107.5 87  C 107.5 90.08  105.08 92.5  102 92.5  C 98.92 92.5  96.5 90.08  96.5 87  C 96.5 83.92  98.92 81.5  102 81.5  Z " stroke-width="1" stroke="#797979" fill="none" />
  <path d="M 102 90  C 100.32 90  99 88.68  99 87  C 99 85.32  100.32 84  102 84  C 103.68 84  105 85.32  105 87  C 105 88.68  103.68 90  102 90  " fill-rule="nonzero" fill="#797979" stroke="none" />
</svg>