<?xml version="1.0" encoding="utf-8"?>
<svg version="1.1" xmlns:xlink="http://www.w3.org/1999/xlink" width="12px" height="12px" viewBox="323 49  12 12" xmlns="http://www.w3.org/2000/svg">
  <path d="M 329 49  C 332.36 49  335 51.64  335 55  C 335 58.36  332.36 61  329 61  C 325.64 61  323 58.36  323 55  C 323 51.64  325.64 49  329 49  Z " fill-rule="nonzero" fill="#ffffff" stroke="none" />
  <path d="M 329 49.5  C 332.08 49.5  334.5 51.92  334.5 55  C 334.5 58.08  332.08 60.5  329 60.5  C 325.92 60.5  323.5 58.08  323.5 55  C 323.5 51.92  325.92 49.5  329 49.5  Z " stroke-width="1" stroke="#797979" fill="none" />
  <path d="M 329 58  C 327.32 58  326 56.68  326 55  C 326 53.32  327.32 52  329 52  C 330.68 52  332 53.32  332 55  C 332 56.68  330.68 58  329 58  " fill-rule="nonzero" fill="#797979" stroke="none" />
</svg>