<?xml version="1.0" encoding="utf-8"?>
<svg version="1.1" xmlns:xlink="http://www.w3.org/1999/xlink" width="12px" height="12px" viewBox="323 81  12 12" xmlns="http://www.w3.org/2000/svg">
  <path d="M 329 81  C 332.36 81  335 83.64  335 87  C 335 90.36  332.36 93  329 93  C 325.64 93  323 90.36  323 87  C 323 83.64  325.64 81  329 81  Z " fill-rule="nonzero" fill="#ffffff" stroke="none" />
  <path d="M 329 81.5  C 332.08 81.5  334.5 83.92  334.5 87  C 334.5 90.08  332.08 92.5  329 92.5  C 325.92 92.5  323.5 90.08  323.5 87  C 323.5 83.92  325.92 81.5  329 81.5  Z " stroke-width="1" stroke="#797979" fill="none" />
  <path d="M 329 90  C 327.32 90  326 88.68  326 87  C 326 85.32  327.32 84  329 84  C 330.68 84  332 85.32  332 87  C 332 88.68  330.68 90  329 90  " fill-rule="nonzero" fill="#797979" stroke="none" />
</svg>