<?xml version="1.0" encoding="utf-8"?>
<svg version="1.1" xmlns:xlink="http://www.w3.org/1999/xlink" width="12px" height="12px" viewBox="188 74  12 12" xmlns="http://www.w3.org/2000/svg">
  <path d="M 194 74  C 197.36 74  200 76.64  200 80  C 200 83.36  197.36 86  194 86  C 190.64 86  188 83.36  188 80  C 188 76.64  190.64 74  194 74  Z " fill-rule="nonzero" fill="#ffffff" stroke="none" />
  <path d="M 194 74.5  C 197.08 74.5  199.5 76.92  199.5 80  C 199.5 83.08  197.08 85.5  194 85.5  C 190.92 85.5  188.5 83.08  188.5 80  C 188.5 76.92  190.92 74.5  194 74.5  Z " stroke-width="1" stroke="#797979" fill="none" />
  <path d="M 194 83  C 192.32 83  191 81.68  191 80  C 191 78.32  192.32 77  194 77  C 195.68 77  197 78.32  197 80  C 197 81.68  195.68 83  194 83  " fill-rule="nonzero" fill="#797979" stroke="none" />
</svg>