<?xml version="1.0" encoding="utf-8"?>
<svg version="1.1" xmlns:xlink="http://www.w3.org/1999/xlink" width="12px" height="12px" viewBox="281 74  12 12" xmlns="http://www.w3.org/2000/svg">
  <path d="M 287 74  C 290.36 74  293 76.64  293 80  C 293 83.36  290.36 86  287 86  C 283.64 86  281 83.36  281 80  C 281 76.64  283.64 74  287 74  Z " fill-rule="nonzero" fill="#ffffff" stroke="none" />
  <path d="M 287 74.5  C 290.08 74.5  292.5 76.92  292.5 80  C 292.5 83.08  290.08 85.5  287 85.5  C 283.92 85.5  281.5 83.08  281.5 80  C 281.5 76.92  283.92 74.5  287 74.5  Z " stroke-width="1" stroke="#797979" fill="none" />
  <path d="M 287 83  C 285.32 83  284 81.68  284 80  C 284 78.32  285.32 77  287 77  C 288.68 77  290 78.32  290 80  C 290 81.68  288.68 83  287 83  " fill-rule="nonzero" fill="#797979" stroke="none" />
</svg>