<?xml version="1.0" encoding="utf-8"?>
<svg version="1.1" xmlns:xlink="http://www.w3.org/1999/xlink" width="12px" height="12px" viewBox="206 114  12 12" xmlns="http://www.w3.org/2000/svg">
  <path d="M 212 114  C 215.36 114  218 116.64  218 120  C 218 123.36  215.36 126  212 126  C 208.64 126  206 123.36  206 120  C 206 116.64  208.64 114  212 114  Z " fill-rule="nonzero" fill="#ffffff" stroke="none" />
  <path d="M 212 114.5  C 215.08 114.5  217.5 116.92  217.5 120  C 217.5 123.08  215.08 125.5  212 125.5  C 208.92 125.5  206.5 123.08  206.5 120  C 206.5 116.92  208.92 114.5  212 114.5  Z " stroke-width="1" stroke="#797979" fill="none" />
  <path d="M 212 123  C 210.32 123  209 121.68  209 120  C 209 118.32  210.32 117  212 117  C 213.68 117  215 118.32  215 120  C 215 121.68  213.68 123  212 123  " fill-rule="nonzero" fill="#797979" stroke="none" />
</svg>