<?xml version="1.0" encoding="utf-8"?>
<svg version="1.1" xmlns:xlink="http://www.w3.org/1999/xlink" width="12px" height="12px" viewBox="96 114  12 12" xmlns="http://www.w3.org/2000/svg">
  <path d="M 102 114  C 105.36 114  108 116.64  108 120  C 108 123.36  105.36 126  102 126  C 98.64 126  96 123.36  96 120  C 96 116.64  98.64 114  102 114  Z " fill-rule="nonzero" fill="#ffffff" stroke="none" />
  <path d="M 102 114.5  C 105.08 114.5  107.5 116.92  107.5 120  C 107.5 123.08  105.08 125.5  102 125.5  C 98.92 125.5  96.5 123.08  96.5 120  C 96.5 116.92  98.92 114.5  102 114.5  Z " stroke-width="1" stroke="#797979" fill="none" />
  <path d="M 102 123  C 100.32 123  99 121.68  99 120  C 99 118.32  100.32 117  102 117  C 103.68 117  105 118.32  105 120  C 105 121.68  103.68 123  102 123  " fill-rule="nonzero" fill="#797979" stroke="none" />
</svg>