<?xml version="1.0" encoding="utf-8"?>
<svg version="1.1" xmlns:xlink="http://www.w3.org/1999/xlink" width="12px" height="12px" viewBox="306 114  12 12" xmlns="http://www.w3.org/2000/svg">
  <path d="M 312 114  C 315.36 114  318 116.64  318 120  C 318 123.36  315.36 126  312 126  C 308.64 126  306 123.36  306 120  C 306 116.64  308.64 114  312 114  Z " fill-rule="nonzero" fill="#ffffff" stroke="none" />
  <path d="M 312 114.5  C 315.08 114.5  317.5 116.92  317.5 120  C 317.5 123.08  315.08 125.5  312 125.5  C 308.92 125.5  306.5 123.08  306.5 120  C 306.5 116.92  308.92 114.5  312 114.5  Z " stroke-width="1" stroke="#797979" fill="none" />
  <path d="M 312 123  C 310.32 123  309 121.68  309 120  C 309 118.32  310.32 117  312 117  C 313.68 117  315 118.32  315 120  C 315 121.68  313.68 123  312 123  " fill-rule="nonzero" fill="#797979" stroke="none" />
</svg>