<?xml version="1.0" encoding="utf-8"?>
<svg version="1.1" xmlns:xlink="http://www.w3.org/1999/xlink" width="12px" height="12px" viewBox="331 177  12 12" xmlns="http://www.w3.org/2000/svg">
  <path d="M 337 177  C 340.36 177  343 179.64  343 183  C 343 186.36  340.36 189  337 189  C 333.64 189  331 186.36  331 183  C 331 179.64  333.64 177  337 177  Z " fill-rule="nonzero" fill="#ffffff" stroke="none" />
  <path d="M 337 177.5  C 340.08 177.5  342.5 179.92  342.5 183  C 342.5 186.08  340.08 188.5  337 188.5  C 333.92 188.5  331.5 186.08  331.5 183  C 331.5 179.92  333.92 177.5  337 177.5  Z " stroke-width="1" stroke="#797979" fill="none" />
  <path d="M 337 186  C 335.32 186  334 184.68  334 183  C 334 181.32  335.32 180  337 180  C 338.68 180  340 181.32  340 183  C 340 184.68  338.68 186  337 186  " fill-rule="nonzero" fill="#797979" stroke="none" />
</svg>