<?xml version="1.0" encoding="utf-8"?>
<svg version="1.1" xmlns:xlink="http://www.w3.org/1999/xlink" width="12px" height="12px" viewBox="205 177  12 12" xmlns="http://www.w3.org/2000/svg">
  <path d="M 211 177  C 214.36 177  217 179.64  217 183  C 217 186.36  214.36 189  211 189  C 207.64 189  205 186.36  205 183  C 205 179.64  207.64 177  211 177  Z " fill-rule="nonzero" fill="#ffffff" stroke="none" />
  <path d="M 211 177.5  C 214.08 177.5  216.5 179.92  216.5 183  C 216.5 186.08  214.08 188.5  211 188.5  C 207.92 188.5  205.5 186.08  205.5 183  C 205.5 179.92  207.92 177.5  211 177.5  Z " stroke-width="1" stroke="#797979" fill="none" />
  <path d="M 211 186  C 209.32 186  208 184.68  208 183  C 208 181.32  209.32 180  211 180  C 212.68 180  214 181.32  214 183  C 214 184.68  212.68 186  211 186  " fill-rule="nonzero" fill="#797979" stroke="none" />
</svg>