<?xml version="1.0" encoding="utf-8"?>
<svg version="1.1" xmlns:xlink="http://www.w3.org/1999/xlink" width="12px" height="12px" viewBox="94 19  12 12" xmlns="http://www.w3.org/2000/svg">
  <path d="M 100 19  C 103.36 19  106 21.64  106 25  C 106 28.36  103.36 31  100 31  C 96.64 31  94 28.36  94 25  C 94 21.64  96.64 19  100 19  Z " fill-rule="nonzero" fill="#ffffff" stroke="none" />
  <path d="M 100 19.5  C 103.08 19.5  105.5 21.92  105.5 25  C 105.5 28.08  103.08 30.5  100 30.5  C 96.92 30.5  94.5 28.08  94.5 25  C 94.5 21.92  96.92 19.5  100 19.5  Z " stroke-width="1" stroke="#797979" fill="none" />
  <path d="M 100 28  C 98.32 28  97 26.68  97 25  C 97 23.32  98.32 22  100 22  C 101.68 22  103 23.32  103 25  C 103 26.68  101.68 28  100 28  " fill-rule="nonzero" fill="#797979" stroke="none" />
</svg>