<?xml version="1.0" encoding="utf-8"?>
<svg version="1.1" xmlns:xlink="http://www.w3.org/1999/xlink" width="12px" height="12px" viewBox="204 158  12 12" xmlns="http://www.w3.org/2000/svg">
  <path d="M 210 158  C 213.36 158  216 160.64  216 164  C 216 167.36  213.36 170  210 170  C 206.64 170  204 167.36  204 164  C 204 160.64  206.64 158  210 158  Z " fill-rule="nonzero" fill="#ffffff" stroke="none" />
  <path d="M 210 158.5  C 213.08 158.5  215.5 160.92  215.5 164  C 215.5 167.08  213.08 169.5  210 169.5  C 206.92 169.5  204.5 167.08  204.5 164  C 204.5 160.92  206.92 158.5  210 158.5  Z " stroke-width="1" stroke="#797979" fill="none" />
  <path d="M 210 167  C 208.32 167  207 165.68  207 164  C 207 162.32  208.32 161  210 161  C 211.68 161  213 162.32  213 164  C 213 165.68  211.68 167  210 167  " fill-rule="nonzero" fill="#797979" stroke="none" />
</svg>