<?xml version="1.0" encoding="utf-8"?>
<svg version="1.1" xmlns:xlink="http://www.w3.org/1999/xlink" width="12px" height="12px" viewBox="204 19  12 12" xmlns="http://www.w3.org/2000/svg">
  <path d="M 210 19  C 213.36 19  216 21.64  216 25  C 216 28.36  213.36 31  210 31  C 206.64 31  204 28.36  204 25  C 204 21.64  206.64 19  210 19  Z " fill-rule="nonzero" fill="#ffffff" stroke="none" />
  <path d="M 210 19.5  C 213.08 19.5  215.5 21.92  215.5 25  C 215.5 28.08  213.08 30.5  210 30.5  C 206.92 30.5  204.5 28.08  204.5 25  C 204.5 21.92  206.92 19.5  210 19.5  Z " stroke-width="1" stroke="#797979" fill="none" />
  <path d="M 210 28  C 208.32 28  207 26.68  207 25  C 207 23.32  208.32 22  210 22  C 211.68 22  213 23.32  213 25  C 213 26.68  211.68 28  210 28  " fill-rule="nonzero" fill="#797979" stroke="none" />
</svg>