<?xml version="1.0" encoding="utf-8"?>
<svg version="1.1" xmlns:xlink="http://www.w3.org/1999/xlink" width="12px" height="12px" viewBox="329 19  12 12" xmlns="http://www.w3.org/2000/svg">
  <path d="M 335 19  C 338.36 19  341 21.64  341 25  C 341 28.36  338.36 31  335 31  C 331.64 31  329 28.36  329 25  C 329 21.64  331.64 19  335 19  Z " fill-rule="nonzero" fill="#ffffff" stroke="none" />
  <path d="M 335 19.5  C 338.08 19.5  340.5 21.92  340.5 25  C 340.5 28.08  338.08 30.5  335 30.5  C 331.92 30.5  329.5 28.08  329.5 25  C 329.5 21.92  331.92 19.5  335 19.5  Z " stroke-width="1" stroke="#797979" fill="none" />
  <path d="M 335 28  C 333.32 28  332 26.68  332 25  C 332 23.32  333.32 22  335 22  C 336.68 22  338 23.32  338 25  C 338 26.68  336.68 28  335 28  " fill-rule="nonzero" fill="#797979" stroke="none" />
</svg>