<?xml version="1.0" encoding="utf-8"?>
<svg version="1.1" xmlns:xlink="http://www.w3.org/1999/xlink" width="12px" height="12px" viewBox="373 74  12 12" xmlns="http://www.w3.org/2000/svg">
  <path d="M 379 74  C 382.36 74  385 76.64  385 80  C 385 83.36  382.36 86  379 86  C 375.64 86  373 83.36  373 80  C 373 76.64  375.64 74  379 74  Z " fill-rule="nonzero" fill="#ffffff" stroke="none" />
  <path d="M 379 74.5  C 382.08 74.5  384.5 76.92  384.5 80  C 384.5 83.08  382.08 85.5  379 85.5  C 375.92 85.5  373.5 83.08  373.5 80  C 373.5 76.92  375.92 74.5  379 74.5  Z " stroke-width="1" stroke="#797979" fill="none" />
  <path d="M 379 83  C 377.32 83  376 81.68  376 80  C 376 78.32  377.32 77  379 77  C 380.68 77  382 78.32  382 80  C 382 81.68  380.68 83  379 83  " fill-rule="nonzero" fill="#797979" stroke="none" />
</svg>