<?xml version="1.0" encoding="utf-8"?>
<svg version="1.1" xmlns:xlink="http://www.w3.org/1999/xlink" width="12px" height="12px" viewBox="97 527  12 12" xmlns="http://www.w3.org/2000/svg">
  <path d="M 103 527  C 106.36 527  109 529.64  109 533  C 109 536.36  106.36 539  103 539  C 99.64 539  97 536.36  97 533  C 97 529.64  99.64 527  103 527  Z " fill-rule="nonzero" fill="#ffffff" stroke="none" />
  <path d="M 103 527.5  C 106.08 527.5  108.5 529.92  108.5 533  C 108.5 536.08  106.08 538.5  103 538.5  C 99.92 538.5  97.5 536.08  97.5 533  C 97.5 529.92  99.92 527.5  103 527.5  Z " stroke-width="1" stroke="#797979" fill="none" />
  <path d="M 103 536  C 101.32 536  100 534.68  100 533  C 100 531.32  101.32 530  103 530  C 104.68 530  106 531.32  106 533  C 106 534.68  104.68 536  103 536  " fill-rule="nonzero" fill="#797979" stroke="none" />
</svg>