<?xml version="1.0" encoding="utf-8"?>
<svg version="1.1" xmlns:xlink="http://www.w3.org/1999/xlink" width="6px" height="6px" xmlns="http://www.w3.org/2000/svg">
  <g transform="matrix(1 0 0 1 -342 -41 )">
    <path d="M 345 41  C 346.68 41  348 42.32  348 44  C 348 45.68  346.68 47  345 47  C 343.32 47  342 45.68  342 44  C 342 42.32  343.32 41  345 41  Z " fill-rule="nonzero" fill="#272636" stroke="none" />
    <path d="M 345 41.5  C 346.4 41.5  347.5 42.6  347.5 44  C 347.5 45.4  346.4 46.5  345 46.5  C 343.6 46.5  342.5 45.4  342.5 44  C 342.5 42.6  343.6 41.5  345 41.5  Z " stroke-width="1" stroke="#272636" fill="none" />
  </g>
</svg>