<?xml version="1.0" encoding="utf-8"?>
<svg version="1.1" xmlns:xlink="http://www.w3.org/1999/xlink" width="12px" height="12px" xmlns="http://www.w3.org/2000/svg">
  <g transform="matrix(1 0 0 1 -149 -83 )">
    <path d="M 155 83  C 158.36 83  161 85.64  161 89  C 161 92.36  158.36 95  155 95  C 151.64 95  149 92.36  149 89  C 149 85.64  151.64 83  155 83  Z " fill-rule="nonzero" fill="#ffffff" stroke="none" />
    <path d="M 155 83.5  C 158.08 83.5  160.5 85.92  160.5 89  C 160.5 92.08  158.08 94.5  155 94.5  C 151.92 94.5  149.5 92.08  149.5 89  C 149.5 85.92  151.92 83.5  155 83.5  Z " stroke-width="1" stroke="#999999" fill="none" />
  </g>
</svg>