<?xml version="1.0" encoding="utf-8"?>
<svg version="1.1" xmlns:xlink="http://www.w3.org/1999/xlink" width="13px" height="15px" xmlns="http://www.w3.org/2000/svg">
  <g transform="matrix(1 0 0 1 -90 -1853 )">
    <path d="M 96.5 1867.12452593095  C 94.1 1863.71124672674  90.5 1861.66327920421  90.5 1858.25  C 90.5 1856.48571428571  91.7 1853.5  96.5 1853.5  C 101.3 1853.5  102.5 1856.48571428571  102.5 1858.25  C 102.5 1861.66327920421  98.9 1863.71124672674  96.5 1867.12452593095  Z " fill-rule="nonzero" fill="#e4e4e4" stroke="none" />
    <path d="M 96.5 1868  C 93.9 1864.25  90 1862  90 1858.25  C 90 1856.3  91.3 1853  96.5 1853  C 101.7 1853  103 1856.3  103 1858.25  C 103 1862  99.1 1864.25  96.5 1868  Z M 96.5 1866.2490518619  C 98.7 1863.17249345348  102 1861.32655840842  102 1858.25  C 102 1856.67142857143  100.9 1854  96.5 1854  C 92.1 1854  91 1856.67142857143  91 1858.25  C 91 1861.32655840842  94.3 1863.17249345348  96.5 1866.2490518619  Z " fill-rule="nonzero" fill="#aeaeae" stroke="none" />
  </g>
</svg>