<?xml version="1.0" encoding="utf-8"?>
<svg version="1.1" xmlns:xlink="http://www.w3.org/1999/xlink" width="5px" height="5px" xmlns="http://www.w3.org/2000/svg">
  <g transform="matrix(1 0 0 1 -94 -1857 )">
    <path d="M 96.5 1857  C 97.9 1857  99 1858.1  99 1859.5  C 99 1860.9  97.9 1862  96.5 1862  C 95.1 1862  94 1860.9  94 1859.5  C 94 1858.1  95.1 1857  96.5 1857  Z " fill-rule="nonzero" fill="#e4e4e4" stroke="none" />
    <path d="M 96.5 1857.5  C 97.62 1857.5  98.5 1858.38  98.5 1859.5  C 98.5 1860.62  97.62 1861.5  96.5 1861.5  C 95.38 1861.5  94.5 1860.62  94.5 1859.5  C 94.5 1858.38  95.38 1857.5  96.5 1857.5  Z " stroke-width="1" stroke="#aeaeae" fill="none" />
  </g>
</svg>