<?xml version="1.0" encoding="utf-8"?>
<svg version="1.1" xmlns:xlink="http://www.w3.org/1999/xlink" width="18px" height="18px" xmlns="http://www.w3.org/2000/svg">
  <g transform="matrix(1 0 0 1 -21 -1795 )">
    <path d="M 17.9616477272727 13.9474431818185  C 17.9872159090909 14.0071022727273  18 14.0965909090908  18 14.2159090909092  C 18 14.4460227272727  17.9573863636363 14.7464488636365  17.8721590909091 15.1171875  C 17.7869318181818 15.4879261363635  17.6974431818182 15.7798295454545  17.6036931818182 15.9928977272727  C 17.4247159090909 16.4190340909092  16.9048295454545 16.8707386363637  16.0440340909091 17.3480113636365  C 15.2428977272728 17.7826704545455  14.4502840909091 18  13.6661931818182 18  C 13.4360795454546 18  13.2102272727273 17.9850852272727  12.9886363636364 17.9552556818185  C 12.7670454545455 17.9254261363637  12.5220170454546 17.8721590909092  12.2535511363636 17.7954545454545  C 11.9850852272727 17.71875  11.7848011363636 17.6569602272727  11.6526988636364 17.6100852272727  C 11.5205965909091 17.5632102272727  11.2840909090909 17.4758522727273  10.9431818181818 17.3480113636365  C 10.6022727272728 17.2201704545455  10.3934659090909 17.1434659090908  10.3167613636364 17.1178977272727  C 9.48153409090909 16.8196022727273  8.73579545454544 16.4659090909092  8.07954545454542 16.0568181818185  C 6.99715909090907 15.3835227272727  5.87215909090907 14.463068181818  4.70454545454542 13.2954545454545  C 3.53693181818182 12.1278409090908  2.61647727272725 11.0028409090908  1.94318181818184 9.9204545454545  C 1.5340909090909 9.2642045454545  1.18039772727276 8.51846590909099  0.882102272727263 7.68323863636351  C 0.856534090909104 7.60653409090924  0.779829545454579 7.39772727272725  0.651988636363633 7.05681818181847  C 0.524147727272737 6.71590909090924  0.436789772727245 6.47940340909099  0.389914772727263 6.34730113636351  C 0.34303977272728 6.21519886363626  0.28125 6.01491477272725  0.204545454545421 5.74644886363649  C 0.127840909090896 5.4779829545455  0.0745738636363349 5.2329545454545  0.0447443181818414 5.01136363636351  C 0.014914772727245 4.78977272727275  0 4.5639204545455  0 4.33380681818153  C 0 3.54971590909076  0.217329545454579 2.75710227272725  0.651988636363633 1.95596590909076  C 1.12926136363633 1.0951704545455  1.58096590909093 0.575284090909236  2.00710227272726 0.396306818181529  C 2.22017045454546 0.302556818181984  2.51207386363637 0.213068181818471  2.8828125 0.127840909090764  C 3.25355113636363 0.0426136363637397  3.55397727272726 0  3.7840909090909 0  C 3.90340909090907 0  3.99289772727276 0.0127840909092356  4.05255681818184 0.0383522727272521  C 4.2059659090909 0.0894886363635123  4.43181818181819 0.413352272727252  4.73011363636363 1.00994318181847  C 4.82386363636365 1.171875  4.95170454545454 1.40198863636374  5.11363636363637 1.70028409090924  C 5.27556818181819 1.9985795454545  5.42471590909091 2.26917613636351  5.56107954545458 2.51207386363649  C 5.69744318181819 2.75497159090924  5.82954545454542 2.9829545454545  5.95738636363637 3.19602272727275  C 5.98295454545458 3.23011363636374  6.05752840909091 3.33664772727275  6.18110795454542 3.515625  C 6.30468749999998 3.69460227272725  6.39630681818181 3.84588068181802  6.4559659090909 3.96946022727275  C 6.51562499999998 4.09303977272725  6.54545454545458 4.21448863636374  6.54545454545458 4.33380681818153  C 6.54545454545458 4.50426136363626  6.42400568181816 4.7173295454545  6.18110795454542 4.97301136363649  C 5.93821022727274 5.22869318181847  5.67400568181818 5.46306818181802  5.38849431818184 5.67613636363649  C 5.10298295454546 5.8892045454545  4.8387784090909 6.11505681818153  4.59588068181816 6.35369318181847  C 4.35298295454542 6.5923295454545  4.2315340909091 6.78835227272725  4.2315340909091 6.94176136363649  C 4.2315340909091 7.01846590909076  4.25284090909093 7.11434659090924  4.29545454545458 7.22940340909076  C 4.33806818181818 7.34446022727275  4.37428977272725 7.43181818181802  4.40411931818184 7.49147727272725  C 4.43394886363633 7.55113636363626  4.49360795454542 7.65340909090901  4.5830965909091 7.7982954545455  C 4.67258522727274 7.94318181818153  4.72159090909091 8.02414772727275  4.73011363636363 8.04119318181847  C 5.37784090909093 9.20880681818153  6.11931818181819 10.2102272727273  6.95454545454542 11.0454545454545  C 7.78977272727276 11.8806818181815  8.79119318181819 12.6221590909092  9.95880681818184 13.2698863636365  C 9.97585227272728 13.278409090909  10.0568181818182 13.3274147727273  10.2017045454546 13.4169034090908  C 10.3465909090909 13.5063920454545  10.4488636363636 13.5660511363637  10.5085227272727 13.5958806818185  C 10.5681818181818 13.6257102272727  10.6555397727273 13.661931818182  10.7705965909091 13.7045454545455  C 10.8856534090909 13.7471590909092  10.9815340909091 13.7684659090908  11.0582386363636 13.7684659090908  C 11.2116477272727 13.7684659090908  11.4076704545455 13.6470170454545  11.6463068181818 13.4041193181815  C 11.8849431818182 13.1612215909092  12.1107954545455 12.8970170454545  12.3238636363636 12.6115056818185  C 12.5369318181818 12.325994318182  12.7713068181818 12.0617897727273  13.0269886363636 11.8188920454545  C 13.2826704545454 11.5759943181815  13.4957386363637 11.4545454545455  13.6661931818182 11.4545454545455  C 13.7855113636363 11.4545454545455  13.9069602272728 11.484375  14.0305397727273 11.5440340909092  C 14.1541193181818 11.6036931818185  14.3053977272727 11.6953125  14.484375 11.8188920454545  C 14.6633522727273 11.942471590909  14.7698863636363 12.0170454545455  14.8039772727273 12.0426136363635  C 15.0170454545455 12.1704545454545  15.2450284090909 12.3025568181815  15.4879261363636 12.4389204545455  C 15.7308238636364 12.575284090909  16.0014204545455 12.7244318181815  16.2997159090909 12.8863636363635  C 16.5980113636363 13.0482954545455  16.828125 13.1761363636363  16.9900568181818 13.2698863636365  C 17.5866477272727 13.5681818181815  17.9105113636364 13.7940340909092  17.9616477272727 13.9474431818185  Z " fill-rule="nonzero" fill="#bcbcbc" stroke="none" transform="matrix(1 0 0 1 21 1795 )" />
  </g>
</svg>