<?xml version="1.0" encoding="utf-8"?>
<svg version="1.1" xmlns:xlink="http://www.w3.org/1999/xlink" width="20px" height="20px" xmlns="http://www.w3.org/2000/svg">
  <g transform="matrix(1 0 0 1 -408 -235 )">
    <path d="M 14.2857142857143 9.33035714285714  C 14.2857142857143 9.20758928571428  14.2053571428571 9.10714285714286  14.1071428571428 9.10714285714286  L 5.89285714285717 9.10714285714286  C 5.79464285714289 9.10714285714286  5.71428571428572 9.20758928571428  5.71428571428572 9.33035714285714  L 5.71428571428572 10.6696428571429  C 5.71428571428572 10.7924107142857  5.79464285714289 10.8928571428571  5.89285714285717 10.8928571428571  L 14.1071428571428 10.8928571428571  C 14.2053571428571 10.8928571428571  14.2857142857143 10.7924107142857  14.2857142857143 10.6696428571429  L 14.2857142857143 9.33035714285714  Z M 20 10  C 20 4.47767857142858  15.5223214285714 0  10 0  C 4.47767857142856 0  0 4.47767857142858  0 10  C 0 15.5223214285714  4.47767857142856 20  10 20  C 15.5223214285714 20  20 15.5223214285714  20 10  Z M 18.3035714285714 10  C 18.3035714285714 14.5848214285714  14.5848214285714 18.3035714285714  10 18.3035714285714  C 5.41517857142856 18.3035714285714  1.69642857142856 14.5848214285714  1.69642857142856 10  C 1.69642857142856 5.41517857142858  5.41517857142856 1.69642857142858  10 1.69642857142858  C 14.5848214285714 1.69642857142858  18.3035714285714 5.41517857142858  18.3035714285714 10  Z " fill-rule="nonzero" fill="#a1a1a1" stroke="none" transform="matrix(1 0 0 1 408 235 )" />
  </g>
</svg>