<?xml version="1.0" encoding="utf-8"?>
<svg version="1.1" xmlns:xlink="http://www.w3.org/1999/xlink" width="35px" height="28px" xmlns="http://www.w3.org/2000/svg">
  <g transform="matrix(1 0 0 1 -29 -1527 )">
    <path d="M 34 1.25904203323563  C 34.4868035190615 0.56263440860215  33.9364002932552 0  33.2551319648094 0  L 1.23167155425216 0  C 0.550403225806463 0  0 0.56263440860215  0 1.25904203323563  L 0 26.4398826979473  C 0 27.1362903225806  0.550403225806463 27.6989247311828  1.23167155425216 27.6989247311828  L 33.2551319648094 27.6989247311828  C 33.9364002932552 27.6989247311828  34.4868035190615 27.1362903225806  34 26.4398826979473  L 34 1.25904203323563  Z M 31.7155425219942 23.669990224829  L 31.7155425219942 24.8660801564028  L 2.77126099706743 24.8660801564028  L 2.77126099706743 23.2962121212121  L 8.10208944281521 16.8318181818182  L 13.8793988269795 23.8352394916911  L 22.8667521994134 12.9445259042034  L 31.7155425219942 23.669990224829  Z M 31.7155425219942 3  L 31.7155425219942 19.7590909090909  L 23.1015395894428 9.3169110459433  C 22.9783724340177 9.1673998044966  22.7551319648093 9.1673998044966  22.6319648093842 9.3169110459433  L 13.8793988269795 19.924340175953  L 8.33687683284455 13.208137829912  C 8.21370967741933 13.0586265884653  7.99046920821115 13.0586265884653  7.86730205278599 13.208137829912  L 3 19.3853128054741  L 3 3  L 31.7155425219942 3  Z M 5.85043988269791 8.18377321603128  C 5.85043988269791 10.0959433040078  7.36693548387098 11.6461388074292  9.23753665689156 11.6461388074292  C 11.1081378299119 11.6461388074292  12.624633431085 10.0959433040078  12.624633431085 8.18377321603128  C 12.624633431085 6.27160312805472  11.1081378299119 4.72140762463346  9.23753665689156 4.72140762463346  C 7.36693548387098 4.72140762463346  5.85043988269791 6.27160312805472  5.85043988269791 8.18377321603128  Z M 8.15982404692079 8.18377321603128  C 8.15982404692079 7.57392473118279  8.64094574780063 7.08211143695013  9.23753665689156 7.08211143695013  C 9.83412756598239 7.08211143695013  10.3152492668621 7.57392473118279  10.3152492668621 8.18377321603128  C 10.3152492668621 8.79362170087978  9.83412756598239 9.28543499511244  9.23753665689156 9.28543499511244  C 8.64094574780063 9.28543499511244  8.15982404692079 8.79362170087978  8.15982404692079 8.18377321603128  Z " fill-rule="nonzero" fill="#c9c9c9" stroke="none" transform="matrix(1 0 0 1 29 1527 )" />
  </g>
</svg>