<?xml version="1.0" encoding="utf-8"?>
<svg version="1.1" xmlns:xlink="http://www.w3.org/1999/xlink" width="118px" height="85px" xmlns="http://www.w3.org/2000/svg">
  <g transform="matrix(1 0 0 1 -31 -2447 )">
    <path d="M 117 3.8398690581738  C 117.637674659306 1.71594148537133  115.760198378472 0  113.43632913576 0  L 4.20134552354654 0  C 1.87747628083497 0  0 1.71594148537133  0 3.8398690581738  L 0 80.6372502216464  C 0 82.7611777944487  1.87747628083497 84.4771192798198  4.20134552354654 84  L 113.43632913576 84  C 115.760198378472 84.4771192798198  117.637674659306 82.7611777944487  117 80.6372502216464  L 117 3.8398690581738  Z M 108.184647231327 72.1895382936644  L 108.184647231327 75  L 9.45302742797992 75  L 9.45302742797992 71.0495771670189  L 27.6369760220803 51.3342494714587  L 47.3439123684664 72.6935211075497  L 78.0006054855959 39.4786537543478  L 108.184647231327 72.1895382936644  Z M 108 9  L 108 60.2619450317125  L 78.801486976022 28.4150310304848  C 78.3813524236675 27.9590465798267  77.6198585475244 27.9590465798267  77.1997239951698 28.4150310304848  L 47.3439123684664 60.7659278455976  L 28.4378575125063 40.2826263384028  C 28.0177229601517 39.8266418877446  27.2562290840091 39.8266418877446  26.8360945316545 40.2826263384028  L 10 59.1219839050672  L 10 9  L 108 9  Z M 19.9563912368466 24.9591488781285  C 19.9563912368466 30.7909500102299  25.1292979127135 35.5187887881061  31.5100914266002 35.5187887881061  C 37.8908849404862 35.5187887881061  43.0637916163531 30.7909500102299  43.0637916163531 24.9591488781285  C 43.0637916163531 19.1273477460275  37.8908849404862 14.3995089681511  31.5100914266002 14.3995089681511  C 25.1292979127135 14.3995089681511  19.9563912368466 19.1273477460275  19.9563912368466 24.9591488781285  Z M 27.8339140934964 24.9591488781285  C 27.8339140934964 23.0992123030758  29.4750646886321 21.5992634522266  31.5100914266002 21.5992634522266  C 33.545118164568 21.5992634522266  35.1862687597032 23.0992123030758  35.1862687597032 24.9591488781285  C 35.1862687597032 26.8190854531815  33.545118164568 28.3190343040307  31.5100914266002 28.3190343040307  C 29.4750646886321 28.3190343040307  27.8339140934964 26.8190854531815  27.8339140934964 24.9591488781285  Z " fill-rule="nonzero" fill="#c9c9c9" stroke="none" transform="matrix(1 0 0 1 31 2447 )" />
  </g>
</svg>