<?xml version="1.0" encoding="utf-8"?>
<svg version="1.1" xmlns:xlink="http://www.w3.org/1999/xlink" width="20px" height="20px" xmlns="http://www.w3.org/2000/svg">
  <g transform="matrix(1 0 0 1 -19 -1634 )">
    <path d="M 19.8044554455445 0.821782178217802  C 19.8019801980198 0.351485148514854  19.4306930693069 0  19.009900990099 0  C 18.9158415841584 0  18.8193069306931 0.0173267326732685  18.7227722772277 0.0569306930692903  L 4.45544554455444 5.78960396039605  L 0.396039603960389 5.78960396039605  C 0.178217821782198 5.78960396039605  0 5.9727722772277  0 6.20049504950498  L 0 13.6014851485148  C 0 13.8292079207921  0.178217821782198 14.0123762376238  0.396039603960389 14.0123762376238  L 2.91336633663366 14.0123762376238  C 2.8217821782178 14.2995049504951  2.77227722772273 14.6039603960396  2.77227722772273 14.9133663366337  C 2.77227722772273 16.5445544554456  4.10396039603967 17.8712871287129  5.7425742574257 17.8712871287129  C 7.11386138613858 17.8712871287129  8.26980198019805 16.9405940594059  8.61138613861385 15.6831683168317  L 18.7252475247525 19.7475247524753  C 18.8217821782179 19.7846534653465  18.9183168316831 19.8044554455445  19.0123762376238 19.8044554455445  C 19.4306930693069 19.8044554455445  19.8044554455445 19.4529702970297  19.8044554455445 18.9826732673267  L 19.8044554455445 0.821782178217802  Z M 6.9282178217822 15.0049504950495  C 6.87871287128718 15.6138613861386  6.36633663366331 16.0965346534654  5.7425742574257 16.0965346534654  C 5.08663366336634 16.0965346534654  4.55445544554459 15.5668316831683  4.55445544554459 14.9133663366337  C 4.55445544554459 14.6361386138614  4.6509900990099 14.3712871287129  4.82673267326732 14.1608910891089  L 6.9282178217822 15.0049504950495  Z M 18 2.25990099009903  L 18 17.5420792079208  L 5.11881188118809 12.3589108910891  L 4.79950495049508 12.230198019802  L 1.78217821782175 12.230198019802  L 1.78217821782175 7.57178217821786  L 4.79950495049508 7.57178217821786  L 5.11881188118809 7.44306930693071  L 13.2514122631757 4.17567383496566  L 18 2.25990099009903  Z " fill-rule="nonzero" fill="#666666" stroke="none" transform="matrix(1 0 0 1 19 1634 )" />
  </g>
</svg>