<?xml version="1.0" encoding="utf-8"?>
<svg version="1.1" xmlns:xlink="http://www.w3.org/1999/xlink" width="30px" height="30px" xmlns="http://www.w3.org/2000/svg">
  <g transform="matrix(1 0 0 1 -281 -266 )">
    <path d="M 30 7.19999999999999  C 30 6.5625  29.50125 6.04124999999999  28.875 6.00375000000003  L 28.875 1.19999999999999  C 28.875 0.536249999999995  28.33875 0  27.675 0  L 2.32499999999999 0  C 1.66125 0  1.125 0.536249999999995  1.125 1.19999999999999  L 1.125 6.00375000000003  C 0.49875000000003 6.04124999999999  0 6.5625  0 7.19999999999999  L 0 12.13875  C 0 13.05375  0.180000000000007 13.9425  0.54000000000002 14.77875  C 0.701250000000016 15.16125  0.899999999999977 15.52125  1.125 15.8625  L 1.125 28.8  C 1.125 29.46  1.66125 30  2.32499999999999 30  L 27.675 30  C 28.33875 30  28.875 29.46375  28.875 28.8  L 28.875 15.8625  C 29.10375 15.52125  29.29875 15.1575  29.46 14.77875  C 29.81625 13.9425  30 13.05375  30 12.13875  L 30 7.19999999999999  Z M 3.82499999999999 6  L 3.82499999999999 3  L 26.175 3  L 26.175 6  L 3.82499999999999 6  Z M 17.4 23.4  L 17.4 27.30375  L 12.6 27.30375  L 12.6 23.4  L 17.4 23.4  Z M 26.19 27.30375  L 26.175 27.30375  L 19.8 27.30375  L 19.8 22.2  C 19.8 21.53625  19.26375 21  18.6 21  L 11.4 21  C 10.73625 21  10.2 21.53625  10.2 22.2  L 10.2 27.30375  L 3.82499999999999 27.30375  L 3.82499999999999 18.22125  C 3.93374999999998 18.27375  4.04624999999999 18.32625  4.16250000000002 18.37125  C 4.99875000000003 18.72375  5.88749999999999 18.9  6.80250000000001 18.9  C 7.71749999999997 18.9  8.60250000000002 18.72375  9.4425 18.37125  C 9.95999999999998 18.15375  10.4475 17.87625  10.89375 17.5425  C 10.90125 17.53875  10.90875 17.53875  10.91625 17.5425  C 11.3625 17.87625  11.84625 18.15375  12.3675 18.37125  C 13.20375 18.72375  14.0925 18.9  15.0075 18.9  C 15.9225 18.9  16.8075 18.72375  17.6475 18.37125  C 18.165 18.15375  18.6525 17.87625  19.09875 17.5425  C 19.10625 17.53875  19.11375 17.53875  19.12125 17.5425  C 19.5675 17.87625  20.05125 18.15375  20.5725 18.37125  C 21.40875 18.72375  22.2975 18.9  23.2125 18.9  C 24.1275 18.9  25.0125 18.72375  25.8525 18.37125  C 25.965 18.3225  26.0775 18.27375  26.19 18.22125  L 26.19 27.30375  Z M 27.3 8.71875  L 27.3 12.13875  C 27.3 14.38125  25.4625 16.2  23.20125 16.2  C 21.67125 16.2  20.33625 15.37125  19.63125 14.14125  C 19.5225 13.95375  19.3275 13.8375  19.11 13.8375  L 19.0875 13.8375  C 18.87375 13.8375  18.675 13.95375  18.56625 14.14125  C 17.865 15.37125  16.53 16.2  15 16.2  C 13.47375 16.2  12.1425 15.375  11.4375 14.14875  C 11.325 13.9575  11.1225 13.8375  10.90125 13.8375  C 10.68 13.8375  10.47375 13.9575  10.365 14.14875  C 9.65625 15.375  8.32499999999999 16.2  6.79874999999998 16.2  C 4.53750000000002 16.2  2.69999999999999 14.38125  2.69999999999999 12.13875  L 2.69999999999999 8.71875  C 2.69999999999999 8.70749999999998  2.70749999999998 8.69999999999999  2.71875 9  L 27.28125 9  C 27.2925 8.69999999999999  27.3 8.70749999999998  27.3 8.71875  Z " fill-rule="nonzero" fill="#666666" stroke="none" transform="matrix(1 0 0 1 281 266 )" />
  </g>
</svg>