<?xml version="1.0" encoding="utf-8"?>
<svg version="1.1" xmlns:xlink="http://www.w3.org/1999/xlink" width="15px" height="20px" xmlns="http://www.w3.org/2000/svg">
  <g transform="matrix(1 0 0 1 -43 -209 )">
    <path d="M 14.62890625 0.308948863636346  C 14.8763020833334 0.514914772727252  15 0.758821770334919  15 1.04066985645935  L 15 18.732057416268  C 15 19.0139055023924  14.8763020833334 19.2578125000001  14.62890625 19.4637784090909  C 14.3815104166667 19.6697443181818  14.0885416666667 19.7727272727273  13.75 19.7727272727273  C 13.4114583333334 19.7727272727273  13.1184895833334 19.6697443181818  12.87109375 19.4637784090909  L 6.36718749999998 14.049043062201  L 1.25000000000002 14.049043062201  C 0.911458333333321 14.049043062201  0.618489583333321 13.9460601076555  0.371093750000021 13.7400941985646  C 0.123697916666657 13.5341282894737  0 13.290221291866  0 13.0083732057417  L 0 6.76435406698565  C 0 6.48250598086128  0.123697916666657 6.23859898325358  0.371093750000021 6.0326330741627  C 0.618489583333321 5.82666716507177  0.911458333333321 5.7236842105263  1.25000000000002 5.7236842105263  L 6.36718749999998 5.7236842105263  L 12.87109375 0.308948863636346  C 13.1184895833334 0.102982954545467  13.4114583333334 0  13.75 0  C 14.0885416666667 0  14.3815104166667 0.102982954545467  14.62890625 0.308948863636346  Z " fill-rule="nonzero" fill="#ff6600" stroke="none" fill-opacity="0.807843137254902" transform="matrix(1 0 0 1 43 209 )" />
  </g>
</svg>