<?xml version="1.0" encoding="utf-8"?>
<svg version="1.1" xmlns:xlink="http://www.w3.org/1999/xlink" width="15px" height="12px" xmlns="http://www.w3.org/2000/svg">
  <g transform="matrix(1 0 0 1 -253 -102 )">
    <path d="M 14.9204799107143 7.40915178571429  C 14.9734933035714 7.46287202380952  15 7.52648809523809  15 7.60000000000001  L 15 9.22857142857143  C 15 9.30208333333334  14.9734933035714 9.36569940476191  14.9204799107143 9.41941964285715  C 14.8674665178572 9.47313988095237  14.8046875 9.5  14.7321428571429 9.5  L 3.21428571428572 9.5  L 3.21428571428572 11.1285714285714  C 3.21428571428572 11.2020833333333  3.18777901785711 11.2656994047619  3.134765625 11.3194196428571  C 3.08175223214289 11.3731398809524  3.01897321428567 11.4  2.94642857142856 11.4  C 2.87946428571428 11.4  2.8125 11.3717261904762  2.74553571428572 11.3151785714286  L 0.0753348214285552 8.60089285714285  C 0.0251116071428896 8.55000000000001  0 8.48779761904763  0 8.41428571428571  C 0 8.33511904761905  0.0251116071428896 8.27008928571429  0.0753348214285552 8.21919642857142  L 2.75390625 5.50491071428571  C 2.80412946428572 5.45401785714286  2.86830357142856 5.42857142857143  2.94642857142856 5.42857142857143  C 3.01897321428567 5.42857142857143  3.08175223214289 5.45543154761906  3.134765625 5.50915178571429  C 3.18777901785711 5.56287202380952  3.21428571428572 5.6264880952381  3.21428571428572 5.69999999999999  L 3.21428571428572 7.32857142857142  L 14.7321428571429 7.32857142857142  C 14.8046875 7.32857142857142  14.8674665178572 7.35543154761905  14.9204799107143 7.40915178571429  Z M 14.9246651785714 2.79062500000001  C 14.9748883928571 2.84151785714286  15 2.90654761904761  15 2.98571428571428  C 15 3.06488095238096  14.9748883928571 3.12991071428571  14.9246651785714 3.18080357142857  L 12.24609375 5.89508928571429  C 12.1958705357143 5.94598214285713  12.1316964285714 5.97142857142858  12.0535714285714 5.97142857142858  C 11.9810267857143 5.97142857142858  11.9182477678571 5.94456845238095  11.865234375 5.89084821428571  C 11.8122209821429 5.83712797619049  11.7857142857143 5.7735119047619  11.7857142857143 5.69999999999999  L 11.7857142857143 4  L 0.26785714285711 4  C 0.1953125 4.07142857142857  0.132533482142833 4.04456845238096  0.0795200892857224 3.99084821428572  C 0.0265066964285552 3.93712797619048  0 3.87351190476191  0 3.8  L 0 2.17142857142858  C 0 2.09791666666666  0.0265066964285552 2.03430059523809  0.0795200892857224 1.98058035714286  C 0.132533482142833 1.92686011904762  0.1953125 1.90000000000001  0.26785714285711 2  L 11.7857142857143 2  L 11.7857142857143 0.271428571428572  C 11.7857142857143 0.192261904761892  11.8108258928571 0.127232142857139  11.8610491071429 0.0763392857142833  C 11.9112723214286 0.0254464285714278  11.9754464285714 0  12.0535714285714 0  C 12.1205357142857 0  12.1875 0.0282738095238102  12.2544642857143 0.0848214285714306  L 14.9246651785714 2.79062500000001  Z " fill-rule="nonzero" fill="#1890ff" stroke="none" transform="matrix(1 0 0 1 253 102 )" />
  </g>
</svg>