<?xml version="1.0" encoding="utf-8"?>
<svg version="1.1" xmlns:xlink="http://www.w3.org/1999/xlink" width="22px" height="22px" xmlns="http://www.w3.org/2000/svg">
  <g transform="matrix(1 0 0 1 -357 -208 )">
    <path d="M 0.439999999999998 6.81999999999999  C 0.439999999999998 6.941  0.538999999999987 7.03999999999999  0.660000000000025 7.03999999999999  L 2.19999999999999 7.03999999999999  C 2.32100000000003 7.03999999999999  2.42000000000002 6.941  2.42000000000002 6.81999999999999  L 2.42000000000002 1.97999999999999  L 7.25999999999999 1.97999999999999  C 7.38099999999997 1.97999999999999  7.48000000000002 1.881  7.48000000000002 1.75999999999999  L 7.48000000000002 0.219999999999999  C 7.48000000000002 0.0989999999999895  7.38099999999997 0  7.25999999999999 0  L 2.31 0  C 1.27600000000001 0  0.439999999999998 0.836000000000013  0.439999999999998 1.87  L 0.439999999999998 6.81999999999999  Z M 14.52 1.75999999999999  C 14.52 1.881  14.619 1.97999999999999  14.74 1.97999999999999  L 19.58 1.97999999999999  L 19.58 6.81999999999999  C 19.58 6.941  19.679 7.03999999999999  19.8 7.03999999999999  L 21.34 7.03999999999999  C 21.461 7.03999999999999  21.56 6.941  21.56 6.81999999999999  L 21.56 1.87  C 21.56 0.836000000000013  20.724 0  19.69 0  L 14.74 0  C 14.619 0  14.52 0.0989999999999895  14.52 0.219999999999999  L 14.52 1.75999999999999  Z M 7.48000000000002 19.36  C 7.48000000000002 19.239  7.38099999999997 19.14  7.25999999999999 19.14  L 2.42000000000002 19.14  L 2.42000000000002 14.3  C 2.42000000000002 14.179  2.32100000000003 14.08  2.19999999999999 14.08  L 0.660000000000025 14.08  C 0.538999999999987 14.08  0.439999999999998 14.179  0.439999999999998 14.3  L 0.439999999999998 19.25  C 0.439999999999998 20.284  1.27600000000001 21.12  2.31 21.12  L 7.25999999999999 21.12  C 7.38099999999997 21.12  7.48000000000002 21.021  7.48000000000002 20.9  L 7.48000000000002 19.36  Z M 21.56 14.3  C 21.56 14.179  21.461 14.08  21.34 14.08  L 19.8 14.08  C 19.679 14.08  19.58 14.179  19.58 14.3  L 19.58 19.14  L 14.74 19.14  C 14.619 19.14  14.52 19.239  14.52 19.36  L 14.52 20.9  C 14.52 21.021  14.619 21.12  14.74 21.12  L 19.69 21.12  C 20.724 21.12  21.56 20.284  21.56 19.25  L 21.56 14.3  Z M 22 9.78999999999999  C 22 9.66900000000001  21.901 9.56999999999999  21.78 10  L 0.220000000000027 10  C 0.0989999999999895 9.56999999999999  0 9.66900000000001  0 9.78999999999999  L 0 11.33  C 0 11.451  0.0989999999999895 11.55  0.220000000000027 11.55  L 21.78 11.55  C 21.901 11.55  22 11.451  22 11.33  L 22 9.78999999999999  Z " fill-rule="nonzero" fill="#000000" stroke="none" transform="matrix(1 0 0 1 357 208 )" />
  </g>
</svg>