<?xml version="1.0" encoding="utf-8"?>
<svg version="1.1" xmlns:xlink="http://www.w3.org/1999/xlink" width="25px" height="24px" xmlns="http://www.w3.org/2000/svg">
  <g transform="matrix(1 0 0 1 -1450 -29 )">
    <path d="M 22.075 18.4527777777778  C 22.1694444444444 18.3055555555556  22.0638888888889 18.1111111111111  21.8888888888889 18.1111111111111  L 19.9361111111111 18.1111111111111  C 19.8027777777778 18.1111111111111  19.6777777777778 18.1694444444444  19.5944444444444 18.2722222222222  C 19.4 18.5083333333333  19.1916666666667 18.7361111111111  18.9722222222222 18.9527777777778  C 18.0666666666667 19.8555555555556  17.0138888888889 20.5666666666667  15.8416666666667 21.0611111111111  C 14.6305555555556 21.5722222222222  13.3416666666667 21.8333333333333  12.0111111111111 21.8333333333333  C 10.6805555555556 21.8333333333333  9.39166666666667 21.5722222222222  8.18055555555556 21.0611111111111  C 7.00833333333334 20.5666666666667  5.95555555555556 19.8555555555556  5.05 18.9527777777778  C 4.14444444444445 18.05  3.43611111111111 16.9972222222222  2.93888888888889 15.8277777777778  C 2.425 14.6166666666667  2.16666666666667 13.3305555555556  2.16666666666667 12  C 2.16666666666667 10.6694444444444  2.42777777777778 9.38333333333333  2.93888888888889 8.17222222222222  C 3.43333333333333 7.00277777777778  4.14444444444445 5.95  5.05 5.04722222222222  C 5.95555555555556 4.14444444444445  7.00833333333333 3.43333333333333  8.18055555555556 2.93888888888889  C 9.39166666666667 2.42777777777778  10.6805555555556 2.16666666666666  12.0111111111111 2.16666666666666  C 13.3416666666667 2.16666666666666  14.6305555555556 2.425  15.8416666666667 2.93888888888889  C 17.0138888888889 3.43333333333333  18.0666666666667 4.14444444444445  18.9722222222222 5.04722222222222  C 19.1916666666667 5.26666666666667  19.3972222222222 5.49444444444444  19.5944444444444 5.72777777777778  C 19.6777777777778 5.83055555555556  19.8055555555556 5.88888888888889  19.9361111111111 5.88888888888889  L 21.8888888888889 5.88888888888889  C 22.0638888888889 5.88888888888889  22.1722222222222 5.69444444444444  22.075 5.54722222222222  C 19.9444444444444 2.23611111111111  16.2166666666667 0.0444444444444443  11.9805555555556 0.0555555555555571  C 5.325 0.0722222222222229  -0.0111111111111128 5.475  0.0555555555555571 12.1222222222222  C 0.122222222222224 18.6638888888889  5.45 23.9444444444444  12.0111111111111 23.9444444444444  C 16.2361111111111 23.9444444444444  19.9472222222222 21.7555555555556  22.075 18.4527777777778  Z M 24.3583333333333 12.175  C 24.4722222222222 12.0861111111111  24.4722222222222 11.9138888888889  24.3583333333333 11.825  L 20.4166666666667 8.71388888888889  C 20.2694444444444 8.59722222222222  20.0555555555556 8.70277777777778  20.0555555555556 8.88888888888889  L 20.0555555555556 11  L 11.3333333333333 11  C 11.2111111111111 11  11.1111111111111 11.1  11.1111111111111 11.2222222222222  L 11.1111111111111 12.7777777777778  C 11.1111111111111 12.9  11.2111111111111 13  11.3333333333333 13  L 20.0555555555556 13  L 20.0555555555556 15.1111111111111  C 20.0555555555556 15.2972222222222  20.2722222222222 15.4027777777778  20.4166666666667 15.2861111111111  L 24.3583333333333 12.175  Z " fill-rule="nonzero" fill="#ffffff" stroke="none" transform="matrix(1 0 0 1 1450 29 )" />
  </g>
</svg>