<?xml version="1.0" encoding="utf-8"?>
<svg version="1.1" xmlns:xlink="http://www.w3.org/1999/xlink" width="18px" height="18px" preserveAspectRatio="xMinYMid meet" viewBox="383 1862  18 16" xmlns="http://www.w3.org/2000/svg">
  <path d="M 995 1868.5  L 908 1868.5  A 3 3 0 0 0 905 1865.5 A 3 3 0 0 0 902 1868.5 L 778 1868.5  A 3 3 0 0 0 775 1865.5 A 3 3 0 0 0 772 1868.5 L 402 1868.5  A 1 1 0 0 0 401.5 1869.5 A 1 1 0 0 1 400.5 1870.5 L 392 1870.5  " stroke-width="1" stroke="#d7d7d7" fill="none" />
  <path d="M 397.053553390593 1875.14644660941  L 392.407106781187 1870.5  L 397.053553390593 1865.85355339059  L 396.346446609407 1865.14644660941  L 391.346446609407 1870.14644660941  L 390.992893218813 1870.5  L 391.346446609407 1870.85355339059  L 396.346446609407 1875.85355339059  L 397.053553390593 1875.14644660941  Z " fill-rule="nonzero" fill="#d7d7d7" stroke="none" />
</svg>