<?xml version="1.0" encoding="utf-8"?>
<svg version="1.1" xmlns:xlink="http://www.w3.org/1999/xlink" width="89px" height="89px" xmlns="http://www.w3.org/2000/svg">
  <g transform="matrix(1 0 0 1 -947 -1171 )">
    <path d="M 991.5 1171  C 1016.42 1171  1036 1190.58  1036 1215.5  C 1036 1240.42  1016.42 1260  991.5 1260  C 966.58 1260  947 1240.42  947 1215.5  C 947 1190.58  966.58 1171  991.5 1171  Z " fill-rule="nonzero" fill="#ffffff" stroke="none" fill-opacity="0" />
    <path d="M 991.5 1171.5  C 1016.14 1171.5  1035.5 1190.86  1035.5 1215.5  C 1035.5 1240.14  1016.14 1259.5  991.5 1259.5  C 966.86 1259.5  947.5 1240.14  947.5 1215.5  C 947.5 1190.86  966.86 1171.5  991.5 1171.5  Z " stroke-width="1" stroke="#cccccc" fill="none" />
  </g>
</svg>