<?xml version="1.0" encoding="utf-8"?>
<svg version="1.1" xmlns:xlink="http://www.w3.org/1999/xlink" width="170px" height="170px" xmlns="http://www.w3.org/2000/svg">
  <g transform="matrix(1 0 0 1 -906 -1130 )">
    <path d="M 991 1130  C 1038.6 1130  1076 1167.4  1076 1215  C 1076 1262.6  1038.6 1300  991 1300  C 943.4 1300  906 1262.6  906 1215  C 906 1167.4  943.4 1130  991 1130  Z " fill-rule="nonzero" fill="#ffffff" stroke="none" fill-opacity="0" />
    <path d="M 991 1130.5  C 1038.32 1130.5  1075.5 1167.68  1075.5 1215  C 1075.5 1262.32  1038.32 1299.5  991 1299.5  C 943.68 1299.5  906.5 1262.32  906.5 1215  C 906.5 1167.68  943.68 1130.5  991 1130.5  Z " stroke-width="1" stroke="#cccccc" fill="none" />
  </g>
</svg>