<?xml version="1.0" encoding="utf-8"?>
<svg version="1.1" xmlns:xlink="http://www.w3.org/1999/xlink" width="16px" height="16px" xmlns="http://www.w3.org/2000/svg">
  <g transform="matrix(1 0 0 1 -132 -349 )">
    <path d="M 7.25 0.166666666666686  C 7.25 0.0749999999999886  7.175 0  7.08333333333333 0  L 0.666666666666671 0  C 0.297916666666666 0  0 0.297916666666652  0 0.666666666666686  L 0 7.08333333333331  C 0 7.17500000000001  0.0750000000000028 7.25  0.166666666666671 7.25  L 7.08333333333333 7.25  C 7.175 7.25  7.25 7.17500000000001  7.25 7.08333333333331  L 7.25 0.166666666666686  Z M 5.91666666666667 1.33333333333331  L 5.91666666666667 5.91666666666669  L 1.33333333333333 5.91666666666669  L 1.33333333333333 1.33333333333331  L 5.91666666666667 1.33333333333331  Z M 2.875 4.20833333333331  C 2.875 4.30000000000001  2.95 4.375  3.04166666666667 4.375  L 4.20833333333333 4.375  C 4.3 4.375  4.375 4.30000000000001  4.375 4.20833333333331  L 4.375 3.04166666666669  C 4.375 2.94999999999999  4.3 2.875  4.20833333333333 2.875  L 3.04166666666667 2.875  C 2.95 2.875  2.875 2.94999999999999  2.875 3.04166666666669  L 2.875 4.20833333333331  Z M 7.25 8.91666666666669  C 7.25 8.82499999999999  7.175 8.75  7.08333333333333 8.75  L 0.166666666666671 8.75  C 0.0750000000000028 8.75  0 8.82499999999999  0 8.91666666666669  L 0 15.3333333333333  C 0 15.7020833333333  0.297916666666666 16  0.666666666666671 16  L 7.08333333333333 16  C 7.175 16  7.25 15.925  7.25 15.8333333333333  L 7.25 8.91666666666669  Z M 5.91666666666667 10.0833333333333  L 5.91666666666667 14.6666666666667  L 1.33333333333333 14.6666666666667  L 1.33333333333333 10.0833333333333  L 5.91666666666667 10.0833333333333  Z M 2.875 12.9583333333333  C 2.875 13.05  2.95 13.125  3.04166666666667 13.125  L 4.20833333333333 13.125  C 4.3 13.125  4.375 13.05  4.375 12.9583333333333  L 4.375 11.7916666666667  C 4.375 11.7  4.3 11.625  4.20833333333333 11.625  L 3.04166666666667 11.625  C 2.95 11.625  2.875 11.7  2.875 11.7916666666667  L 2.875 12.9583333333333  Z M 16 0.666666666666686  C 16 0.297916666666652  15.7020833333333 0  15.3333333333333 0  L 8.91666666666667 0  C 8.825 0  8.75 0.0749999999999886  8.75 0.166666666666686  L 8.75 7.08333333333331  C 8.75 7.17500000000001  8.825 7.25  8.91666666666667 7.25  L 15.8333333333333 7.25  C 15.925 7.25  16 7.17500000000001  16 7.08333333333331  L 16 0.666666666666686  Z M 14.6666666666667 1.33333333333331  L 14.6666666666667 5.91666666666669  L 10.0833333333333 5.91666666666669  L 10.0833333333333 1.33333333333331  L 14.6666666666667 1.33333333333331  Z M 11.625 4.20833333333331  C 11.625 4.30000000000001  11.7 4.375  11.7916666666667 4.375  L 12.9583333333333 4.375  C 13.05 4.375  13.125 4.30000000000001  13.125 4.20833333333331  L 13.125 3.04166666666669  C 13.125 2.94999999999999  13.05 2.875  12.9583333333333 2.875  L 11.7916666666667 2.875  C 11.7 2.875  11.625 2.94999999999999  11.625 3.04166666666669  L 11.625 4.20833333333331  Z M 16 8.91666666666669  C 16 8.82499999999999  15.925 8.75  15.8333333333333 8.75  L 14.8333333333333 8.75  C 14.7416666666667 8.75  14.6666666666667 8.82499999999999  14.6666666666667 8.91666666666669  L 14.6666666666667 11.7083333333333  L 13.0416666666667 11.7083333333333  L 13.0416666666667 8.91666666666669  C 13.0416666666667 8.82499999999999  12.9666666666667 8.75  12.875 8.75  L 8.91666666666667 8.75  C 8.825 8.75  8.75 8.82499999999999  8.75 8.91666666666669  L 8.75 15.8333333333333  C 8.75 15.925  8.825 16  8.91666666666667 16  L 9.91666666666667 16  C 10.0083333333333 16  10.0833333333333 15.925  10.0833333333333 15.8333333333333  L 10.0833333333333 10.75  L 11.7083333333333 10.75  L 11.7083333333333 12.875  C 11.7083333333333 12.9666666666667  11.7833333333333 13.0416666666667  11.875 13.0416666666667  L 15.8333333333333 13.0416666666667  C 15.925 13.0416666666667  16 12.9666666666667  16 12.875  L 16 8.91666666666669  Z M 13.0416666666667 14.8333333333333  C 13.0416666666667 14.7416666666667  12.9666666666667 14.6666666666667  12.875 14.6666666666667  L 11.875 14.6666666666667  C 11.7833333333333 14.6666666666667  11.7083333333333 14.7416666666667  11.7083333333333 14.8333333333333  L 11.7083333333333 15.8333333333333  C 11.7083333333333 15.925  11.7833333333333 16  11.875 16  L 12.875 16  C 12.9666666666667 16  13.0416666666667 15.925  13.0416666666667 15.8333333333333  L 13.0416666666667 14.8333333333333  Z M 16 14.8333333333333  C 16 14.7416666666667  15.925 14.6666666666667  15.8333333333333 14.6666666666667  L 14.8333333333333 14.6666666666667  C 14.7416666666667 14.6666666666667  14.6666666666667 14.7416666666667  14.6666666666667 14.8333333333333  L 14.6666666666667 15.8333333333333  C 14.6666666666667 15.925  14.7416666666667 16  14.8333333333333 16  L 15.8333333333333 16  C 15.925 16  16 15.925  16 15.8333333333333  L 16 14.8333333333333  Z " fill-rule="nonzero" fill="#1890ff" stroke="none" transform="matrix(1 0 0 1 132 349 )" />
  </g>
</svg>