<?xml version="1.0" encoding="utf-8"?>
<svg version="1.1" xmlns:xlink="http://www.w3.org/1999/xlink" width="50px" height="50px" xmlns="http://www.w3.org/2000/svg">
  <g transform="matrix(1 0 0 1 -90 -605 )">
    <path d="M 23 0.520833333333371  C 22.65625 0.234375  22.421875 0  22.1354166666667 0  L 2.08333333333334 0  C 0.930989583333314 0  0 0.930989583333371  0 2.08333333333337  L 0 22.1354166666667  C 0 22.421875  0.234375 22.65625  0.520833333333343 23  L 22.1354166666667 23  C 22.421875 22.65625  22.65625 22.421875  23 22.1354166666667  L 23 0.520833333333371  Z M 19 5  L 19 19  L 5 19  L 5 5  L 19 5  Z M 8.984375 13.1510416666666  C 8.984375 13.4375  9.21875 13.671875  9.50520833333334 13.671875  L 13.1510416666667 13.671875  C 13.4375 13.671875  13.671875 13.4375  13.671875 13.1510416666666  L 13.671875 9.50520833333337  C 13.671875 9.21875  13.4375 8.984375  13.1510416666667 8.984375  L 9.50520833333334 8.984375  C 9.21875 8.984375  8.984375 9.21875  8.984375 9.50520833333337  L 8.984375 13.1510416666666  Z M 23 27.8645833333333  C 22.65625 27.578125  22.421875 27.34375  22.1354166666667 27  L 0.520833333333343 27  C 0.234375 27.34375  0 27.578125  0 27.8645833333333  L 0 47.9166666666667  C 0 49.0690104166667  0.930989583333314 50  2.08333333333334 50  L 22.1354166666667 50  C 22.421875 50  22.65625 49.765625  23 49.4791666666667  L 23 27.8645833333333  Z M 19 31  L 19 45  L 5 45  L 5 31  L 19 31  Z M 8.984375 40.4947916666667  C 8.984375 40.78125  9.21875 41.015625  9.50520833333334 41.015625  L 13.1510416666667 41.015625  C 13.4375 41.015625  13.671875 40.78125  13.671875 40.4947916666667  L 13.671875 36.8489583333333  C 13.671875 36.5625  13.4375 36.328125  13.1510416666667 36.328125  L 9.50520833333334 36.328125  C 9.21875 36.328125  8.984375 36.5625  8.984375 36.8489583333333  L 8.984375 40.4947916666667  Z M 50 2.08333333333337  C 50 0.930989583333371  49.0690104166667 0  47.9166666666667 0  L 27.8645833333333 0  C 27.578125 0  27.34375 0.234375  27 0.520833333333371  L 27 22.1354166666667  C 27.34375 22.421875  27.578125 22.65625  27.8645833333333 23  L 49.4791666666667 23  C 49.765625 22.65625  50 22.421875  50 22.1354166666667  L 50 2.08333333333337  Z M 45 5  L 45 19  L 31 19  L 31 5  L 45 5  Z M 36.328125 13.1510416666666  C 36.328125 13.4375  36.5625 13.671875  36.8489583333333 13.671875  L 40.4947916666667 13.671875  C 40.78125 13.671875  41.015625 13.4375  41.015625 13.1510416666666  L 41.015625 9.50520833333337  C 41.015625 9.21875  40.78125 8.984375  40.4947916666667 8.984375  L 36.8489583333333 8.984375  C 36.5625 8.984375  36.328125 9.21875  36.328125 9.50520833333337  L 36.328125 13.1510416666666  Z M 50 27.8645833333333  C 50 27.578125  49.765625 27.34375  49.4791666666667 27.34375  L 46.3541666666667 27.34375  C 46.0677083333333 27.34375  45.8333333333333 27.578125  45.8333333333333 27.8645833333333  L 45.8333333333333 36.5885416666667  L 40.7552083333333 36.5885416666667  L 40.7552083333333 27.8645833333333  C 40.7552083333333 27.578125  40.5208333333333 27.34375  40.234375 27  L 27.8645833333333 27  C 27.578125 27.34375  27.34375 27.578125  27 27.8645833333333  L 27 49.4791666666667  C 27.34375 49.765625  27.578125 50  27.8645833333333 50  L 30.9895833333333 50  C 31.2760416666667 50  31.5104166666667 49.765625  31 49.4791666666667  L 31 33.59375  L 36.5885416666667 33.59375  L 36.5885416666667 40.234375  C 36.5885416666667 40.5208333333333  36.8229166666667 40.7552083333333  37.109375 40  L 49.4791666666667 40  C 49.765625 40.7552083333333  50 40.5208333333333  50 40.234375  L 50 27.8645833333333  Z M 40.7552083333333 46.3541666666667  C 40.7552083333333 46.0677083333333  40.5208333333333 45.8333333333333  40.234375 45.8333333333333  L 37.109375 45.8333333333333  C 36.8229166666667 45.8333333333333  36.5885416666667 46.0677083333333  36.5885416666667 46.3541666666667  L 36.5885416666667 49.4791666666667  C 36.5885416666667 49.765625  36.8229166666667 50  37.109375 50  L 40.234375 50  C 40.5208333333333 50  40.7552083333333 49.765625  40.7552083333333 49.4791666666667  L 40.7552083333333 46.3541666666667  Z M 50 46.3541666666667  C 50 46.0677083333333  49.765625 45.8333333333333  49.4791666666667 45.8333333333333  L 46.3541666666667 45.8333333333333  C 46.0677083333333 45.8333333333333  45.8333333333333 46.0677083333333  45.8333333333333 46.3541666666667  L 45.8333333333333 49.4791666666667  C 45.8333333333333 49.765625  46.0677083333333 50  46.3541666666667 50  L 49.4791666666667 50  C 49.765625 50  50 49.765625  50 49.4791666666667  L 50 46.3541666666667  Z " fill-rule="nonzero" fill="#666666" stroke="none" transform="matrix(1 0 0 1 90 605 )" />
  </g>
</svg>