<?xml version="1.0" encoding="utf-8"?>
<svg version="1.1" xmlns:xlink="http://www.w3.org/1999/xlink" width="21px" height="24px" xmlns="http://www.w3.org/2000/svg">
  <g transform="matrix(1 0 0 1 -13 -16 )">
    <path d="M 20.0357142857143 9.83303571428571  C 20.0357142857143 8.51517857142857  19.7705357142857 7.23482142857143  19.2482142857143 6.02946428571429  C 18.7446428571429 4.86696428571429  18.0241071428571 3.825  17.1080357142857 2.93035714285714  C 16.1919642857143 2.03571428571428  15.1285714285714 1.33660714285714  13.9419642857143 0.846428571428572  C 12.7151785714286 0.337499999999999  11.4133928571429 0.0803571428571424  10.0714285714286 0.0803571428571424  C 8.72946428571428 0.0803571428571424  7.42767857142857 0.337499999999999  6.20089285714285 0.84375  C 5.01428571428571 1.33392857142857  3.95089285714286 2.03571428571428  3.03482142857143 2.92767857142857  C 2.11875 3.82232142857143  1.39821428571429 4.86696428571429  0.894642857142856 6.02678571428572  C 0.372321428571428 7.23214285714286  0.107142857142858 8.5125  0.107142857142858 9.83035714285714  C 0.107142857142858 11.7214285714286  0.559821428571428 13.6044642857143  1.44910714285714 15.4205357142857  C 2.16428571428571 16.8803571428571  3.16339285714286 18.3026785714286  4.42232142857143 19.6553571428571  C 6.57321428571429 21.9642857142857  8.82857142857143 23.3758928571429  9.46875 23.7535714285714  C 9.65357142857142 23.8633928571429  9.8625 23.9169642857143  10.06875 23.9169642857143  C 10.2776785714286 23.9169642857143  10.4839285714286 23.8633928571429  10.66875 23.7535714285714  C 11.3089285714286 23.3758928571429  13.5642857142857 21.9642857142857  15.7151785714286 19.6553571428571  C 16.9741071428571 18.3053571428571  17.9732142857143 16.8803571428571  18.6883928571429 15.4205357142857  C 19.5830357142857 13.6071428571429  20.0357142857143 11.7267857142857  20.0357142857143 9.83303571428571  Z M 18.1071428571429 9.83303571428571  C 18.1071428571429 16.2964285714286  11.8366071428571 20.7401785714286  10.0714285714286 21.8625  C 8.30625 20.7401785714286  2.03571428571428 16.2964285714286  2.03571428571428 9.83303571428571  C 2.03571428571428 7.74642857142857  2.86875 5.78571428571428  4.38214285714286 4.30714285714286  C 5.90089285714286 2.82589285714286  7.92053571428571 2.00892857142857  10.0714285714286 2.00892857142857  C 12.2223214285714 2.00892857142857  14.2419642857143 2.82589285714286  15.7607142857143 4.30982142857143  C 17.2741071428571 5.78571428571428  18.1071428571429 7.74642857142857  18.1071428571429 9.83303571428571  Z M 14.7857142857143 10.0446428571429  C 14.7857142857143 7.44107142857143  12.675 5.33035714285714  10.0714285714286 5.33035714285714  C 7.46785714285714 5.33035714285714  5.35714285714285 7.44107142857143  5.35714285714285 10.0446428571429  C 5.35714285714285 12.6482142857143  7.46785714285714 14.7589285714286  10.0714285714286 14.7589285714286  C 12.675 14.7589285714286  14.7857142857143 12.6482142857143  14.7857142857143 10.0446428571429  Z M 13.0714285714286 10.0446428571429  C 13.0714285714286 10.8455357142857  12.7607142857143 11.5982142857143  12.1928571428571 12.1660714285714  C 11.625 12.73125  10.8723214285714 13.0446428571429  10.0714285714286 13.0446428571429  C 9.27053571428571 13.0446428571429  8.51785714285714 12.73125  7.95 12.1660714285714  C 7.38482142857143 11.5982142857143  7.07142857142857 10.8455357142857  7.07142857142857 10.0446428571429  C 7.07142857142857 9.24375  7.38482142857143 8.49107142857143  7.95 7.92321428571429  C 8.51785714285714 7.35535714285714  9.27053571428571 7.04464285714286  10.0714285714286 7.04464285714286  C 10.8723214285714 7.04464285714286  11.625 7.35535714285714  12.1928571428571 7.92321428571429  C 12.7607142857143 8.49107142857143  13.0714285714286 9.24375  13.0714285714286 10.0446428571429  Z " fill-rule="nonzero" fill="#666666" stroke="none" transform="matrix(1 0 0 1 13 16 )" />
  </g>
</svg>