<?xml version="1.0" encoding="utf-8"?>
<svg version="1.1" xmlns:xlink="http://www.w3.org/1999/xlink" width="229px" height="46px" xmlns="http://www.w3.org/2000/svg">
  <g transform="matrix(1 0 0 1 -105 -159 )">
    <path d="M 117.084892584893 204.5  C 117.084892584893 204.5  117.084892584893 190.479823535462  117.084892584893 190.479823535462  C 117.084892584893 190.479823535462  105.773823977426 177.767833817105  105.773823977426 177.767833817105  C 105.773823977426 177.767833817105  117.084892584893 170.952549502352  117.084892584893 170.952549502352  C 117.084892584893 170.952549502352  117.084892584893 159.5  117.084892584893 159.5  C 117.084892584893 159.5  333.5 159.5  333.5 159.5  C 333.5 159.5  333.5 204.5  333.5 204.5  C 333.5 204.5  117.084892584893 204.5  117.084892584893 204.5  Z " fill-rule="nonzero" fill="#ffffff" stroke="none" />
    <path d="M 116.584892584893 205  C 116.584892584893 205  116.584892584893 190.670068027211  116.584892584893 190.670068027211  C 116.584892584893 190.670068027211  105 177.650340136054  105 177.650340136054  C 105 177.650340136054  116.584892584893 170.670068027211  116.584892584893 170.670068027211  C 116.584892584893 170.670068027211  116.584892584893 159  116.584892584893 159  C 116.584892584893 159  334 159  334 159  C 334 159  334 205  334 205  C 334 205  116.584892584893 205  116.584892584893 205  Z M 117.584892584893 204  C 117.584892584893 204  333 204  333 204  C 333 204  333 160  333 160  C 333 160  117.584892584893 160  117.584892584893 160  C 117.584892584893 160  117.584892584893 171.235030977494  117.584892584893 171.235030977494  C 117.584892584893 171.235030977494  106.547647954851 177.885327498156  106.547647954851 177.885327498156  C 106.547647954851 177.885327498156  117.584892584893 190.289579043713  117.584892584893 190.289579043713  C 117.584892584893 190.289579043713  117.584892584893 204  117.584892584893 204  Z " fill-rule="nonzero" fill="#ebebeb" stroke="none" />
  </g>
</svg>