<?xml version="1.0" encoding="utf-8"?>
<svg version="1.1" xmlns:xlink="http://www.w3.org/1999/xlink" width="12px" height="12px" viewBox="115 194  12 12" xmlns="http://www.w3.org/2000/svg">
  <path d="M 121 194  C 124.36 194  127 196.64  127 200  C 127 203.36  124.36 206  121 206  C 117.64 206  115 203.36  115 200  C 115 196.64  117.64 194  121 194  Z " fill-rule="nonzero" fill="#ffffff" stroke="none" />
  <path d="M 121 194.5  C 124.08 194.5  126.5 196.92  126.5 200  C 126.5 203.08  124.08 205.5  121 205.5  C 117.92 205.5  115.5 203.08  115.5 200  C 115.5 196.92  117.92 194.5  121 194.5  Z " stroke-width="1" stroke="#797979" fill="none" />
  <path d="M 121 203  C 119.32 203  118 201.68  118 200  C 118 198.32  119.32 197  121 197  C 122.68 197  124 198.32  124 200  C 124 201.68  122.68 203  121 203  " fill-rule="nonzero" fill="#797979" stroke="none" />
</svg>