<?xml version="1.0" encoding="utf-8"?>
<svg version="1.1" xmlns:xlink="http://www.w3.org/1999/xlink" width="12px" height="12px" viewBox="115 227  12 12" xmlns="http://www.w3.org/2000/svg">
  <path d="M 121 227  C 124.36 227  127 229.64  127 233  C 127 236.36  124.36 239  121 239  C 117.64 239  115 236.36  115 233  C 115 229.64  117.64 227  121 227  Z " fill-rule="nonzero" fill="#ffffff" stroke="none" />
  <path d="M 121 227.5  C 124.08 227.5  126.5 229.92  126.5 233  C 126.5 236.08  124.08 238.5  121 238.5  C 117.92 238.5  115.5 236.08  115.5 233  C 115.5 229.92  117.92 227.5  121 227.5  Z " stroke-width="1" stroke="#797979" fill="none" />
  <path d="M 121 236  C 119.32 236  118 234.68  118 233  C 118 231.32  119.32 230  121 230  C 122.68 230  124 231.32  124 233  C 124 234.68  122.68 236  121 236  " fill-rule="nonzero" fill="#797979" stroke="none" />
</svg>